<svg width="1920" height="1191" viewBox="0 0 1920 1191" fill="none" xmlns="http://www.w3.org/2000/svg">
<circle cx="1842" cy="914" r="196" fill="url(#paint0_radial)"/>
<circle cx="536" cy="345" r="196" fill="url(#paint1_radial)"/>
<circle cx="190" cy="918" r="196" fill="url(#paint2_radial)"/>
<path d="M250 978V1022L288.089 1044L326.178 1022V978L288.089 956L250 978Z" fill="#FCFCFC"/>
<path d="M166 978V1022L204.089 1044L242.178 1022V978L204.089 956L166 978Z" fill="#FCFCFC"/>
<path d="M82 978V1022L120.089 1044L158.178 1022V978L120.089 956L82 978Z" fill="#FCFCFC"/>
<path d="M-2 978V1022L36.0892 1044L74.1783 1022V978L36.0892 956L-2 978Z" fill="#FCFCFC"/>
<path d="M334 978V1022L372.089 1044L410.178 1022V978L372.089 956L334 978Z" fill="#FCFCFC"/>
<path d="M670 978V1022L708.089 1044L746.178 1022V978L708.089 956L670 978Z" fill="#FCFCFC"/>
<path d="M586 978V1022L624.089 1044L662.178 1022V978L624.089 956L586 978Z" fill="#FCFCFC"/>
<path d="M754 978V1022L792.089 1044L830.165 1022V978L792.089 956L754 978Z" fill="#FCFCFC"/>
<path d="M838 978V1022L876.089 1044L914.178 1022V978L876.089 956L838 978Z" fill="#FCFCFC"/>
<path d="M922 978V1022L960.089 1044L998.178 1022V978L960.089 956L922 978Z" fill="#FCFCFC"/>
<path d="M1006 978V1022L1044.09 1044L1082.18 1022V978L1044.09 956L1006 978Z" fill="#FCFCFC"/>
<path d="M1090 978V1022L1128.09 1044L1166.18 1022V978L1128.09 956L1090 978Z" fill="#FCFCFC"/>
<path d="M1174 978V1022L1212.09 1044L1250.18 1022V978L1212.09 956L1174 978Z" fill="#FCFCFC"/>
<path d="M1258 978V1022L1296.09 1044L1334.18 1022V978L1296.09 956L1258 978Z" fill="#FCFCFC"/>
<path d="M1342 978V1022L1380.09 1044L1418.18 1022V978L1380.09 956L1342 978Z" fill="#FCFCFC"/>
<path d="M1426 978V1022L1464.09 1044L1502.18 1022V978L1464.09 956L1426 978Z" fill="#FCFCFC"/>
<path d="M1510 978V1022L1548.09 1044L1586.18 1022V978L1548.09 956L1510 978Z" fill="#FCFCFC"/>
<path d="M1594 978V1022L1632.09 1044L1670.18 1022V978L1632.09 956L1594 978Z" fill="#FCFCFC"/>
<path d="M1678 978V1022L1716.09 1044L1754.18 1022V978L1716.09 956L1678 978Z" fill="#FCFCFC"/>
<path d="M1762 978V1022L1800.09 1044L1838.18 1022V978L1800.09 956L1762 978Z" fill="#FCFCFC"/>
<path d="M1846 978V1022L1884.09 1044L1922.18 1022V978L1884.09 956L1846 978Z" fill="#FCFCFC"/>
<path d="M502 978V1022L540.089 1044L578.178 1022V978L540.089 956L502 978Z" fill="#FCFCFC"/>
<path d="M418 978V1022L456.089 1044L494.178 1022V978L456.089 956L418 978Z" fill="#FCFCFC"/>
<path d="M292 904V948L330.089 970L368.178 948V904L330.089 882L292 904Z" fill="#FCFCFC"/>
<path d="M208 904V948L246.089 970L284.178 948V904L246.089 882L208 904Z" fill="#FCFCFC"/>
<path d="M124 904V948L162.089 970L200.178 948V904L162.089 882L124 904Z" fill="#FCFCFC"/>
<path d="M40 904V948L78.0892 970L116.178 948V904L78.0892 882L40 904Z" fill="#FCFCFC"/>
<path d="M-44 904V948L-5.91084 970L32.1783 948V904L-5.91084 882L-44 904Z" fill="#FCFCFC"/>
<path d="M376 904V948L414.089 970L452.178 948V904L414.089 882L376 904Z" fill="#FCFCFC"/>
<path d="M712 904V948L750.089 970L788.178 948V904L750.089 882L712 904Z" fill="#FCFCFC"/>
<path d="M628 904V948L666.089 970L704.178 948V904L666.089 882L628 904Z" fill="#FCFCFC"/>
<path d="M796 904V948L834.089 970L872.165 948V904L834.089 882L796 904Z" fill="#FCFCFC"/>
<path d="M880 904V948L918.089 970L956.178 948V904L918.089 882L880 904Z" fill="#FCFCFC"/>
<path d="M964 904V948L1002.09 970L1040.18 948V904L1002.09 882L964 904Z" fill="#FCFCFC"/>
<path d="M1048 904V948L1086.09 970L1124.18 948V904L1086.09 882L1048 904Z" fill="#FCFCFC"/>
<path d="M1132 904V948L1170.09 970L1208.18 948V904L1170.09 882L1132 904Z" fill="#FCFCFC"/>
<path d="M1216 904V948L1254.09 970L1292.18 948V904L1254.09 882L1216 904Z" fill="#FCFCFC"/>
<path d="M1300 904V948L1338.09 970L1376.18 948V904L1338.09 882L1300 904Z" fill="#FCFCFC"/>
<path d="M1384 904V948L1422.09 970L1460.18 948V904L1422.09 882L1384 904Z" fill="#FCFCFC"/>
<path d="M1468 904V948L1506.09 970L1544.18 948V904L1506.09 882L1468 904Z" fill="#FCFCFC"/>
<path d="M1552 904V948L1590.09 970L1628.18 948V904L1590.09 882L1552 904Z" fill="#FCFCFC"/>
<path d="M1636 904V948L1674.09 970L1712.18 948V904L1674.09 882L1636 904Z" fill="#FCFCFC"/>
<path d="M1720 904V948L1758.09 970L1796.18 948V904L1758.09 882L1720 904Z" fill="#FCFCFC"/>
<path d="M1804 904V948L1842.09 970L1880.18 948V904L1842.09 882L1804 904Z" fill="#FCFCFC"/>
<path d="M1888 904V948L1926.09 970L1964.18 948V904L1926.09 882L1888 904Z" fill="#FCFCFC"/>
<path d="M544 904V948L582.089 970L620.178 948V904L582.089 882L544 904Z" fill="#FCFCFC"/>
<path d="M460 904V948L498.089 970L536.178 948V904L498.089 882L460 904Z" fill="#FCFCFC"/>
<path d="M250 1125V1169L288.089 1191L326.178 1169V1125L288.089 1103L250 1125Z" fill="#FCFCFC"/>
<path d="M166 1125V1169L204.089 1191L242.178 1169V1125L204.089 1103L166 1125Z" fill="#FCFCFC"/>
<path d="M82 1125V1169L120.089 1191L158.178 1169V1125L120.089 1103L82 1125Z" fill="#FCFCFC"/>
<path d="M-2 1125V1169L36.0892 1191L74.1783 1169V1125L36.0892 1103L-2 1125Z" fill="#FCFCFC"/>
<path d="M334 1125V1169L372.089 1191L410.178 1169V1125L372.089 1103L334 1125Z" fill="#FCFCFC"/>
<path d="M670 1125V1169L708.089 1191L746.178 1169V1125L708.089 1103L670 1125Z" fill="#FCFCFC"/>
<path d="M586 1125V1169L624.089 1191L662.178 1169V1125L624.089 1103L586 1125Z" fill="#FCFCFC"/>
<path d="M754 1125V1169L792.089 1191L830.165 1169V1125L792.089 1103L754 1125Z" fill="#FCFCFC"/>
<path d="M838 1125V1169L876.089 1191L914.178 1169V1125L876.089 1103L838 1125Z" fill="#FCFCFC"/>
<path d="M922 1125V1169L960.089 1191L998.178 1169V1125L960.089 1103L922 1125Z" fill="#FCFCFC"/>
<path d="M1006 1125V1169L1044.09 1191L1082.18 1169V1125L1044.09 1103L1006 1125Z" fill="#FCFCFC"/>
<path d="M1090 1125V1169L1128.09 1191L1166.18 1169V1125L1128.09 1103L1090 1125Z" fill="#FCFCFC"/>
<path d="M1174 1125V1169L1212.09 1191L1250.18 1169V1125L1212.09 1103L1174 1125Z" fill="#FCFCFC"/>
<path d="M1258 1125V1169L1296.09 1191L1334.18 1169V1125L1296.09 1103L1258 1125Z" fill="#FCFCFC"/>
<path d="M1342 1125V1169L1380.09 1191L1418.18 1169V1125L1380.09 1103L1342 1125Z" fill="#FCFCFC"/>
<path d="M1426 1125V1169L1464.09 1191L1502.18 1169V1125L1464.09 1103L1426 1125Z" fill="#FCFCFC"/>
<path d="M1510 1125V1169L1548.09 1191L1586.18 1169V1125L1548.09 1103L1510 1125Z" fill="#FCFCFC"/>
<path d="M1594 1125V1169L1632.09 1191L1670.18 1169V1125L1632.09 1103L1594 1125Z" fill="#FCFCFC"/>
<path d="M1678 1125V1169L1716.09 1191L1754.18 1169V1125L1716.09 1103L1678 1125Z" fill="#FCFCFC"/>
<path d="M1762 1125V1169L1800.09 1191L1838.18 1169V1125L1800.09 1103L1762 1125Z" fill="#FCFCFC"/>
<path d="M1846 1125V1169L1884.09 1191L1922.18 1169V1125L1884.09 1103L1846 1125Z" fill="#FCFCFC"/>
<path d="M502 1125V1169L540.089 1191L578.178 1169V1125L540.089 1103L502 1125Z" fill="#FCFCFC"/>
<path d="M418 1125V1169L456.089 1191L494.178 1169V1125L456.089 1103L418 1125Z" fill="#FCFCFC"/>
<path d="M292 1051V1095L330.089 1117L368.178 1095V1051L330.089 1029L292 1051Z" fill="#FCFCFC"/>
<path d="M208 1051V1095L246.089 1117L284.178 1095V1051L246.089 1029L208 1051Z" fill="#FCFCFC"/>
<path d="M124 1051V1095L162.089 1117L200.178 1095V1051L162.089 1029L124 1051Z" fill="#FCFCFC"/>
<path d="M40 1051V1095L78.0892 1117L116.178 1095V1051L78.0892 1029L40 1051Z" fill="#FCFCFC"/>
<path d="M-44 1051V1095L-5.91084 1117L32.1783 1095V1051L-5.91084 1029L-44 1051Z" fill="#FCFCFC"/>
<path d="M376 1051V1095L414.089 1117L452.178 1095V1051L414.089 1029L376 1051Z" fill="#FCFCFC"/>
<path d="M712 1051V1095L750.089 1117L788.178 1095V1051L750.089 1029L712 1051Z" fill="#FCFCFC"/>
<path d="M628 1051V1095L666.089 1117L704.178 1095V1051L666.089 1029L628 1051Z" fill="#FCFCFC"/>
<path d="M796 1051V1095L834.089 1117L872.165 1095V1051L834.089 1029L796 1051Z" fill="#FCFCFC"/>
<path d="M880 1051V1095L918.089 1117L956.178 1095V1051L918.089 1029L880 1051Z" fill="#FCFCFC"/>
<path d="M964 1051V1095L1002.09 1117L1040.18 1095V1051L1002.09 1029L964 1051Z" fill="#FCFCFC"/>
<path d="M1048 1051V1095L1086.09 1117L1124.18 1095V1051L1086.09 1029L1048 1051Z" fill="#FCFCFC"/>
<path d="M1132 1051V1095L1170.09 1117L1208.18 1095V1051L1170.09 1029L1132 1051Z" fill="#FCFCFC"/>
<path d="M1216 1051V1095L1254.09 1117L1292.18 1095V1051L1254.09 1029L1216 1051Z" fill="#FCFCFC"/>
<path d="M1300 1051V1095L1338.09 1117L1376.18 1095V1051L1338.09 1029L1300 1051Z" fill="#FCFCFC"/>
<path d="M1384 1051V1095L1422.09 1117L1460.18 1095V1051L1422.09 1029L1384 1051Z" fill="#FCFCFC"/>
<path d="M1468 1051V1095L1506.09 1117L1544.18 1095V1051L1506.09 1029L1468 1051Z" fill="#FCFCFC"/>
<path d="M1552 1051V1095L1590.09 1117L1628.18 1095V1051L1590.09 1029L1552 1051Z" fill="#FCFCFC"/>
<path d="M1636 1051V1095L1674.09 1117L1712.18 1095V1051L1674.09 1029L1636 1051Z" fill="#FCFCFC"/>
<path d="M1720 1051V1095L1758.09 1117L1796.18 1095V1051L1758.09 1029L1720 1051Z" fill="#FCFCFC"/>
<path d="M1804 1051V1095L1842.09 1117L1880.18 1095V1051L1842.09 1029L1804 1051Z" fill="#FCFCFC"/>
<path d="M1888 1051V1095L1926.09 1117L1964.18 1095V1051L1926.09 1029L1888 1051Z" fill="#FCFCFC"/>
<path d="M544 1051V1095L582.089 1117L620.178 1095V1051L582.089 1029L544 1051Z" fill="#FCFCFC"/>
<path d="M460 1051V1095L498.089 1117L536.178 1095V1051L498.089 1029L460 1051Z" fill="#FCFCFC"/>
<path d="M250 831V875L288.089 897L326.178 875V831L288.089 809L250 831Z" fill="#FCFCFC"/>
<path d="M166 831V875L204.089 897L242.178 875V831L204.089 809L166 831Z" fill="#FCFCFC"/>
<path d="M82 831V875L120.089 897L158.178 875V831L120.089 809L82 831Z" fill="#FCFCFC"/>
<path d="M-2 831V875L36.0892 897L74.1783 875V831L36.0892 809L-2 831Z" fill="#FCFCFC"/>
<path d="M334 831V875L372.089 897L410.178 875V831L372.089 809L334 831Z" fill="#FCFCFC"/>
<path d="M670 831V875L708.089 897L746.178 875V831L708.089 809L670 831Z" fill="#FCFCFC"/>
<path d="M586 831V875L624.089 897L662.178 875V831L624.089 809L586 831Z" fill="#FCFCFC"/>
<path d="M754 831V875L792.089 897L830.165 875V831L792.089 809L754 831Z" fill="#FCFCFC"/>
<path d="M838 831V875L876.089 897L914.178 875V831L876.089 809L838 831Z" fill="#FCFCFC"/>
<path d="M922 831V875L960.089 897L998.178 875V831L960.089 809L922 831Z" fill="#FCFCFC"/>
<path d="M1006 831V875L1044.09 897L1082.18 875V831L1044.09 809L1006 831Z" fill="#FCFCFC"/>
<path d="M1090 831V875L1128.09 897L1166.18 875V831L1128.09 809L1090 831Z" fill="#FCFCFC"/>
<path d="M1174 831V875L1212.09 897L1250.18 875V831L1212.09 809L1174 831Z" fill="#FCFCFC"/>
<path d="M1258 831V875L1296.09 897L1334.18 875V831L1296.09 809L1258 831Z" fill="#FCFCFC"/>
<path d="M1342 831V875L1380.09 897L1418.18 875V831L1380.09 809L1342 831Z" fill="#FCFCFC"/>
<path d="M1426 831V875L1464.09 897L1502.18 875V831L1464.09 809L1426 831Z" fill="#FCFCFC"/>
<path d="M1510 831V875L1548.09 897L1586.18 875V831L1548.09 809L1510 831Z" fill="#FCFCFC"/>
<path d="M1594 831V875L1632.09 897L1670.18 875V831L1632.09 809L1594 831Z" fill="#FCFCFC"/>
<path d="M1678 831V875L1716.09 897L1754.18 875V831L1716.09 809L1678 831Z" fill="#FCFCFC"/>
<path d="M1762 831V875L1800.09 897L1838.18 875V831L1800.09 809L1762 831Z" fill="#FCFCFC"/>
<path d="M1846 831V875L1884.09 897L1922.18 875V831L1884.09 809L1846 831Z" fill="#FCFCFC"/>
<path d="M502 831V875L540.089 897L578.178 875V831L540.089 809L502 831Z" fill="#FCFCFC"/>
<path d="M418 831V875L456.089 897L494.178 875V831L456.089 809L418 831Z" fill="#FCFCFC"/>
<path d="M292 757V801L330.089 823L368.178 801V757L330.089 735L292 757Z" fill="#FCFCFC"/>
<path d="M208 757V801L246.089 823L284.178 801V757L246.089 735L208 757Z" fill="#FCFCFC"/>
<path d="M124 757V801L162.089 823L200.178 801V757L162.089 735L124 757Z" fill="#FCFCFC"/>
<path d="M40 757V801L78.0892 823L116.178 801V757L78.0892 735L40 757Z" fill="#FCFCFC"/>
<path d="M-44 757V801L-5.91084 823L32.1783 801V757L-5.91084 735L-44 757Z" fill="#FCFCFC"/>
<path d="M376 757V801L414.089 823L452.178 801V757L414.089 735L376 757Z" fill="#FCFCFC"/>
<path d="M712 757V801L750.089 823L788.178 801V757L750.089 735L712 757Z" fill="#FCFCFC"/>
<path d="M628 757V801L666.089 823L704.178 801V757L666.089 735L628 757Z" fill="#FCFCFC"/>
<path d="M796 757V801L834.089 823L872.165 801V757L834.089 735L796 757Z" fill="#FCFCFC"/>
<path d="M880 757V801L918.089 823L956.178 801V757L918.089 735L880 757Z" fill="#FCFCFC"/>
<path d="M964 757V801L1002.09 823L1040.18 801V757L1002.09 735L964 757Z" fill="#FCFCFC"/>
<path d="M1048 757V801L1086.09 823L1124.18 801V757L1086.09 735L1048 757Z" fill="#FCFCFC"/>
<path d="M1132 757V801L1170.09 823L1208.18 801V757L1170.09 735L1132 757Z" fill="#FCFCFC"/>
<path d="M1216 757V801L1254.09 823L1292.18 801V757L1254.09 735L1216 757Z" fill="#FCFCFC"/>
<path d="M1300 757V801L1338.09 823L1376.18 801V757L1338.09 735L1300 757Z" fill="#FCFCFC"/>
<path d="M1384 757V801L1422.09 823L1460.18 801V757L1422.09 735L1384 757Z" fill="#FCFCFC"/>
<path d="M1468 757V801L1506.09 823L1544.18 801V757L1506.09 735L1468 757Z" fill="#FCFCFC"/>
<path d="M1552 757V801L1590.09 823L1628.18 801V757L1590.09 735L1552 757Z" fill="#FCFCFC"/>
<path d="M1636 757V801L1674.09 823L1712.18 801V757L1674.09 735L1636 757Z" fill="#FCFCFC"/>
<path d="M1720 757V801L1758.09 823L1796.18 801V757L1758.09 735L1720 757Z" fill="#FCFCFC"/>
<path d="M1804 757V801L1842.09 823L1880.18 801V757L1842.09 735L1804 757Z" fill="#FCFCFC"/>
<path d="M1888 757V801L1926.09 823L1964.18 801V757L1926.09 735L1888 757Z" fill="#FCFCFC"/>
<path d="M544 757V801L582.089 823L620.178 801V757L582.089 735L544 757Z" fill="#FCFCFC"/>
<path d="M460 757V801L498.089 823L536.178 801V757L498.089 735L460 757Z" fill="#FCFCFC"/>
<path d="M250 684V728L288.089 750L326.178 728V684L288.089 662L250 684Z" fill="#FCFCFC"/>
<path d="M166 684V728L204.089 750L242.178 728V684L204.089 662L166 684Z" fill="#FCFCFC"/>
<path d="M82 684V728L120.089 750L158.178 728V684L120.089 662L82 684Z" fill="#FCFCFC"/>
<path d="M-2 684V728L36.0892 750L74.1783 728V684L36.0892 662L-2 684Z" fill="#FCFCFC"/>
<path d="M334 684V728L372.089 750L410.178 728V684L372.089 662L334 684Z" fill="#FCFCFC"/>
<path d="M670 684V728L708.089 750L746.178 728V684L708.089 662L670 684Z" fill="#FCFCFC"/>
<path d="M586 684V728L624.089 750L662.178 728V684L624.089 662L586 684Z" fill="#FCFCFC"/>
<path d="M754 684V728L792.089 750L830.165 728V684L792.089 662L754 684Z" fill="#FCFCFC"/>
<path d="M838 684V728L876.089 750L914.178 728V684L876.089 662L838 684Z" fill="#FCFCFC"/>
<path d="M922 684V728L960.089 750L998.178 728V684L960.089 662L922 684Z" fill="#FCFCFC"/>
<path d="M1006 684V728L1044.09 750L1082.18 728V684L1044.09 662L1006 684Z" fill="#FCFCFC"/>
<path d="M1090 684V728L1128.09 750L1166.18 728V684L1128.09 662L1090 684Z" fill="#FCFCFC"/>
<path d="M1174 684V728L1212.09 750L1250.18 728V684L1212.09 662L1174 684Z" fill="#FCFCFC"/>
<path d="M1258 684V728L1296.09 750L1334.18 728V684L1296.09 662L1258 684Z" fill="#FCFCFC"/>
<path d="M1342 684V728L1380.09 750L1418.18 728V684L1380.09 662L1342 684Z" fill="#FCFCFC"/>
<path d="M1426 684V728L1464.09 750L1502.18 728V684L1464.09 662L1426 684Z" fill="#FCFCFC"/>
<path d="M1510 684V728L1548.09 750L1586.18 728V684L1548.09 662L1510 684Z" fill="#FCFCFC"/>
<path d="M1594 684V728L1632.09 750L1670.18 728V684L1632.09 662L1594 684Z" fill="#FCFCFC"/>
<path d="M1678 684V728L1716.09 750L1754.18 728V684L1716.09 662L1678 684Z" fill="#FCFCFC"/>
<path d="M1762 684V728L1800.09 750L1838.18 728V684L1800.09 662L1762 684Z" fill="#FCFCFC"/>
<path d="M1846 684V728L1884.09 750L1922.18 728V684L1884.09 662L1846 684Z" fill="#FCFCFC"/>
<path d="M502 684V728L540.089 750L578.178 728V684L540.089 662L502 684Z" fill="#FCFCFC"/>
<path d="M418 684V728L456.089 750L494.178 728V684L456.089 662L418 684Z" fill="#FCFCFC"/>
<path d="M292 610V654L330.089 676L368.178 654V610L330.089 588L292 610Z" fill="#FCFCFC"/>
<path d="M208 610V654L246.089 676L284.178 654V610L246.089 588L208 610Z" fill="#FCFCFC"/>
<path d="M124 610V654L162.089 676L200.178 654V610L162.089 588L124 610Z" fill="#FCFCFC"/>
<path d="M40 610V654L78.0892 676L116.178 654V610L78.0892 588L40 610Z" fill="#FCFCFC"/>
<path d="M-44 610V654L-5.91084 676L32.1783 654V610L-5.91084 588L-44 610Z" fill="#FCFCFC"/>
<path d="M376 610V654L414.089 676L452.178 654V610L414.089 588L376 610Z" fill="#FCFCFC"/>
<path d="M712 610V654L750.089 676L788.178 654V610L750.089 588L712 610Z" fill="#FCFCFC"/>
<path d="M628 610V654L666.089 676L704.178 654V610L666.089 588L628 610Z" fill="#FCFCFC"/>
<path d="M796 610V654L834.089 676L872.165 654V610L834.089 588L796 610Z" fill="#FCFCFC"/>
<path d="M880 610V654L918.089 676L956.178 654V610L918.089 588L880 610Z" fill="#FCFCFC"/>
<path d="M964 610V654L1002.09 676L1040.18 654V610L1002.09 588L964 610Z" fill="#FCFCFC"/>
<path d="M1048 610V654L1086.09 676L1124.18 654V610L1086.09 588L1048 610Z" fill="#FCFCFC"/>
<path d="M1132 610V654L1170.09 676L1208.18 654V610L1170.09 588L1132 610Z" fill="#FCFCFC"/>
<path d="M1216 610V654L1254.09 676L1292.18 654V610L1254.09 588L1216 610Z" fill="#FCFCFC"/>
<path d="M1300 610V654L1338.09 676L1376.18 654V610L1338.09 588L1300 610Z" fill="#FCFCFC"/>
<path d="M1384 610V654L1422.09 676L1460.18 654V610L1422.09 588L1384 610Z" fill="#FCFCFC"/>
<path d="M1468 610V654L1506.09 676L1544.18 654V610L1506.09 588L1468 610Z" fill="#FCFCFC"/>
<path d="M1552 610V654L1590.09 676L1628.18 654V610L1590.09 588L1552 610Z" fill="#FCFCFC"/>
<path d="M1636 610V654L1674.09 676L1712.18 654V610L1674.09 588L1636 610Z" fill="#FCFCFC"/>
<path d="M1720 610V654L1758.09 676L1796.18 654V610L1758.09 588L1720 610Z" fill="#FCFCFC"/>
<path d="M1804 610V654L1842.09 676L1880.18 654V610L1842.09 588L1804 610Z" fill="#FCFCFC"/>
<path d="M1888 610V654L1926.09 676L1964.18 654V610L1926.09 588L1888 610Z" fill="#FCFCFC"/>
<path d="M544 610V654L582.089 676L620.178 654V610L582.089 588L544 610Z" fill="#FCFCFC"/>
<path d="M460 610V654L498.089 676L536.178 654V610L498.089 588L460 610Z" fill="#FCFCFC"/>
<path d="M250 537V581L288.089 603L326.178 581V537L288.089 515L250 537Z" fill="#FCFCFC"/>
<path d="M166 537V581L204.089 603L242.178 581V537L204.089 515L166 537Z" fill="#FCFCFC"/>
<path d="M82 537V581L120.089 603L158.178 581V537L120.089 515L82 537Z" fill="#FCFCFC"/>
<path d="M-2 537V581L36.0892 603L74.1783 581V537L36.0892 515L-2 537Z" fill="#FCFCFC"/>
<path d="M334 537V581L372.089 603L410.178 581V537L372.089 515L334 537Z" fill="#FCFCFC"/>
<path d="M670 537V581L708.089 603L746.178 581V537L708.089 515L670 537Z" fill="#FCFCFC"/>
<path d="M586 537V581L624.089 603L662.178 581V537L624.089 515L586 537Z" fill="#FCFCFC"/>
<path d="M754 537V581L792.089 603L830.165 581V537L792.089 515L754 537Z" fill="#FCFCFC"/>
<path d="M838 537V581L876.089 603L914.178 581V537L876.089 515L838 537Z" fill="#FCFCFC"/>
<path d="M922 537V581L960.089 603L998.178 581V537L960.089 515L922 537Z" fill="#FCFCFC"/>
<path d="M1006 537V581L1044.09 603L1082.18 581V537L1044.09 515L1006 537Z" fill="#FCFCFC"/>
<path d="M1090 537V581L1128.09 603L1166.18 581V537L1128.09 515L1090 537Z" fill="#FCFCFC"/>
<path d="M1174 537V581L1212.09 603L1250.18 581V537L1212.09 515L1174 537Z" fill="#FCFCFC"/>
<path d="M1258 537V581L1296.09 603L1334.18 581V537L1296.09 515L1258 537Z" fill="#FCFCFC"/>
<path d="M1342 537V581L1380.09 603L1418.18 581V537L1380.09 515L1342 537Z" fill="#FCFCFC"/>
<path d="M1426 537V581L1464.09 603L1502.18 581V537L1464.09 515L1426 537Z" fill="#FCFCFC"/>
<path d="M1510 537V581L1548.09 603L1586.18 581V537L1548.09 515L1510 537Z" fill="#FCFCFC"/>
<path d="M1594 537V581L1632.09 603L1670.18 581V537L1632.09 515L1594 537Z" fill="#FCFCFC"/>
<path d="M1678 537V581L1716.09 603L1754.18 581V537L1716.09 515L1678 537Z" fill="#FCFCFC"/>
<path d="M1762 537V581L1800.09 603L1838.18 581V537L1800.09 515L1762 537Z" fill="#FCFCFC"/>
<path d="M1846 537V581L1884.09 603L1922.18 581V537L1884.09 515L1846 537Z" fill="#FCFCFC"/>
<path d="M502 537V581L540.089 603L578.178 581V537L540.089 515L502 537Z" fill="#FCFCFC"/>
<path d="M418 537V581L456.089 603L494.178 581V537L456.089 515L418 537Z" fill="#FCFCFC"/>
<path d="M292 463V507L330.089 529L368.178 507V463L330.089 441L292 463Z" fill="#FCFCFC"/>
<path d="M208 463V507L246.089 529L284.178 507V463L246.089 441L208 463Z" fill="#FCFCFC"/>
<path d="M124 463V507L162.089 529L200.178 507V463L162.089 441L124 463Z" fill="#FCFCFC"/>
<path d="M40 463V507L78.0892 529L116.178 507V463L78.0892 441L40 463Z" fill="#FCFCFC"/>
<path d="M-44 463V507L-5.91084 529L32.1783 507V463L-5.91084 441L-44 463Z" fill="#FCFCFC"/>
<path d="M376 463V507L414.089 529L452.178 507V463L414.089 441L376 463Z" fill="#FCFCFC"/>
<path d="M712 463V507L750.089 529L788.178 507V463L750.089 441L712 463Z" fill="#FCFCFC"/>
<path d="M628 463V507L666.089 529L704.178 507V463L666.089 441L628 463Z" fill="#FCFCFC"/>
<path d="M796 463V507L834.089 529L872.165 507V463L834.089 441L796 463Z" fill="#FCFCFC"/>
<path d="M880 463V507L918.089 529L956.178 507V463L918.089 441L880 463Z" fill="#FCFCFC"/>
<path d="M964 463V507L1002.09 529L1040.18 507V463L1002.09 441L964 463Z" fill="#FCFCFC"/>
<path d="M1048 463V507L1086.09 529L1124.18 507V463L1086.09 441L1048 463Z" fill="#FCFCFC"/>
<path d="M1132 463V507L1170.09 529L1208.18 507V463L1170.09 441L1132 463Z" fill="#FCFCFC"/>
<path d="M1216 463V507L1254.09 529L1292.18 507V463L1254.09 441L1216 463Z" fill="#FCFCFC"/>
<path d="M1300 463V507L1338.09 529L1376.18 507V463L1338.09 441L1300 463Z" fill="#FCFCFC"/>
<path d="M1384 463V507L1422.09 529L1460.18 507V463L1422.09 441L1384 463Z" fill="#FCFCFC"/>
<path d="M1468 463V507L1506.09 529L1544.18 507V463L1506.09 441L1468 463Z" fill="#FCFCFC"/>
<path d="M1552 463V507L1590.09 529L1628.18 507V463L1590.09 441L1552 463Z" fill="#FCFCFC"/>
<path d="M1636 463V507L1674.09 529L1712.18 507V463L1674.09 441L1636 463Z" fill="#FCFCFC"/>
<path d="M1720 463V507L1758.09 529L1796.18 507V463L1758.09 441L1720 463Z" fill="#FCFCFC"/>
<path d="M1804 463V507L1842.09 529L1880.18 507V463L1842.09 441L1804 463Z" fill="#FCFCFC"/>
<path d="M1888 463V507L1926.09 529L1964.18 507V463L1926.09 441L1888 463Z" fill="#FCFCFC"/>
<path d="M544 463V507L582.089 529L620.178 507V463L582.089 441L544 463Z" fill="#FCFCFC"/>
<path d="M460 463V507L498.089 529L536.178 507V463L498.089 441L460 463Z" fill="#FCFCFC"/>
<path d="M250 390V434L288.089 456L326.178 434V390L288.089 368L250 390Z" fill="#FCFCFC"/>
<path d="M166 390V434L204.089 456L242.178 434V390L204.089 368L166 390Z" fill="#FCFCFC"/>
<path d="M82 390V434L120.089 456L158.178 434V390L120.089 368L82 390Z" fill="#FCFCFC"/>
<path d="M-2 390V434L36.0892 456L74.1783 434V390L36.0892 368L-2 390Z" fill="#FCFCFC"/>
<path d="M334 390V434L372.089 456L410.178 434V390L372.089 368L334 390Z" fill="#FCFCFC"/>
<path d="M670 390V434L708.089 456L746.178 434V390L708.089 368L670 390Z" fill="#FCFCFC"/>
<path d="M586 390V434L624.089 456L662.178 434V390L624.089 368L586 390Z" fill="#FCFCFC"/>
<path d="M754 390V434L792.089 456L830.165 434V390L792.089 368L754 390Z" fill="#FCFCFC"/>
<path d="M838 390V434L876.089 456L914.178 434V390L876.089 368L838 390Z" fill="#FCFCFC"/>
<path d="M922 390V434L960.089 456L998.178 434V390L960.089 368L922 390Z" fill="#FCFCFC"/>
<path d="M1006 390V434L1044.09 456L1082.18 434V390L1044.09 368L1006 390Z" fill="#FCFCFC"/>
<path d="M1090 390V434L1128.09 456L1166.18 434V390L1128.09 368L1090 390Z" fill="#FCFCFC"/>
<path d="M1174 390V434L1212.09 456L1250.18 434V390L1212.09 368L1174 390Z" fill="#FCFCFC"/>
<path d="M1258 390V434L1296.09 456L1334.18 434V390L1296.09 368L1258 390Z" fill="#FCFCFC"/>
<path d="M1342 390V434L1380.09 456L1418.18 434V390L1380.09 368L1342 390Z" fill="#FCFCFC"/>
<path d="M1426 390V434L1464.09 456L1502.18 434V390L1464.09 368L1426 390Z" fill="#FCFCFC"/>
<path d="M1510 390V434L1548.09 456L1586.18 434V390L1548.09 368L1510 390Z" fill="#FCFCFC"/>
<path d="M1594 390V434L1632.09 456L1670.18 434V390L1632.09 368L1594 390Z" fill="#FCFCFC"/>
<path d="M1678 390V434L1716.09 456L1754.18 434V390L1716.09 368L1678 390Z" fill="#FCFCFC"/>
<path d="M1762 390V434L1800.09 456L1838.18 434V390L1800.09 368L1762 390Z" fill="#FCFCFC"/>
<path d="M1846 390V434L1884.09 456L1922.18 434V390L1884.09 368L1846 390Z" fill="#FCFCFC"/>
<path d="M502 390V434L540.089 456L578.178 434V390L540.089 368L502 390Z" fill="#FCFCFC"/>
<path d="M418 390V434L456.089 456L494.178 434V390L456.089 368L418 390Z" fill="#FCFCFC"/>
<path d="M292 316V360L330.089 382L368.178 360V316L330.089 294L292 316Z" fill="#FCFCFC"/>
<path d="M208 316V360L246.089 382L284.178 360V316L246.089 294L208 316Z" fill="#FCFCFC"/>
<path d="M124 316V360L162.089 382L200.178 360V316L162.089 294L124 316Z" fill="#FCFCFC"/>
<path d="M40 316V360L78.0892 382L116.178 360V316L78.0892 294L40 316Z" fill="#FCFCFC"/>
<path d="M-44 316V360L-5.91084 382L32.1783 360V316L-5.91084 294L-44 316Z" fill="#FCFCFC"/>
<path d="M376 316V360L414.089 382L452.178 360V316L414.089 294L376 316Z" fill="#FCFCFC"/>
<path d="M712 316V360L750.089 382L788.178 360V316L750.089 294L712 316Z" fill="#FCFCFC"/>
<path d="M628 316V360L666.089 382L704.178 360V316L666.089 294L628 316Z" fill="#FCFCFC"/>
<path d="M796 316V360L834.089 382L872.165 360V316L834.089 294L796 316Z" fill="#FCFCFC"/>
<path d="M880 316V360L918.089 382L956.178 360V316L918.089 294L880 316Z" fill="#FCFCFC"/>
<path d="M964 316V360L1002.09 382L1040.18 360V316L1002.09 294L964 316Z" fill="#FCFCFC"/>
<path d="M1048 316V360L1086.09 382L1124.18 360V316L1086.09 294L1048 316Z" fill="#FCFCFC"/>
<path d="M1132 316V360L1170.09 382L1208.18 360V316L1170.09 294L1132 316Z" fill="#FCFCFC"/>
<path d="M1216 316V360L1254.09 382L1292.18 360V316L1254.09 294L1216 316Z" fill="#FCFCFC"/>
<path d="M1300 316V360L1338.09 382L1376.18 360V316L1338.09 294L1300 316Z" fill="#FCFCFC"/>
<path d="M1384 316V360L1422.09 382L1460.18 360V316L1422.09 294L1384 316Z" fill="#FCFCFC"/>
<path d="M1468 316V360L1506.09 382L1544.18 360V316L1506.09 294L1468 316Z" fill="#FCFCFC"/>
<path d="M1552 316V360L1590.09 382L1628.18 360V316L1590.09 294L1552 316Z" fill="#FCFCFC"/>
<path d="M1636 316V360L1674.09 382L1712.18 360V316L1674.09 294L1636 316Z" fill="#FCFCFC"/>
<path d="M1720 316V360L1758.09 382L1796.18 360V316L1758.09 294L1720 316Z" fill="#FCFCFC"/>
<path d="M1804 316V360L1842.09 382L1880.18 360V316L1842.09 294L1804 316Z" fill="#FCFCFC"/>
<path d="M1888 316V360L1926.09 382L1964.18 360V316L1926.09 294L1888 316Z" fill="#FCFCFC"/>
<path d="M544 316V360L582.089 382L620.178 360V316L582.089 294L544 316Z" fill="#FCFCFC"/>
<path d="M460 316V360L498.089 382L536.178 360V316L498.089 294L460 316Z" fill="#FCFCFC"/>
<path d="M250 243V287L288.089 309L326.178 287V243L288.089 221L250 243Z" fill="#FCFCFC"/>
<path d="M166 243V287L204.089 309L242.178 287V243L204.089 221L166 243Z" fill="#FCFCFC"/>
<path d="M82 243V287L120.089 309L158.178 287V243L120.089 221L82 243Z" fill="#FCFCFC"/>
<path d="M-2 243V287L36.0892 309L74.1783 287V243L36.0892 221L-2 243Z" fill="#FCFCFC"/>
<path d="M334 243V287L372.089 309L410.178 287V243L372.089 221L334 243Z" fill="#FCFCFC"/>
<path d="M670 243V287L708.089 309L746.178 287V243L708.089 221L670 243Z" fill="#FCFCFC"/>
<path d="M586 243V287L624.089 309L662.178 287V243L624.089 221L586 243Z" fill="#FCFCFC"/>
<path d="M754 243V287L792.089 309L830.165 287V243L792.089 221L754 243Z" fill="#FCFCFC"/>
<path d="M838 243V287L876.089 309L914.178 287V243L876.089 221L838 243Z" fill="#FCFCFC"/>
<path d="M922 243V287L960.089 309L998.178 287V243L960.089 221L922 243Z" fill="#FCFCFC"/>
<path d="M1006 243V287L1044.09 309L1082.18 287V243L1044.09 221L1006 243Z" fill="#FCFCFC"/>
<path d="M1090 243V287L1128.09 309L1166.18 287V243L1128.09 221L1090 243Z" fill="#FCFCFC"/>
<path d="M1174 243V287L1212.09 309L1250.18 287V243L1212.09 221L1174 243Z" fill="#FCFCFC"/>
<path d="M1258 243V287L1296.09 309L1334.18 287V243L1296.09 221L1258 243Z" fill="#FCFCFC"/>
<path d="M1342 243V287L1380.09 309L1418.18 287V243L1380.09 221L1342 243Z" fill="#FCFCFC"/>
<path d="M1426 243V287L1464.09 309L1502.18 287V243L1464.09 221L1426 243Z" fill="#FCFCFC"/>
<path d="M1510 243V287L1548.09 309L1586.18 287V243L1548.09 221L1510 243Z" fill="#FCFCFC"/>
<path d="M1594 243V287L1632.09 309L1670.18 287V243L1632.09 221L1594 243Z" fill="#FCFCFC"/>
<path d="M1678 243V287L1716.09 309L1754.18 287V243L1716.09 221L1678 243Z" fill="#FCFCFC"/>
<path d="M1762 243V287L1800.09 309L1838.18 287V243L1800.09 221L1762 243Z" fill="#FCFCFC"/>
<path d="M1846 243V287L1884.09 309L1922.18 287V243L1884.09 221L1846 243Z" fill="#FCFCFC"/>
<path d="M502 243V287L540.089 309L578.178 287V243L540.089 221L502 243Z" fill="#FCFCFC"/>
<path d="M418 243V287L456.089 309L494.178 287V243L456.089 221L418 243Z" fill="#FCFCFC"/>
<path d="M292 169V213L330.089 235L368.178 213V169L330.089 147L292 169Z" fill="#FCFCFC"/>
<path d="M208 169V213L246.089 235L284.178 213V169L246.089 147L208 169Z" fill="#FCFCFC"/>
<path d="M124 169V213L162.089 235L200.178 213V169L162.089 147L124 169Z" fill="#FCFCFC"/>
<path d="M40 169V213L78.0892 235L116.178 213V169L78.0892 147L40 169Z" fill="#FCFCFC"/>
<path d="M-44 169V213L-5.91084 235L32.1783 213V169L-5.91084 147L-44 169Z" fill="#FCFCFC"/>
<path d="M376 169V213L414.089 235L452.178 213V169L414.089 147L376 169Z" fill="#FCFCFC"/>
<path d="M712 169V213L750.089 235L788.178 213V169L750.089 147L712 169Z" fill="#FCFCFC"/>
<path d="M628 169V213L666.089 235L704.178 213V169L666.089 147L628 169Z" fill="#FCFCFC"/>
<path d="M796 169V213L834.089 235L872.165 213V169L834.089 147L796 169Z" fill="#FCFCFC"/>
<path d="M880 169V213L918.089 235L956.178 213V169L918.089 147L880 169Z" fill="#FCFCFC"/>
<path d="M964 169V213L1002.09 235L1040.18 213V169L1002.09 147L964 169Z" fill="#FCFCFC"/>
<path d="M1048 169V213L1086.09 235L1124.18 213V169L1086.09 147L1048 169Z" fill="#FCFCFC"/>
<path d="M1132 169V213L1170.09 235L1208.18 213V169L1170.09 147L1132 169Z" fill="#FCFCFC"/>
<path d="M1216 169V213L1254.09 235L1292.18 213V169L1254.09 147L1216 169Z" fill="#FCFCFC"/>
<path d="M1300 169V213L1338.09 235L1376.18 213V169L1338.09 147L1300 169Z" fill="#FCFCFC"/>
<path d="M1384 169V213L1422.09 235L1460.18 213V169L1422.09 147L1384 169Z" fill="#FCFCFC"/>
<path d="M1468 169V213L1506.09 235L1544.18 213V169L1506.09 147L1468 169Z" fill="#FCFCFC"/>
<path d="M1552 169V213L1590.09 235L1628.18 213V169L1590.09 147L1552 169Z" fill="#FCFCFC"/>
<path d="M1636 169V213L1674.09 235L1712.18 213V169L1674.09 147L1636 169Z" fill="#FCFCFC"/>
<path d="M1720 169V213L1758.09 235L1796.18 213V169L1758.09 147L1720 169Z" fill="#FCFCFC"/>
<path d="M1804 169V213L1842.09 235L1880.18 213V169L1842.09 147L1804 169Z" fill="#FCFCFC"/>
<path d="M1888 169V213L1926.09 235L1964.18 213V169L1926.09 147L1888 169Z" fill="#FCFCFC"/>
<path d="M544 169V213L582.089 235L620.178 213V169L582.089 147L544 169Z" fill="#FCFCFC"/>
<path d="M460 169V213L498.089 235L536.178 213V169L498.089 147L460 169Z" fill="#FCFCFC"/>
<path d="M250 96V140L288.089 162L326.178 140V96L288.089 74L250 96Z" fill="#FCFCFC"/>
<path d="M166 96V140L204.089 162L242.178 140V96L204.089 74L166 96Z" fill="#FCFCFC"/>
<path d="M82 96V140L120.089 162L158.178 140V96L120.089 74L82 96Z" fill="#FCFCFC"/>
<path d="M-2 96V140L36.0892 162L74.1783 140V96L36.0892 74L-2 96Z" fill="#FCFCFC"/>
<path d="M334 96V140L372.089 162L410.178 140V96L372.089 74L334 96Z" fill="#FCFCFC"/>
<path d="M670 96V140L708.089 162L746.178 140V96L708.089 74L670 96Z" fill="#FCFCFC"/>
<path d="M586 96V140L624.089 162L662.178 140V96L624.089 74L586 96Z" fill="#FCFCFC"/>
<path d="M754 96V140L792.089 162L830.165 140V96L792.089 74L754 96Z" fill="#FCFCFC"/>
<path d="M838 96V140L876.089 162L914.178 140V96L876.089 74L838 96Z" fill="#FCFCFC"/>
<path d="M922 96V140L960.089 162L998.178 140V96L960.089 74L922 96Z" fill="#FCFCFC"/>
<path d="M1006 96V140L1044.09 162L1082.18 140V96L1044.09 74L1006 96Z" fill="#FCFCFC"/>
<path d="M1090 96V140L1128.09 162L1166.18 140V96L1128.09 74L1090 96Z" fill="#FCFCFC"/>
<path d="M1174 96V140L1212.09 162L1250.18 140V96L1212.09 74L1174 96Z" fill="#FCFCFC"/>
<path d="M1258 96V140L1296.09 162L1334.18 140V96L1296.09 74L1258 96Z" fill="#FCFCFC"/>
<path d="M1342 96V140L1380.09 162L1418.18 140V96L1380.09 74L1342 96Z" fill="#FCFCFC"/>
<path d="M1426 96V140L1464.09 162L1502.18 140V96L1464.09 74L1426 96Z" fill="#FCFCFC"/>
<path d="M1510 96V140L1548.09 162L1586.18 140V96L1548.09 74L1510 96Z" fill="#FCFCFC"/>
<path d="M1594 96V140L1632.09 162L1670.18 140V96L1632.09 74L1594 96Z" fill="#FCFCFC"/>
<path d="M1678 96V140L1716.09 162L1754.18 140V96L1716.09 74L1678 96Z" fill="#FCFCFC"/>
<path d="M1762 96V140L1800.09 162L1838.18 140V96L1800.09 74L1762 96Z" fill="#FCFCFC"/>
<path d="M1846 96V140L1884.09 162L1922.18 140V96L1884.09 74L1846 96Z" fill="#FCFCFC"/>
<path d="M502 96V140L540.089 162L578.178 140V96L540.089 74L502 96Z" fill="#FCFCFC"/>
<path d="M418 96V140L456.089 162L494.178 140V96L456.089 74L418 96Z" fill="#FCFCFC"/>
<path d="M292 22V66L330.089 88L368.178 66V22L330.089 0L292 22Z" fill="#FCFCFC"/>
<path d="M208 22V66L246.089 88L284.178 66V22L246.089 0L208 22Z" fill="#FCFCFC"/>
<path d="M124 22V66L162.089 88L200.178 66V22L162.089 0L124 22Z" fill="#FCFCFC"/>
<path d="M40 22V66L78.0892 88L116.178 66V22L78.0892 0L40 22Z" fill="#FCFCFC"/>
<path d="M-44 22V66L-5.91084 88L32.1783 66V22L-5.91084 0L-44 22Z" fill="#FCFCFC"/>
<path d="M376 22V66L414.089 88L452.178 66V22L414.089 0L376 22Z" fill="#FCFCFC"/>
<path d="M712 22V66L750.089 88L788.178 66V22L750.089 0L712 22Z" fill="#FCFCFC"/>
<path d="M628 22V66L666.089 88L704.178 66V22L666.089 0L628 22Z" fill="#FCFCFC"/>
<path d="M796 22V66L834.089 88L872.165 66V22L834.089 0L796 22Z" fill="#FCFCFC"/>
<path d="M880 22V66L918.089 88L956.178 66V22L918.089 0L880 22Z" fill="#FCFCFC"/>
<path d="M964 22V66L1002.09 88L1040.18 66V22L1002.09 0L964 22Z" fill="#FCFCFC"/>
<path d="M1048 22V66L1086.09 88L1124.18 66V22L1086.09 0L1048 22Z" fill="#FCFCFC"/>
<path d="M1132 22V66L1170.09 88L1208.18 66V22L1170.09 0L1132 22Z" fill="#FCFCFC"/>
<path d="M1216 22V66L1254.09 88L1292.18 66V22L1254.09 0L1216 22Z" fill="#FCFCFC"/>
<path d="M1300 22V66L1338.09 88L1376.18 66V22L1338.09 0L1300 22Z" fill="#FCFCFC"/>
<path d="M1384 22V66L1422.09 88L1460.18 66V22L1422.09 0L1384 22Z" fill="#FCFCFC"/>
<path d="M1468 22V66L1506.09 88L1544.18 66V22L1506.09 0L1468 22Z" fill="#FCFCFC"/>
<path d="M1552 22V66L1590.09 88L1628.18 66V22L1590.09 0L1552 22Z" fill="#FCFCFC"/>
<path d="M1636 22V66L1674.09 88L1712.18 66V22L1674.09 0L1636 22Z" fill="#FCFCFC"/>
<path d="M1720 22V66L1758.09 88L1796.18 66V22L1758.09 0L1720 22Z" fill="#FCFCFC"/>
<path d="M1804 22V66L1842.09 88L1880.18 66V22L1842.09 0L1804 22Z" fill="#FCFCFC"/>
<path d="M1888 22V66L1926.09 88L1964.18 66V22L1926.09 0L1888 22Z" fill="#FCFCFC"/>
<path d="M544 22V66L582.089 88L620.178 66V22L582.089 0L544 22Z" fill="#FCFCFC"/>
<path d="M460 22V66L498.089 88L536.178 66V22L498.089 0L460 22Z" fill="#FCFCFC"/>
<defs>
<radialGradient id="paint0_radial" cx="0" cy="0" r="1" gradientUnits="userSpaceOnUse" gradientTransform="translate(1842 914) rotate(90) scale(196)">
<stop stop-color="#FEEB19"/>
<stop offset="1" stop-color="#FEEB19" stop-opacity="0"/>
</radialGradient>
<radialGradient id="paint1_radial" cx="0" cy="0" r="1" gradientUnits="userSpaceOnUse" gradientTransform="translate(536 345) rotate(90) scale(196)">
<stop stop-color="#FEEB19"/>
<stop offset="1" stop-color="#FEEB19" stop-opacity="0"/>
</radialGradient>
<radialGradient id="paint2_radial" cx="0" cy="0" r="1" gradientUnits="userSpaceOnUse" gradientTransform="translate(190 918) rotate(90) scale(196)">
<stop stop-color="#77B3D1"/>
<stop offset="1" stop-color="#77B3D1" stop-opacity="0"/>
</radialGradient>
</defs>
</svg>
