<svg width="1920" height="1130" viewBox="0 0 1920 1130" fill="none" xmlns="http://www.w3.org/2000/svg">
<g clip-path="url(#clip0)">
<rect width="1920" height="1130" fill="white"/>
<circle cx="1743" cy="528" r="196" fill="url(#paint0_radial)"/>
<circle cx="270" cy="454" r="196" fill="url(#paint1_radial)"/>
<path d="M249 1064V1108L287.089 1130L325.178 1108V1064L287.089 1042L249 1064Z" fill="#FCFCFC"/>
<path d="M165 1064V1108L203.089 1130L241.178 1108V1064L203.089 1042L165 1064Z" fill="#FCFCFC"/>
<path d="M81 1064V1108L119.089 1130L157.178 1108V1064L119.089 1042L81 1064Z" fill="#FCFCFC"/>
<path d="M-3 1064V1108L35.0892 1130L73.1783 1108V1064L35.0892 1042L-3 1064Z" fill="#FCFCFC"/>
<path d="M333 1064V1108L371.089 1130L409.178 1108V1064L371.089 1042L333 1064Z" fill="#FCFCFC"/>
<path d="M669 1064V1108L707.089 1130L745.178 1108V1064L707.089 1042L669 1064Z" fill="#FCFCFC"/>
<path d="M585 1064V1108L623.089 1130L661.178 1108V1064L623.089 1042L585 1064Z" fill="#FCFCFC"/>
<path d="M753 1064V1108L791.089 1130L829.165 1108V1064L791.089 1042L753 1064Z" fill="#FCFCFC"/>
<path d="M837 1064V1108L875.089 1130L913.178 1108V1064L875.089 1042L837 1064Z" fill="#FCFCFC"/>
<path d="M921 1064V1108L959.089 1130L997.178 1108V1064L959.089 1042L921 1064Z" fill="#FCFCFC"/>
<path d="M1005 1064V1108L1043.09 1130L1081.18 1108V1064L1043.09 1042L1005 1064Z" fill="#FCFCFC"/>
<path d="M1089 1064V1108L1127.09 1130L1165.18 1108V1064L1127.09 1042L1089 1064Z" fill="#FCFCFC"/>
<path d="M1173 1064V1108L1211.09 1130L1249.18 1108V1064L1211.09 1042L1173 1064Z" fill="#FCFCFC"/>
<path d="M1257 1064V1108L1295.09 1130L1333.18 1108V1064L1295.09 1042L1257 1064Z" fill="#FCFCFC"/>
<path d="M1341 1064V1108L1379.09 1130L1417.18 1108V1064L1379.09 1042L1341 1064Z" fill="#FCFCFC"/>
<path d="M1425 1064V1108L1463.09 1130L1501.18 1108V1064L1463.09 1042L1425 1064Z" fill="#FCFCFC"/>
<path d="M1509 1064V1108L1547.09 1130L1585.18 1108V1064L1547.09 1042L1509 1064Z" fill="#FCFCFC"/>
<path d="M1593 1064V1108L1631.09 1130L1669.18 1108V1064L1631.09 1042L1593 1064Z" fill="#FCFCFC"/>
<path d="M1677 1064V1108L1715.09 1130L1753.18 1108V1064L1715.09 1042L1677 1064Z" fill="#FCFCFC"/>
<path d="M1761 1064V1108L1799.09 1130L1837.18 1108V1064L1799.09 1042L1761 1064Z" fill="#FCFCFC"/>
<path d="M1845 1064V1108L1883.09 1130L1921.18 1108V1064L1883.09 1042L1845 1064Z" fill="#FCFCFC"/>
<path d="M501 1064V1108L539.089 1130L577.178 1108V1064L539.089 1042L501 1064Z" fill="#FCFCFC"/>
<path d="M417 1064V1108L455.089 1130L493.178 1108V1064L455.089 1042L417 1064Z" fill="#FCFCFC"/>
<path d="M291 990V1034L329.089 1056L367.178 1034V990L329.089 968L291 990Z" fill="#FCFCFC"/>
<path d="M207 990V1034L245.089 1056L283.178 1034V990L245.089 968L207 990Z" fill="#FCFCFC"/>
<path d="M123 990V1034L161.089 1056L199.178 1034V990L161.089 968L123 990Z" fill="#FCFCFC"/>
<path d="M39 990V1034L77.0892 1056L115.178 1034V990L77.0892 968L39 990Z" fill="#FCFCFC"/>
<path d="M-45 990V1034L-6.91083 1056L31.1783 1034V990L-6.91083 968L-45 990Z" fill="#FCFCFC"/>
<path d="M375 990V1034L413.089 1056L451.178 1034V990L413.089 968L375 990Z" fill="#FCFCFC"/>
<path d="M711 990V1034L749.089 1056L787.178 1034V990L749.089 968L711 990Z" fill="#FCFCFC"/>
<path d="M627 990V1034L665.089 1056L703.178 1034V990L665.089 968L627 990Z" fill="#FCFCFC"/>
<path d="M795 990V1034L833.089 1056L871.165 1034V990L833.089 968L795 990Z" fill="#FCFCFC"/>
<path d="M879 990V1034L917.089 1056L955.178 1034V990L917.089 968L879 990Z" fill="#FCFCFC"/>
<path d="M963 990V1034L1001.09 1056L1039.18 1034V990L1001.09 968L963 990Z" fill="#FCFCFC"/>
<path d="M1047 990V1034L1085.09 1056L1123.18 1034V990L1085.09 968L1047 990Z" fill="#FCFCFC"/>
<path d="M1131 990V1034L1169.09 1056L1207.18 1034V990L1169.09 968L1131 990Z" fill="#FCFCFC"/>
<path d="M1215 990V1034L1253.09 1056L1291.18 1034V990L1253.09 968L1215 990Z" fill="#FCFCFC"/>
<path d="M1299 990V1034L1337.09 1056L1375.18 1034V990L1337.09 968L1299 990Z" fill="#FCFCFC"/>
<path d="M1383 990V1034L1421.09 1056L1459.18 1034V990L1421.09 968L1383 990Z" fill="#FCFCFC"/>
<path d="M1467 990V1034L1505.09 1056L1543.18 1034V990L1505.09 968L1467 990Z" fill="#FCFCFC"/>
<path d="M1551 990V1034L1589.09 1056L1627.18 1034V990L1589.09 968L1551 990Z" fill="#FCFCFC"/>
<path d="M1635 990V1034L1673.09 1056L1711.18 1034V990L1673.09 968L1635 990Z" fill="#FCFCFC"/>
<path d="M1719 990V1034L1757.09 1056L1795.18 1034V990L1757.09 968L1719 990Z" fill="#FCFCFC"/>
<path d="M1803 990V1034L1841.09 1056L1879.18 1034V990L1841.09 968L1803 990Z" fill="#FCFCFC"/>
<path d="M1887 990V1034L1925.09 1056L1963.18 1034V990L1925.09 968L1887 990Z" fill="#FCFCFC"/>
<path d="M543 990V1034L581.089 1056L619.178 1034V990L581.089 968L543 990Z" fill="#FCFCFC"/>
<path d="M459 990V1034L497.089 1056L535.178 1034V990L497.089 968L459 990Z" fill="#FCFCFC"/>
<path d="M249 918V962L287.089 984L325.178 962V918L287.089 896L249 918Z" fill="#FCFCFC"/>
<path d="M165 918V962L203.089 984L241.178 962V918L203.089 896L165 918Z" fill="#FCFCFC"/>
<path d="M81 918V962L119.089 984L157.178 962V918L119.089 896L81 918Z" fill="#FCFCFC"/>
<path d="M-3 918V962L35.0892 984L73.1783 962V918L35.0892 896L-3 918Z" fill="#FCFCFC"/>
<path d="M333 918V962L371.089 984L409.178 962V918L371.089 896L333 918Z" fill="#FCFCFC"/>
<path d="M669 918V962L707.089 984L745.178 962V918L707.089 896L669 918Z" fill="#FCFCFC"/>
<path d="M585 918V962L623.089 984L661.178 962V918L623.089 896L585 918Z" fill="#FCFCFC"/>
<path d="M753 918V962L791.089 984L829.165 962V918L791.089 896L753 918Z" fill="#FCFCFC"/>
<path d="M837 918V962L875.089 984L913.178 962V918L875.089 896L837 918Z" fill="#FCFCFC"/>
<path d="M921 918V962L959.089 984L997.178 962V918L959.089 896L921 918Z" fill="#FCFCFC"/>
<path d="M1005 918V962L1043.09 984L1081.18 962V918L1043.09 896L1005 918Z" fill="#FCFCFC"/>
<path d="M1089 918V962L1127.09 984L1165.18 962V918L1127.09 896L1089 918Z" fill="#FCFCFC"/>
<path d="M1173 918V962L1211.09 984L1249.18 962V918L1211.09 896L1173 918Z" fill="#FCFCFC"/>
<path d="M1257 918V962L1295.09 984L1333.18 962V918L1295.09 896L1257 918Z" fill="#FCFCFC"/>
<path d="M1341 918V962L1379.09 984L1417.18 962V918L1379.09 896L1341 918Z" fill="#FCFCFC"/>
<path d="M1425 918V962L1463.09 984L1501.18 962V918L1463.09 896L1425 918Z" fill="#FCFCFC"/>
<path d="M1509 918V962L1547.09 984L1585.18 962V918L1547.09 896L1509 918Z" fill="#FCFCFC"/>
<path d="M1593 918V962L1631.09 984L1669.18 962V918L1631.09 896L1593 918Z" fill="#FCFCFC"/>
<path d="M1677 918V962L1715.09 984L1753.18 962V918L1715.09 896L1677 918Z" fill="#FCFCFC"/>
<path d="M1761 918V962L1799.09 984L1837.18 962V918L1799.09 896L1761 918Z" fill="#FCFCFC"/>
<path d="M1845 918V962L1883.09 984L1921.18 962V918L1883.09 896L1845 918Z" fill="#FCFCFC"/>
<path d="M501 918V962L539.089 984L577.178 962V918L539.089 896L501 918Z" fill="#FCFCFC"/>
<path d="M417 918V962L455.089 984L493.178 962V918L455.089 896L417 918Z" fill="#FCFCFC"/>
<path d="M291 844V888L329.089 910L367.178 888V844L329.089 822L291 844Z" fill="#FCFCFC"/>
<path d="M207 844V888L245.089 910L283.178 888V844L245.089 822L207 844Z" fill="#FCFCFC"/>
<path d="M123 844V888L161.089 910L199.178 888V844L161.089 822L123 844Z" fill="#FCFCFC"/>
<path d="M39 844V888L77.0892 910L115.178 888V844L77.0892 822L39 844Z" fill="#FCFCFC"/>
<path d="M-45 844V888L-6.91083 910L31.1783 888V844L-6.91083 822L-45 844Z" fill="#FCFCFC"/>
<path d="M375 844V888L413.089 910L451.178 888V844L413.089 822L375 844Z" fill="#FCFCFC"/>
<path d="M711 844V888L749.089 910L787.178 888V844L749.089 822L711 844Z" fill="#FCFCFC"/>
<path d="M627 844V888L665.089 910L703.178 888V844L665.089 822L627 844Z" fill="#FCFCFC"/>
<path d="M795 844V888L833.089 910L871.165 888V844L833.089 822L795 844Z" fill="#FCFCFC"/>
<path d="M879 844V888L917.089 910L955.178 888V844L917.089 822L879 844Z" fill="#FCFCFC"/>
<path d="M963 844V888L1001.09 910L1039.18 888V844L1001.09 822L963 844Z" fill="#FCFCFC"/>
<path d="M1047 844V888L1085.09 910L1123.18 888V844L1085.09 822L1047 844Z" fill="#FCFCFC"/>
<path d="M1131 844V888L1169.09 910L1207.18 888V844L1169.09 822L1131 844Z" fill="#FCFCFC"/>
<path d="M1215 844V888L1253.09 910L1291.18 888V844L1253.09 822L1215 844Z" fill="#FCFCFC"/>
<path d="M1299 844V888L1337.09 910L1375.18 888V844L1337.09 822L1299 844Z" fill="#FCFCFC"/>
<path d="M1383 844V888L1421.09 910L1459.18 888V844L1421.09 822L1383 844Z" fill="#FCFCFC"/>
<path d="M1467 844V888L1505.09 910L1543.18 888V844L1505.09 822L1467 844Z" fill="#FCFCFC"/>
<path d="M1551 844V888L1589.09 910L1627.18 888V844L1589.09 822L1551 844Z" fill="#FCFCFC"/>
<path d="M1635 844V888L1673.09 910L1711.18 888V844L1673.09 822L1635 844Z" fill="#FCFCFC"/>
<path d="M1719 844V888L1757.09 910L1795.18 888V844L1757.09 822L1719 844Z" fill="#FCFCFC"/>
<path d="M1803 844V888L1841.09 910L1879.18 888V844L1841.09 822L1803 844Z" fill="#FCFCFC"/>
<path d="M1887 844V888L1925.09 910L1963.18 888V844L1925.09 822L1887 844Z" fill="#FCFCFC"/>
<path d="M543 844V888L581.089 910L619.178 888V844L581.089 822L543 844Z" fill="#FCFCFC"/>
<path d="M459 844V888L497.089 910L535.178 888V844L497.089 822L459 844Z" fill="#FCFCFC"/>
<path d="M249 771V815L287.089 837L325.178 815V771L287.089 749L249 771Z" fill="#FCFCFC"/>
<path d="M165 771V815L203.089 837L241.178 815V771L203.089 749L165 771Z" fill="#FCFCFC"/>
<path d="M81 771V815L119.089 837L157.178 815V771L119.089 749L81 771Z" fill="#FCFCFC"/>
<path d="M-3 771V815L35.0892 837L73.1783 815V771L35.0892 749L-3 771Z" fill="#FCFCFC"/>
<path d="M333 771V815L371.089 837L409.178 815V771L371.089 749L333 771Z" fill="#FCFCFC"/>
<path d="M669 771V815L707.089 837L745.178 815V771L707.089 749L669 771Z" fill="#FCFCFC"/>
<path d="M585 771V815L623.089 837L661.178 815V771L623.089 749L585 771Z" fill="#FCFCFC"/>
<path d="M753 771V815L791.089 837L829.165 815V771L791.089 749L753 771Z" fill="#FCFCFC"/>
<path d="M837 771V815L875.089 837L913.178 815V771L875.089 749L837 771Z" fill="#FCFCFC"/>
<path d="M921 771V815L959.089 837L997.178 815V771L959.089 749L921 771Z" fill="#FCFCFC"/>
<path d="M1005 771V815L1043.09 837L1081.18 815V771L1043.09 749L1005 771Z" fill="#FCFCFC"/>
<path d="M1089 771V815L1127.09 837L1165.18 815V771L1127.09 749L1089 771Z" fill="#FCFCFC"/>
<path d="M1173 771V815L1211.09 837L1249.18 815V771L1211.09 749L1173 771Z" fill="#FCFCFC"/>
<path d="M1257 771V815L1295.09 837L1333.18 815V771L1295.09 749L1257 771Z" fill="#FCFCFC"/>
<path d="M1341 771V815L1379.09 837L1417.18 815V771L1379.09 749L1341 771Z" fill="#FCFCFC"/>
<path d="M1425 771V815L1463.09 837L1501.18 815V771L1463.09 749L1425 771Z" fill="#FCFCFC"/>
<path d="M1509 771V815L1547.09 837L1585.18 815V771L1547.09 749L1509 771Z" fill="#FCFCFC"/>
<path d="M1593 771V815L1631.09 837L1669.18 815V771L1631.09 749L1593 771Z" fill="#FCFCFC"/>
<path d="M1677 771V815L1715.09 837L1753.18 815V771L1715.09 749L1677 771Z" fill="#FCFCFC"/>
<path d="M1761 771V815L1799.09 837L1837.18 815V771L1799.09 749L1761 771Z" fill="#FCFCFC"/>
<path d="M1845 771V815L1883.09 837L1921.18 815V771L1883.09 749L1845 771Z" fill="#FCFCFC"/>
<path d="M501 771V815L539.089 837L577.178 815V771L539.089 749L501 771Z" fill="#FCFCFC"/>
<path d="M417 771V815L455.089 837L493.178 815V771L455.089 749L417 771Z" fill="#FCFCFC"/>
<path d="M291 697V741L329.089 763L367.178 741V697L329.089 675L291 697Z" fill="#FCFCFC"/>
<path d="M207 697V741L245.089 763L283.178 741V697L245.089 675L207 697Z" fill="#FCFCFC"/>
<path d="M123 697V741L161.089 763L199.178 741V697L161.089 675L123 697Z" fill="#FCFCFC"/>
<path d="M39 697V741L77.0892 763L115.178 741V697L77.0892 675L39 697Z" fill="#FCFCFC"/>
<path d="M-45 697V741L-6.91083 763L31.1783 741V697L-6.91083 675L-45 697Z" fill="#FCFCFC"/>
<path d="M375 697V741L413.089 763L451.178 741V697L413.089 675L375 697Z" fill="#FCFCFC"/>
<path d="M711 697V741L749.089 763L787.178 741V697L749.089 675L711 697Z" fill="#FCFCFC"/>
<path d="M627 697V741L665.089 763L703.178 741V697L665.089 675L627 697Z" fill="#FCFCFC"/>
<path d="M795 697V741L833.089 763L871.165 741V697L833.089 675L795 697Z" fill="#FCFCFC"/>
<path d="M879 697V741L917.089 763L955.178 741V697L917.089 675L879 697Z" fill="#FCFCFC"/>
<path d="M963 697V741L1001.09 763L1039.18 741V697L1001.09 675L963 697Z" fill="#FCFCFC"/>
<path d="M1047 697V741L1085.09 763L1123.18 741V697L1085.09 675L1047 697Z" fill="#FCFCFC"/>
<path d="M1131 697V741L1169.09 763L1207.18 741V697L1169.09 675L1131 697Z" fill="#FCFCFC"/>
<path d="M1215 697V741L1253.09 763L1291.18 741V697L1253.09 675L1215 697Z" fill="#FCFCFC"/>
<path d="M1299 697V741L1337.09 763L1375.18 741V697L1337.09 675L1299 697Z" fill="#FCFCFC"/>
<path d="M1383 697V741L1421.09 763L1459.18 741V697L1421.09 675L1383 697Z" fill="#FCFCFC"/>
<path d="M1467 697V741L1505.09 763L1543.18 741V697L1505.09 675L1467 697Z" fill="#FCFCFC"/>
<path d="M1551 697V741L1589.09 763L1627.18 741V697L1589.09 675L1551 697Z" fill="#FCFCFC"/>
<path d="M1635 697V741L1673.09 763L1711.18 741V697L1673.09 675L1635 697Z" fill="#FCFCFC"/>
<path d="M1719 697V741L1757.09 763L1795.18 741V697L1757.09 675L1719 697Z" fill="#FCFCFC"/>
<path d="M1803 697V741L1841.09 763L1879.18 741V697L1841.09 675L1803 697Z" fill="#FCFCFC"/>
<path d="M1887 697V741L1925.09 763L1963.18 741V697L1925.09 675L1887 697Z" fill="#FCFCFC"/>
<path d="M543 697V741L581.089 763L619.178 741V697L581.089 675L543 697Z" fill="#FCFCFC"/>
<path d="M459 697V741L497.089 763L535.178 741V697L497.089 675L459 697Z" fill="#FCFCFC"/>
<path d="M249 624V668L287.089 690L325.178 668V624L287.089 602L249 624Z" fill="#FCFCFC"/>
<path d="M165 624V668L203.089 690L241.178 668V624L203.089 602L165 624Z" fill="#FCFCFC"/>
<path d="M81 624V668L119.089 690L157.178 668V624L119.089 602L81 624Z" fill="#FCFCFC"/>
<path d="M-3 624V668L35.0892 690L73.1783 668V624L35.0892 602L-3 624Z" fill="#FCFCFC"/>
<path d="M333 624V668L371.089 690L409.178 668V624L371.089 602L333 624Z" fill="#FCFCFC"/>
<path d="M669 624V668L707.089 690L745.178 668V624L707.089 602L669 624Z" fill="#FCFCFC"/>
<path d="M585 624V668L623.089 690L661.178 668V624L623.089 602L585 624Z" fill="#FCFCFC"/>
<path d="M753 624V668L791.089 690L829.165 668V624L791.089 602L753 624Z" fill="#FCFCFC"/>
<path d="M837 624V668L875.089 690L913.178 668V624L875.089 602L837 624Z" fill="#FCFCFC"/>
<path d="M921 624V668L959.089 690L997.178 668V624L959.089 602L921 624Z" fill="#FCFCFC"/>
<path d="M1005 624V668L1043.09 690L1081.18 668V624L1043.09 602L1005 624Z" fill="#FCFCFC"/>
<path d="M1089 624V668L1127.09 690L1165.18 668V624L1127.09 602L1089 624Z" fill="#FCFCFC"/>
<path d="M1173 624V668L1211.09 690L1249.18 668V624L1211.09 602L1173 624Z" fill="#FCFCFC"/>
<path d="M1257 624V668L1295.09 690L1333.18 668V624L1295.09 602L1257 624Z" fill="#FCFCFC"/>
<path d="M1341 624V668L1379.09 690L1417.18 668V624L1379.09 602L1341 624Z" fill="#FCFCFC"/>
<path d="M1425 624V668L1463.09 690L1501.18 668V624L1463.09 602L1425 624Z" fill="#FCFCFC"/>
<path d="M1509 624V668L1547.09 690L1585.18 668V624L1547.09 602L1509 624Z" fill="#FCFCFC"/>
<path d="M1593 624V668L1631.09 690L1669.18 668V624L1631.09 602L1593 624Z" fill="#FCFCFC"/>
<path d="M1677 624V668L1715.09 690L1753.18 668V624L1715.09 602L1677 624Z" fill="#FCFCFC"/>
<path d="M1761 624V668L1799.09 690L1837.18 668V624L1799.09 602L1761 624Z" fill="#FCFCFC"/>
<path d="M1845 624V668L1883.09 690L1921.18 668V624L1883.09 602L1845 624Z" fill="#FCFCFC"/>
<path d="M501 624V668L539.089 690L577.178 668V624L539.089 602L501 624Z" fill="#FCFCFC"/>
<path d="M417 624V668L455.089 690L493.178 668V624L455.089 602L417 624Z" fill="#FCFCFC"/>
<path d="M291 550V594L329.089 616L367.178 594V550L329.089 528L291 550Z" fill="#FCFCFC"/>
<path d="M207 550V594L245.089 616L283.178 594V550L245.089 528L207 550Z" fill="#FCFCFC"/>
<path d="M123 550V594L161.089 616L199.178 594V550L161.089 528L123 550Z" fill="#FCFCFC"/>
<path d="M39 550V594L77.0892 616L115.178 594V550L77.0892 528L39 550Z" fill="#FCFCFC"/>
<path d="M-45 550V594L-6.91083 616L31.1783 594V550L-6.91083 528L-45 550Z" fill="#FCFCFC"/>
<path d="M375 550V594L413.089 616L451.178 594V550L413.089 528L375 550Z" fill="#FCFCFC"/>
<path d="M711 550V594L749.089 616L787.178 594V550L749.089 528L711 550Z" fill="#FCFCFC"/>
<path d="M627 550V594L665.089 616L703.178 594V550L665.089 528L627 550Z" fill="#FCFCFC"/>
<path d="M795 550V594L833.089 616L871.165 594V550L833.089 528L795 550Z" fill="#FCFCFC"/>
<path d="M879 550V594L917.089 616L955.178 594V550L917.089 528L879 550Z" fill="#FCFCFC"/>
<path d="M963 550V594L1001.09 616L1039.18 594V550L1001.09 528L963 550Z" fill="#FCFCFC"/>
<path d="M1047 550V594L1085.09 616L1123.18 594V550L1085.09 528L1047 550Z" fill="#FCFCFC"/>
<path d="M1131 550V594L1169.09 616L1207.18 594V550L1169.09 528L1131 550Z" fill="#FCFCFC"/>
<path d="M1215 550V594L1253.09 616L1291.18 594V550L1253.09 528L1215 550Z" fill="#FCFCFC"/>
<path d="M1299 550V594L1337.09 616L1375.18 594V550L1337.09 528L1299 550Z" fill="#FCFCFC"/>
<path d="M1383 550V594L1421.09 616L1459.18 594V550L1421.09 528L1383 550Z" fill="#FCFCFC"/>
<path d="M1467 550V594L1505.09 616L1543.18 594V550L1505.09 528L1467 550Z" fill="#FCFCFC"/>
<path d="M1551 550V594L1589.09 616L1627.18 594V550L1589.09 528L1551 550Z" fill="#FCFCFC"/>
<path d="M1635 550V594L1673.09 616L1711.18 594V550L1673.09 528L1635 550Z" fill="#FCFCFC"/>
<path d="M1719 550V594L1757.09 616L1795.18 594V550L1757.09 528L1719 550Z" fill="#FCFCFC"/>
<path d="M1803 550V594L1841.09 616L1879.18 594V550L1841.09 528L1803 550Z" fill="#FCFCFC"/>
<path d="M1887 550V594L1925.09 616L1963.18 594V550L1925.09 528L1887 550Z" fill="#FCFCFC"/>
<path d="M543 550V594L581.089 616L619.178 594V550L581.089 528L543 550Z" fill="#FCFCFC"/>
<path d="M459 550V594L497.089 616L535.178 594V550L497.089 528L459 550Z" fill="#FCFCFC"/>
<path d="M249 477V521L287.089 543L325.178 521V477L287.089 455L249 477Z" fill="#FCFCFC"/>
<path d="M165 477V521L203.089 543L241.178 521V477L203.089 455L165 477Z" fill="#FCFCFC"/>
<path d="M81 477V521L119.089 543L157.178 521V477L119.089 455L81 477Z" fill="#FCFCFC"/>
<path d="M-3 477V521L35.0892 543L73.1783 521V477L35.0892 455L-3 477Z" fill="#FCFCFC"/>
<path d="M333 477V521L371.089 543L409.178 521V477L371.089 455L333 477Z" fill="#FCFCFC"/>
<path d="M669 477V521L707.089 543L745.178 521V477L707.089 455L669 477Z" fill="#FCFCFC"/>
<path d="M585 477V521L623.089 543L661.178 521V477L623.089 455L585 477Z" fill="#FCFCFC"/>
<path d="M753 477V521L791.089 543L829.165 521V477L791.089 455L753 477Z" fill="#FCFCFC"/>
<path d="M837 477V521L875.089 543L913.178 521V477L875.089 455L837 477Z" fill="#FCFCFC"/>
<path d="M921 477V521L959.089 543L997.178 521V477L959.089 455L921 477Z" fill="#FCFCFC"/>
<path d="M1005 477V521L1043.09 543L1081.18 521V477L1043.09 455L1005 477Z" fill="#FCFCFC"/>
<path d="M1089 477V521L1127.09 543L1165.18 521V477L1127.09 455L1089 477Z" fill="#FCFCFC"/>
<path d="M1173 477V521L1211.09 543L1249.18 521V477L1211.09 455L1173 477Z" fill="#FCFCFC"/>
<path d="M1257 477V521L1295.09 543L1333.18 521V477L1295.09 455L1257 477Z" fill="#FCFCFC"/>
<path d="M1341 477V521L1379.09 543L1417.18 521V477L1379.09 455L1341 477Z" fill="#FCFCFC"/>
<path d="M1425 477V521L1463.09 543L1501.18 521V477L1463.09 455L1425 477Z" fill="#FCFCFC"/>
<path d="M1509 477V521L1547.09 543L1585.18 521V477L1547.09 455L1509 477Z" fill="#FCFCFC"/>
<path d="M1593 477V521L1631.09 543L1669.18 521V477L1631.09 455L1593 477Z" fill="#FCFCFC"/>
<path d="M1677 477V521L1715.09 543L1753.18 521V477L1715.09 455L1677 477Z" fill="#FCFCFC"/>
<path d="M1761 477V521L1799.09 543L1837.18 521V477L1799.09 455L1761 477Z" fill="#FCFCFC"/>
<path d="M1845 477V521L1883.09 543L1921.18 521V477L1883.09 455L1845 477Z" fill="#FCFCFC"/>
<path d="M501 477V521L539.089 543L577.178 521V477L539.089 455L501 477Z" fill="#FCFCFC"/>
<path d="M417 477V521L455.089 543L493.178 521V477L455.089 455L417 477Z" fill="#FCFCFC"/>
<path d="M291 403V447L329.089 469L367.178 447V403L329.089 381L291 403Z" fill="#FCFCFC"/>
<path d="M207 403V447L245.089 469L283.178 447V403L245.089 381L207 403Z" fill="#FCFCFC"/>
<path d="M123 403V447L161.089 469L199.178 447V403L161.089 381L123 403Z" fill="#FCFCFC"/>
<path d="M39 403V447L77.0892 469L115.178 447V403L77.0892 381L39 403Z" fill="#FCFCFC"/>
<path d="M-45 403V447L-6.91083 469L31.1783 447V403L-6.91083 381L-45 403Z" fill="#FCFCFC"/>
<path d="M375 403V447L413.089 469L451.178 447V403L413.089 381L375 403Z" fill="#FCFCFC"/>
<path d="M711 403V447L749.089 469L787.178 447V403L749.089 381L711 403Z" fill="#FCFCFC"/>
<path d="M627 403V447L665.089 469L703.178 447V403L665.089 381L627 403Z" fill="#FCFCFC"/>
<path d="M795 403V447L833.089 469L871.165 447V403L833.089 381L795 403Z" fill="#FCFCFC"/>
<path d="M879 403V447L917.089 469L955.178 447V403L917.089 381L879 403Z" fill="#FCFCFC"/>
<path d="M963 403V447L1001.09 469L1039.18 447V403L1001.09 381L963 403Z" fill="#FCFCFC"/>
<path d="M1047 403V447L1085.09 469L1123.18 447V403L1085.09 381L1047 403Z" fill="#FCFCFC"/>
<path d="M1131 403V447L1169.09 469L1207.18 447V403L1169.09 381L1131 403Z" fill="#FCFCFC"/>
<path d="M1215 403V447L1253.09 469L1291.18 447V403L1253.09 381L1215 403Z" fill="#FCFCFC"/>
<path d="M1299 403V447L1337.09 469L1375.18 447V403L1337.09 381L1299 403Z" fill="#FCFCFC"/>
<path d="M1383 403V447L1421.09 469L1459.18 447V403L1421.09 381L1383 403Z" fill="#FCFCFC"/>
<path d="M1467 403V447L1505.09 469L1543.18 447V403L1505.09 381L1467 403Z" fill="#FCFCFC"/>
<path d="M1551 403V447L1589.09 469L1627.18 447V403L1589.09 381L1551 403Z" fill="#FCFCFC"/>
<path d="M1635 403V447L1673.09 469L1711.18 447V403L1673.09 381L1635 403Z" fill="#FCFCFC"/>
<path d="M1719 403V447L1757.09 469L1795.18 447V403L1757.09 381L1719 403Z" fill="#FCFCFC"/>
<path d="M1803 403V447L1841.09 469L1879.18 447V403L1841.09 381L1803 403Z" fill="#FCFCFC"/>
<path d="M1887 403V447L1925.09 469L1963.18 447V403L1925.09 381L1887 403Z" fill="#FCFCFC"/>
<path d="M543 403V447L581.089 469L619.178 447V403L581.089 381L543 403Z" fill="#FCFCFC"/>
<path d="M459 403V447L497.089 469L535.178 447V403L497.089 381L459 403Z" fill="#FCFCFC"/>
<path d="M249 330V374L287.089 396L325.178 374V330L287.089 308L249 330Z" fill="#FCFCFC"/>
<path d="M165 330V374L203.089 396L241.178 374V330L203.089 308L165 330Z" fill="#FCFCFC"/>
<path d="M81 330V374L119.089 396L157.178 374V330L119.089 308L81 330Z" fill="#FCFCFC"/>
<path d="M-3 330V374L35.0892 396L73.1783 374V330L35.0892 308L-3 330Z" fill="#FCFCFC"/>
<path d="M333 330V374L371.089 396L409.178 374V330L371.089 308L333 330Z" fill="#FCFCFC"/>
<path d="M669 330V374L707.089 396L745.178 374V330L707.089 308L669 330Z" fill="#FCFCFC"/>
<path d="M585 330V374L623.089 396L661.178 374V330L623.089 308L585 330Z" fill="#FCFCFC"/>
<path d="M753 330V374L791.089 396L829.165 374V330L791.089 308L753 330Z" fill="#FCFCFC"/>
<path d="M837 330V374L875.089 396L913.178 374V330L875.089 308L837 330Z" fill="#FCFCFC"/>
<path d="M921 330V374L959.089 396L997.178 374V330L959.089 308L921 330Z" fill="#FCFCFC"/>
<path d="M1005 330V374L1043.09 396L1081.18 374V330L1043.09 308L1005 330Z" fill="#FCFCFC"/>
<path d="M1089 330V374L1127.09 396L1165.18 374V330L1127.09 308L1089 330Z" fill="#FCFCFC"/>
<path d="M1173 330V374L1211.09 396L1249.18 374V330L1211.09 308L1173 330Z" fill="#FCFCFC"/>
<path d="M1257 330V374L1295.09 396L1333.18 374V330L1295.09 308L1257 330Z" fill="#FCFCFC"/>
<path d="M1341 330V374L1379.09 396L1417.18 374V330L1379.09 308L1341 330Z" fill="#FCFCFC"/>
<path d="M1425 330V374L1463.09 396L1501.18 374V330L1463.09 308L1425 330Z" fill="#FCFCFC"/>
<path d="M1509 330V374L1547.09 396L1585.18 374V330L1547.09 308L1509 330Z" fill="#FCFCFC"/>
<path d="M1593 330V374L1631.09 396L1669.18 374V330L1631.09 308L1593 330Z" fill="#FCFCFC"/>
<path d="M1677 330V374L1715.09 396L1753.18 374V330L1715.09 308L1677 330Z" fill="#FCFCFC"/>
<path d="M1761 330V374L1799.09 396L1837.18 374V330L1799.09 308L1761 330Z" fill="#FCFCFC"/>
<path d="M1845 330V374L1883.09 396L1921.18 374V330L1883.09 308L1845 330Z" fill="#FCFCFC"/>
<path d="M501 330V374L539.089 396L577.178 374V330L539.089 308L501 330Z" fill="#FCFCFC"/>
<path d="M417 330V374L455.089 396L493.178 374V330L455.089 308L417 330Z" fill="#FCFCFC"/>
<path d="M291 256V300L329.089 322L367.178 300V256L329.089 234L291 256Z" fill="#FCFCFC"/>
<path d="M207 256V300L245.089 322L283.178 300V256L245.089 234L207 256Z" fill="#FCFCFC"/>
<path d="M123 256V300L161.089 322L199.178 300V256L161.089 234L123 256Z" fill="#FCFCFC"/>
<path d="M39 256V300L77.0892 322L115.178 300V256L77.0892 234L39 256Z" fill="#FCFCFC"/>
<path d="M-45 256V300L-6.91083 322L31.1783 300V256L-6.91083 234L-45 256Z" fill="#FCFCFC"/>
<path d="M375 256V300L413.089 322L451.178 300V256L413.089 234L375 256Z" fill="#FCFCFC"/>
<path d="M711 256V300L749.089 322L787.178 300V256L749.089 234L711 256Z" fill="#FCFCFC"/>
<path d="M627 256V300L665.089 322L703.178 300V256L665.089 234L627 256Z" fill="#FCFCFC"/>
<path d="M795 256V300L833.089 322L871.165 300V256L833.089 234L795 256Z" fill="#FCFCFC"/>
<path d="M879 256V300L917.089 322L955.178 300V256L917.089 234L879 256Z" fill="#FCFCFC"/>
<path d="M963 256V300L1001.09 322L1039.18 300V256L1001.09 234L963 256Z" fill="#FCFCFC"/>
<path d="M1047 256V300L1085.09 322L1123.18 300V256L1085.09 234L1047 256Z" fill="#FCFCFC"/>
<path d="M1131 256V300L1169.09 322L1207.18 300V256L1169.09 234L1131 256Z" fill="#FCFCFC"/>
<path d="M1215 256V300L1253.09 322L1291.18 300V256L1253.09 234L1215 256Z" fill="#FCFCFC"/>
<path d="M1299 256V300L1337.09 322L1375.18 300V256L1337.09 234L1299 256Z" fill="#FCFCFC"/>
<path d="M1383 256V300L1421.09 322L1459.18 300V256L1421.09 234L1383 256Z" fill="#FCFCFC"/>
<path d="M1467 256V300L1505.09 322L1543.18 300V256L1505.09 234L1467 256Z" fill="#FCFCFC"/>
<path d="M1551 256V300L1589.09 322L1627.18 300V256L1589.09 234L1551 256Z" fill="#FCFCFC"/>
<path d="M1635 256V300L1673.09 322L1711.18 300V256L1673.09 234L1635 256Z" fill="#FCFCFC"/>
<path d="M1719 256V300L1757.09 322L1795.18 300V256L1757.09 234L1719 256Z" fill="#FCFCFC"/>
<path d="M1803 256V300L1841.09 322L1879.18 300V256L1841.09 234L1803 256Z" fill="#FCFCFC"/>
<path d="M1887 256V300L1925.09 322L1963.18 300V256L1925.09 234L1887 256Z" fill="#FCFCFC"/>
<path d="M543 256V300L581.089 322L619.178 300V256L581.089 234L543 256Z" fill="#FCFCFC"/>
<path d="M459 256V300L497.089 322L535.178 300V256L497.089 234L459 256Z" fill="#FCFCFC"/>
<path d="M249 183V227L287.089 249L325.178 227V183L287.089 161L249 183Z" fill="#FCFCFC"/>
<path d="M165 183V227L203.089 249L241.178 227V183L203.089 161L165 183Z" fill="#FCFCFC"/>
<path d="M81 183V227L119.089 249L157.178 227V183L119.089 161L81 183Z" fill="#FCFCFC"/>
<path d="M-3 183V227L35.0892 249L73.1783 227V183L35.0892 161L-3 183Z" fill="#FCFCFC"/>
<path d="M333 183V227L371.089 249L409.178 227V183L371.089 161L333 183Z" fill="#FCFCFC"/>
<path d="M669 183V227L707.089 249L745.178 227V183L707.089 161L669 183Z" fill="#FCFCFC"/>
<path d="M585 183V227L623.089 249L661.178 227V183L623.089 161L585 183Z" fill="#FCFCFC"/>
<path d="M753 183V227L791.089 249L829.165 227V183L791.089 161L753 183Z" fill="#FCFCFC"/>
<path d="M837 183V227L875.089 249L913.178 227V183L875.089 161L837 183Z" fill="#FCFCFC"/>
<path d="M921 183V227L959.089 249L997.178 227V183L959.089 161L921 183Z" fill="#FCFCFC"/>
<path d="M1005 183V227L1043.09 249L1081.18 227V183L1043.09 161L1005 183Z" fill="#FCFCFC"/>
<path d="M1089 183V227L1127.09 249L1165.18 227V183L1127.09 161L1089 183Z" fill="#FCFCFC"/>
<path d="M1173 183V227L1211.09 249L1249.18 227V183L1211.09 161L1173 183Z" fill="#FCFCFC"/>
<path d="M1257 183V227L1295.09 249L1333.18 227V183L1295.09 161L1257 183Z" fill="#FCFCFC"/>
<path d="M1341 183V227L1379.09 249L1417.18 227V183L1379.09 161L1341 183Z" fill="#FCFCFC"/>
<path d="M1425 183V227L1463.09 249L1501.18 227V183L1463.09 161L1425 183Z" fill="#FCFCFC"/>
<path d="M1509 183V227L1547.09 249L1585.18 227V183L1547.09 161L1509 183Z" fill="#FCFCFC"/>
<path d="M1593 183V227L1631.09 249L1669.18 227V183L1631.09 161L1593 183Z" fill="#FCFCFC"/>
<path d="M1677 183V227L1715.09 249L1753.18 227V183L1715.09 161L1677 183Z" fill="#FCFCFC"/>
<path d="M1761 183V227L1799.09 249L1837.18 227V183L1799.09 161L1761 183Z" fill="#FCFCFC"/>
<path d="M1845 183V227L1883.09 249L1921.18 227V183L1883.09 161L1845 183Z" fill="#FCFCFC"/>
<path d="M501 183V227L539.089 249L577.178 227V183L539.089 161L501 183Z" fill="#FCFCFC"/>
<path d="M417 183V227L455.089 249L493.178 227V183L455.089 161L417 183Z" fill="#FCFCFC"/>
<path d="M291 109V153L329.089 175L367.178 153V109L329.089 87L291 109Z" fill="#FCFCFC"/>
<path d="M207 109V153L245.089 175L283.178 153V109L245.089 87L207 109Z" fill="#FCFCFC"/>
<path d="M123 109V153L161.089 175L199.178 153V109L161.089 87L123 109Z" fill="#FCFCFC"/>
<path d="M39 109V153L77.0892 175L115.178 153V109L77.0892 87L39 109Z" fill="#FCFCFC"/>
<path d="M-45 109V153L-6.91083 175L31.1783 153V109L-6.91083 87L-45 109Z" fill="#FCFCFC"/>
<path d="M375 109V153L413.089 175L451.178 153V109L413.089 87L375 109Z" fill="#FCFCFC"/>
<path d="M711 109V153L749.089 175L787.178 153V109L749.089 87L711 109Z" fill="#FCFCFC"/>
<path d="M627 109V153L665.089 175L703.178 153V109L665.089 87L627 109Z" fill="#FCFCFC"/>
<path d="M795 109V153L833.089 175L871.165 153V109L833.089 87L795 109Z" fill="#FCFCFC"/>
<path d="M879 109V153L917.089 175L955.178 153V109L917.089 87L879 109Z" fill="#FCFCFC"/>
<path d="M963 109V153L1001.09 175L1039.18 153V109L1001.09 87L963 109Z" fill="#FCFCFC"/>
<path d="M1047 109V153L1085.09 175L1123.18 153V109L1085.09 87L1047 109Z" fill="#FCFCFC"/>
<path d="M1131 109V153L1169.09 175L1207.18 153V109L1169.09 87L1131 109Z" fill="#FCFCFC"/>
<path d="M1215 109V153L1253.09 175L1291.18 153V109L1253.09 87L1215 109Z" fill="#FCFCFC"/>
<path d="M1299 109V153L1337.09 175L1375.18 153V109L1337.09 87L1299 109Z" fill="#FCFCFC"/>
<path d="M1383 109V153L1421.09 175L1459.18 153V109L1421.09 87L1383 109Z" fill="#FCFCFC"/>
<path d="M1467 109V153L1505.09 175L1543.18 153V109L1505.09 87L1467 109Z" fill="#FCFCFC"/>
<path d="M1551 109V153L1589.09 175L1627.18 153V109L1589.09 87L1551 109Z" fill="#FCFCFC"/>
<path d="M1635 109V153L1673.09 175L1711.18 153V109L1673.09 87L1635 109Z" fill="#FCFCFC"/>
<path d="M1719 109V153L1757.09 175L1795.18 153V109L1757.09 87L1719 109Z" fill="#FCFCFC"/>
<path d="M1803 109V153L1841.09 175L1879.18 153V109L1841.09 87L1803 109Z" fill="#FCFCFC"/>
<path d="M1887 109V153L1925.09 175L1963.18 153V109L1925.09 87L1887 109Z" fill="#FCFCFC"/>
<path d="M543 109V153L581.089 175L619.178 153V109L581.089 87L543 109Z" fill="#FCFCFC"/>
<path d="M459 109V153L497.089 175L535.178 153V109L497.089 87L459 109Z" fill="#FCFCFC"/>
</g>
<defs>
<radialGradient id="paint0_radial" cx="0" cy="0" r="1" gradientUnits="userSpaceOnUse" gradientTransform="translate(1743 528) rotate(90) scale(196)">
<stop stop-color="#FEEB19"/>
<stop offset="1" stop-color="#FEEB19" stop-opacity="0"/>
</radialGradient>
<radialGradient id="paint1_radial" cx="0" cy="0" r="1" gradientUnits="userSpaceOnUse" gradientTransform="translate(270 454) rotate(90) scale(196)">
<stop stop-color="#77B3D1"/>
<stop offset="1" stop-color="#77B3D1" stop-opacity="0"/>
</radialGradient>
<clipPath id="clip0">
<rect width="1920" height="1130" fill="white"/>
</clipPath>
</defs>
</svg>
