<svg width="1989" height="1576" viewBox="0 0 1989 1576" fill="none" xmlns="http://www.w3.org/2000/svg">
<path d="M625.115 469.005L538.551 619.5L365.448 619.5L278.884 469.005L365.448 318.5L538.551 318.5L625.115 469.005Z" stroke="#F3F3F3" stroke-width="5"/>
<path d="M1170.11 469.505L1083.31 619.5L909.694 619.5L822.888 469.505L909.694 319.5L1083.31 319.5L1170.11 469.505Z" stroke="#F3F3F3" stroke-width="5"/>
<path d="M1170.11 152.505L1083.31 302.5L909.694 302.5L822.888 152.505L909.694 2.50001L1083.31 2.50002L1170.11 152.505Z" stroke="#F3F3F3" stroke-width="5"/>
<path d="M1714.11 469.505L1627.55 619.5L1454.45 619.5L1367.89 469.505L1454.45 319.5L1627.55 319.5L1714.11 469.505Z" stroke="#F3F3F3" stroke-width="5"/>
<path d="M364.002 940L539.997 940L628 787.005L539.997 634L364.002 634" stroke="#F3F3F3" stroke-width="5"/>
<path d="M1170.11 787.505L1083.31 937.5L909.694 937.5L822.888 787.505L909.694 637.5L1083.31 637.5L1170.11 787.505Z" stroke="#F3F3F3" stroke-width="5"/>
<path d="M1714.11 787.505L1627.55 937.5L1454.45 937.5L1367.89 787.505L1454.45 637.5L1627.55 637.5L1714.11 787.505Z" stroke="#F3F3F3" stroke-width="5"/>
<path d="M625.115 1105.01L538.551 1255.5L365.448 1255.5L278.884 1105.01L365.448 954.5L538.551 954.5L625.115 1105.01Z" stroke="#F3F3F3" stroke-width="5"/>
<path d="M1170.11 1105.51L1083.31 1255.5L909.694 1255.5L822.888 1105.51L909.694 955.5L1083.31 955.5L1170.11 1105.51Z" stroke="#F3F3F3" stroke-width="5"/>
<path d="M1714.11 1105.51L1627.55 1255.5L1454.45 1255.5L1367.89 1105.51L1454.45 955.5L1627.55 955.5L1714.11 1105.51Z" stroke="#F3F3F3" stroke-width="5"/>
<path d="M625.115 1423.01L538.551 1573.5L365.448 1573.5L278.884 1423.01L365.448 1272.5L538.551 1272.5L625.115 1423.01Z" stroke="#F3F3F3" stroke-width="5"/>
<path d="M1170.11 1423.51L1083.31 1573.5L909.694 1573.5L822.888 1423.51L909.694 1273.5L1083.31 1273.5L1170.11 1423.51Z" stroke="#F3F3F3" stroke-width="5"/>
<path d="M1714.11 1423.51L1627.55 1573.5L1454.45 1573.5L1367.89 1423.51L1454.45 1273.5L1627.55 1273.5L1714.11 1423.51Z" stroke="#F3F3F3" stroke-width="5"/>
<path d="M896.116 310.005L809.551 460.5L636.449 460.5L549.884 310.005L636.449 159.5L809.551 159.5L896.116 310.005Z" stroke="#F3F3F3" stroke-width="5"/>
<path d="M266.997 157L355 310.005L266.997 463L91.0026 463L2.99998 310.005" stroke="#F3F3F3" stroke-width="5"/>
<path d="M1441.11 310.505L1354.31 460.5L1180.69 460.5L1093.89 310.505L1180.69 160.5L1354.31 160.5L1441.11 310.505Z" stroke="#F3F3F3" stroke-width="5"/>
<path d="M1900.75 463L1724.25 463L1636 310.505L1724.25 158L1900.75 158" stroke="#F3F3F3" stroke-width="5"/>
<path d="M896.116 628.005L809.551 778.5L636.449 778.5L549.884 628.005L636.449 477.5L809.551 477.5L896.116 628.005Z" stroke="#F3F3F3" stroke-width="5"/>
<path d="M91.0026 475L266.997 475L355 628.005L318.478 691.5" stroke="#F3F3F3" stroke-width="5"/>
<path d="M1441.11 628.505L1354.31 778.5L1180.69 778.5L1093.89 628.505L1180.69 478.5L1354.31 478.5L1441.11 628.505Z" stroke="#F3F3F3" stroke-width="5"/>
<path d="M1986.11 628.505L1899.31 778.5L1725.69 778.5L1638.89 628.505L1725.69 478.5L1899.31 478.5L1986.11 628.505Z" stroke="#F3F3F3" stroke-width="5"/>
<path d="M896.116 946.005L809.551 1096.5L636.449 1096.5L549.884 946.005L636.449 795.5L809.551 795.5L896.116 946.005Z" stroke="#F3F3F3" stroke-width="5"/>
<path d="M2.99998 946.005L91.0026 1099L266.997 1099L355 946.005L323.938 892" stroke="#F3F3F3" stroke-width="5"/>
<path d="M1441.11 946.505L1354.31 1096.5L1180.69 1096.5L1093.89 946.505L1180.69 796.5L1354.31 796.5L1441.11 946.505Z" stroke="#F3F3F3" stroke-width="5"/>
<path d="M1986.11 946.505L1899.31 1096.5L1725.69 1096.5L1638.89 946.505L1725.69 796.5L1899.31 796.5L1986.11 946.505Z" stroke="#F3F3F3" stroke-width="5"/>
<path d="M896.116 1264.01L809.551 1414.5L636.449 1414.5L549.884 1264.01L636.449 1113.5L809.551 1113.5L896.116 1264.01Z" stroke="#F3F3F3" stroke-width="5"/>
<path d="M352.116 1264.01L265.551 1414.5L92.4486 1414.5L5.88402 1264.01L92.4487 1113.5L265.551 1113.5L352.116 1264.01Z" stroke="#F3F3F3" stroke-width="5"/>
<path d="M1441.11 1264.51L1354.31 1414.5L1180.69 1414.5L1093.89 1264.51L1180.69 1114.5L1354.31 1114.5L1441.11 1264.51Z" stroke="#F3F3F3" stroke-width="5"/>
<path d="M1986.11 1264.51L1899.31 1414.5L1725.69 1414.5L1638.89 1264.51L1725.69 1114.5L1899.31 1114.5L1986.11 1264.51Z" stroke="#F3F3F3" stroke-width="5"/>
</svg>
