<svg width="216" height="55" viewBox="0 0 216 55" fill="none" xmlns="http://www.w3.org/2000/svg">
<path fill-rule="evenodd" clip-rule="evenodd" d="M116.81 1.89917C106.882 3.77402 106.244 3.94863 106.244 4.79052C106.244 5.25261 106.743 5.63064 107.353 5.63064C107.963 5.63064 109.086 6.13624 109.848 6.75414L111.234 7.87705L111.527 30.7115L111.821 53.5454L115.636 54.2168C121.165 55.1898 129.024 55.1604 132.405 54.1539C141.416 51.473 146.256 44.5321 146.322 34.1972C146.404 21.4831 136.919 13.5445 126.055 17.2354L122.68 18.3824V9.65489C122.68 3.02737 122.503 0.944404 121.946 0.997316C121.543 1.03612 119.232 1.44178 116.81 1.89917ZM0.106443 3.1085C0.217384 3.6876 1.06676 4.27139 2.10808 4.4848C4.67793 5.01098 5.28018 5.49777 6.34029 7.90703C7.0934 9.61785 7.32585 12.916 7.51368 24.5784C7.86646 46.4422 6.97952 50.8175 2.0036 51.7522C0.81318 51.9756 -0.000976562 52.476 -0.000976562 52.9839C-0.000976562 53.7082 2.11395 53.8393 13.7933 53.8393C25.4134 53.8393 27.5876 53.7059 27.5876 52.9921C27.5876 52.4677 26.6584 51.9609 25.151 51.6623C23.589 51.3525 22.3088 50.6352 21.5839 49.6628C20.2537 47.8791 19.4167 42.2369 19.3891 34.8792L19.3697 29.735H23.14C26.3379 29.735 27.1843 29.9654 28.7123 31.2536C29.7031 32.089 30.7298 33.6099 30.9933 34.634C31.3238 35.9186 31.8762 36.5547 32.7743 36.6859C34.075 36.8757 34.0762 36.8675 33.9136 28.1611C33.7639 20.145 33.6641 19.4465 32.6692 19.4465C31.9372 19.4465 31.3326 20.1897 30.7984 21.7447C29.5393 25.4127 28.3554 26.2116 23.5837 26.612L19.3697 26.9659L19.375 19.3848C19.3774 15.2154 19.5464 10.4151 19.7501 8.71717L20.1205 5.63064H25.6335C28.9964 5.63064 31.9043 5.94753 33.0883 6.44313C35.7873 7.57251 38.5074 10.6555 40.0224 14.3023C41.4018 17.624 41.585 17.7733 42.904 16.654C43.6013 16.0625 43.7281 14.5728 43.5526 9.01113L43.3354 2.10318H21.6244C1.45535 2.10318 -0.0731764 2.17431 0.106443 3.1085ZM52.5347 16.4153C48.9723 17.3412 46.6108 18.57 44.4442 20.6253C38.2884 26.4662 36.5216 36.7911 40.269 45.0207C42.0986 49.0373 44.0639 51.1502 47.8388 53.1585C50.4532 54.5501 51.4142 54.72 56.6437 54.7165C63.7521 54.7118 67.3351 53.3708 71.0637 49.3195C75.0047 45.0377 76.0144 42.1799 76.0144 35.3078C76.0144 29.8091 75.8829 29.1488 74.0415 25.4021C71.9424 21.1315 68.9664 18.4371 64.6725 16.9197C61.4617 15.7844 55.8583 15.5516 52.5347 16.4153ZM84.9507 17.4329C80.5031 18.2878 76.7123 19.1391 76.5274 19.3248C75.8934 19.9598 76.9629 20.9163 78.306 20.9163C79.0438 20.9163 80.1509 21.4731 80.7661 22.1539C81.7933 23.2909 81.8843 24.4285 81.8843 36.1168C81.8843 50.1308 81.6735 51.1279 78.5355 51.9421C77.5159 52.2073 76.5749 52.7423 76.4458 53.1315C76.2673 53.6677 79.0685 53.8393 87.999 53.8393C97.5822 53.8393 99.7875 53.6888 99.7875 53.0351C99.7875 52.5383 98.8712 52.1073 97.3937 51.9086C96.0771 51.7323 94.6584 51.1185 94.2398 50.5459C93.2701 49.2178 92.753 43.702 92.7477 34.627C92.743 26.592 93.013 25.953 96.7011 25.2604C98.6288 24.8982 101.364 25.3398 103.896 26.4221C104.569 26.7096 105.23 25.6496 106.69 21.9469C108.461 17.4541 108.529 17.0408 107.605 16.36C106.113 15.2612 102.823 15.4711 99.9865 16.8468C97.5687 18.0191 95.8623 19.6429 93.8724 22.6648C92.9872 24.0087 92.9579 23.9135 93.2056 20.4889C93.3476 18.5194 93.3682 16.6763 93.2508 16.3929C93.1334 16.1102 89.3983 16.5781 84.9507 17.4329ZM164.558 16.2371C157.517 17.6323 152.456 22.7089 150.513 30.3217C147.925 40.4679 152.633 50.3853 161.638 53.76C168.38 56.2862 176.743 54.8441 181.585 50.3201C184.388 47.7015 184.085 46.2659 181.102 48.029C178.514 49.5582 173.42 50.0885 170.458 49.1366C165.14 47.4287 161.439 42.3075 161.427 36.6429L161.422 33.8504H172.949H184.476L184.088 30.5481C182.822 19.7593 175.151 14.1383 164.558 16.2371ZM198.246 16.2289C191.645 17.8933 188.303 21.4084 187.944 27.0682C187.559 33.1313 189.76 35.8475 197.521 38.8852C199.781 39.7694 202.489 41.1287 203.538 41.9047C205.183 43.1223 205.446 43.6696 205.446 45.8802C205.446 48.0431 205.152 48.6916 203.565 50.0285C201.932 51.4048 201.288 51.5806 198.669 51.363C194.704 51.0338 192.587 49.4465 190.247 45.0501C187.283 39.4796 186.387 40.2739 186.986 47.9432L187.396 53.1909L191.4 54.1027C196.395 55.2409 203.22 55.2762 206.846 54.1827C212.595 52.4501 215.973 48.136 215.999 42.4926C216.023 37.1391 214.163 35.142 205.284 30.9908C199.929 28.4874 198.836 27.7431 198.163 26.1387C197.185 23.8083 197.821 21.088 199.707 19.533C200.707 18.7093 201.657 18.5141 203.598 18.7334C206.967 19.1138 208.896 20.6341 210.917 24.5061C211.828 26.2504 212.884 27.6773 213.265 27.6773C214.095 27.6773 214.487 23.3991 213.974 19.9504C213.633 17.6616 213.458 17.4765 211.075 16.8756C207.307 15.9255 200.759 15.5951 198.246 16.2289ZM60.6199 20.1897C63.5373 23.2392 64.2223 26.2058 64.2493 35.908C64.2698 43.0864 64.075 45.2452 63.2009 47.5128C60.2942 55.0587 53.7956 54.1486 51.2703 45.8426C50.0036 41.6755 49.8123 28.5433 50.9616 24.6172C52.6709 18.7769 57.2571 16.6745 60.6199 20.1897ZM170.907 20.3284C171.929 21.7053 173.344 29.4551 172.759 30.4699C172.62 30.7127 170.012 30.9108 166.963 30.9108H161.422V29.2541C161.422 26.4985 163.083 21.7829 164.652 20.088C166.53 18.0591 169.303 18.1655 170.907 20.3284ZM130.546 22.1198C133.473 24.6931 134.675 28.6861 134.608 35.6141C134.568 39.8847 134.245 42.017 133.237 44.672C131.574 49.0543 128.88 52.045 126.496 52.1579C122.344 52.3549 122.68 53.7311 122.68 36.5448C122.68 19.5871 122.484 20.4566 126.328 20.3749C127.963 20.3402 129.02 20.777 130.546 22.1198Z" fill="#00305A"/>
</svg>
