<svg width="220" height="52" viewBox="0 0 220 52" fill="none" xmlns="http://www.w3.org/2000/svg">
<path fill-rule="evenodd" clip-rule="evenodd" d="M215.31 4.36492C212.731 6.73177 207.558 11.4186 203.815 14.7804C200.072 18.1422 196.997 21.0025 196.982 21.1363C196.967 21.2701 198.945 24.6879 201.378 28.7313C203.811 32.7746 205.956 36.3707 206.144 36.7225C206.472 37.3355 206.28 37.3623 201.561 37.3623H196.635L193.714 32.4432C192.107 29.7378 190.664 27.4443 190.505 27.3465C190.347 27.2487 190.014 27.3648 189.766 27.6042C189.518 27.8436 184.43 32.4676 178.46 37.8795C172.491 43.2913 166.684 48.5938 165.556 49.6624L163.506 51.6052L158.934 51.615C155.108 51.6228 154.443 51.5508 154.859 51.1729C155.133 50.9247 157.118 49.129 159.271 47.1829C163.38 43.4682 164.439 42.5079 178.108 30.1103C182.777 25.8754 186.728 22.2178 186.887 21.9825C187.078 21.7013 186.275 20.0442 184.544 17.149C183.097 14.7258 181.802 12.6177 181.667 12.4642C181.532 12.3107 178.231 12.2007 174.332 12.2193C168.091 12.2492 167.176 12.3232 166.695 12.8377C166.022 13.5586 163.637 19.7067 163.88 20.0989C163.977 20.2554 167.399 20.3834 171.486 20.3834H178.916L178.31 22.1662L177.704 23.949L169.89 24.04L162.076 24.131L159.545 30.6618L157.013 37.1925L150.836 37.2852C147.439 37.3358 144.66 37.2567 144.66 37.1093C144.66 36.8764 148.722 26.1366 152.143 17.3276C153.551 13.7033 155.985 11.0868 159.499 9.42258L161.808 8.32846L175.414 8.22591L189.019 8.1237L191.204 11.8665C192.406 13.925 193.542 15.6124 193.729 15.6165C193.915 15.6202 194.603 15.1254 195.257 14.5169C195.91 13.9084 198.737 11.3507 201.539 8.83376C204.34 6.31681 207.66 3.29933 208.916 2.12847L211.2 0L215.6 0.0309027L220 0.0621473L215.31 4.36492ZM18.02 43.8261C18.9049 44.2999 18.8683 44.5882 17.4424 48.3595L16.2077 51.6245H14.5607H12.9138L13.6191 49.8417C14.6028 47.3554 15.6202 44.6795 15.6202 44.5783C15.6205 44.5318 14.8949 44.4944 14.0075 44.4954L12.3946 44.4975L11.0855 48.061L9.77642 51.6245H8.11419C7.20005 51.6245 6.45196 51.5753 6.45196 51.5148C6.45196 51.4547 7.05878 49.8917 7.80042 48.0413C8.54206 46.191 9.03852 44.5824 8.90404 44.4662C8.76923 44.3504 8.04797 44.3229 7.3009 44.4058L5.9426 44.5559L4.58429 48.0053L3.22598 51.4547L1.61299 51.5583C0.725676 51.615 0 51.6065 0 51.5389C0 51.4717 0.586109 49.8968 1.30262 48.0396C2.01912 46.1828 2.70201 44.3956 2.82018 44.0689C3.01544 43.5287 3.68441 43.4747 10.1989 43.4747C14.488 43.4747 17.6268 43.6156 18.02 43.8261ZM37.8941 45.597C37.4475 46.7645 36.7398 48.5979 36.3218 49.672L35.5612 51.6245H33.9431H32.325L32.9784 49.9053C33.3376 48.9595 33.5672 48.081 33.4887 47.9527C33.41 47.8243 32.0649 47.7679 30.4994 47.827L27.6531 47.935L26.975 49.6947C26.3023 51.4411 26.2846 51.4554 24.694 51.5583C23.8125 51.615 23.0912 51.5899 23.0912 51.5023C23.0912 50.7182 25.4075 45.4795 26.07 44.7654C27.1475 43.6041 27.3135 43.5765 33.5302 43.5209L38.706 43.4747L37.8941 45.597ZM48.9113 43.7294C48.9181 43.8696 49.2899 44.4326 49.7382 44.9807L50.5528 45.9774L52.464 44.7084C54.0994 43.6224 54.6043 43.454 55.9636 43.5419L57.5518 43.6445L54.7534 45.4826C53.2144 46.4935 51.957 47.4868 51.959 47.6898C51.9607 47.8929 52.5689 48.823 53.3102 49.7569L54.658 51.4547L52.8925 51.56C51.0697 51.6687 51.1039 51.6877 49.7473 49.8044C49.3134 49.202 49.1986 49.2305 47.2711 50.4204C45.6127 51.4442 44.9871 51.6486 43.7847 51.5614L42.3191 51.4547L45.0999 49.6051C47.737 47.8505 48.3072 47.1744 47.5452 46.7034C47.3608 46.5893 46.7421 45.8164 46.1706 44.9855L45.1311 43.4747H47.0151C48.0512 43.4747 48.9045 43.5891 48.9113 43.7294ZM29.1897 44.5002C28.8158 44.7335 28.1414 46.5251 28.3187 46.8141C28.3951 46.9384 29.7565 46.9913 31.344 46.9312C33.6955 46.8426 34.2613 46.7166 34.3951 46.2521C34.4857 45.9386 34.6654 45.4266 34.7941 45.1145C35.0002 44.616 34.6902 44.5331 32.2506 44.4353C30.7229 44.3739 29.3456 44.4031 29.1897 44.5002Z" fill="#FF6A00"/>
<path fill-rule="evenodd" clip-rule="evenodd" d="M76.6989 18.0954C75.6035 20.9251 74.707 23.5171 74.707 23.8553C74.707 24.4346 75.179 24.4652 82.7679 24.3796L90.8284 24.2886L93.0401 18.603L95.2514 12.9172L100.6 12.9151C103.541 12.9138 105.948 12.9963 105.948 13.0985C105.948 13.2007 104.316 17.4974 102.321 22.6464C98.9973 31.2258 98.5555 32.1603 97.0372 33.8215C96.062 34.8888 94.5858 36.0247 93.4482 36.5833L91.516 37.5321L74.9617 37.6292C61.6435 37.7073 58.4086 37.6411 58.4148 37.2896C58.4188 37.0495 58.7163 36.2053 59.0756 35.4134L59.7289 33.9743L73.4044 33.8854L87.0801 33.7967L88.1705 31.2499C88.7702 29.8491 89.2714 28.5122 89.2847 28.2786C89.3037 27.9468 86.8132 27.8541 77.899 27.8541H66.4892L65.3346 26.6996C63.6038 24.9687 63.7135 23.2919 65.9371 17.5038L67.6944 12.9297L72.8135 12.8363C75.6293 12.7851 78.1034 12.7898 78.3119 12.8469C78.5445 12.9104 77.9204 14.9407 76.6989 18.0954ZM59.1211 13.6887C60.4492 14.5814 61.1884 16.3133 60.9297 17.9256C60.731 19.1647 54.0916 36.6125 53.5659 37.2774C53.3235 37.5844 51.7726 37.7019 47.969 37.7019C43.1216 37.7019 42.7205 37.655 42.8727 37.1076C42.9633 36.7809 44.7407 32.109 46.8223 26.7257C48.9035 21.3427 50.5189 16.7965 50.4119 16.6233C50.305 16.4501 48.5073 16.3089 46.4172 16.3092L42.617 16.3095L38.542 26.921L34.4671 37.5321L29.1188 37.6255C24.9165 37.6991 23.7704 37.6248 23.7704 37.2791C23.7704 37.037 25.5277 32.2775 27.6756 26.7023C29.8234 21.1275 31.5807 16.5082 31.5807 16.4372C31.5807 16.3666 29.7626 16.3085 27.5408 16.3085H23.5012L22.2889 19.4496C21.6223 21.177 19.7845 25.9525 18.2054 30.0614L15.334 37.5321L9.87427 37.6255C6.87139 37.6767 4.41455 37.599 4.41455 37.453C4.41455 37.3069 5.60783 34.1322 7.06631 30.3982C8.52479 26.6646 10.6261 21.2062 11.7355 18.2689L13.7529 12.928L35.8601 12.9206L57.9672 12.9127L59.1211 13.6887ZM145.487 13.9111C145.972 14.3668 146.542 15.3176 146.754 16.0239C147.208 17.5391 146.924 18.5321 143.614 26.9981C141.709 31.871 141.316 32.6001 139.765 34.1462C138.815 35.0929 137.274 36.2424 136.34 36.6998L134.642 37.5321L121.332 37.635C112.515 37.7032 107.561 37.6136 106.655 37.3698C105.758 37.1283 104.981 36.6003 104.399 35.8366C102.925 33.9044 103.12 32.56 105.936 25.2615C109.002 17.3123 109.973 15.9143 113.867 13.8466L115.626 12.9127L130.116 12.9976L144.606 13.0825L145.487 13.9111ZM120.606 16.606C120.054 16.9564 113.701 33.2599 113.956 33.6728C114.056 33.8344 117.64 33.9665 121.92 33.9665C129.617 33.9665 129.708 33.958 130.202 33.2025C130.841 32.2255 136.51 17.5025 136.51 16.8209C136.51 16.3788 135.448 16.3092 128.785 16.3136C124.535 16.3167 120.855 16.4481 120.606 16.606ZM76.6595 43.2258C76.9417 44.0533 76.4589 44.1538 72.2016 44.1538C67.4747 44.1538 67.0886 44.2638 66.8441 45.6819C66.7323 46.3298 66.9293 46.3638 71.1414 46.4168C74.5701 46.4602 75.5559 46.5737 75.5559 46.9261C75.5559 47.2783 74.5036 47.4009 70.8572 47.4745L66.1581 47.5693L65.2834 49.5969L64.4086 51.6245H62.8228C61.9508 51.6245 61.1504 51.5379 61.0448 51.4323C60.7806 51.1681 63.1267 45.1549 63.8032 44.362C64.1037 44.0098 64.7485 43.5514 65.2355 43.3433C66.2182 42.9239 76.5203 42.8179 76.6595 43.2258ZM95.4089 43.6774C95.8443 44.0944 95.8022 44.4591 95.0694 46.6158C94.5895 48.0274 93.7732 49.5847 93.1555 50.2662L92.0784 51.4547L87.2883 51.5726C83.3064 51.6704 82.3563 51.5974 81.6588 51.1399C80.6139 50.4557 80.6163 50.3117 81.7159 47.3869C83.3295 43.0947 83.9489 42.7809 90.3275 43.0254C93.5997 43.1511 95.0541 43.3375 95.4089 43.6774ZM114.766 43.6305C115.414 44.4116 114.856 46.0521 113.553 47.1958C112.65 47.989 112.044 48.2318 110.945 48.2423L109.514 48.2556L111.127 49.7405C112.014 50.5572 112.74 51.3152 112.74 51.4248C112.74 51.5349 111.76 51.6245 110.564 51.6245C108.489 51.6245 108.3 51.5535 106.511 50.0964C105.48 49.256 104.57 48.5683 104.489 48.5683C104.408 48.5683 104.08 49.256 103.759 50.0964C103.181 51.6113 103.161 51.6245 101.562 51.6245C100.675 51.6245 99.8683 51.5437 99.7694 51.4452C99.671 51.3464 100.295 49.4376 101.156 47.2036L102.722 43.1412L108.538 43.1382C113.224 43.1358 114.434 43.2315 114.766 43.6305ZM134.935 43.6445C134.775 44.0621 133.923 44.1538 130.212 44.1538C126.961 44.1538 125.607 44.2737 125.411 44.5783C125.066 45.1152 123.27 49.6702 123.268 50.0115C123.267 50.1518 125.335 50.2662 127.863 50.2662C132.354 50.2662 132.451 50.2818 132.095 50.9454C131.757 51.578 131.384 51.6245 126.672 51.6245C121.309 51.6245 120.057 51.3899 119.718 50.3195C119.411 49.3521 121.135 45.1661 122.292 44.0689L123.277 43.1351H129.204C134.332 43.1351 135.104 43.2037 134.935 43.6445ZM154.291 43.6445C154.131 44.0618 153.281 44.1538 149.589 44.1538C144.9 44.1538 144.512 44.2652 144.268 45.6819C144.156 46.3292 144.363 46.3655 148.675 46.4562C152.051 46.5268 153.164 46.6562 153.061 46.9655C152.964 47.2589 151.541 47.407 148.178 47.4735L143.432 47.5676L143.027 48.6862C142.804 49.3015 142.622 49.909 142.622 50.0356C142.622 50.1623 144.691 50.2662 147.219 50.2662C151.709 50.2662 151.807 50.2818 151.451 50.9454C151.113 51.578 150.74 51.6245 146.028 51.6245C138.639 51.6245 138.215 51.3175 139.891 47.1764C141.519 43.1531 141.557 43.1351 148.573 43.1351C153.69 43.1351 154.46 43.2037 154.291 43.6445ZM86.6991 44.5783C86.3545 45.1152 84.5578 49.6702 84.5561 50.0115C84.5554 50.1518 85.7599 50.2662 87.2333 50.2662H89.9115L90.9703 47.6345C91.5527 46.1872 92.0281 44.8119 92.0271 44.5783C92.0261 44.2768 91.2926 44.1538 89.4986 44.1538C87.8489 44.1538 86.8771 44.3012 86.6991 44.5783ZM105.642 45.2231C105.437 45.8113 105.269 46.4225 105.269 46.5815C105.269 46.7404 106.476 46.8704 107.952 46.8704H110.636L111.008 45.8011C111.214 45.213 111.381 44.6017 111.381 44.4428C111.381 44.2839 110.174 44.1538 108.698 44.1538H106.015L105.642 45.2231Z" fill="#555658"/>
</svg>
