<svg width="129" height="75" viewBox="0 0 129 75" fill="none" xmlns="http://www.w3.org/2000/svg">
<path fill-rule="evenodd" clip-rule="evenodd" d="M6.49537 21.4023H109.756V67.9164C109.756 69.5602 109.106 71.1368 107.949 72.2991C106.792 73.4615 105.223 74.1145 103.587 74.1145H6.49537C4.8592 74.1145 3.29004 73.4615 2.13309 72.2991C0.976139 71.1368 0.326172 69.5602 0.326172 67.9164L0.326172 27.6005C0.326172 25.9566 0.976139 24.3801 2.13309 23.2177C3.29004 22.0554 4.8592 21.4023 6.49537 21.4023Z" fill="#E31724"/>
<path fill-rule="evenodd" clip-rule="evenodd" d="M122.585 15.785C124.66 13.0161 125.658 8.2422 124.043 0.285645C103.658 3.46827 108.03 14.5358 109.978 17.9969C112.98 13.32 116.521 9.01498 120.526 5.17097C117.811 9.11253 115.462 13.2967 113.51 17.6707C116.258 14.4881 119.481 14.321 122.585 15.785ZM129 22.2776C120.067 32.3983 115.276 26.7969 113.494 23.7575C116.269 22.8303 119.19 22.4257 122.11 22.564C119.162 21.6493 116.077 21.2589 112.995 21.4103C114.08 18.7926 118.547 11.0668 129 22.2776Z" fill="#85BC22"/>
<path fill-rule="evenodd" clip-rule="evenodd" d="M62.6994 32.9712H65.384V35.6685H62.6994V32.9712ZM24.2508 49.8709L30.9189 32.9712H35.3538L25.1061 57.2307C23.6014 60.7873 21.6295 62.3627 17.9786 62.5059C16.0851 62.5348 14.2035 62.2 12.4351 61.5193V58.1219C15.8958 59.1403 16.3472 59.2596 17.5827 59.2358C19.2695 59.2358 20.695 58.3287 22.3343 54.5255L12.4588 32.9712H16.7432L24.2508 49.8709ZM53.3228 62.5059H49.6245V54.6528C47.9988 55.0831 46.3244 55.2997 44.6432 55.2973C39.456 55.2973 36.3754 52.608 36.3278 47.293V40.8641H40.0103V47.4442C40.0103 50.6745 41.5942 52.0828 44.6432 52.0828C46.3244 52.0853 47.9988 51.8687 49.6245 51.4384V40.8641H53.3228V62.5059ZM68.0529 62.5059C61.1472 62.5059 57.8052 57.9548 57.8052 51.6134C57.8052 46.0438 61.3768 40.88 67.5777 40.88C75.307 40.88 76.7721 46.553 76.7721 52.7194H61.2105C61.2066 53.6279 61.3858 54.5278 61.7373 55.3648C62.0888 56.2019 62.6053 56.9588 63.2557 57.59C63.9062 58.2211 64.677 58.7135 65.5219 59.0374C66.3667 59.3612 67.2681 59.5099 68.1717 59.4745C69.3084 59.5228 70.4407 59.3042 71.4786 58.836C72.5165 58.3678 73.4315 57.6629 74.1508 56.7772L76.5266 58.4719C74.626 61.1613 71.8014 62.5059 68.0529 62.5059ZM67.5777 43.8001C63.9744 43.8001 61.7491 46.6406 61.3372 49.7993H73.3668C73.3668 46.561 71.189 43.8001 67.5777 43.8001ZM97.6159 43.8717H90.3935V62.5059H86.7109V43.8717H79.5835V40.8641H97.5763V43.8558L97.6159 43.8717ZM69.2249 32.9951H71.9096V35.6923H69.2249V32.9951Z" fill="white"/>
</svg>
