<svg width="227" height="53" viewBox="0 0 227 53" fill="none" xmlns="http://www.w3.org/2000/svg">
<path d="M95.8114 44.5579V46.8201H93.21V44.5579C90.3317 44.3456 88.0344 43.5645 86.3182 42.2148C85.4816 41.5574 84.8123 40.7114 84.3649 39.7459C83.9175 38.7804 83.7047 37.7227 83.7438 36.6592C83.7051 35.5965 83.9181 34.5398 84.3655 33.5752C84.8129 32.6106 85.482 31.7656 86.3182 31.109C88.0488 29.7557 90.3461 28.9746 93.21 28.7658V26.5037H95.8114V28.7658C98.7113 28.971 101.01 29.7521 102.709 31.109C103.551 31.7613 104.227 32.6048 104.679 33.5699C105.131 34.535 105.348 35.5939 105.31 36.6592C105.348 37.7252 105.131 38.7849 104.679 39.7509C104.227 40.7169 103.551 41.5614 102.709 42.2148C101.007 43.5645 98.7077 44.3456 95.8114 44.5579ZM88.1477 32.8097C87.5622 33.2608 87.0935 33.8458 86.7807 34.5156C86.468 35.1854 86.3205 35.9205 86.3505 36.6592C86.32 37.3956 86.4673 38.1286 86.7802 38.7959C87.0931 39.4632 87.5622 40.0452 88.1477 40.4925C89.3279 41.4031 91.0153 41.943 93.21 42.1122V31.1954C91.0189 31.3466 89.3314 31.8847 88.1477 32.8097ZM95.8114 31.19V42.1122C98.0025 41.9556 99.6918 41.4211 100.874 40.4925C101.456 40.0394 101.92 39.4535 102.229 38.7837C102.538 38.114 102.682 37.3799 102.649 36.643C102.682 35.9062 102.538 35.1722 102.229 34.5026C101.92 33.8329 101.455 33.2469 100.874 32.7935C99.6936 31.8829 98.0061 31.3502 95.8114 31.1954V31.19Z" fill="black"/>
<path d="M115.861 31.9944C116.822 31.9825 117.774 32.1724 118.656 32.5518C119.538 32.9313 120.331 33.4918 120.983 34.1972C122.342 35.6415 123.099 37.5504 123.099 39.5341C123.099 41.5179 122.342 43.4268 120.983 44.871C120.329 45.5707 119.535 46.1247 118.652 46.4968C117.77 46.8689 116.819 47.0508 115.861 47.0307C114.792 47.0772 113.73 46.84 112.782 46.3431C111.834 45.8463 111.035 45.1074 110.465 44.2016V52.3973H107.977V32.3939H110.465V34.8559C111.03 33.9433 111.828 33.1973 112.776 32.6945C113.724 32.1917 114.789 31.9501 115.861 31.9944ZM115.548 44.6443C116.217 44.6603 116.882 44.5392 117.502 44.2885C118.122 44.0378 118.684 43.6628 119.154 43.1866C119.627 42.7027 120 42.1294 120.25 41.5C120.5 40.8707 120.623 40.1978 120.611 39.5206C120.629 38.8476 120.508 38.178 120.258 37.5531C120.007 36.9282 119.631 36.3613 119.154 35.8871C118.189 34.9359 116.889 34.4026 115.535 34.4026C114.181 34.4026 112.881 34.9359 111.916 35.8871C111.438 36.3613 111.063 36.9282 110.812 37.5531C110.562 38.178 110.441 38.8476 110.459 39.5206C110.447 40.1978 110.569 40.8707 110.82 41.5C111.07 42.1294 111.443 42.7027 111.916 43.1866C112.39 43.6646 112.957 44.0405 113.582 44.2912C114.206 44.5419 114.876 44.662 115.548 44.6443Z" fill="black"/>
<path d="M137.918 34.8289V32.3939H140.406V46.7013H137.918V44.2177C137.35 45.1259 136.551 45.8666 135.603 46.3638C134.654 46.861 133.591 47.0967 132.521 47.0468C131.564 47.067 130.613 46.8851 129.73 46.513C128.848 46.1408 128.054 45.5869 127.399 44.8872C126.04 43.4429 125.283 41.534 125.283 39.5503C125.283 37.5666 126.04 35.6577 127.399 34.2134C128.052 33.5085 128.845 32.9483 129.727 32.5689C130.609 32.1895 131.561 31.9993 132.521 32.0106C133.59 31.9584 134.653 32.192 135.602 32.6873C136.55 33.1827 137.35 33.9219 137.918 34.8289ZM132.823 44.6442C133.496 44.6623 134.166 44.5423 134.79 44.2916C135.415 44.0409 135.982 43.6648 136.456 43.1865C136.931 42.7036 137.305 42.1306 137.556 41.5011C137.808 40.8716 137.931 40.1983 137.918 39.5206C137.93 38.8471 137.806 38.1781 137.554 37.5533C137.303 36.9285 136.928 36.3606 136.453 35.8832C135.978 35.4059 135.412 35.0289 134.788 34.7745C134.165 34.5201 133.497 34.3936 132.823 34.4023C132.153 34.388 131.488 34.5125 130.868 34.7681C130.249 35.0236 129.689 35.4046 129.224 35.8871C128.744 36.3602 128.367 36.9269 128.115 37.5519C127.864 38.1769 127.743 38.847 127.761 39.5206C127.748 40.1992 127.871 40.8735 128.122 41.504C128.373 42.1345 128.748 42.7084 129.224 43.1919C129.693 43.667 130.254 44.0409 130.873 44.2907C131.492 44.5405 132.156 44.6608 132.823 44.6442Z" fill="black"/>
<path d="M154.077 38.333V32.394H156.565V46.7014H154.077V40.6977H146.672V46.6744H144.179V32.394H146.672V38.333H154.077Z" fill="black"/>
<path d="M177.446 44.2989V32.394H179.934V46.7014H160.343V32.394H162.831V44.3258H168.924V32.394H171.412V44.3258L177.446 44.2989Z" fill="black"/>
<path d="M186.194 42.4146L194.122 32.394H196.124V46.7014H193.663V36.6323L185.741 46.6744H183.738V32.394H186.194V42.4146Z" fill="black"/>
<path d="M207.625 39.3533C209.208 40.0192 210 41.153 210 42.7547C210.009 43.3457 209.882 43.9309 209.628 44.4647C209.375 44.9985 209.001 45.4665 208.537 45.8322C207.566 46.642 206.222 47.0469 204.506 47.0469C201.645 47.0469 199.729 45.9023 198.758 43.6132L200.846 42.3822C201.375 43.9479 202.604 44.7308 204.533 44.7308C205.312 44.7748 206.085 44.5645 206.734 44.1315C206.992 43.9489 207.2 43.7054 207.34 43.4228C207.48 43.1402 207.549 42.8272 207.539 42.5118C207.545 42.2438 207.491 41.9778 207.378 41.7344C207.266 41.491 207.099 41.2767 206.891 41.108C206.399 40.7258 205.786 40.5341 205.164 40.5681H203.075V38.3329H204.619C205.229 38.3672 205.831 38.1749 206.308 37.793C206.508 37.6107 206.666 37.3866 206.769 37.1365C206.873 36.8864 206.92 36.6165 206.907 36.3461C206.917 36.0571 206.858 35.7699 206.734 35.5087C206.61 35.2474 206.425 35.0199 206.195 34.8452C205.635 34.4551 204.96 34.2649 204.279 34.3053C202.678 34.3053 201.589 34.9837 201.014 36.3407L198.984 35.1637C199.996 33.0689 201.76 32.0197 204.279 32.0161C205.607 31.9535 206.913 32.3756 207.954 33.2039C208.393 33.5629 208.746 34.0163 208.986 34.5304C209.226 35.0444 209.348 35.606 209.341 36.1733C209.374 36.8098 209.231 37.4431 208.929 38.0039C208.626 38.5647 208.175 39.0316 207.625 39.3533Z" fill="black"/>
<path d="M224.512 34.829V32.394H227V46.7014H224.512V44.2178C223.944 45.126 223.145 45.8667 222.197 46.3639C221.248 46.8611 220.185 47.0968 219.115 47.0469C218.158 47.0664 217.207 46.8842 216.324 46.5121C215.442 46.1401 214.648 45.5865 213.993 44.8873C212.634 43.443 211.877 41.5341 211.877 39.5504C211.877 37.5667 212.634 35.6578 213.993 34.2135C214.644 33.5057 215.436 32.9425 216.319 32.5602C217.201 32.178 218.154 31.9853 219.115 31.9945C220.185 31.944 221.25 32.1801 222.198 32.6783C223.147 33.1766 223.946 33.919 224.512 34.829ZM219.439 44.6444C220.111 44.6615 220.781 44.541 221.405 44.2904C222.03 44.0397 222.596 43.6641 223.071 43.1866C223.542 42.7014 223.912 42.1275 224.159 41.4982C224.406 40.8689 224.526 40.1968 224.512 39.5207C224.524 38.8474 224.401 38.1786 224.15 37.5538C223.899 36.929 223.525 36.361 223.05 35.8836C222.576 35.4062 222.01 35.0291 221.387 34.7747C220.764 34.5202 220.096 34.3936 219.423 34.4024C218.752 34.3874 218.085 34.5115 217.465 34.7671C216.844 35.0226 216.283 35.404 215.817 35.8872C215.339 36.3611 214.962 36.9279 214.711 37.5527C214.459 38.1776 214.338 38.8473 214.355 39.5207C214.345 40.2003 214.471 40.8749 214.725 41.5053C214.979 42.1357 215.356 42.7091 215.834 43.192C216.304 43.6673 216.866 44.0413 217.486 44.291C218.106 44.5408 218.771 44.661 219.439 44.6444Z" fill="black"/>
<path fill-rule="evenodd" clip-rule="evenodd" d="M4.20421 14.329H74.5747V45.8916C74.5747 47.007 74.1318 48.0768 73.3433 48.8655C72.5549 49.6543 71.4855 50.0974 70.3705 50.0974H4.20421C3.08918 50.0974 2.01982 49.6543 1.23138 48.8655C0.442942 48.0768 0 47.007 0 45.8916L0 18.5348C0 17.4194 0.442942 16.3496 1.23138 15.5608C2.01982 14.7721 3.08918 14.329 4.20421 14.329Z" fill="#76B2D0"/>
<path fill-rule="evenodd" clip-rule="evenodd" d="M83.3174 10.5173C84.7314 8.63841 85.4114 5.39901 84.3104 0C70.4187 2.1596 73.3978 9.66962 74.7255 12.0182C76.7715 8.84461 79.1844 5.92339 81.9142 3.31499C80.0636 5.98958 78.463 8.82883 77.1325 11.7968C79.0052 9.63723 81.2018 9.52385 83.3174 10.5173ZM87.6889 14.9229C81.6012 21.7904 78.336 17.9895 77.1217 15.9271C79.0125 15.298 81.0031 15.0234 82.9936 15.1172C80.9843 14.4965 78.8821 14.2316 76.7817 14.3344C77.5211 12.5581 80.5649 7.31566 87.6889 14.9229Z" fill="#85BC22"/>
<path fill-rule="evenodd" clip-rule="evenodd" d="M42.5062 22.1792H44.3358V24.0095H42.5062V22.1792ZM16.3042 33.6467L20.8484 22.1792H23.8707L16.887 38.6408C15.8616 41.0541 14.5178 42.1231 12.0298 42.2203C10.7394 42.2399 9.45711 42.0127 8.25195 41.5508V39.2455C10.6104 39.9365 10.918 40.0175 11.76 40.0013C12.9095 40.0013 13.8809 39.3858 14.9981 36.8051L8.26814 22.1792H11.1879L16.3042 33.6467ZM36.1163 42.2203H33.5959V36.8915C32.488 37.1835 31.3469 37.3305 30.2012 37.3288C26.6663 37.3288 24.5669 35.5039 24.5345 31.8974V27.535H27.044V32C27.044 34.192 28.1234 35.1476 30.2012 35.1476C31.3469 35.1493 32.488 35.0023 33.5959 34.7103V27.535H36.1163V42.2203ZM46.1546 42.2203C41.4484 42.2203 39.1709 39.1321 39.1709 34.8291C39.1709 31.0498 41.6049 27.5458 45.8307 27.5458C51.0981 27.5458 52.0966 31.3953 52.0966 35.5795H41.4916C41.489 36.196 41.6111 36.8066 41.8506 37.3746C42.0902 37.9426 42.4421 38.4563 42.8854 38.8845C43.3286 39.3128 43.854 39.6469 44.4297 39.8667C45.0055 40.0864 45.6197 40.1873 46.2355 40.1633C47.0102 40.1961 47.7818 40.0478 48.4891 39.7301C49.1965 39.4123 49.82 38.934 50.3102 38.333L51.9293 39.483C50.634 41.3079 48.7091 42.2203 46.1546 42.2203ZM45.8307 29.5272C43.3751 29.5272 41.8586 31.4547 41.578 33.5981H49.7759C49.7759 31.4007 48.2917 29.5272 45.8307 29.5272ZM66.3013 29.5758H61.3793V42.2203H58.8697V29.5758H54.0125V27.535H66.2743V29.565L66.3013 29.5758ZM46.9533 22.1954H48.7829V24.0257H46.9533V22.1954Z" fill="white"/>
</svg>
