<svg width="217" height="51" viewBox="0 0 217 51" fill="none" xmlns="http://www.w3.org/2000/svg">
<path fill-rule="evenodd" clip-rule="evenodd" d="M100.849 39.4174C99.3848 40.8953 97.5133 41.9037 95.4734 42.3138C93.4335 42.724 91.3177 42.5173 89.3957 41.7203C87.4737 40.9232 85.8326 39.5718 84.6817 37.8384C83.5308 36.105 82.9221 34.0681 82.9334 31.9875C82.9017 30.5907 83.1494 29.2018 83.662 27.9021C84.1746 26.6025 84.9417 25.4184 85.9183 24.4193C86.8949 23.4203 88.0613 22.6265 89.349 22.0846C90.6367 21.5426 92.0197 21.2634 93.4168 21.2634C94.8138 21.2634 96.1968 21.5426 97.4845 22.0846C98.7722 22.6265 99.9386 23.4203 100.915 24.4193C101.892 25.4184 102.659 26.6025 103.172 27.9021C103.684 29.2018 103.932 30.5907 103.9 31.9875C103.924 33.3683 103.665 34.7394 103.141 36.017C102.616 37.2945 101.837 38.4516 100.849 39.4174ZM87.8362 37.5815C89.3234 39.0356 91.3207 39.8498 93.4006 39.8498C95.4805 39.8498 97.4777 39.0356 98.9649 37.5815C99.6986 36.8497 100.276 35.9766 100.662 35.015C101.048 34.0534 101.235 33.0234 101.211 31.9875C101.237 30.9464 101.052 29.9109 100.665 28.9437C100.279 27.9765 99.7008 27.0979 98.9649 26.361C97.4777 24.9069 95.4805 24.0928 93.4006 24.0928C91.3207 24.0928 89.3234 24.9069 87.8362 26.361C87.1013 27.0983 86.5237 27.9772 86.1385 28.9443C85.7533 29.9115 85.5686 30.9468 85.5954 31.9875C85.5705 33.0231 85.7562 34.0529 86.1415 35.0145C86.5267 35.9762 87.1033 36.8495 87.8362 37.5815ZM113.441 42.4844C112.461 42.5162 111.485 42.3451 110.575 41.9818C109.664 41.6185 108.839 41.0708 108.15 40.3731C107.453 39.6542 106.91 38.8019 106.552 37.8674C106.194 36.933 106.028 35.9357 106.065 34.9357C106.065 32.4662 106.425 30.5674 107.145 29.239C107.869 27.9107 109.348 26.7012 111.584 25.6267C111.989 25.4323 112.545 25.1785 113.247 24.8707C113.949 24.563 114.467 24.3308 114.797 24.1634C115.172 23.9673 115.532 23.7453 115.877 23.4992C116.243 23.2579 116.554 22.9413 116.789 22.5705C117 22.2084 117.152 21.8146 117.237 21.4042L119.262 22.5597C119.209 22.85 119.131 23.1354 119.03 23.4128C118.927 23.6821 118.785 23.9349 118.609 24.1634L118.134 24.7843C117.936 24.9988 117.707 25.181 117.453 25.3243C117.135 25.5241 116.913 25.6753 116.762 25.7725C116.489 25.9313 116.208 26.0755 115.92 26.2044L115.083 26.5932C114.939 26.6652 114.615 26.8002 114.111 26.9982C113.614 27.2034 113.306 27.333 113.188 27.3924C112.14 27.8107 111.174 28.4082 110.331 29.158C109.714 29.7525 109.262 30.4967 109.019 31.3179C109.623 30.553 110.421 29.9639 111.33 29.6116C112.212 29.2567 113.154 29.0734 114.105 29.0717C114.974 29.0572 115.835 29.2195 116.639 29.5485C117.442 29.8776 118.17 30.3666 118.779 30.9857C119.388 31.6049 119.864 32.3414 120.179 33.1503C120.494 33.9593 120.641 34.8239 120.612 35.6916C120.636 36.5985 120.468 37.5003 120.119 38.3377C119.77 39.1752 119.248 39.9295 118.587 40.5513C117.898 41.1939 117.088 41.6945 116.205 42.0243C115.323 42.3541 114.383 42.5068 113.441 42.4736V42.4844ZM110.056 38.7802C110.973 39.6332 112.189 40.091 113.441 40.0545C114.676 40.0971 115.877 39.6507 116.784 38.8126C117.211 38.4138 117.549 37.9289 117.775 37.39C118.001 36.8511 118.11 36.2704 118.096 35.6862C118.118 35.1003 118.017 34.5163 117.8 33.9715C117.584 33.4267 117.256 32.933 116.838 32.522C116.395 32.11 115.873 31.7911 115.305 31.5842C114.736 31.3774 114.132 31.2868 113.528 31.3179C112.312 31.3134 111.132 31.7271 110.185 32.4896C109.711 32.8479 109.329 33.3139 109.071 33.8491C108.813 34.3843 108.686 34.9734 108.7 35.5674C108.683 36.1728 108.795 36.775 109.028 37.3337C109.262 37.8924 109.612 38.3947 110.056 38.8072V38.7802ZM132.788 27.6462H135.488L129.592 43.0189C129.095 44.4888 128.193 45.788 126.989 46.7663C125.906 47.6144 124.542 48.0214 123.171 47.9056V45.5675C124.946 45.7043 126.247 44.7396 127.075 42.6733L127.308 42.1334L121.017 27.6623H123.679L128.625 39.0016L132.788 27.6623V27.6462ZM146.698 27.6462H149.214V42.1172H146.698V36.9173C145.462 37.4338 144.133 37.6893 142.794 37.6679C140.94 37.6679 139.509 37.2305 138.501 36.3558C137.493 35.481 136.986 34.1833 136.978 32.4626V27.6623H139.495V32.3222C139.495 33.4022 139.792 34.1689 140.38 34.6333C141.14 35.1482 142.051 35.3935 142.967 35.3298C144.25 35.3469 145.522 35.0892 146.698 34.5739V27.6623V27.6462ZM154.797 36.0372C154.988 37.2365 155.629 38.3178 156.59 39.061C157.588 39.799 158.805 40.1794 160.046 40.1409C161.952 40.1409 163.339 39.4336 164.209 38.0297L166.369 39.2446C164.965 41.4044 162.844 42.4844 160.008 42.4844C158.977 42.5249 157.949 42.3543 156.987 41.9828C156.025 41.6114 155.15 41.047 154.414 40.3245C153.701 39.6109 153.141 38.759 152.77 37.8211C152.398 36.8832 152.223 35.8792 152.254 34.8709C152.224 33.8694 152.395 32.872 152.758 31.938C153.121 31.004 153.667 30.1523 154.365 29.4334C155.076 28.7142 155.93 28.1508 156.87 27.779C157.811 27.4072 158.819 27.2351 159.83 27.2736C160.806 27.2424 161.777 27.4271 162.674 27.8144C163.571 28.2018 164.372 28.7822 165.019 29.5144C166.357 30.9899 167.078 32.9226 167.033 34.9141C167.03 35.2918 167.001 35.6688 166.946 36.0426L154.797 36.0372ZM159.797 29.644C158.588 29.5829 157.401 29.9815 156.473 30.7597C155.546 31.5379 154.947 32.6381 154.797 33.8395H164.452C164.327 32.63 163.748 31.5128 162.832 30.7131C161.982 30.0014 160.905 29.6182 159.797 29.6332V29.644ZM179.895 27.6462H182.411V42.1172H179.895V36.0804H172.405V42.1172H169.889V27.6623H172.405V33.6775H179.895V27.6623V27.6462ZM196.725 27.6462H198.75V42.1172H196.261V31.9713L188.253 42.1172H186.228V27.6623H188.718V37.7975L196.725 27.6462ZM204.333 36.0372C204.524 37.2282 205.159 38.3027 206.11 39.0448C207.108 39.782 208.325 40.1623 209.566 40.1247C211.477 40.1247 212.865 39.4174 213.729 38.0135L215.889 39.2284C214.478 41.3882 212.355 42.4682 209.522 42.4682C208.492 42.5087 207.464 42.3381 206.502 41.9666C205.54 41.5952 204.664 41.0308 203.928 40.3083C203.215 39.5947 202.656 38.7428 202.284 37.8049C201.913 36.867 201.737 35.863 201.769 34.8547C201.739 33.8532 201.91 32.8558 202.273 31.9218C202.635 30.9878 203.182 30.1361 203.88 29.4172C204.592 28.6986 205.445 28.1355 206.385 27.7637C207.326 27.3919 208.334 27.2195 209.344 27.2574C210.322 27.2266 211.294 27.4114 212.191 27.7986C213.089 28.1859 213.891 28.7662 214.539 29.4982C215.873 30.9757 216.592 32.9076 216.547 34.8979C216.544 35.2756 216.516 35.6526 216.461 36.0264L204.333 36.0372ZM209.333 29.644C208.124 29.5829 206.937 29.9815 206.009 30.7597C205.082 31.5379 204.483 32.6381 204.333 33.8395H213.988C213.861 32.6305 213.283 31.5138 212.368 30.7131C211.514 30.0132 210.438 29.64 209.333 29.6602V29.644Z" fill="#080200"/>
<path fill-rule="evenodd" clip-rule="evenodd" d="M4.20632 14.3307H74.6122V45.897C74.6122 47.0126 74.169 48.0824 73.3802 48.8713C72.5913 49.6601 71.5214 50.1033 70.4059 50.1033H4.20632C3.09073 50.1033 2.02084 49.6601 1.232 48.8713C0.443164 48.0824 0 47.0126 0 45.897L0 18.537C0 17.4214 0.443164 16.3515 1.232 15.5627C2.02084 14.7739 3.09073 14.3307 4.20632 14.3307Z" fill="#00963F"/>
<path fill-rule="evenodd" clip-rule="evenodd" d="M83.3594 10.5185C84.7741 8.63942 85.4545 5.39964 84.3529 0C70.4543 2.15985 73.4349 9.67075 74.7632 12.0196C76.8103 8.84564 79.2244 5.92408 81.9555 3.31538C80.104 5.99028 78.5026 8.82985 77.1714 11.7982C79.0451 9.63835 81.2428 9.52496 83.3594 10.5185ZM87.7331 14.9246C81.6423 21.7929 78.3755 17.9916 77.1606 15.9289C79.0524 15.2997 81.044 15.0252 83.0354 15.119C81.0251 14.4982 78.9219 14.2333 76.8205 14.336C77.5602 12.5596 80.6056 7.31651 87.7331 14.9246Z" fill="#85BC22"/>
<path fill-rule="evenodd" clip-rule="evenodd" d="M42.5274 22.1816H44.3578V24.0121H42.5274V22.1816ZM16.3121 33.6505L20.8586 22.1816H23.8824L16.8953 38.6451C15.8693 41.0588 14.5248 42.1279 12.0356 42.2251C10.7445 42.2447 9.46162 42.0175 8.25586 41.5555V39.2499C10.6155 39.941 10.9233 40.022 11.7656 40.0058C12.9157 40.0058 13.8877 39.3903 15.0054 36.8093L8.27206 22.1816H11.1933L16.3121 33.6505ZM36.1342 42.2251H33.6126V36.8957C32.5041 37.1877 31.3625 37.3347 30.2162 37.333C26.6794 37.333 24.579 35.5079 24.5466 31.901V27.5381H27.0574V32.0036C27.0574 34.1958 28.1373 35.1516 30.2162 35.1516C31.3625 35.1532 32.5041 35.0062 33.6126 34.7142V27.5381H36.1342V42.2251ZM46.1775 42.2251C41.469 42.2251 39.1904 39.1365 39.1904 34.833C39.1904 31.0532 41.6256 27.5489 45.8535 27.5489C51.1236 27.5489 52.1225 31.3988 52.1225 35.5835H41.5122C41.5096 36.2001 41.6318 36.8108 41.8714 37.3789C42.1111 37.9469 42.4632 38.4606 42.9067 38.8889C43.3502 39.3173 43.8758 39.6514 44.4518 39.8712C45.0279 40.091 45.6424 40.1919 46.2585 40.1678C47.0336 40.2007 47.8056 40.0523 48.5133 39.7345C49.221 39.4168 49.8448 38.9384 50.3352 38.3374L51.9551 39.4875C50.6592 41.3126 48.7333 42.2251 46.1775 42.2251ZM45.8535 29.5305C43.3967 29.5305 41.8794 31.4582 41.5986 33.6019H49.8007C49.8007 31.4042 48.3158 29.5305 45.8535 29.5305ZM66.3344 29.5791H61.4099V42.2251H58.8991V29.5791H54.0394V27.5381H66.3074V29.5683L66.3344 29.5791ZM46.9767 22.1978H48.8071V24.0283H46.9767V22.1978Z" fill="white"/>
</svg>
