<svg width="139" height="50" viewBox="0 0 139 50" fill="none" xmlns="http://www.w3.org/2000/svg">
<path fill-rule="evenodd" clip-rule="evenodd" d="M97.9588 21.7766V41.8636H95.2791V24.3062H86.0449V41.8636H83.3652V21.7766H97.9588ZM118.978 39.1839C117.525 40.6508 115.667 41.6517 113.642 42.0588C111.618 42.4659 109.518 42.2608 107.61 41.4696C105.702 40.6785 104.074 39.3372 102.931 37.6167C101.789 35.8962 101.185 33.8745 101.196 31.8094C101.164 30.4231 101.41 29.0444 101.919 27.7545C102.428 26.4645 103.189 25.2892 104.159 24.2977C105.128 23.3061 106.286 22.5182 107.564 21.9803C108.842 21.4424 110.214 21.1653 111.601 21.1653C112.988 21.1653 114.36 21.4424 115.639 21.9803C116.917 22.5182 118.074 23.3061 119.044 24.2977C120.013 25.2892 120.774 26.4645 121.283 27.7545C121.792 29.0444 122.038 30.4231 122.006 31.8094C122.03 33.1799 121.773 34.5408 121.253 35.8088C120.732 37.0769 119.958 38.2253 118.978 39.1839ZM106.062 37.3617C107.538 38.805 109.521 39.6131 111.585 39.6131C113.649 39.6131 115.632 38.805 117.108 37.3617C117.836 36.6354 118.409 35.7688 118.793 34.8143C119.176 33.8599 119.361 32.8376 119.337 31.8094C119.363 30.7761 119.179 29.7483 118.796 28.7883C118.413 27.8283 117.838 26.9562 117.108 26.2249C115.632 24.7816 113.649 23.9735 111.585 23.9735C109.521 23.9735 107.538 24.7816 106.062 26.2249C105.333 26.9567 104.76 27.829 104.377 28.7889C103.995 29.7489 103.811 30.7764 103.838 31.8094C103.813 32.8373 103.998 33.8594 104.38 34.8139C104.762 35.7683 105.335 36.6351 106.062 37.3617ZM132.768 29.6549C133.588 29.6383 134.404 29.7874 135.165 30.0931C135.927 30.3988 136.619 30.8549 137.2 31.4342C137.771 32.0046 138.223 32.6817 138.532 33.4271C138.841 34.1724 139 34.9712 139 35.778C139 36.5848 138.841 37.3836 138.532 38.1289C138.223 38.8742 137.771 39.5514 137.2 40.1218C136.616 40.6931 135.923 41.1416 135.163 41.4408C134.403 41.74 133.59 41.8837 132.773 41.8636H125.222V21.7766H137.281V24.3062H127.896V29.6656L132.768 29.6549ZM132.768 39.3554C133.723 39.3554 134.639 38.9759 135.315 38.3005C135.99 37.6251 136.37 36.7091 136.37 35.7539C136.37 34.7987 135.99 33.8826 135.315 33.2072C134.639 32.5318 133.723 32.1524 132.768 32.1524H127.891V39.3715L132.768 39.3554Z" fill="#080200"/>
<path fill-rule="evenodd" clip-rule="evenodd" d="M4.17496 14.2841H74.056V45.615C74.056 46.7223 73.6161 47.7842 72.8332 48.5672C72.0502 49.3501 70.9883 49.79 69.881 49.79H4.17496C3.06769 49.79 2.00577 49.3501 1.22282 48.5672C0.439861 47.7842 0 46.7223 0 45.615L0 18.459C0 17.3518 0.439861 16.2898 1.22282 15.5069C2.00577 14.7239 3.06769 14.2841 4.17496 14.2841Z" fill="#5BC5F2"/>
<path fill-rule="evenodd" clip-rule="evenodd" d="M82.7384 10.5004C84.1426 8.63532 84.8179 5.41969 83.7246 0.0603027C69.9295 2.20406 72.8879 9.65896 74.2063 11.9903C76.2381 8.84 78.6342 5.94022 81.345 3.35096C79.5073 6.00592 77.9178 8.82433 76.5966 11.7706C78.4563 9.6268 80.6376 9.51426 82.7384 10.5004ZM87.0795 14.8736C81.0341 21.6908 77.7917 17.9178 76.5859 15.8705C78.4635 15.246 80.4403 14.9734 82.4169 15.0666C80.4216 14.4504 78.334 14.1875 76.2482 14.2895C76.9825 12.5262 80.0051 7.32227 87.0795 14.8736Z" fill="#85BC22"/>
<path fill-rule="evenodd" clip-rule="evenodd" d="M42.2104 22.0767H44.0272V23.8935H42.2104V22.0767ZM16.1905 33.46L20.7031 22.0767H23.7044L16.7694 38.4174C15.7511 40.8131 14.4166 41.8742 11.9459 41.9707C10.6645 41.9902 9.39111 41.7646 8.19434 41.3061V39.0177C10.5364 39.7037 10.8419 39.7841 11.6779 39.768C12.8195 39.768 13.7842 39.157 14.8936 36.5952L8.21041 22.0767H11.1098L16.1905 33.46ZM35.8648 41.9707H33.362V36.681C32.2618 36.9708 31.1287 37.1167 29.991 37.1151C26.4806 37.1151 24.3958 35.3036 24.3636 31.7236V27.3932H26.8557V31.8254C26.8557 34.0013 27.9276 34.9499 29.991 34.9499C31.1287 34.9516 32.2618 34.8056 33.362 34.5158V27.3932H35.8648V41.9707ZM45.8333 41.9707C41.1599 41.9707 38.8983 38.9051 38.8983 34.6337C38.8983 30.8821 41.3153 27.4039 45.5117 27.4039C50.7425 27.4039 51.734 31.2251 51.734 35.3787H41.2028C41.2001 35.9906 41.3214 36.5968 41.5593 37.1606C41.7972 37.7244 42.1467 38.2343 42.5869 38.6594C43.027 39.0845 43.5487 39.4162 44.1205 39.6343C44.6922 39.8525 45.3022 39.9526 45.9137 39.9288C46.683 39.9613 47.4492 39.8141 48.1516 39.4987C48.854 39.1833 49.4732 38.7085 49.96 38.1119L51.5678 39.2535C50.2816 41.065 48.3701 41.9707 45.8333 41.9707ZM45.5117 29.3708C43.0732 29.3708 41.5672 31.2841 41.2885 33.4118H49.4294C49.4294 31.2305 47.9556 29.3708 45.5117 29.3708ZM65.8399 29.419H60.9521V41.9707H58.46V29.419H53.6366V27.3932H65.8131V29.4083L65.8399 29.419ZM46.6265 22.0927H48.4433V23.9096H46.6265V22.0927Z" fill="white"/>
</svg>
