<svg width="157" height="50" viewBox="0 0 157 50" fill="none" xmlns="http://www.w3.org/2000/svg">
<path fill-rule="evenodd" clip-rule="evenodd" d="M95.8535 41.9254L94.2582 37.4534H85.261L83.6338 41.9254H80.8262L88.2707 21.99H91.2592L98.7037 41.9254H95.8535ZM86.1703 34.9807H93.317L89.7277 25.1592L86.1703 34.9807ZM109.567 27.6904L105.468 38.8572L100.597 27.6904H97.9805L104.17 41.9626L103.941 42.4944C103.123 44.5257 101.841 45.4757 100.097 45.3446V47.6471C101.447 47.76 102.789 47.3593 103.856 46.5251C105.042 45.5617 105.931 44.2822 106.419 42.8347L112.226 27.7117L109.567 27.6904ZM125.658 39.5697H127.62V45.7487H125.169V41.9254H114.507V45.7434H112.056V39.5697H113.795C114.702 38.3148 115.158 36.5582 115.161 34.3001V27.6904H125.669V39.5697H125.658ZM116.618 39.5697H123.228V29.9982H117.613V34.3001C117.675 36.1091 117.333 37.9092 116.613 39.5697H116.618ZM140.654 27.6904H142.648V41.9254H140.202V31.9338L132.305 41.9254H130.311V27.6904H132.762V37.6714L140.648 27.6744L140.654 27.6904ZM157 27.6904V30.0833H152.161V41.9254H149.683V30.0833H144.812V27.6904H157Z" fill="#080200"/>
<path fill-rule="evenodd" clip-rule="evenodd" d="M4.14235 14.5614H73.4776V45.6477C73.4776 46.7463 73.0412 47.7999 72.2643 48.5768C71.4875 49.3536 70.4339 49.79 69.3352 49.79H4.14235C3.04373 49.79 1.99011 49.3536 1.21327 48.5768C0.436425 47.7999 0 46.7463 0 45.6477L0 18.7038C0 17.6051 0.436425 16.5515 1.21327 15.7747C1.99011 14.9978 3.04373 14.5614 4.14235 14.5614Z" fill="#3B2483"/>
<path fill-rule="evenodd" clip-rule="evenodd" d="M82.0921 10.8072C83.4853 8.95665 84.1553 5.76614 83.0705 0.448608C69.3832 2.57562 72.3185 9.9723 73.6266 12.2854C75.6425 9.15974 78.0199 6.2826 80.7095 3.71357C78.8862 6.34779 77.3091 9.14419 75.9982 12.0674C77.8434 9.9404 80.0076 9.82873 82.0921 10.8072ZM86.3993 15.1463C80.4011 21.9102 77.184 18.1666 75.9875 16.1353C77.8505 15.5157 79.8119 15.2453 81.773 15.3377C79.7933 14.7264 77.722 14.4654 75.6525 14.5666C76.381 12.8172 79.3801 7.65386 86.3993 15.1463Z" fill="#85BC22"/>
<path fill-rule="evenodd" clip-rule="evenodd" d="M41.8812 22.2932H43.6838V24.0959H41.8812V22.2932ZM16.0646 33.5876L20.542 22.2932H23.5198L16.6389 38.5064C15.6286 40.8833 14.3045 41.9362 11.8531 42.0319C10.5817 42.0512 9.31829 41.8274 8.13086 41.3725V39.1019C10.4546 39.7826 10.7577 39.8623 11.5873 39.8464C12.7199 39.8464 13.677 39.2402 14.7778 36.6984L8.14681 22.2932H11.0236L16.0646 33.5876ZM35.5853 42.0319H33.102V36.7835C32.0104 37.0711 30.8861 37.2158 29.7572 37.2142C26.2743 37.2142 24.2057 35.4169 24.1738 31.8648V27.5682H26.6465V31.9658C26.6465 34.1247 27.71 35.0659 29.7572 35.0659C30.8861 35.0676 32.0104 34.9228 33.102 34.6352V27.5682H35.5853V42.0319ZM45.4759 42.0319C40.839 42.0319 38.595 38.9902 38.595 34.7522C38.595 31.0299 40.9932 27.5788 45.1568 27.5788C50.3467 27.5788 51.3305 31.3702 51.3305 35.4913H40.8815C40.8789 36.0985 40.9992 36.6999 41.2352 37.2593C41.4712 37.8188 41.8181 38.3246 42.2548 38.7464C42.6915 39.1683 43.2091 39.4973 43.7764 39.7138C44.3437 39.9302 44.9489 40.0296 45.5556 40.0059C46.3189 40.0382 47.0792 39.8921 47.7761 39.5792C48.473 39.2663 49.0874 38.7952 49.5704 38.2033L51.1656 39.3359C49.8894 41.1332 47.9928 42.0319 45.4759 42.0319ZM45.1568 29.5304C42.7373 29.5304 41.2431 31.4287 40.9666 33.5398H49.0439C49.0439 31.3755 47.5816 29.5304 45.1568 29.5304ZM65.3262 29.5782H60.4766V42.0319H58.004V29.5782H53.2182V27.5682H65.2996V29.5676L65.3262 29.5782ZM46.2628 22.3092H48.0655V24.1118H46.2628V22.3092Z" fill="white"/>
</svg>
