<svg width="145" height="95" viewBox="0 0 145 95" fill="none" xmlns="http://www.w3.org/2000/svg">
<path d="M12.2144 50.04H0.993652V94.9966H12.2144V84.9364L13.1495 83.9932L20.3183 94.9966H33.0975L20.3183 77.0768L32.1625 65.1303H20.0066L12.2144 72.9899V50.04Z" fill="#29ABDD"/>
<path d="M49.9286 65.759H39.0195V94.9965H49.9286V65.759Z" fill="#29ABDD"/>
<ellipse cx="44.63" cy="54.4414" rx="6.23377" ry="6.28763" fill="#8AC53F"/>
<path d="M144.058 65.759H133.149V94.9965H144.058V65.759Z" fill="#29ABDD"/>
<ellipse cx="138.76" cy="54.4414" rx="6.23376" ry="6.28763" fill="#29ABDD"/>
<ellipse cx="98.2404" cy="54.4414" rx="6.23376" ry="6.28763" fill="#8AC53F"/>
<path d="M69.2534 94.9965L54.604 65.759H66.1365L72.3702 79.5918L78.9157 65.759H89.5131L74.5521 94.9965H69.2534Z" fill="#8AC53F"/>
<path d="M108.526 94.9965L93.8767 65.759H105.409L111.643 79.5918L118.188 65.759H128.786L113.825 94.9965H108.526Z" fill="#29ABDD"/>
<path d="M42.1365 19.5451C24.4326 31.3658 20.8378 51.9263 21.2534 60.729H29.9807C31.5392 28.6621 57.0976 20.4882 61.1496 19.5451C64.3911 18.7906 79.5392 15.6677 86.708 14.2006L84.2145 18.2876C112.64 25.0782 119.539 49.4113 119.435 60.729H128.163C127.664 33.315 107.383 17.6588 97.3054 13.2575C98.5522 12.2514 103.02 4.66436 105.098 0.996582C93.2535 5.39792 64.2664 4.76916 42.1365 19.5451Z" fill="#8AC53F"/>
</svg>
