<svg width="216" height="61" viewBox="0 0 216 61" fill="none" xmlns="http://www.w3.org/2000/svg">
<path fill-rule="evenodd" clip-rule="evenodd" d="M140.37 25.6547V50.3131H142.862C144.496 50.3131 145.742 49.8841 146.48 49.0685C147.589 47.8414 147.659 47.8427 151.281 49.123C156.427 50.9432 163.816 50.9458 167.374 49.1288C172.77 46.3736 175.662 40.5088 175.588 32.4682C175.542 27.3665 173.646 21.1429 171.415 18.7653C167.569 14.6681 159.324 13.417 152.346 15.8718L148.797 17.121V9.05833V0.996338H144.583H140.37V25.6547ZM0.993652 32.4682V50.3131H5.20735H9.42104V36.653V22.9929L11.6264 22.0702C15.0505 20.6387 18.9226 20.2136 20.938 21.0494C24.2759 22.4335 24.6098 23.7073 24.862 36.0372C25.0752 46.4709 25.2042 47.5118 26.4463 48.853C27.455 49.9419 28.5253 50.3131 30.6593 50.3131H33.5201L33.301 36.8483C33.0968 24.2563 32.9834 23.1824 31.5559 20.2798C29.5456 16.1943 26.5727 14.6233 20.8492 14.6233C18.5135 14.6233 14.8612 15.1859 12.5755 15.8984C8.50764 17.1651 8.47523 17.1651 7.1275 15.8984C6.2867 15.1068 4.86572 14.6233 3.38314 14.6233H0.993652V32.4682ZM47.0967 16.0658C44.0362 17.5505 41.016 21.5562 39.8848 25.632C38.9046 29.1633 39.1185 36.9281 40.2912 40.3946C41.7368 44.667 44.5496 48.0101 47.8285 49.352C51.6267 50.9068 58.6344 50.8147 63.3459 49.1489C66.9658 47.8686 67.0508 47.8674 68.1463 49.0795C68.8743 49.8841 70.1287 50.3131 71.7545 50.3131H74.2471V32.4682V14.6233H71.8576C70.3582 14.6233 68.9534 15.1081 68.0834 15.9257L66.6987 17.2287L62.9161 15.9257C57.7566 14.149 50.9246 14.2093 47.0967 16.0658ZM188.665 15.8498C185.37 17.3721 183.587 19.3246 181.78 23.3913C180.053 27.2783 179.742 35.3039 181.134 40.0993C182.269 44.0116 186.311 48.67 189.491 49.731C192.859 50.8549 198.941 50.6849 203.75 49.3319C207.517 48.2716 207.9 48.2658 208.987 49.2508C209.68 49.8783 211.27 50.3131 212.874 50.3131H215.589L215.416 32.6304L215.244 14.9478L212.871 14.7499C211.15 14.6065 210.165 14.9108 209.281 15.8601C208.066 17.1664 208.057 17.1664 203.979 15.8958C198.724 14.2586 192.152 14.2392 188.665 15.8498ZM63.6143 21.8489L65.4956 22.7502L65.6739 32.5688L65.8528 42.388L63.7699 43.1148C59.8829 44.471 55.2608 44.6832 52.7242 43.6222C49.1841 42.1421 48.0191 39.4679 48.0049 32.7927C47.9841 23.283 50.5143 20.1436 57.78 20.664C59.9542 20.8197 62.5797 21.3531 63.6143 21.8489ZM163.698 22.296C165.856 23.8968 166.868 27.0005 166.908 32.1437C166.972 40.3602 164.968 43.582 159.378 44.2445C157.246 44.4976 154.887 44.262 152.454 43.5541L148.763 42.4801L148.942 32.6077L149.121 22.7346L152.363 21.5906C156.266 20.213 161.312 20.5271 163.698 22.296ZM204.71 21.9462L207.141 22.9929V32.3559C207.141 39.0552 206.91 41.9091 206.33 42.3893C205.885 42.7585 203.687 43.4386 201.446 43.9013C193.985 45.4411 189.61 42.4646 188.722 35.2442C187.905 28.6001 190.023 22.7359 193.851 21.0475C195.729 20.2195 201.882 20.7282 204.71 21.9462Z" fill="#0085FE"/>
<path fill-rule="evenodd" clip-rule="evenodd" d="M81.4363 8.20683C80.3349 10.2664 80.6013 13.9555 82.0573 16.8126C83.2923 19.2363 83.3778 20.4672 83.2832 34.4693L83.1814 49.5213L87.1416 49.7146L91.1019 49.9074V36.8657V23.8234L93.35 22.8831C96.9394 21.3822 99.8612 21.6606 101.427 23.6527C102.166 24.593 102.771 26.1971 102.771 27.2171V29.0723L105.774 26.7772C110.078 23.4885 112.194 22.5288 116.007 22.1349C118.95 21.8312 119.612 21.9935 121.282 23.4301L123.191 25.0725L123.403 37.4594L123.616 49.8457H127.475C129.966 49.8457 131.444 49.5583 131.644 49.0346C131.815 48.5888 131.719 42.5293 131.432 35.5698C130.812 20.5178 130.236 18.6561 125.563 16.5868C122.121 15.0632 117.826 15.3383 112.208 17.442L108.654 18.7736L106.637 17.2805C104.805 15.9249 103.926 15.7873 97.0503 15.7808C87.8806 15.7724 85.9067 14.9275 83.6164 10.0341C82.2635 7.14327 82.0852 6.99338 81.4363 8.20683ZM96.909 37.5672C95.7518 39.7326 96.5362 40.7851 98.8188 40.1297C99.8916 39.8221 101.366 39.7261 102.094 39.9168C103.088 40.1771 103.419 39.9532 103.419 39.0201C103.419 37.1934 102.141 36.2187 99.7464 36.2187C98.2671 36.2187 97.4133 36.6243 96.909 37.5672ZM112.439 37.4575L110.874 38.7527L113.216 38.3887C114.514 38.1869 116.197 38.3666 116.993 38.7929C118.324 39.5061 118.375 39.4646 117.707 38.2148C117.311 37.4737 116.729 36.8676 116.414 36.8676C116.099 36.8676 115.428 36.7087 114.923 36.5146C114.418 36.3206 113.3 36.745 112.439 37.4575ZM115.447 45.2677C110.849 49.9411 105.349 52.7178 100.664 52.7327C98.6133 52.7392 96.9362 52.8508 96.9362 52.9812C96.9362 53.1117 97.412 54.2219 97.9929 55.4477C99.456 58.5333 103.623 60.8771 107.647 60.8771C110.55 60.8771 111.015 60.6415 113.789 57.7611C116.08 55.3815 117.034 53.7314 117.825 50.7853C119.276 45.3774 119.778 42.0589 119.144 42.0589C118.847 42.0589 117.183 43.5027 115.447 45.2677ZM108.37 54.7125C107.89 55.9668 108.431 55.9526 109.704 54.6781C111.081 53.2999 113.467 53.7164 113.467 55.3355C113.467 56.9434 109.642 59.5793 107.309 59.5793C105.043 59.5793 101.474 58.3314 101.474 57.5391C101.474 57.0525 107.561 53.7716 108.512 53.7456C108.639 53.7417 108.576 54.1772 108.37 54.7125Z" fill="#F60B5F"/>
</svg>
