<svg width="212" height="64" viewBox="0 0 212 64" fill="none" xmlns="http://www.w3.org/2000/svg">
<path fill-rule="evenodd" clip-rule="evenodd" d="M83.2161 0.327091C86.7416 1.024 89.44 2.82994 90.8553 5.44014C92.0413 7.62725 92.8865 11.5994 92.1696 11.6171C92.0076 11.621 89.9111 11.7684 87.511 11.9444C85.111 12.1205 83.0855 12.1959 83.0102 12.1119C82.9347 12.0278 82.7406 11.4876 82.5786 10.9113C81.8756 8.40938 80.5767 7.41862 77.9994 7.41862C76.6922 7.41862 76.3528 7.5085 75.7421 8.01564C74.2018 9.29512 74.3851 11.4017 76.1119 12.2679C76.6082 12.5168 77.8636 12.9485 78.9014 13.2274C86.8838 15.3726 90.5777 17.4778 92.322 20.8759C94.8183 25.7386 93.5922 32.7529 89.6099 36.3925C86.6854 39.0651 83.8122 39.8921 78.0006 39.7343C74.645 39.643 73.9624 39.5552 72.3513 39.009C70.085 38.2403 69.07 37.6156 67.6566 36.1196C65.8446 34.2016 64.3812 30.8079 64.0246 27.6964C63.8771 26.4088 63.9029 26.2786 64.3055 26.2742C64.5492 26.2716 66.7056 26.1166 69.0974 25.9296C71.4892 25.7426 73.5034 25.646 73.5732 25.7151C73.6432 25.7841 73.831 26.4721 73.9904 27.2438C74.5985 30.1872 76.2804 31.8764 78.7797 32.0548C80.5045 32.178 81.5572 31.8383 82.534 30.8435C83.4464 29.9143 83.812 28.6045 83.4912 27.4156C82.9748 25.503 81.7353 24.7169 77.1324 23.383C69.8277 21.2662 66.2232 18.3109 65.3403 13.7148C64.0866 7.1902 68.0234 1.49202 74.5976 0.31545C76.9741 -0.109725 81.0338 -0.104371 83.2161 0.327091ZM23.64 2.24643C27.3067 4.02886 29.2921 8.19935 28.5689 12.5994C28.104 15.4269 26.8602 17.4037 24.697 18.7545L23.8009 19.3138L25.4454 20.1259C26.35 20.5725 27.416 21.3043 27.8141 21.7523C31.2471 25.612 30.9369 33.1087 27.1883 36.87C24.6239 39.4432 22.5804 39.782 9.61206 39.7832L0 39.7841V20.5658V1.34719L11.0328 1.41425L22.0655 1.48107L23.64 2.24643ZM206.814 8.63291L206.881 11.1281L209.291 11.1942L211.701 11.2606L211.766 15.2771L211.83 19.2937H209.348H206.866V25.2313C206.866 30.8584 206.89 31.1933 207.337 31.6345C207.901 32.1908 209.005 32.2381 210.366 31.7642L211.331 31.428L211.452 32.1717C211.661 33.4593 212.086 38.9 211.985 38.9997C211.672 39.3082 207.865 39.7841 205.708 39.7841C202.604 39.7841 201.127 39.3941 199.946 38.262C197.905 36.3052 197.646 35.0431 197.497 26.3373L197.376 19.2937H194.927H192.477V15.2189V11.1441H194.954H197.431V8.57796V6.01177L202.089 6.07487L206.748 6.13798L206.814 8.63291ZM10.3787 12.7741V16.2667L13.2682 16.2663C15.5465 16.266 16.3322 16.1799 16.9833 15.8588C19.1861 14.7726 19.1861 10.7756 16.9833 9.68933C16.3322 9.36824 15.5465 9.28208 13.2682 9.28185L10.3787 9.28139V12.7741ZM50.8279 11.031C53.1744 11.5216 54.8635 12.415 56.5147 14.0386C59.0643 16.5457 60.3074 19.9685 60.5583 25.1731L60.6902 27.909H51.5636H42.4367L42.5853 28.7822C42.8245 30.1874 43.9157 32.1673 44.7523 32.7135C46.5372 33.8792 48.5229 33.5979 50.1457 31.9496L51.181 30.898L54.7805 31.2699C56.7602 31.4743 58.7791 31.7018 59.2671 31.7754L60.1543 31.909L59.4089 33.2894C57.6924 36.4686 54.7397 38.7612 51.4853 39.4421C49.5782 39.8409 44.4131 39.8905 42.6466 39.5268C39.3068 38.8392 36.4235 36.5119 34.8105 33.2016C33.5681 30.6514 33.183 28.7573 33.1905 25.2313C33.2011 20.2198 34.3758 17.024 37.2625 14.1541C38.8856 12.5408 40.4799 11.6292 42.6941 11.0489C44.3997 10.6021 48.7309 10.5925 50.8279 11.031ZM160.635 11.3374C164.218 12.4788 165.926 14.8748 166.526 19.6029C166.658 20.6428 166.768 24.7968 166.77 28.8343C166.774 35.3768 166.825 36.365 167.238 37.9213C167.493 38.8818 167.703 39.694 167.706 39.7259C167.708 39.7578 165.751 39.7841 163.357 39.7841H159.004L158.752 38.9109C158.614 38.4308 158.436 37.5951 158.356 37.0542L158.212 36.0709L157.017 37.1313C154.677 39.2083 152.563 39.8754 148.753 39.738C145.476 39.6199 144.153 39.113 142.525 37.3513C140.764 35.4455 140.086 32.9156 140.574 30.0644C141.076 27.122 142.664 25.2397 145.561 24.1532C146.182 23.9204 148.409 23.3031 150.51 22.7817C152.611 22.2604 155.058 21.554 155.948 21.2119C157.723 20.5304 157.876 20.2384 157.306 18.6229C156.961 17.6477 156.018 17.197 154.335 17.2032C152.304 17.2109 151.16 17.8072 150.486 19.2092C150.187 19.8318 149.921 20.3709 149.895 20.407C149.841 20.4805 141.8 19.5361 141.368 19.4055C140.966 19.2839 141.613 16.7185 142.41 15.2727C143.161 13.9101 144.783 12.4213 146.201 11.7931C148.163 10.9234 150.11 10.6903 154.736 10.7718C158.38 10.8359 159.354 10.9292 160.635 11.3374ZM117.24 11.8683C118.497 12.402 119.846 13.7075 120.464 14.9875L120.849 15.7834L122.238 14.2869C124.691 11.6438 127.847 10.6403 131.111 11.4655C133.915 12.1747 135.569 13.8233 136.63 16.9653C137.118 18.4117 137.145 18.9503 137.228 29.1314L137.315 39.7841H132.714H128.113L128.039 30.9942C127.974 23.3608 127.913 22.1123 127.576 21.5053C126.924 20.3338 126.245 19.8758 125.158 19.8758C123.848 19.8758 122.964 20.4847 122.34 21.8164C121.854 22.8551 121.828 23.2728 121.757 31.3435L121.682 39.7841H117.098H112.514L112.513 31.3435C112.512 25.9764 112.418 22.5703 112.255 21.9898C112.113 21.4876 111.684 20.7674 111.301 20.389C110.677 19.7725 110.491 19.714 109.504 19.8239C108.632 19.921 108.245 20.1161 107.645 20.7623C107.228 21.211 106.774 21.981 106.636 22.4735C106.479 23.0295 106.383 26.4768 106.383 31.5763L106.381 39.7841H101.664H96.9462V25.8134V11.8427H101.31H105.674V13.6882V15.5337L107.03 14.129C108.459 12.6493 110.027 11.7139 111.654 11.3714C113.145 11.0578 115.911 11.3039 117.24 11.8683ZM189.411 15.2189V19.2937H186.626C183.949 19.2937 183.8 19.32 182.745 19.9802C180.456 21.4136 180.004 23.4004 179.814 32.857L179.675 39.7841H175.107H170.54V25.8134V11.8427H174.904H179.268V13.7476V15.6527L180.184 14.1569C180.688 13.3343 181.369 12.4632 181.698 12.2208C182.642 11.5248 184.379 11.1767 186.993 11.1597L189.411 11.1441V15.2189ZM45.1606 17.6182C43.8529 18.4306 42.9913 19.6432 42.6061 21.2147L42.4492 21.855H46.8175H51.1857L51.1805 21.3311C51.1722 20.4885 50.3672 19.0076 49.448 18.1446C48.7177 17.4587 48.4023 17.3322 47.2373 17.2584C46.1969 17.1925 45.7102 17.2768 45.1606 17.6182ZM10.3787 27.6929V31.4352L13.8579 31.3602C17.747 31.2764 18.3915 31.0904 19.2744 29.7955C19.9978 28.7344 20.0296 26.5622 19.3376 25.4569C18.5743 24.2377 17.4949 23.9506 13.6762 23.9506H10.3787V27.6929ZM154.265 27.3038C152.773 27.8368 151.277 28.4546 150.94 28.6765C149.273 29.7743 149.429 32.7738 151.19 33.4938C153.064 34.2603 155.727 33.1652 156.845 31.1681C157.541 29.925 157.886 26.257 157.302 26.3068C157.123 26.3222 155.757 26.7706 154.265 27.3038ZM47.8834 47.6431C49.134 48.2597 49.5338 49.2746 49.5341 51.8338L49.5345 53.9877H47.0465H44.5587L44.6287 55.4192C44.6886 56.6405 44.7875 56.9155 45.3017 57.2934C46.1431 57.9118 47.1276 57.5437 47.3321 56.5343C47.4524 55.9403 47.5657 55.8365 47.9756 55.9452C48.2492 56.0176 48.7257 56.0784 49.0347 56.08C49.5475 56.083 49.5843 56.1561 49.4584 56.9229C49.3824 57.3846 49.1479 58.0222 48.9373 58.3393C48.1273 59.5596 45.7602 59.9417 44.1218 59.1165C42.6625 58.3817 42.3973 57.3821 42.4954 52.9832C42.5672 49.7627 42.6299 49.2914 43.0646 48.707C43.7138 47.8343 44.9542 47.2358 46.1143 47.2358C46.6332 47.2358 47.4293 47.4191 47.8834 47.6431ZM70.7556 47.6431C72.2858 48.405 72.533 49.192 72.5304 53.2891C72.5282 56.3711 72.462 57.03 72.0763 57.801C70.9405 60.0726 67.0049 60.162 65.7003 57.946C65.2738 57.2216 65.2205 56.7296 65.2212 53.522C65.2219 50.3376 65.279 49.8058 65.705 49.0029C66.5761 47.3611 68.9214 46.7296 70.7556 47.6431ZM2.32907 48.3412C2.45243 48.8215 2.89777 50.6813 3.31858 52.4742L4.08353 55.734L4.86618 52.1249C5.29642 50.1399 5.70638 48.2802 5.77714 47.9919C5.88683 47.5455 6.06208 47.468 6.9629 47.468C7.54435 47.468 8.01988 47.5167 8.01988 47.5763C8.01988 48.1148 4.41353 62.0576 4.13849 62.5829C3.63867 63.5366 2.8855 64 1.83443 64C0.952243 64 0.943515 63.9909 0.943515 63.0686C0.943515 62.2329 1.00343 62.1372 1.52708 62.1372C1.92619 62.1372 2.21561 61.9347 2.44229 61.4969C3.18271 60.0668 3.13011 59.6076 1.54194 53.6268C0.693956 50.4328 0 47.7407 0 47.644C0 47.5472 0.473644 47.468 1.05225 47.468C2.07125 47.468 2.11182 47.4957 2.32907 48.3412ZM12.5898 50.4363L14.0968 53.4046L15.5947 50.4363L17.0925 47.468H18.0992H19.1062V53.4055V59.3431H18.0447H16.9833L16.9712 55.6758L16.9592 52.0085L15.7895 54.2787C14.8012 56.1969 14.5323 56.549 14.0551 56.549C13.5795 56.549 13.3017 56.1904 12.2964 54.2787L11.1026 52.0085L11.0946 55.6758L11.0863 59.3431H10.0248H8.96339V53.4055V47.468H10.023H11.0828L12.5898 50.4363ZM23.352 49.9129V52.3577H24.7673H26.1825V49.9129V47.468H27.3619H28.5413V53.4055V59.3431H27.3619H26.1825V56.7818V54.2205H24.7673H23.352V56.7818V59.3431H22.2905H21.2291V53.4055V47.468H22.2905H23.352V49.9129ZM32.5513 49.68V51.8921H33.6807C35.1207 51.8921 36.8011 52.703 37.2363 53.6079C37.6871 54.5456 37.638 57.1283 37.1556 57.8552C36.3744 59.0322 35.4785 59.3412 32.8461 59.3422L30.4284 59.3431V53.4055V47.468H31.4898H32.5513V49.68ZM40.5711 53.4055V59.3431H39.5097H38.4482V53.4055V47.468H39.5097H40.5711V53.4055ZM63.4514 53.4055V59.3431H62.3899H61.3285V54.3369V49.3308H59.7953H58.2621V54.3369V59.3431H57.2006H56.1391V53.4055V47.468H59.7953H63.4514V53.4055ZM75.953 50.0293C75.953 52.5878 75.9537 52.5906 76.5273 52.5906C78.1346 52.5906 78.663 51.9552 79.3836 49.1561L79.8181 47.468H80.834C81.3928 47.468 81.8499 47.5192 81.8499 47.5819C81.8499 47.6445 81.6251 48.5088 81.3506 49.5028C80.7991 51.4981 80.3085 52.5752 79.7756 52.9606C79.4678 53.1834 79.4706 53.2316 79.7994 53.3562C80.3483 53.5641 80.838 54.6336 81.4985 57.0668C81.8209 58.2548 82.0849 59.253 82.0851 59.2849C82.0856 59.3168 81.6242 59.3431 81.06 59.3431H80.0344L79.5041 57.3621C78.8474 54.9083 78.5184 54.4943 77.0734 54.3043L75.953 54.1572V56.7501V59.3431H74.8915H73.8301V53.4055V47.468H74.8915H75.953V50.0293ZM84.8416 48.9815C85.0145 49.7499 85.4386 51.5835 85.7839 53.0563L86.4121 55.734L86.8463 53.7548C87.085 52.6663 87.5002 50.8063 87.7688 49.6218L88.2573 47.468H89.2995C89.8726 47.468 90.3416 47.5753 90.3416 47.7067C90.3416 48.2948 86.7496 62.0301 86.4425 62.6167C85.9599 63.5376 85.1959 64 84.1561 64C83.2739 64 83.2652 63.9909 83.2652 63.0686C83.2652 62.2432 83.3289 62.1372 83.8261 62.1372C84.5467 62.1372 84.8178 61.7982 85.1555 60.474C85.4136 59.463 85.3372 59.0511 83.8757 53.5653C83.0211 50.3569 82.3217 47.6666 82.3217 47.5872C82.3217 47.5076 82.818 47.4745 83.4247 47.5134L84.5276 47.5844L84.8416 48.9815ZM98.5973 53.4055V59.3431H97.5359H96.4744V54.3369V49.3308H95.0591H93.6439V54.3369V59.3431H92.5824H91.521V53.4055V47.468H95.0591H98.5973V53.4055ZM102.607 50.0293V52.5906H103.186C104.696 52.5906 105.131 52.0127 106.037 48.8069L106.415 47.468H107.437H108.46L107.916 49.4188C107.345 51.4671 107.028 52.208 106.433 52.8816C106.213 53.1299 106.177 53.2891 106.339 53.2891C106.753 53.2891 107.336 54.5886 108.04 57.0819L108.685 59.3664L107.614 59.2965L106.542 59.2267L106.023 57.2868C105.426 55.0543 105.004 54.5348 103.61 54.3174L102.607 54.1609V56.752V59.3431H101.546H100.484V53.4055V47.468H101.546H102.607V50.0293ZM111.86 51.0841L111.924 54.7004L113.554 51.0841L115.184 47.468H116.208H117.232V53.4055V59.3431H116.176H115.121L115.056 55.8572L114.991 52.3713L113.442 55.799L111.893 59.2267L110.788 59.2977L109.684 59.3687V53.4184V47.468H110.739H111.795L111.86 51.0841ZM68.235 49.3375C67.501 49.6262 67.3434 50.4151 67.3434 53.8046C67.3434 56.9436 67.4422 57.2505 68.5586 57.5802C68.9082 57.6834 69.2667 57.56 69.7095 57.1839C70.307 56.6768 70.3615 56.4779 70.4711 54.4075C70.6009 51.9593 70.4275 50.2864 69.9874 49.735C69.6029 49.2534 68.8714 49.0874 68.235 49.3375ZM44.9484 49.8484C44.7464 50.1329 44.5811 50.814 44.5811 51.3619V52.3577H45.9964H47.4116V51.2101C47.4116 50.4773 47.2776 49.9303 47.0411 49.6966C46.4908 49.1536 45.3843 49.2337 44.9484 49.8484ZM32.5513 55.6176C32.5513 57.4177 32.5699 57.4803 33.1058 57.4803C34.2748 57.4803 35.1363 56.9997 35.337 56.2353C35.6434 55.0683 35.4089 54.4408 34.5315 54.0789C34.0993 53.9006 33.4771 53.7548 33.1485 53.7548C32.5593 53.7548 32.5513 53.7795 32.5513 55.6176Z" fill="#00A1D8"/>
</svg>
