<svg width="907" height="902" viewBox="0 0 907 902" fill="none" xmlns="http://www.w3.org/2000/svg">
<g filter="url(#filter0_d)">
<path fill-rule="evenodd" clip-rule="evenodd" d="M1148.74 880L396.261 880L54.1677 287.227C59.3951 278.653 64.4021 269.952 69.1889 261.125L85.3657 261.063L94.1494 260.977L102.489 260.85C103.712 262.806 104.956 264.75 106.212 266.683C106.797 267.584 107.378 268.49 107.959 269.396C108.961 270.957 109.962 272.519 110.991 274.061C111.553 274.905 112.111 275.752 112.669 276.6C113.723 278.2 114.778 279.802 115.865 281.383C117.503 283.823 119.172 286.238 120.873 288.628C119.78 286.245 118.626 283.823 117.492 281.446L117.088 280.599C116.331 279.01 115.54 277.435 114.749 275.861C114.222 274.813 113.695 273.765 113.179 272.714C112.023 270.358 110.812 268.024 109.603 265.694L109.184 264.886C108.971 264.475 108.758 264.064 108.546 263.653C107.641 261.904 106.736 260.155 105.81 258.419L107.787 254.881L109.757 251.724L114.317 244.221L118.857 236.709L122.463 230.545L129.638 230.592H138.422L147.196 230.506L154.54 230.354L158.302 236.546L162.947 244.002C164.486 246.487 166.073 248.953 167.659 251.419C168.066 252.051 168.471 252.683 168.875 253.316C169.932 254.967 170.988 256.618 172.075 258.252C171.911 258.579 171.748 258.905 171.584 259.231C170.555 261.28 169.527 263.329 168.539 265.402C167.239 268.033 165.984 270.681 164.773 273.344C166.008 271.61 167.208 269.855 168.409 268.098C168.862 267.435 169.316 266.772 169.772 266.109C170.88 264.497 171.955 262.868 173.03 261.239C173.567 260.424 174.105 259.61 174.646 258.797L175 258.252L174.646 257.526C173.75 255.708 172.822 253.916 171.894 252.124C171.476 251.317 171.057 250.509 170.642 249.698C169.303 247.089 167.956 244.489 166.57 241.908L162.431 234.157L158.799 227.568C159.574 226.132 160.351 224.699 161.129 223.266C162.903 219.996 164.677 216.727 166.408 213.435L170.498 205.665C171.399 203.97 172.271 202.262 173.144 200.554C173.605 199.651 174.066 198.748 174.532 197.846L174.847 197.254L174.532 196.766C173.242 194.724 171.912 192.702 170.582 190.678C170.305 190.257 170.029 189.837 169.753 189.416C168.147 186.969 166.503 184.542 164.85 182.123C166.073 184.761 167.363 187.399 168.673 190.018L168.674 190.021C169.882 192.436 171.089 194.851 172.327 197.243C170.817 199.548 169.318 201.839 167.86 204.164L163.177 211.6C161.226 214.69 159.316 217.803 157.406 220.917L157.386 220.948C156.511 222.374 155.636 223.801 154.757 225.225L147.196 225.077L138.422 224.991H136.829C134.44 224.933 132.049 224.933 129.653 224.933H129.648L122.53 224.887L118.962 218.654L114.537 211.074L110.102 203.495C108.881 201.397 107.647 199.308 106.4 197.227L109.891 190.964C110.118 190.56 110.346 190.155 110.573 189.75L110.609 189.687L110.609 189.686C111.791 187.582 112.981 185.463 114.126 183.318C115.166 181.38 116.216 179.448 117.266 177.516C118.848 174.605 120.43 171.694 121.978 168.767L129.648 168.475L138.431 168.064C140.362 167.975 142.288 167.862 144.218 167.748C145.213 167.69 146.208 167.631 147.206 167.576C150.14 167.414 153.065 167.203 155.989 166.984C154.659 166.884 153.332 166.744 152.004 166.605L152.002 166.605C150.41 166.437 148.819 166.27 147.225 166.171C144.3 165.99 141.375 165.818 138.451 165.684L129.667 165.273L120.893 164.938H119.937L119.335 165.894C117.403 168.954 115.512 172.039 113.62 175.125L113.615 175.134C112.447 177.038 111.279 178.943 110.102 180.843C109.152 182.376 108.224 183.925 107.295 185.474L107.294 185.477L107.291 185.482C106.717 186.44 106.142 187.399 105.562 188.355L101.2 195.637C100.795 195.623 100.391 195.608 99.9859 195.594C98.0417 195.524 96.1003 195.454 94.1589 195.41L85.3752 195.18C84.4517 195.159 83.5282 195.132 82.6047 195.106C80.6034 195.047 78.6022 194.989 76.6009 194.989L69.3617 194.871C66.7528 190.198 64.1225 185.526 61.4708 180.853L57.1123 173.207L56.8214 172.695C56.6332 172.364 56.4452 172.032 56.2575 171.702L56.2505 171.689L56.2277 171.649C55.6157 170.57 55.0057 169.496 54.3913 168.425L71.3415 139.052L76.6105 138.96L85.3847 138.731L94.1684 138.492L102.075 138.208C103.927 141.182 105.826 144.143 107.717 147.091L107.721 147.098L107.733 147.116L107.745 147.135C108.492 148.299 109.237 149.461 109.977 150.621C112.778 155.008 115.636 159.395 118.579 163.725C116.314 159.013 114.001 154.253 111.593 149.618C110.936 148.354 110.282 147.089 109.627 145.823L109.627 145.822L109.621 145.811C107.876 142.436 106.13 139.058 104.338 135.711L103.927 134.937H102.971L94.1876 134.621L85.4039 134.382L76.6296 134.153L74.1933 134.111L396.261 -424L1148.74 -424L1525 228.022L1148.74 880ZM117.689 227.761L114.049 221.492L109.7 213.846L105.351 206.2C104.024 203.871 102.712 201.542 101.417 199.213C99.0034 199.301 96.5955 199.388 94.1876 199.443L85.4039 199.673C84.4494 199.694 83.4949 199.719 82.5405 199.744L82.4854 199.746C80.5335 199.797 78.5815 199.848 76.6296 199.873L68.3703 199.999L68.1622 200.391L67.9484 200.794L67.6388 201.379C66.8163 202.932 65.9938 204.485 65.1506 206.028L60.9547 213.742L56.7493 221.445L53.2216 227.759L56.9787 234.052C57.984 235.719 58.9638 237.403 59.9436 239.087L59.9459 239.091L59.9472 239.093C60.4381 239.937 60.9289 240.781 61.423 241.622L69.449 255.354L85.3561 255.414L94.1399 255.5L101.472 255.612L105.189 249.393L109.758 241.89L109.868 241.71L114.097 234.09L117.689 227.761ZM64.6037 258.416C59.8893 266.092 55.3558 273.868 51.0031 281.743L20 228.022L51.1127 174.107C51.4791 174.737 51.845 175.367 52.2092 175.998L56.6344 183.577C59.4942 188.465 62.3839 193.334 65.3034 198.186C65.1019 198.508 64.9004 198.829 64.6988 199.15L64.6294 199.261L64.6256 199.267L64.6235 199.27C63.6342 200.847 62.6461 202.422 61.6811 204.012L57.1029 211.495L52.5342 218.998L48.0229 226.53L47.2869 227.773L48.0229 229.111L52.2952 236.757C53.2803 238.547 54.2931 240.319 55.3047 242.089L55.3133 242.104L55.3149 242.107C55.7527 242.872 56.1901 243.637 56.625 244.404L64.6037 258.416Z" fill="#FFED00"/>
</g>
<circle cx="727" cy="630" r="196" fill="url(#paint0_radial)"/>
<path d="M647 804V848L685.089 870L723.178 848V804L685.089 782L647 804Z" fill="#FEEB19"/>
<path d="M563 804V848L601.089 870L639.178 848V804L601.089 782L563 804Z" fill="#FEEB19"/>
<path d="M479 804V848L517.089 870L555.178 848V804L517.089 782L479 804Z" fill="#FEEB19"/>
<path d="M731 804V848L769.089 870L807.178 848V804L769.089 782L731 804Z" fill="#FEEB19"/>
<path d="M899 804V848L937.089 870L975.178 848V804L937.089 782L899 804Z" fill="#FEEB19"/>
<path d="M815 804V848L853.089 870L891.178 848V804L853.089 782L815 804Z" fill="#FEEB19"/>
<path d="M689 730V774L727.089 796L765.178 774V730L727.089 708L689 730Z" fill="#FEEB19"/>
<path d="M605 730V774L643.089 796L681.178 774V730L643.089 708L605 730Z" fill="#FEEB19"/>
<path d="M521 730V774L559.089 796L597.178 774V730L559.089 708L521 730Z" fill="#FEEB19"/>
<path d="M437 730V774L475.089 796L513.178 774V730L475.089 708L437 730Z" fill="#FEEB19"/>
<path d="M773 730V774L811.089 796L849.178 774V730L811.089 708L773 730Z" fill="#FEEB19"/>
<path d="M857 730V774L895.089 796L933.178 774V730L895.089 708L857 730Z" fill="#FEEB19"/>
<path d="M647 657V701L685.089 723L723.178 701V657L685.089 635L647 657Z" fill="#FEEB19"/>
<path d="M563 657V701L601.089 723L639.178 701V657L601.089 635L563 657Z" fill="#FEEB19"/>
<path d="M479 657V701L517.089 723L555.178 701V657L517.089 635L479 657Z" fill="#FEEB19"/>
<path d="M731 657V701L769.089 723L807.178 701V657L769.089 635L731 657Z" fill="#FEEB19"/>
<path d="M899 657V701L937.089 723L975.178 701V657L937.089 635L899 657Z" fill="#FEEB19"/>
<path d="M815 657V701L853.089 723L891.178 701V657L853.089 635L815 657Z" fill="#FEEB19"/>
<path d="M689 583V627L727.089 649L765.178 627V583L727.089 561L689 583Z" fill="#FEEB19"/>
<path d="M605 583V627L643.089 649L681.178 627V583L643.089 561L605 583Z" fill="#FEEB19"/>
<path d="M521 583V627L559.089 649L597.178 627V583L559.089 561L521 583Z" fill="#FEEB19"/>
<path d="M437 583V627L475.089 649L513.178 627V583L475.089 561L437 583Z" fill="#FEEB19"/>
<path d="M773 583V627L811.089 649L849.178 627V583L811.089 561L773 583Z" fill="#FEEB19"/>
<path d="M857 583V627L895.089 649L933.178 627V583L895.089 561L857 583Z" fill="#FEEB19"/>
<path d="M647 510V554L685.089 576L723.178 554V510L685.089 488L647 510Z" fill="#FEEB19"/>
<path d="M563 510V554L601.089 576L639.178 554V510L601.089 488L563 510Z" fill="#FEEB19"/>
<path d="M479 510V554L517.089 576L555.178 554V510L517.089 488L479 510Z" fill="#FEEB19"/>
<path d="M731 510V554L769.089 576L807.178 554V510L769.089 488L731 510Z" fill="#FEEB19"/>
<path d="M899 510V554L937.089 576L975.178 554V510L937.089 488L899 510Z" fill="#FEEB19"/>
<path d="M815 510V554L853.089 576L891.178 554V510L853.089 488L815 510Z" fill="#FEEB19"/>
<path d="M689 436V480L727.089 502L765.178 480V436L727.089 414L689 436Z" fill="#FEEB19"/>
<path d="M605 436V480L643.089 502L681.178 480V436L643.089 414L605 436Z" fill="#FEEB19"/>
<path d="M521 436V480L559.089 502L597.178 480V436L559.089 414L521 436Z" fill="#FEEB19"/>
<path d="M437 436V480L475.089 502L513.178 480V436L475.089 414L437 436Z" fill="#FEEB19"/>
<path d="M773 436V480L811.089 502L849.178 480V436L811.089 414L773 436Z" fill="#FEEB19"/>
<path d="M857 436V480L895.089 502L933.178 480V436L895.089 414L857 436Z" fill="#FEEB19"/>
<defs>
<filter id="filter0_d" x="0" y="-442" width="1545" height="1344" filterUnits="userSpaceOnUse" color-interpolation-filters="sRGB">
<feFlood flood-opacity="0" result="BackgroundImageFix"/>
<feColorMatrix in="SourceAlpha" type="matrix" values="0 0 0 0 0 0 0 0 0 0 0 0 0 0 0 0 0 0 127 0"/>
<feOffset dy="2"/>
<feGaussianBlur stdDeviation="10"/>
<feColorMatrix type="matrix" values="0 0 0 0 0 0 0 0 0 0 0 0 0 0 0 0 0 0 0.1 0"/>
<feBlend mode="normal" in2="BackgroundImageFix" result="effect1_dropShadow"/>
<feBlend mode="normal" in="SourceGraphic" in2="effect1_dropShadow" result="shape"/>
</filter>
<radialGradient id="paint0_radial" cx="0" cy="0" r="1" gradientUnits="userSpaceOnUse" gradientTransform="translate(727 630) rotate(90) scale(196)">
<stop stop-color="white"/>
<stop offset="1" stop-color="white" stop-opacity="0"/>
</radialGradient>
</defs>
</svg>
