<svg width="861" height="889" viewBox="0 0 861 889" fill="none" xmlns="http://www.w3.org/2000/svg">
<g filter="url(#filter0_d)">
<path fill-rule="evenodd" clip-rule="evenodd" d="M591.058 858.999L-123.746 859L-363 444.514L-123.746 29.9999L591.058 29.9999L797.327 387.367C792.205 395.759 787.302 404.275 782.615 412.917L766.931 412.977L758.414 413.06L750.328 413.183C749.142 411.287 747.936 409.402 746.719 407.528C746.15 406.652 745.586 405.773 745.022 404.893C744.052 403.381 743.081 401.868 742.085 400.374C741.54 399.556 740.999 398.735 740.458 397.913C739.436 396.361 738.413 394.808 737.359 393.275C735.771 390.909 734.152 388.567 732.503 386.25C733.563 388.562 734.684 390.912 735.783 393.218L736.173 394.035C736.907 395.575 737.674 397.103 738.441 398.629C738.952 399.645 739.463 400.661 739.963 401.68C741.083 403.962 742.255 406.222 743.426 408.479L743.837 409.27C744.045 409.673 744.253 410.075 744.462 410.478C745.337 412.169 746.213 413.861 747.109 415.54L745.196 418.964L743.281 422.031L738.86 429.306L734.458 436.59L730.961 442.567L724.005 442.521H715.488L706.981 442.605L699.86 442.752L696.212 436.748L691.708 429.519C690.216 427.11 688.678 424.719 687.139 422.328C686.744 421.713 686.35 421.098 685.957 420.483C684.934 418.884 683.911 417.285 682.858 415.702C683.018 415.382 683.179 415.063 683.339 414.744C684.335 412.76 685.331 410.776 686.287 408.77C687.547 406.218 688.764 403.651 689.938 401.069C688.741 402.75 687.578 404.452 686.413 406.155C685.973 406.798 685.533 407.441 685.091 408.084C684.016 409.647 682.974 411.227 681.932 412.806C681.411 413.596 680.89 414.386 680.365 415.174L680.022 415.702L680.365 416.406C681.233 418.168 682.132 419.904 683.032 421.64C683.438 422.424 683.844 423.209 684.248 423.996C685.545 426.526 686.852 429.047 688.196 431.549L692.208 439.065L695.73 445.453C694.979 446.845 694.225 448.235 693.471 449.625C691.751 452.795 690.031 455.964 688.353 459.156L684.387 466.69C683.516 468.329 682.672 469.98 681.828 471.633L681.824 471.641C681.376 472.518 680.928 473.395 680.476 474.271L680.17 474.846L680.476 475.318C681.725 477.296 683.013 479.255 684.302 481.216L684.407 481.377C684.641 481.733 684.876 482.089 685.109 482.445C686.666 484.817 688.26 487.171 689.864 489.516C688.677 486.958 687.426 484.4 686.157 481.861C684.985 479.519 683.814 477.176 682.614 474.856C684.078 472.621 685.531 470.399 686.944 468.145L691.485 460.936C693.377 457.939 695.229 454.92 697.082 451.901C697.936 450.508 698.791 449.116 699.649 447.725L706.981 447.869L715.488 447.952H717.035C719.352 448.008 721.669 448.008 723.992 448.008H723.995L730.896 448.053L734.356 454.096L738.647 461.445L742.947 468.794C744.13 470.828 745.327 472.854 746.536 474.871L743.15 480.944L742.694 481.757L742.452 482.188C741.307 484.226 740.154 486.279 739.045 488.357C738.036 490.236 737.018 492.109 736 493.982L735.997 493.989C734.464 496.81 732.931 499.63 731.431 502.466L723.995 502.75L715.478 503.148C713.606 503.234 711.737 503.344 709.864 503.454C708.901 503.51 707.937 503.567 706.971 503.621C704.126 503.778 701.29 503.982 698.454 504.195C699.744 504.292 701.032 504.427 702.319 504.563C703.863 504.725 705.406 504.887 706.953 504.983C709.788 505.159 712.624 505.326 715.46 505.456L723.976 505.854L732.484 506.178H733.411L733.994 505.252C735.865 502.288 737.698 499.299 739.53 496.31L739.536 496.3C740.67 494.451 741.803 492.602 742.947 490.758C743.868 489.269 744.768 487.767 745.669 486.264L745.672 486.259C746.229 485.33 746.786 484.4 747.349 483.474L751.578 476.413L752.75 476.455L752.759 476.455C754.643 476.523 756.524 476.59 758.405 476.633L766.922 476.856C767.817 476.876 768.713 476.902 769.609 476.929C771.549 476.985 773.489 477.041 775.429 477.041L782.448 477.156C784.978 481.686 787.528 486.217 790.099 490.748L794.325 498.161C794.464 498.407 794.604 498.652 794.743 498.896L795.151 499.615C795.706 500.594 796.259 501.569 796.816 502.541L780.225 531.282L775.42 531.366L766.912 531.589L758.396 531.82L750.729 532.095C748.936 529.217 747.099 526.351 745.269 523.498L745.261 523.486C744.528 522.342 743.795 521.2 743.068 520.06C740.352 515.806 737.581 511.553 734.727 507.355C736.923 511.923 739.166 516.538 741.501 521.033C741.91 521.82 742.318 522.608 742.726 523.396L743.381 524.663L743.412 524.724C745.104 527.996 746.798 531.271 748.535 534.517L748.934 535.268H749.86L758.377 535.573L766.894 535.805L775.401 536.028L777.466 536.063L591.058 858.999ZM735.591 445.266L739.119 451.344L743.336 458.758L747.552 466.172C748.84 468.43 750.111 470.688 751.367 472.946C753.707 472.861 756.042 472.776 758.377 472.723L766.894 472.5C767.311 472.491 767.728 472.481 768.145 472.47C768.674 472.457 769.202 472.443 769.73 472.429L769.736 472.429C771.624 472.38 773.513 472.33 775.401 472.306L783.41 472.184C783.646 471.738 783.882 471.293 784.118 470.847C784.916 469.34 785.714 467.834 786.531 466.338L790.6 458.859L794.677 451.39L798.098 445.268L794.455 439.166C793.479 437.548 792.527 435.913 791.576 434.278C791.1 433.46 790.625 432.642 790.146 431.826L782.364 418.513L766.94 418.454L758.424 418.37L751.315 418.262L747.711 424.292L743.281 431.567L743.188 431.716L743.169 431.75L739.073 439.13L735.591 445.266ZM787.062 415.542C791.683 408.018 796.125 400.394 800.388 392.672L830.311 444.513L799.994 497.035C799.688 496.508 799.383 495.982 799.079 495.455L794.788 488.106C792.016 483.367 789.214 478.646 786.383 473.942C786.602 473.593 786.82 473.244 787.039 472.896C787.999 471.366 788.958 469.837 789.895 468.293L794.334 461.037L798.764 453.762L803.138 446.46L803.852 445.255L803.138 443.957L798.996 436.543C798.042 434.811 797.062 433.096 796.083 431.384L796.076 431.372L796.074 431.367L796.071 431.362C795.646 430.618 795.22 429.874 794.798 429.13L787.062 415.542Z" fill="#77B3D1"/>
</g>
<circle cx="285.007" cy="308" r="196" fill="url(#paint0_radial)"/>
<path d="M205.007 482V526L243.096 548L281.185 526V482L243.096 460L205.007 482Z" fill="#77B3D1"/>
<path d="M289.007 482V526L327.096 548L365.185 526V482L327.096 460L289.007 482Z" fill="#77B3D1"/>
<path d="M247.007 408V452L285.096 474L323.185 452V408L285.096 386L247.007 408Z" fill="#77B3D1"/>
<path d="M163.007 408V452L201.096 474L239.185 452V408L201.096 386L163.007 408Z" fill="#77B3D1"/>
<path d="M79.0071 408V452L117.096 474L155.185 452V408L117.096 386L79.0071 408Z" fill="#77B3D1"/>
<path d="M331.007 408V452L369.096 474L407.185 452V408L369.096 386L331.007 408Z" fill="#77B3D1"/>
<path d="M415.007 408V452L453.096 474L491.185 452V408L453.096 386L415.007 408Z" fill="#77B3D1"/>
<path d="M205.007 335V379L243.096 401L281.185 379V335L243.096 313L205.007 335Z" fill="#77B3D1"/>
<path d="M121.007 335V379L159.096 401L197.185 379V335L159.096 313L121.007 335Z" fill="#77B3D1"/>
<path d="M37.0071 335V379L75.0962 401L113.185 379V335L75.0962 313L37.0071 335Z" fill="#77B3D1"/>
<path d="M289.007 335V379L327.096 401L365.185 379V335L327.096 313L289.007 335Z" fill="#77B3D1"/>
<path d="M457.007 335V379L495.096 401L533.185 379V335L495.096 313L457.007 335Z" fill="#77B3D1"/>
<path d="M373.007 335V379L411.096 401L449.185 379V335L411.096 313L373.007 335Z" fill="#77B3D1"/>
<path d="M247.007 261V305L285.096 327L323.185 305V261L285.096 239L247.007 261Z" fill="#77B3D1"/>
<path d="M163.007 261V305L201.096 327L239.185 305V261L201.096 239L163.007 261Z" fill="#77B3D1"/>
<path d="M79.0071 261V305L117.096 327L155.185 305V261L117.096 239L79.0071 261Z" fill="#77B3D1"/>
<path d="M331.007 261V305L369.096 327L407.185 305V261L369.096 239L331.007 261Z" fill="#77B3D1"/>
<path d="M415.007 261V305L453.096 327L491.185 305V261L453.096 239L415.007 261Z" fill="#77B3D1"/>
<path d="M205.007 188V232L243.096 254L281.185 232V188L243.096 166L205.007 188Z" fill="#77B3D1"/>
<path d="M121.007 188V232L159.096 254L197.185 232V188L159.096 166L121.007 188Z" fill="#77B3D1"/>
<path d="M37.0071 188V232L75.0962 254L113.185 232V188L75.0962 166L37.0071 188Z" fill="#77B3D1"/>
<path d="M289.007 188V232L327.096 254L365.185 232V188L327.096 166L289.007 188Z" fill="#77B3D1"/>
<path d="M373.007 188V232L411.096 254L449.185 232V188L411.096 166L373.007 188Z" fill="#77B3D1"/>
<path d="M247.007 114V158L285.096 180L323.185 158V114L285.096 92L247.007 114Z" fill="#77B3D1"/>
<path d="M163.007 114V158L201.096 180L239.185 158V114L201.096 92L163.007 114Z" fill="#77B3D1"/>
<path d="M79.0071 114V158L117.096 180L155.185 158V114L117.096 92L79.0071 114Z" fill="#77B3D1"/>
<path d="M331.007 114V158L369.096 180L407.185 158V114L369.096 92L331.007 114Z" fill="#77B3D1"/>
<defs>
<filter id="filter0_d" x="-393" y="-0.00012207" width="1253.31" height="889" filterUnits="userSpaceOnUse" color-interpolation-filters="sRGB">
<feFlood flood-opacity="0" result="BackgroundImageFix"/>
<feColorMatrix in="SourceAlpha" type="matrix" values="0 0 0 0 0 0 0 0 0 0 0 0 0 0 0 0 0 0 127 0"/>
<feOffset/>
<feGaussianBlur stdDeviation="15"/>
<feColorMatrix type="matrix" values="0 0 0 0 0 0 0 0 0 0 0 0 0 0 0 0 0 0 0.25 0"/>
<feBlend mode="normal" in2="BackgroundImageFix" result="effect1_dropShadow"/>
<feBlend mode="normal" in="SourceGraphic" in2="effect1_dropShadow" result="shape"/>
</filter>
<radialGradient id="paint0_radial" cx="0" cy="0" r="1" gradientUnits="userSpaceOnUse" gradientTransform="translate(285.007 308) rotate(90) scale(196)">
<stop stop-color="white"/>
<stop offset="1" stop-color="white" stop-opacity="0"/>
</radialGradient>
</defs>
</svg>
