<svg width="496" height="456" viewBox="0 0 496 456" fill="none" xmlns="http://www.w3.org/2000/svg">
<ellipse cx="235" cy="235" rx="181" ry="182" fill="url(#paint0_radial)"/>
<path d="M168 390V434L206.089 456L244.178 434V390L206.089 368L168 390Z" fill="white"/>
<path d="M252 390V434L290.089 456L328.178 434V390L290.089 368L252 390Z" fill="white"/>
<path d="M210 316V360L248.089 382L286.178 360V316L248.089 294L210 316Z" fill="white"/>
<path d="M126 316V360L164.089 382L202.178 360V316L164.089 294L126 316Z" fill="white"/>
<path d="M42 316V360L80.0892 382L118.178 360V316L80.0892 294L42 316Z" fill="white"/>
<path d="M294 316V360L332.089 382L370.178 360V316L332.089 294L294 316Z" fill="white"/>
<path d="M378 316V360L416.089 382L454.178 360V316L416.089 294L378 316Z" fill="white"/>
<path d="M168 243V287L206.089 309L244.178 287V243L206.089 221L168 243Z" fill="white"/>
<path d="M84 243V287L122.089 309L160.178 287V243L122.089 221L84 243Z" fill="white"/>
<path d="M0 243V287L38.0892 309L76.1783 287V243L38.0892 221L0 243Z" fill="white"/>
<path d="M252 243V287L290.089 309L328.178 287V243L290.089 221L252 243Z" fill="white"/>
<path d="M420 243V287L458.089 309L496.178 287V243L458.089 221L420 243Z" fill="white"/>
<path d="M336 243V287L374.089 309L412.178 287V243L374.089 221L336 243Z" fill="white"/>
<path d="M210 169V213L248.089 235L286.178 213V169L248.089 147L210 169Z" fill="white"/>
<path d="M126 169V213L164.089 235L202.178 213V169L164.089 147L126 169Z" fill="white"/>
<path d="M42 169V213L80.0892 235L118.178 213V169L80.0892 147L42 169Z" fill="white"/>
<path d="M294 169V213L332.089 235L370.178 213V169L332.089 147L294 169Z" fill="white"/>
<path d="M378 169V213L416.089 235L454.178 213V169L416.089 147L378 169Z" fill="white"/>
<path d="M168 96V140L206.089 162L244.178 140V96L206.089 74L168 96Z" fill="white"/>
<path d="M84 96V140L122.089 162L160.178 140V96L122.089 74L84 96Z" fill="white"/>
<path d="M0 96V140L38.0892 162L76.1783 140V96L38.0892 74L0 96Z" fill="white"/>
<path d="M252 96V140L290.089 162L328.178 140V96L290.089 74L252 96Z" fill="white"/>
<path d="M336 96V140L374.089 162L412.178 140V96L374.089 74L336 96Z" fill="white"/>
<path d="M210 22V66L248.089 88L286.178 66V22L248.089 0L210 22Z" fill="white"/>
<path d="M126 22V66L164.089 88L202.178 66V22L164.089 0L126 22Z" fill="white"/>
<path d="M42 22V66L80.0892 88L118.178 66V22L80.0892 0L42 22Z" fill="white"/>
<path d="M294 22V66L332.089 88L370.178 66V22L332.089 0L294 22Z" fill="white"/>
<defs>
<radialGradient id="paint0_radial" cx="0" cy="0" r="1" gradientUnits="userSpaceOnUse" gradientTransform="translate(235 235) rotate(90) scale(182 181)">
<stop stop-color="#77B3D1" stop-opacity="0.35"/>
<stop offset="1" stop-color="#77B3D1" stop-opacity="0"/>
</radialGradient>
</defs>
</svg>
