<svg width="497" height="456" viewBox="0 0 497 456" fill="none" xmlns="http://www.w3.org/2000/svg">
<circle cx="244" cy="198" r="196" fill="url(#paint0_radial)"/>
<path d="M294 390V434L332.089 456L370.178 434V390L332.089 368L294 390Z" fill="white"/>
<path d="M210 390V434L248.089 456L286.178 434V390L248.089 368L210 390Z" fill="white"/>
<path d="M126 390V434L164.089 456L202.178 434V390L164.089 368L126 390Z" fill="white"/>
<path d="M84 316V360L122.089 382L160.178 360V316L122.089 294L84 316Z" fill="white"/>
<path d="M336 316V360L374.089 382L412.178 360V316L374.089 294L336 316Z" fill="white"/>
<path d="M252 316V360L290.089 382L328.178 360V316L290.089 294L252 316Z" fill="white"/>
<path d="M168 316V360L206.089 382L244.178 360V316L206.089 294L168 316Z" fill="white"/>
<path d="M42 243V287L80.0891 309L118.178 287V243L80.0891 221L42 243Z" fill="white"/>
<path d="M378 243V287L416.089 309L454.178 287V243L416.089 221L378 243Z" fill="white"/>
<path d="M294 243V287L332.089 309L370.178 287V243L332.089 221L294 243Z" fill="white"/>
<path d="M210 243V287L248.089 309L286.178 287V243L248.089 221L210 243Z" fill="white"/>
<path d="M126 243V287L164.089 309L202.178 287V243L164.089 221L126 243Z" fill="white"/>
<path d="M0 169V213L38.0892 235L76.1783 213V169L38.0892 147L0 169Z" fill="white"/>
<path d="M84 169V213L122.089 235L160.178 213V169L122.089 147L84 169Z" fill="white"/>
<path d="M420 169V213L458.089 235L496.178 213V169L458.089 147L420 169Z" fill="white"/>
<path d="M336 169V213L374.089 235L412.178 213V169L374.089 147L336 169Z" fill="white"/>
<path d="M252 169V213L290.089 235L328.178 213V169L290.089 147L252 169Z" fill="white"/>
<path d="M168 169V213L206.089 235L244.178 213V169L206.089 147L168 169Z" fill="white"/>
<path d="M42 96V140L80.0891 162L118.178 140V96L80.0891 74L42 96Z" fill="white"/>
<path d="M378 96V140L416.089 162L454.178 140V96L416.089 74L378 96Z" fill="white"/>
<path d="M294 96V140L332.089 162L370.178 140V96L332.089 74L294 96Z" fill="white"/>
<path d="M210 96V140L248.089 162L286.178 140V96L248.089 74L210 96Z" fill="white"/>
<path d="M126 96V140L164.089 162L202.178 140V96L164.089 74L126 96Z" fill="white"/>
<path d="M84 22V66L122.089 88L160.178 66V22L122.089 0L84 22Z" fill="white"/>
<path d="M336 22V66L374.089 88L412.178 66V22L374.089 0L336 22Z" fill="white"/>
<path d="M252 22V66L290.089 88L328.178 66V22L290.089 0L252 22Z" fill="white"/>
<path d="M168 22V66L206.089 88L244.178 66V22L206.089 0L168 22Z" fill="white"/>
<defs>
<radialGradient id="paint0_radial" cx="0" cy="0" r="1" gradientUnits="userSpaceOnUse" gradientTransform="translate(244 198) rotate(90) scale(196)">
<stop stop-color="#FEEB19"/>
<stop offset="1" stop-color="#FEEB19" stop-opacity="0"/>
</radialGradient>
</defs>
</svg>
