<svg width="454" height="382" viewBox="0 0 454 382" fill="none" xmlns="http://www.w3.org/2000/svg">
<ellipse cx="223" cy="182" rx="133" ry="134" transform="rotate(-180 223 182)" fill="url(#paint0_radial)"/>
<path d="M244.178 66L244.178 22L206.089 -3.32986e-06L168 22L168 66L206.089 88L244.178 66Z" fill="#0F0F0F"/>
<path d="M328.178 66L328.178 22L290.089 -3.32986e-06L252 22L252 66L290.089 88L328.178 66Z" fill="#0F0F0F"/>
<path d="M412.178 66L412.178 22L374.089 -3.32986e-06L336 22L336 66L374.089 88L412.178 66Z" fill="#0F0F0F"/>
<path d="M160.178 66L160.178 22L122.089 -3.32986e-06L83.9999 22L83.9999 66L122.089 88L160.178 66Z" fill="#0F0F0F"/>
<path d="M286.178 139L286.178 95L248.089 73L210 95L210 139L248.089 161L286.178 139Z" fill="#0F0F0F"/>
<path d="M370.178 139L370.178 95L332.089 73L294 95L294 139L332.089 161L370.178 139Z" fill="#0F0F0F"/>
<path d="M454.178 139L454.178 95L416.089 73L378 95L378 139L416.089 161L454.178 139Z" fill="#0F0F0F"/>
<path d="M202.178 139L202.178 95L164.089 73L126 95L126 139L164.089 161L202.178 139Z" fill="#0F0F0F"/>
<path d="M118.178 139L118.178 95L80.089 73L41.9999 95L41.9999 139L80.089 161L118.178 139Z" fill="#0F0F0F"/>
<path d="M244.178 213L244.178 169L206.089 147L168 169L168 213L206.089 235L244.178 213Z" fill="#0F0F0F"/>
<path d="M328.178 213L328.178 169L290.089 147L252 169L252 213L290.089 235L328.178 213Z" fill="#0F0F0F"/>
<path d="M412.178 213L412.178 169L374.089 147L336 169L336 213L374.089 235L412.178 213Z" fill="#0F0F0F"/>
<path d="M160.178 213L160.178 169L122.089 147L83.9999 169L83.9999 213L122.089 235L160.178 213Z" fill="#0F0F0F"/>
<path d="M76.1782 213L76.1782 169L38.089 147L-0.000108671 169L-0.000112518 213L38.089 235L76.1782 213Z" fill="#0F0F0F"/>
<path d="M286.178 286L286.178 242L248.089 220L210 242L210 286L248.089 308L286.178 286Z" fill="#0F0F0F"/>
<path d="M370.178 286L370.178 242L332.089 220L294 242L294 286L332.089 308L370.178 286Z" fill="#0F0F0F"/>
<path d="M454.178 286L454.178 242L416.089 220L378 242L378 286L416.089 308L454.178 286Z" fill="#0F0F0F"/>
<path d="M202.178 286L202.178 242L164.089 220L126 242L126 286L164.089 308L202.178 286Z" fill="#0F0F0F"/>
<path d="M118.178 286L118.178 242L80.089 220L41.9999 242L41.9999 286L80.089 308L118.178 286Z" fill="#0F0F0F"/>
<path d="M244.178 360L244.178 316L206.089 294L168 316L168 360L206.089 382L244.178 360Z" fill="#0F0F0F"/>
<path d="M328.178 360L328.178 316L290.089 294L252 316L252 360L290.089 382L328.178 360Z" fill="#0F0F0F"/>
<path d="M412.178 360L412.178 316L374.089 294L336 316L336 360L374.089 382L412.178 360Z" fill="#0F0F0F"/>
<path d="M160.178 360L160.178 316L122.089 294L83.9999 316L83.9999 360L122.089 382L160.178 360Z" fill="#0F0F0F"/>
<defs>
<radialGradient id="paint0_radial" cx="0" cy="0" r="1" gradientUnits="userSpaceOnUse" gradientTransform="translate(223 182) rotate(90) scale(134 133)">
<stop stop-color="#FEEB19"/>
<stop offset="1" stop-color="#FEEB19" stop-opacity="0"/>
</radialGradient>
</defs>
</svg>
