<svg width="228" height="53" viewBox="0 0 228 53" fill="none" xmlns="http://www.w3.org/2000/svg">
<path d="M95.9532 44.6062V46.8709H93.3481V44.6062C90.4655 44.3936 88.1648 43.6117 86.446 42.2605C85.6082 41.6024 84.9379 40.7555 84.4898 39.7889C84.0418 38.8223 83.8286 37.7635 83.8679 36.6989C83.8291 35.635 84.0424 34.5771 84.4905 33.6115C84.9385 32.6459 85.6086 31.7999 86.446 31.1426C88.1792 29.7878 90.4799 29.0059 93.3481 28.7969V26.5322H95.9532V28.7969C98.8575 29.0023 101.16 29.7842 102.861 31.1426C103.705 31.7956 104.381 32.64 104.834 33.6062C105.287 34.5723 105.504 35.6324 105.466 36.6989C105.504 37.766 105.287 38.8269 104.834 39.7939C104.381 40.761 103.705 41.6064 102.861 42.2605C101.156 43.6117 98.8539 44.3936 95.9532 44.6062ZM88.2783 32.8452C87.6919 33.2967 87.2224 33.8824 86.9093 34.5529C86.5961 35.2235 86.4483 35.9594 86.4784 36.6989C86.4478 37.4361 86.5954 38.1698 86.9087 38.8379C87.222 39.5059 87.6918 40.0885 88.2783 40.5363C89.4601 41.448 91.1501 41.9885 93.3481 42.1578V31.2291C91.1537 31.3804 89.4637 31.9191 88.2783 32.8452ZM95.9532 31.2237V42.1578C98.1476 42.0011 99.8394 41.466 101.023 40.5363C101.606 40.0828 102.071 39.4962 102.381 38.8257C102.69 38.1552 102.834 37.4203 102.801 36.6826C102.834 35.945 102.689 35.2103 102.38 34.5399C102.071 33.8694 101.605 33.2828 101.023 32.8289C99.8412 31.9173 98.1512 31.384 95.9532 31.2291V31.2237Z" fill="white"/>
<path d="M116.033 32.0296C116.994 32.0176 117.948 32.2077 118.831 32.5876C119.715 32.9675 120.509 33.5286 121.162 34.2348C122.523 35.6806 123.281 37.5916 123.281 39.5775C123.281 41.5634 122.523 43.4744 121.162 44.9203C120.507 45.6207 119.711 46.1753 118.828 46.5478C117.944 46.9203 116.991 47.1024 116.033 47.0822C114.962 47.1288 113.898 46.8914 112.949 46.394C111.999 45.8966 111.199 45.1569 110.628 44.2501V52.4547H108.136V32.4295H110.628V34.8942C111.194 33.9805 111.993 33.2338 112.942 32.7305C113.892 32.2271 114.959 31.9852 116.033 32.0296ZM115.719 44.6933C116.389 44.7093 117.054 44.588 117.675 44.3371C118.296 44.0861 118.859 43.7107 119.33 43.234C119.804 42.7495 120.177 42.1756 120.428 41.5456C120.678 40.9155 120.801 40.2419 120.789 39.564C120.807 38.8902 120.686 38.2199 120.435 37.5944C120.184 36.9688 119.808 36.4012 119.33 35.9265C118.364 34.9742 117.062 34.4404 115.706 34.4404C114.349 34.4404 113.047 34.9742 112.082 35.9265C111.603 36.4012 111.227 36.9688 110.976 37.5944C110.725 38.2199 110.604 38.8902 110.622 39.564C110.61 40.2419 110.733 40.9155 110.983 41.5456C111.234 42.1756 111.607 42.7495 112.082 43.234C112.556 43.7125 113.124 44.0888 113.749 44.3398C114.375 44.5908 115.045 44.7111 115.719 44.6933Z" fill="white"/>
<path d="M138.122 34.8676V32.43H140.614V46.753H138.122V44.2667C137.554 45.1759 136.753 45.9174 135.804 46.4152C134.854 46.9129 133.789 47.1489 132.717 47.0989C131.759 47.1191 130.806 46.937 129.922 46.5645C129.039 46.1919 128.243 45.6374 127.588 44.9369C126.227 43.4911 125.469 41.5801 125.469 39.5942C125.469 37.6083 126.227 35.6973 127.588 34.2514C128.242 33.5458 129.036 32.985 129.919 32.6052C130.803 32.2253 131.756 32.0349 132.717 32.0462C133.788 31.994 134.853 32.2279 135.803 32.7237C136.753 33.2196 137.553 33.9596 138.122 34.8676ZM133.02 44.6937C133.694 44.7118 134.364 44.5917 134.99 44.3407C135.616 44.0897 136.183 43.7132 136.658 43.2344C137.134 42.751 137.509 42.1773 137.76 41.5471C138.012 40.9169 138.135 40.2429 138.122 39.5645C138.134 38.8902 138.01 38.2205 137.758 37.595C137.506 36.9695 137.131 36.401 136.655 35.9231C136.179 35.4453 135.612 35.0678 134.988 34.8132C134.364 34.5585 133.694 34.4318 133.02 34.4406C132.349 34.4263 131.683 34.5509 131.062 34.8067C130.442 35.0625 129.881 35.4439 129.415 35.927C128.935 36.4006 128.557 36.9679 128.305 37.5936C128.053 38.2193 127.932 38.8901 127.95 39.5645C127.937 40.2438 128.06 40.9189 128.311 41.55C128.563 42.1812 128.938 42.7557 129.415 43.2398C129.885 43.7154 130.447 44.0897 131.067 44.3398C131.687 44.5898 132.352 44.7103 133.02 44.6937Z" fill="white"/>
<path d="M154.305 38.3751V32.4297H156.796V46.7527H154.305V40.7424H146.889V46.7257H144.392V32.4297H146.889V38.3751H154.305Z" fill="white"/>
<path d="M177.708 44.3475V32.4297H180.2V46.7527H160.58V32.4297H163.071V44.3745H169.174V32.4297H171.665V44.3745L177.708 44.3475Z" fill="white"/>
<path d="M186.469 42.4612L194.409 32.4297H196.414V46.7527H193.95V36.6725L186.015 46.7257H184.01V32.4297H186.469V42.4612Z" fill="white"/>
<path d="M207.932 39.3963C209.518 40.0629 210.31 41.1979 210.31 42.8014C210.32 43.393 210.193 43.9788 209.939 44.5132C209.685 45.0476 209.311 45.5161 208.846 45.8822C207.873 46.6929 206.527 47.0983 204.808 47.0983C201.944 47.0983 200.025 45.9524 199.052 43.6608L201.144 42.4284C201.673 43.9959 202.904 44.7796 204.835 44.7796C205.616 44.8236 206.39 44.6131 207.04 44.1796C207.298 43.9968 207.507 43.7531 207.647 43.4702C207.788 43.1872 207.856 42.8739 207.846 42.5582C207.853 42.2899 207.798 42.0236 207.685 41.78C207.573 41.5363 207.406 41.3218 207.197 41.1529C206.705 40.7702 206.09 40.5783 205.468 40.6124H203.376V38.3748H204.922C205.533 38.409 206.135 38.2166 206.613 37.8343C206.814 37.6518 206.971 37.4274 207.075 37.177C207.179 36.9266 207.226 36.6565 207.213 36.3858C207.224 36.0964 207.164 35.8089 207.04 35.5474C206.916 35.2859 206.731 35.0581 206.5 34.8832C205.939 34.4927 205.263 34.3023 204.581 34.3427C202.978 34.3427 201.888 35.0219 201.311 36.3803L199.279 35.2021C200.292 33.105 202.059 32.0546 204.581 32.051C205.912 31.9883 207.22 32.4109 208.262 33.2401C208.702 33.5995 209.055 34.0534 209.296 34.568C209.536 35.0826 209.658 35.6448 209.651 36.2128C209.684 36.85 209.541 37.4839 209.238 38.0454C208.935 38.6068 208.483 39.0741 207.932 39.3963Z" fill="white"/>
<path d="M224.844 34.8667V32.4291H227.336V46.7521H224.844V44.2659C224.276 45.1751 223.475 45.9166 222.526 46.4143C221.576 46.912 220.511 47.148 219.439 47.098C218.481 47.1175 217.528 46.9351 216.645 46.5627C215.761 46.1902 214.966 45.636 214.31 44.9361C212.949 43.4902 212.191 41.5792 212.191 39.5933C212.191 37.6074 212.949 35.6964 214.31 34.2506C214.962 33.542 215.755 32.9782 216.639 32.5955C217.523 32.2129 218.477 32.0199 219.439 32.0292C220.511 31.9786 221.577 32.2149 222.527 32.7137C223.477 33.2125 224.277 33.9557 224.844 34.8667ZM219.764 44.6929C220.437 44.71 221.107 44.5894 221.733 44.3385C222.358 44.0875 222.926 43.7115 223.401 43.2335C223.873 42.7478 224.243 42.1733 224.491 41.5433C224.738 40.9133 224.859 40.2404 224.844 39.5636C224.857 38.8896 224.733 38.22 224.482 37.5945C224.231 36.9691 223.856 36.4005 223.381 35.9226C222.905 35.4446 222.339 35.0671 221.715 34.8124C221.09 34.5577 220.421 34.4309 219.747 34.4397C219.076 34.4247 218.408 34.549 217.787 34.8048C217.165 35.0606 216.603 35.4424 216.137 35.9261C215.658 36.4005 215.281 36.9679 215.029 37.5935C214.777 38.219 214.655 38.8895 214.672 39.5636C214.662 40.2439 214.788 40.9193 215.043 41.5504C215.297 42.1815 215.674 42.7555 216.153 43.2389C216.624 43.7147 217.187 44.0891 217.808 44.3391C218.429 44.5892 219.094 44.7095 219.764 44.6929Z" fill="white"/>
<path fill-rule="evenodd" clip-rule="evenodd" d="M4.21042 14.3447H74.685V45.9418C74.685 47.0585 74.2414 48.1294 73.4518 48.919C72.6622 49.7086 71.5913 50.1522 70.4746 50.1522H4.21042C3.09375 50.1522 2.02281 49.7086 1.2332 48.919C0.443597 48.1294 0 47.0585 0 45.9418L0 18.5552C0 17.4385 0.443597 16.3675 1.2332 15.5779C2.02281 14.7883 3.09375 14.3447 4.21042 14.3447Z" fill="#76B2D0"/>
<path fill-rule="evenodd" clip-rule="evenodd" d="M83.441 10.5288C84.8571 8.64785 85.5381 5.40491 84.4355 0C70.5233 2.16196 73.5068 9.68019 74.8364 12.0313C76.8855 8.85428 79.3019 5.92986 82.0357 3.31861C80.1824 5.99612 78.5794 8.83847 77.247 11.8097C79.1225 9.64776 81.3223 9.53426 83.441 10.5288ZM87.819 14.9392C81.7223 21.8142 78.4523 18.0092 77.2362 15.9445C79.1298 15.3147 81.1234 15.0398 83.1167 15.1337C81.1045 14.5124 78.9992 14.2472 76.8957 14.35C77.6361 12.5718 80.6845 7.32365 87.819 14.9392Z" fill="#85BC22"/>
<path fill-rule="evenodd" clip-rule="evenodd" d="M42.5691 22.2031H44.4014V24.0354H42.5691V22.2031ZM16.3283 33.6831L20.8792 22.2031H23.906L16.912 38.6827C15.8851 41.0987 14.5393 42.1688 12.0476 42.2661C10.7553 42.2858 9.4711 42.0583 8.26416 41.5959V39.288C10.6261 39.9799 10.9342 40.0609 11.7774 40.0447C12.9286 40.0447 13.9015 39.4286 15.0203 36.845L8.28037 22.2031H11.2044L16.3283 33.6831ZM36.1697 42.2661H33.6456V36.9315C32.5361 37.2238 31.3933 37.371 30.2459 37.3693C26.7057 37.3693 24.6032 35.5424 24.5708 31.932V27.5648H27.084V32.0347C27.084 34.229 28.165 35.1857 30.2459 35.1857C31.3933 35.1874 32.5361 35.0402 33.6456 34.7479V27.5648H36.1697V42.2661ZM46.2228 42.2661C41.5097 42.2661 39.2289 39.1745 39.2289 34.8668C39.2289 31.0834 41.6665 27.5756 45.8985 27.5756C51.1737 27.5756 52.1736 31.4293 52.1736 35.6181H41.553C41.5503 36.2353 41.6726 36.8466 41.9125 37.4152C42.1524 37.9838 42.5049 38.498 42.9488 38.9267C43.3927 39.3555 43.9188 39.6899 44.4954 39.9099C45.072 40.1299 45.6872 40.2309 46.3039 40.2069C47.0797 40.2397 47.8525 40.0912 48.5609 39.7732C49.2692 39.4551 49.8937 38.9762 50.3846 38.3746L52.0061 39.5259C50.7089 41.3527 48.7811 42.2661 46.2228 42.2661ZM45.8985 29.5592C43.4393 29.5592 41.9205 31.4888 41.6395 33.6345H49.8495C49.8495 31.4347 48.3632 29.5592 45.8985 29.5592ZM66.3993 29.6078H61.4701V42.2661H58.9568V29.6078H54.0924V27.5648H66.3723V29.597L66.3993 29.6078ZM47.0228 22.2193H48.855V24.0516H47.0228V22.2193Z" fill="white"/>
</svg>
