<svg width="249" height="49" viewBox="0 0 249 49" fill="none" xmlns="http://www.w3.org/2000/svg">
<g clip-path="url(#clip0)">
<path fill-rule="evenodd" clip-rule="evenodd" d="M91.4089 29.1853C92.2308 29.1684 93.0478 29.3135 93.8114 29.612C94.575 29.9106 95.2697 30.3565 95.8541 30.9233C96.429 31.4847 96.8852 32.152 97.1965 32.8867C97.5078 33.6214 97.668 34.4091 97.668 35.2047C97.668 36.0003 97.5078 36.788 97.1965 37.5227C96.8852 38.2574 96.429 38.9247 95.8541 39.4861C95.2675 40.0486 94.572 40.4903 93.8086 40.7852C93.0452 41.08 92.2292 41.2221 91.4089 41.2029H83.8225V21.4043H95.9403V23.8976H86.5058V29.1801L91.4089 29.1853ZM91.4089 38.7466C91.8865 38.7509 92.3601 38.6614 92.8019 38.4834C93.2436 38.3054 93.6445 38.0425 93.981 37.7102C94.3174 37.3778 94.5826 36.9828 94.7609 36.5485C94.9391 36.1141 95.0269 35.6491 95.019 35.1809C95.0276 34.7114 94.9363 34.2452 94.7507 33.8122C94.5652 33.3793 94.2895 32.989 93.9414 32.6665C93.6087 32.3352 93.2107 32.0739 92.7716 31.8986C92.3324 31.7233 91.8614 31.6377 91.3874 31.647H86.4842V38.7466H91.4089ZM109.621 27.0618H112.315L106.415 42.0851C105.92 43.523 105.019 44.7941 103.818 45.7511C102.737 46.5808 101.376 46.979 100.008 46.8657V44.5784C101.783 44.7122 103.081 43.7684 103.904 41.747L104.136 41.2188L97.8747 27.0618H100.531L105.466 38.1549L109.621 27.0618ZM126.933 41.2029H123.991L119.95 35.8571L115.882 41.2029H112.94L118.479 33.9343L113.258 27.0671H116.227L119.95 31.9903L123.673 27.0671H126.62L121.426 33.9343L126.933 41.2029ZM138.738 27.0565V29.4336H131.782V41.2029H129.271V27.0618L138.738 27.0565ZM152.3 27.0565H154.811V41.2029H152.3V38.773C151.724 39.6698 150.916 40.4012 149.958 40.893C149 41.3847 147.927 41.6192 146.847 41.5727C145.879 41.5855 144.919 41.3994 144.029 41.0264C143.139 40.6534 142.339 40.1017 141.68 39.4069C140.306 37.9778 139.541 36.0882 139.541 34.1244C139.541 32.1607 140.306 30.2711 141.68 28.842C142.339 28.1479 143.14 27.597 144.03 27.2249C144.92 26.8527 145.88 26.6676 146.847 26.6815C147.927 26.635 149 26.8695 149.958 27.3612C150.916 27.8529 151.724 28.5843 152.3 29.4812V27.0618V27.0565ZM147.165 39.2062C147.845 39.2233 148.522 39.1026 149.152 38.8517C149.782 38.6009 150.353 38.2252 150.829 37.7482C151.773 36.775 152.3 35.4834 152.3 34.1403C152.3 32.7972 151.773 31.5055 150.829 30.5324C149.851 29.6008 148.542 29.0796 147.178 29.0796C145.815 29.0796 144.506 29.6008 143.528 30.5324C142.584 31.5055 142.057 32.7972 142.057 34.1403C142.057 35.4834 142.584 36.775 143.528 37.7482C143.999 38.2234 144.566 38.5982 145.191 38.8491C145.817 39.0999 146.489 39.2215 147.165 39.2062ZM170.652 27.0565V41.2029H168.141V29.4389H162.456V35.2126C162.456 37.5334 161.98 39.1498 161.029 40.0619C160.075 40.9758 158.733 41.3614 157.004 41.2082V38.8892C157.396 38.9814 157.807 38.9714 158.194 38.8602C158.582 38.7491 158.933 38.5405 159.213 38.2553C159.703 37.6954 159.946 36.6706 159.946 35.1545V27.0618L170.652 27.0565ZM185.2 27.0565V29.4336H180.296V41.2029H177.807V29.4389H172.872V27.0618L185.2 27.0565ZM188.583 35.2707C188.774 36.4359 189.407 37.4871 190.356 38.2131C191.352 38.9343 192.567 39.3064 193.804 39.2695C195.712 39.2695 197.096 38.5775 197.964 37.2041L200.119 38.3927C198.711 40.5056 196.595 41.5621 193.772 41.5621C192.743 41.6026 191.716 41.4359 190.755 41.0725C189.794 40.7091 188.919 40.1567 188.185 39.4491C187.473 38.7511 186.915 37.9176 186.544 37.0001C186.173 36.0825 185.998 35.1003 186.029 34.1139C186.001 33.1342 186.172 32.1589 186.534 31.2453C186.896 30.3317 187.441 29.4984 188.136 28.7944C188.846 28.0914 189.698 27.5405 190.636 27.1768C191.575 26.8131 192.58 26.6444 193.589 26.6815C194.564 26.6509 195.534 26.8316 196.43 27.2105C197.326 27.5894 198.126 28.1573 198.772 28.8737C200.104 30.3191 200.821 32.209 200.776 34.1561C200.776 34.5257 200.747 34.8948 200.69 35.2602L188.583 35.2707ZM193.573 29.0163C192.366 28.9565 191.181 29.3464 190.256 30.1078C189.33 30.8691 188.733 31.9455 188.583 33.1208H198.223C198.093 31.939 197.516 30.8478 196.606 30.0622C195.756 29.366 194.68 28.9912 193.573 29.0057V29.0163ZM211.612 26.6973C212.579 26.6836 213.537 26.8687 214.427 27.2409C215.316 27.613 216.115 28.1639 216.774 28.8578C218.151 30.2851 218.919 32.1754 218.919 34.1403C218.919 36.1052 218.151 37.9955 216.774 39.4227C216.116 40.1174 215.316 40.669 214.427 41.0421C213.538 41.4151 212.579 41.6013 211.612 41.5885C210.531 41.6349 209.457 41.4004 208.499 40.9087C207.54 40.417 206.731 39.6857 206.154 38.7888V46.8657H203.648V27.0618H206.154V29.497C206.731 28.6001 207.54 27.8688 208.499 27.3771C209.457 26.8855 210.531 26.6509 211.612 26.6973ZM211.294 39.2009C211.97 39.2162 212.642 39.0947 213.268 38.8438C213.893 38.5929 214.46 38.2181 214.931 37.7429C215.875 36.7698 216.402 35.4781 216.402 34.135C216.402 32.7919 215.875 31.5002 214.931 30.5271C213.953 29.5955 212.644 29.0743 211.281 29.0743C209.917 29.0743 208.608 29.5955 207.63 30.5271C206.682 31.4984 206.153 32.7908 206.153 34.135C206.153 35.4792 206.682 36.7716 207.63 37.7429C208.106 38.2202 208.676 38.596 209.307 38.8469C209.937 39.0978 210.614 39.2183 211.294 39.2009ZM232.388 27.0512H234.382V41.2029H231.898V31.2772L223.924 41.2029H221.903V27.0618H224.382V36.977L232.378 27.046L232.388 27.0512ZM249.011 27.0512V41.2029H246.527V36.1159H244.42L240.368 41.2029H237.313L241.521 35.968C240.495 35.7311 239.575 35.1752 238.897 34.3833C238.233 33.6071 237.876 32.6229 237.89 31.61C237.874 31.0002 237.992 30.3942 238.236 29.8329C238.479 29.2716 238.843 28.768 239.301 28.356C240.264 27.4804 241.54 27.0116 242.852 27.0512H249.011ZM242.949 33.9184H246.527V29.3544H242.949C242.286 29.336 241.64 29.5579 241.133 29.9777C240.886 30.1814 240.69 30.4377 240.559 30.7269C240.429 31.0162 240.367 31.3308 240.379 31.647C240.369 31.959 240.431 32.2693 240.562 32.554C240.693 32.8387 240.888 33.0904 241.133 33.2898C241.638 33.7052 242.28 33.9251 242.938 33.9079L242.949 33.9184Z" fill="white"/>
<path fill-rule="evenodd" clip-rule="evenodd" d="M4.19733 14.0195H74.4527V44.9007C74.4527 45.9921 74.0105 47.0388 73.2233 47.8105C72.4362 48.5822 71.3686 49.0157 70.2554 49.0157H4.19733C3.08413 49.0157 2.01652 48.5822 1.22937 47.8105C0.442217 47.0388 0 45.9921 0 44.9007L0 18.1346C0 17.0432 0.442217 15.9965 1.22937 15.2248C2.01652 14.4531 3.08413 14.0195 4.19733 14.0195Z" fill="#FBBA00"/>
<path fill-rule="evenodd" clip-rule="evenodd" d="M83.1815 10.2902C84.5932 8.45192 85.2721 5.28245 84.1729 0C70.3039 2.11298 73.2781 9.46087 74.6036 11.7587C76.6463 8.65367 79.0553 5.79551 81.7806 3.24342C79.933 5.86027 78.335 8.63822 77.0067 11.5422C78.8764 9.42917 81.0693 9.31824 83.1815 10.2902ZM87.5458 14.6007C81.4681 21.32 78.2083 17.6011 76.9959 15.5832C78.8836 14.9677 80.871 14.6991 82.8582 14.7909C80.8522 14.1836 78.7534 13.9244 76.6565 14.0249C77.3947 12.287 80.4335 7.15772 87.5458 14.6007Z" fill="#85BC22"/>
<path fill-rule="evenodd" clip-rule="evenodd" d="M42.4365 21.7002H44.2631V23.4909H42.4365V21.7002ZM16.2773 32.9201L20.8141 21.7002H23.8314L16.8592 37.8064C15.8355 40.1676 14.4939 41.2136 12.0099 41.3086C10.7216 41.3278 9.44147 41.1055 8.23828 40.6536V38.398C10.5929 39.0742 10.9 39.1534 11.7405 39.1376C12.8882 39.1376 13.8581 38.5354 14.9734 36.0103L8.25445 21.7002H11.1694L16.2773 32.9201ZM36.057 41.3086H33.5408V36.0949C32.4347 36.3806 31.2955 36.5244 30.1517 36.5227C26.6225 36.5227 24.5265 34.7373 24.4942 31.2086V26.9404H26.9996V31.309C26.9996 33.4536 28.0772 34.3886 30.1517 34.3886C31.2955 34.3903 32.4347 34.2464 33.5408 33.9608V26.9404H36.057V41.3086ZM46.0789 41.3086C41.3804 41.3086 39.1067 38.2871 39.1067 34.077C39.1067 30.3793 41.5367 26.9509 45.7556 26.9509C51.0144 26.9509 52.0111 30.7173 52.0111 34.8112H41.4235C41.4209 35.4144 41.5428 36.0118 41.782 36.5676C42.0211 37.1233 42.3725 37.6259 42.815 38.0449C43.2576 38.4639 43.782 38.7908 44.3568 39.0058C44.9317 39.2208 45.5449 39.3196 46.1597 39.296C46.9331 39.3281 47.7034 39.183 48.4096 38.8721C49.1158 38.5613 49.7383 38.0933 50.2277 37.5053L51.8441 38.6304C50.551 40.4159 48.6292 41.3086 46.0789 41.3086ZM45.7556 28.8896C43.304 28.8896 41.7899 30.7754 41.5098 32.8726H49.6943C49.6943 30.7226 48.2125 28.8896 45.7556 28.8896ZM66.1926 28.9371H61.2787V41.3086H58.7732V28.9371H53.9239V26.9404H66.1657V28.9266L66.1926 28.9371ZM46.8763 21.716H48.7029V23.5068H46.8763V21.716Z" fill="white"/>
</g>
<defs>
<clipPath id="clip0">
<rect width="249" height="49" fill="white"/>
</clipPath>
</defs>
</svg>
