<svg width="276" height="50" viewBox="0 0 276 50" fill="none" xmlns="http://www.w3.org/2000/svg">
<g clip-path="url(#clip0)">
<path fill-rule="evenodd" clip-rule="evenodd" d="M100.453 39.3489C98.9943 40.8244 97.1301 41.8309 95.0982 42.2404C93.0663 42.6498 90.9588 42.4435 89.0444 41.6479C87.13 40.8522 85.4953 39.5032 84.3489 37.7728C83.2025 36.0424 82.5962 34.009 82.6074 31.932C82.5758 30.5377 82.8226 29.1511 83.3332 27.8537C83.8438 26.5563 84.6079 25.3743 85.5807 24.377C86.5534 23.3797 87.7153 22.5873 88.9979 22.0463C90.2805 21.5053 91.6581 21.2266 93.0497 21.2266C94.4413 21.2266 95.8188 21.5053 97.1015 22.0463C98.3841 22.5873 99.5459 23.3797 100.519 24.377C101.491 25.3743 102.256 26.5563 102.766 27.8537C103.277 29.1511 103.523 30.5377 103.492 31.932C103.515 33.3104 103.258 34.6792 102.736 35.9545C102.213 37.2298 101.436 38.3848 100.453 39.3489ZM87.4911 37.5163C88.9724 38.9678 90.9618 39.7806 93.0335 39.7806C95.1053 39.7806 97.0947 38.9678 98.576 37.5163C99.3068 36.7858 99.882 35.9142 100.267 34.9542C100.651 33.9943 100.837 32.9661 100.813 31.932C100.839 30.8927 100.655 29.859 100.27 28.8935C99.8853 27.928 99.309 27.0509 98.576 26.3153C97.0947 24.8637 95.1053 24.051 93.0335 24.051C90.9618 24.051 88.9724 24.8637 87.4911 26.3153C86.759 27.0513 86.1837 27.9287 85.8 28.8941C85.4163 29.8596 85.2323 30.8931 85.259 31.932C85.2342 32.9658 85.4192 33.9938 85.8029 34.9538C86.1866 35.9137 86.7609 36.7855 87.4911 37.5163ZM116.422 27.5982H118.928V42.0441H116.422V36.0178H108.962V42.0441H106.455V27.6144H108.962V33.6191H116.422V27.6144V27.5982ZM134.741 27.5982V42.0441H132.24V30.04H126.56V35.9315C126.56 38.2996 126.085 39.9491 125.135 40.8798C124.188 41.8123 122.849 42.2058 121.117 42.0495V39.6831C121.509 39.7772 121.919 39.767 122.305 39.6536C122.692 39.5401 123.043 39.3273 123.322 39.0363C123.812 38.4649 124.059 37.4192 124.059 35.8722V27.6144L134.741 27.5982ZM150.473 27.5982H152.979V42.0441H150.473V39.5646C149.897 40.4801 149.089 41.2267 148.132 41.7284C147.175 42.2302 146.103 42.4693 145.024 42.4214C144.059 42.4341 143.102 42.244 142.214 41.8633C141.327 41.4827 140.529 40.92 139.872 40.2114C138.497 38.755 137.73 36.8261 137.73 34.8211C137.73 32.8161 138.497 30.8873 139.872 29.4309C140.529 28.723 141.327 28.1611 142.215 27.7814C143.102 27.4017 144.059 27.2126 145.024 27.2263C146.103 27.1784 147.175 27.4175 148.132 27.9192C149.089 28.421 149.897 29.1675 150.473 30.0831V27.6144V27.5982ZM145.342 39.9958C146.021 40.0136 146.696 39.8906 147.325 39.6346C147.955 39.3786 148.524 38.9951 148.999 38.5081C149.736 37.7876 150.242 36.8622 150.449 35.8512C150.657 34.8403 150.558 33.7901 150.164 32.8363C149.77 31.8824 149.1 31.0687 148.241 30.5002C147.381 29.9316 146.371 29.6342 145.342 29.6465C144.668 29.6315 143.999 29.7554 143.375 30.0104C142.752 30.2654 142.187 30.646 141.716 31.1288C140.77 32.1199 140.242 33.4387 140.242 34.8104C140.242 36.182 140.77 37.5008 141.716 38.4919C142.186 38.9764 142.75 39.3586 143.374 39.6146C143.998 39.8706 144.668 39.9948 145.342 39.9796V39.9958ZM159.143 25.4421V23.259H166.92V25.4529L159.143 25.4421ZM167.237 27.5982H169.254V42.0441H166.775V31.9158L158.793 42.0441H156.782V27.6144H159.256V37.7319L167.237 27.5982ZM183.023 27.5982H185.524V42.0441H183.023V36.0178H175.558V42.0441H173.051V27.6144H175.558V33.6191H183.023V27.6144V27.5982ZM211.453 42.0441H208.146L199.47 32.3416V42.0441H196.781V21.8414H199.47V30.9671L207.877 21.8414H211.163L202.262 31.6571L211.453 42.0441ZM224.211 27.609H226.717V42.0441H224.211V39.5646C223.636 40.4801 222.83 41.2267 221.874 41.7285C220.918 42.2304 219.846 42.4694 218.768 42.4214C217.802 42.4345 216.844 42.2446 215.955 41.864C215.067 41.4833 214.268 40.9204 213.61 40.2114C212.239 38.7531 211.475 36.825 211.475 34.8211C211.475 32.8173 212.239 30.8891 213.61 29.4309C214.268 28.7226 215.068 28.1605 215.956 27.7808C216.844 27.401 217.802 27.2121 218.768 27.2263C219.846 27.1782 220.918 27.4173 221.874 27.9191C222.83 28.4209 223.636 29.1676 224.211 30.0831V27.6144V27.609ZM219.085 40.0066C219.764 40.024 220.44 39.9009 221.069 39.6449C221.698 39.3889 222.268 39.0056 222.743 38.5188C223.685 37.5258 224.211 36.2078 224.211 34.8373C224.211 33.4668 223.685 32.1488 222.743 31.1558C221.767 30.2051 220.46 29.6733 219.099 29.6733C217.738 29.6733 216.431 30.2051 215.455 31.1558C214.512 32.1488 213.987 33.4668 213.987 34.8373C213.987 36.2078 214.512 37.5258 215.455 38.5188C215.925 39.0038 216.491 39.3862 217.115 39.6422C217.74 39.8982 218.411 40.0222 219.085 40.0066ZM237.291 42.4322C236.289 42.4558 235.293 42.2753 234.362 41.9017C233.432 41.528 232.587 40.969 231.878 40.2584C231.17 39.5478 230.613 38.7005 230.24 37.7677C229.868 36.835 229.689 35.8362 229.713 34.8319C229.69 33.8285 229.871 32.8309 230.244 31.8994C230.616 30.968 231.174 30.1219 231.882 29.4125C232.591 28.7031 233.435 28.145 234.365 27.772C235.295 27.399 236.29 27.2189 237.291 27.2424C238.638 27.2219 239.964 27.5764 241.121 28.2666C242.214 28.9159 243.091 29.874 243.643 31.021L241.54 32.2338C241.181 31.468 240.602 30.8264 239.878 30.3903C238.902 29.8249 237.769 29.5946 236.65 29.7348C235.532 29.8749 234.489 30.3777 233.682 31.1665C232.75 32.1528 232.23 33.4598 232.23 34.8184C232.23 36.1771 232.75 37.4841 233.682 38.4703C234.153 38.9513 234.717 39.3301 235.34 39.5832C235.962 39.8364 236.63 39.9585 237.302 39.9419C238.206 39.9517 239.096 39.7171 239.878 39.2627C240.625 38.8319 241.234 38.196 241.632 37.43L243.783 38.6752C243.164 39.8097 242.247 40.7529 241.132 41.4026C239.971 42.0856 238.648 42.4396 237.302 42.4268L237.291 42.4322ZM252.814 42.4322C251.813 42.4536 250.819 42.2715 249.89 41.8968C248.962 41.5221 248.119 40.9626 247.413 40.2522C246.707 39.5417 246.151 38.6951 245.781 37.7635C245.41 36.8318 245.232 35.8345 245.257 34.8319C245.233 33.8288 245.413 32.8313 245.785 31.8998C246.158 30.9684 246.714 30.1223 247.422 29.4128C248.13 28.7033 248.975 28.1451 249.904 27.772C250.833 27.399 251.829 27.2188 252.83 27.2424C254.178 27.222 255.505 27.5765 256.665 28.2666C257.762 28.9142 258.643 29.8725 259.198 31.021L257.089 32.2338C256.724 31.465 256.138 30.8231 255.406 30.3903C254.43 29.8249 253.296 29.5946 252.178 29.7348C251.059 29.8749 250.017 30.3777 249.21 31.1665C248.278 32.1528 247.758 33.4598 247.758 34.8184C247.758 36.1771 248.278 37.4841 249.21 38.4703C249.679 38.9516 250.242 39.3308 250.864 39.584C251.486 39.8372 252.153 39.959 252.824 39.9419C253.734 39.9554 254.63 39.7207 255.417 39.2627C256.166 38.8337 256.777 38.1975 257.175 37.43L259.327 38.6752C258.711 39.8105 257.796 40.7541 256.681 41.4026C255.519 42.0858 254.193 42.4398 252.846 42.4268L252.814 42.4322ZM273.499 27.6198H276V42.0441H273.499V39.5646C272.923 40.4797 272.115 41.226 271.158 41.7277C270.202 42.2294 269.13 42.4687 268.051 42.4214C267.085 42.4344 266.128 42.2444 265.241 41.8638C264.353 41.4831 263.555 40.9202 262.898 40.2114C261.523 38.755 260.757 36.8261 260.757 34.8211C260.757 32.8161 261.523 30.8873 262.898 29.4309C263.555 28.7228 264.354 28.1607 265.241 27.7809C266.129 27.4012 267.086 27.2122 268.051 27.2263C269.13 27.179 270.202 27.4183 271.158 27.92C272.115 28.4217 272.923 29.1679 273.499 30.0831V27.6144V27.6198ZM268.368 40.0173C269.047 40.0351 269.722 39.9121 270.352 39.6561C270.981 39.4001 271.551 39.0166 272.025 38.5296C272.77 37.8115 273.281 36.8857 273.494 35.8725C273.706 34.8593 273.61 33.8054 273.217 32.8477C272.825 31.89 272.154 31.0727 271.292 30.5018C270.43 29.931 269.417 29.633 268.384 29.6465C267.71 29.6314 267.04 29.7552 266.415 30.0102C265.791 30.2652 265.225 30.6459 264.754 31.1288C263.811 32.1218 263.286 33.4399 263.286 34.8104C263.286 36.1808 263.811 37.4989 264.754 38.4919C265.222 38.9805 265.787 39.3667 266.412 39.6264C267.036 39.8861 267.708 40.0137 268.384 40.0012L268.368 40.0173Z" fill="white"/>
<path fill-rule="evenodd" clip-rule="evenodd" d="M4.1898 14.3057H74.3193V45.8171C74.3193 46.9307 73.8779 47.9988 73.0921 48.7862C72.3064 49.5737 71.2407 50.0161 70.1295 50.0161H4.1898C3.0786 50.0161 2.01291 49.5737 1.22717 48.7862C0.441425 47.9988 0 46.9307 0 45.8171L0 18.5047C0 17.391 0.441425 16.323 1.22717 15.5355C2.01291 14.7481 3.0786 14.3057 4.1898 14.3057Z" fill="#AFCA05"/>
<path fill-rule="evenodd" clip-rule="evenodd" d="M83.0323 10.5002C84.4415 8.62441 85.1192 5.39025 84.022 0C70.1779 2.1561 73.1468 9.65395 74.4699 11.9987C76.5089 8.83027 78.9135 5.91378 81.6339 3.30962C79.7897 5.97987 78.1946 8.81451 76.8686 11.7777C78.735 9.6216 80.924 9.50841 83.0323 10.5002ZM87.3889 14.8987C81.322 21.7551 78.068 17.9603 76.8579 15.9013C78.7422 15.2732 80.726 14.999 82.7096 15.0927C80.7072 14.473 78.6122 14.2085 76.519 14.3111C77.2559 12.5377 80.2893 7.30379 87.3889 14.8987Z" fill="#85BC22"/>
<path fill-rule="evenodd" clip-rule="evenodd" d="M42.3606 22.1436H44.1839V23.9709H42.3606V22.1436ZM16.2483 33.5925L20.7769 22.1436H23.7888L16.8291 38.5784C15.8072 40.9879 14.468 42.0551 11.9885 42.1522C10.7025 42.1718 9.42466 41.9449 8.22363 41.4838V39.1821C10.574 39.8721 10.8806 39.9529 11.7196 39.9368C12.8652 39.9368 13.8333 39.3223 14.9467 36.7457L8.23977 22.1436H11.1495L16.2483 33.5925ZM35.9925 42.1522H33.4808V36.832C32.3767 37.1235 31.2395 37.2703 30.0977 37.2686C26.5749 37.2686 24.4827 35.4467 24.4504 31.846V27.4907H26.9514V31.9484C26.9514 34.1369 28.027 35.0909 30.0977 35.0909C31.2395 35.0926 32.3767 34.9458 33.4808 34.6543V27.4907H35.9925V42.1522ZM45.9964 42.1522C41.3064 42.1522 39.0367 39.069 39.0367 34.7729C39.0367 30.9997 41.4624 27.5015 45.6737 27.5015C50.9231 27.5015 51.9181 31.3447 51.9181 35.5222H41.3494C41.3468 36.1376 41.4685 36.7473 41.7072 37.3144C41.9459 37.8814 42.2967 38.3942 42.7384 38.8218C43.1802 39.2494 43.7037 39.5829 44.2775 39.8024C44.8513 40.0218 45.4634 40.1225 46.0771 40.0985C46.8491 40.1313 47.6181 39.9832 48.323 39.666C49.0279 39.3488 49.6493 38.8712 50.1378 38.2712L51.7513 39.4193C50.4605 41.2412 48.5422 42.1522 45.9964 42.1522ZM45.6737 29.4797C43.2265 29.4797 41.7152 31.404 41.4355 33.5439H49.6054C49.6054 31.3501 48.1263 29.4797 45.6737 29.4797ZM66.0741 29.5282H61.169V42.1522H58.668V29.5282H53.8274V27.4907H66.0472V29.5174L66.0741 29.5282ZM46.7924 22.1597H48.6157V23.987H46.7924V22.1597Z" fill="white"/>
</g>
<defs>
<clipPath id="clip0">
<rect width="276" height="50" fill="white"/>
</clipPath>
</defs>
</svg>
