<svg width="145" height="50" viewBox="0 0 145 50" fill="none" xmlns="http://www.w3.org/2000/svg">
<g clip-path="url(#clip0)">
<path fill-rule="evenodd" clip-rule="evenodd" d="M92.1315 21.4695C93.5354 21.4232 94.9336 21.6672 96.2372 22.1859C97.5409 22.7047 98.7213 23.4868 99.7035 24.4826C100.678 25.4659 101.443 26.6336 101.953 27.9161C102.463 29.1987 102.707 30.5699 102.671 31.9481C102.704 33.3235 102.458 34.6914 101.948 35.9709C101.439 37.2504 100.675 38.4156 99.7035 39.3975C98.7232 40.3967 97.5434 41.1822 96.2396 41.7038C94.9358 42.2254 93.5366 42.4716 92.1315 42.4268C90.3225 42.44 88.5423 41.9769 86.9729 41.0846C85.4554 40.2432 84.2052 38.9979 83.3635 37.4893L85.7227 36.1633C86.302 37.2786 87.2027 38.1979 88.3101 38.8045C89.4101 39.464 90.6592 39.8396 91.9432 39.897C93.2273 39.9545 94.5054 39.6919 95.6608 39.1332C96.8161 38.5746 97.8119 37.7378 98.5571 36.6992C99.3022 35.6606 99.773 34.4534 99.9264 33.1879H89.4244V30.676H99.9047C99.6955 28.8025 98.7763 27.0776 97.3332 25.8507C95.89 24.6238 94.0307 23.9864 92.1315 24.0676C90.7967 24.0566 89.4832 24.399 88.3264 25.0594C87.2133 25.6883 86.3086 26.6247 85.7227 27.7545L83.3635 26.3962C84.2088 24.8889 85.458 23.6427 86.9729 22.7955C88.5436 21.9129 90.3208 21.4556 92.126 21.4695H92.1315ZM119.995 39.5107H122.17V45.9197H119.452V42.0441H105.998V45.9143H103.28V39.5107H105.058C106.319 37.9547 106.949 35.5865 106.949 32.4063V21.8414H119.963V39.5107H119.995ZM108.145 39.5107H117.288V24.3533H109.678V32.4386C109.678 35.5003 109.164 37.8487 108.134 39.4837L108.145 39.5107ZM141.929 39.3489C140.453 40.8217 138.57 41.8259 136.517 42.2338C134.464 42.6417 132.336 42.4349 130.402 41.6397C128.468 40.8445 126.817 39.4968 125.658 37.7681C124.498 36.0394 123.884 34.0079 123.893 31.932C123.861 30.5377 124.11 29.1511 124.626 27.8537C125.142 26.5563 125.915 25.3743 126.898 24.377C127.881 23.3797 129.055 22.5873 130.351 22.0463C131.648 21.5053 133.04 21.2266 134.446 21.2266C135.853 21.2266 137.245 21.5053 138.541 22.0463C139.838 22.5873 141.012 23.3797 141.995 24.377C142.978 25.3743 143.751 26.5563 144.267 27.8537C144.783 29.1511 145.032 30.5377 145 31.932C145.025 33.3106 144.766 34.6797 144.237 35.9552C143.709 37.2307 142.924 38.3856 141.929 39.3489ZM128.829 37.5324C130.327 38.9843 132.338 39.7973 134.433 39.7973C136.528 39.7973 138.539 38.9843 140.037 37.5324C140.775 36.8017 141.356 35.9299 141.743 34.97C142.131 34.01 142.318 32.9819 142.293 31.9481C142.32 30.9093 142.134 29.8758 141.746 28.9103C141.358 27.9448 140.777 27.0675 140.037 26.3315C138.539 24.8796 136.528 24.0667 134.433 24.0667C132.338 24.0667 130.327 24.8796 128.829 26.3315C128.089 27.0675 127.507 27.9448 127.119 28.9103C126.732 29.8758 126.546 30.9093 126.573 31.9481C126.548 32.9819 126.735 34.01 127.122 34.97C127.51 35.9299 128.091 36.8017 128.829 37.5324Z" fill="white"/>
<path fill-rule="evenodd" clip-rule="evenodd" d="M4.23449 14.3057H75.1119V45.8171C75.1119 46.9307 74.6658 47.9988 73.8716 48.7862C73.0775 49.5737 72.0005 50.0161 70.8774 50.0161H4.23449C3.11143 50.0161 2.03437 49.5737 1.24025 48.7862C0.446132 47.9988 0 46.9307 0 45.8171L0 18.5047C0 17.391 0.446132 16.323 1.24025 15.5355C2.03437 14.7481 3.11143 14.3057 4.23449 14.3057Z" fill="#009EE3"/>
<path fill-rule="evenodd" clip-rule="evenodd" d="M83.9178 10.5002C85.342 8.62441 86.0269 5.39025 84.918 0C70.9262 2.1561 73.9268 9.65395 75.264 11.9987C77.3248 8.83027 79.755 5.91378 82.5045 3.30962C80.6406 5.97987 79.0284 8.81451 77.6884 11.7777C79.5746 9.6216 81.787 9.50841 83.9178 10.5002ZM88.3208 14.8987C82.1892 21.7551 78.9005 17.9603 77.6775 15.9013C79.5819 15.2732 81.5869 14.999 83.5916 15.0927C81.5679 14.473 79.4506 14.2085 77.335 14.3111C78.0797 12.5377 81.1455 7.30379 88.3208 14.8987Z" fill="#85BC22"/>
<path fill-rule="evenodd" clip-rule="evenodd" d="M42.8123 22.1436H44.655V23.9708H42.8123V22.1436ZM16.4215 33.5925L20.9984 22.1436H24.0425L17.0086 38.5784C15.9758 40.9879 14.6222 42.0551 12.1163 42.1522C10.8166 42.1718 9.52512 41.9449 8.31128 41.4838V39.1821C10.6867 39.8721 10.9966 39.9529 11.8446 39.9368C13.0024 39.9368 13.9808 39.3223 15.106 36.7457L8.32759 22.1436H11.2684L16.4215 33.5925ZM36.3763 42.1522H33.8378V36.832C32.7219 37.1235 31.5726 37.2703 30.4187 37.2686C26.8582 37.2686 24.7437 35.4467 24.7111 31.846V27.4907H27.2387V31.9484C27.2387 34.1369 28.3259 35.0909 30.4187 35.0909C31.5726 35.0926 32.7219 34.9458 33.8378 34.6543V27.4907H36.3763V42.1522ZM46.4869 42.1522C41.7469 42.1522 39.453 39.0689 39.453 34.7729C39.453 30.9997 41.9045 27.5015 46.1608 27.5015C51.4661 27.5015 52.4717 31.3447 52.4717 35.5222H41.7904C41.7877 36.1376 41.9107 36.7473 42.152 37.3144C42.3932 37.8814 42.7478 38.3942 43.1942 38.8218C43.6406 39.2494 44.1698 39.5829 44.7497 39.8024C45.3296 40.0218 45.9482 40.1225 46.5685 40.0985C47.3487 40.1313 48.1259 39.9832 48.8383 39.666C49.5507 39.3487 50.1788 38.8712 50.6725 38.2712L52.3032 39.4193C50.9986 41.2412 49.0599 42.1522 46.4869 42.1522ZM46.1608 29.4797C43.6875 29.4797 42.16 31.404 41.8774 33.5439H50.1343C50.1343 31.3501 48.6395 29.4797 46.1608 29.4797ZM66.7788 29.5282H61.8213V42.1522H59.2937V29.5282H54.4014V27.4907H66.7516V29.5174L66.7788 29.5282ZM47.2914 22.1597H49.1342V23.987H47.2914V22.1597Z" fill="white"/>
</g>
<defs>
<clipPath id="clip0">
<rect width="145" height="50" fill="white"/>
</clipPath>
</defs>
</svg>
