<svg width="115" height="27" viewBox="0 0 115 27" fill="none" xmlns="http://www.w3.org/2000/svg">
<path d="M48.2074 22.4193V23.5575H46.8985V22.4193C45.4503 22.3124 44.2944 21.9195 43.4309 21.2403C43.01 20.9096 42.6732 20.4839 42.4481 19.9981C42.223 19.5123 42.1159 18.9801 42.1356 18.445C42.1161 17.9104 42.2233 17.3786 42.4484 16.8933C42.6735 16.408 43.0102 15.9828 43.4309 15.6525C44.3016 14.9715 45.4575 14.5785 46.8985 14.4735V13.3353H48.2074V14.4735C49.6665 14.5767 50.8233 14.9697 51.6778 15.6525C52.1018 15.9806 52.4416 16.4051 52.6692 16.8907C52.8968 17.3762 53.0056 17.9091 52.9866 18.445C53.0056 18.9814 52.8968 19.5146 52.6693 20.0006C52.4417 20.4867 52.1018 20.9116 51.6778 21.2403C50.8215 21.9195 49.6647 22.3124 48.2074 22.4193ZM44.3514 16.5082C44.0568 16.7351 43.821 17.0295 43.6636 17.3665C43.5063 17.7035 43.4321 18.0734 43.4472 18.445C43.4318 18.8156 43.5059 19.1843 43.6634 19.5201C43.8208 19.8559 44.0568 20.1487 44.3514 20.3738C44.9452 20.8319 45.7942 21.1036 46.8985 21.1887V15.6959C45.7961 15.772 44.947 16.0427 44.3514 16.5082ZM48.2074 15.6932V21.1887C49.3099 21.1099 50.1598 20.841 50.7545 20.3738C51.0473 20.1458 51.2812 19.851 51.4366 19.514C51.5921 19.177 51.6645 18.8076 51.6479 18.4369C51.6643 18.0661 51.5917 17.6969 51.4363 17.3599C51.2809 17.023 51.0471 16.7281 50.7545 16.5C50.1607 16.0418 49.3117 15.7738 48.2074 15.6959V15.6932Z" fill="black"/>
<path d="M58.2954 16.0981C58.7786 16.0921 59.2576 16.1877 59.7015 16.3786C60.1455 16.5695 60.5444 16.8515 60.8724 17.2065C61.5564 17.9331 61.9372 18.8936 61.9372 19.8917C61.9372 20.8898 61.5564 21.8503 60.8724 22.577C60.5433 22.9291 60.1437 23.2078 59.6997 23.395C59.2556 23.5822 58.7772 23.6738 58.2954 23.6636C57.7575 23.687 57.223 23.5677 56.7461 23.3177C56.2692 23.0677 55.8669 22.6959 55.58 22.2402V26.3638H54.3281V16.2991H55.58V17.5379C55.8644 17.0787 56.2658 16.7034 56.7429 16.4504C57.2201 16.1974 57.7559 16.0758 58.2954 16.0981ZM58.1379 22.4629C58.4743 22.4709 58.8088 22.41 59.1207 22.2839C59.4327 22.1577 59.7155 21.9691 59.9519 21.7295C60.1902 21.486 60.3778 21.1975 60.5037 20.8809C60.6295 20.5642 60.6912 20.2257 60.685 19.8849C60.694 19.5463 60.6335 19.2094 60.5074 18.895C60.3814 18.5806 60.1923 18.2953 59.9519 18.0567C59.4666 17.5781 58.8126 17.3098 58.1311 17.3098C57.4497 17.3098 56.7957 17.5781 56.3104 18.0567C56.07 18.2953 55.8809 18.5806 55.7548 18.895C55.6287 19.2094 55.5683 19.5463 55.5772 19.8849C55.5711 20.2257 55.6327 20.5642 55.7586 20.8809C55.8845 21.1975 56.0721 21.486 56.3104 21.7295C56.5489 21.97 56.8341 22.1591 57.1484 22.2852C57.4626 22.4114 57.7994 22.4718 58.1379 22.4629Z" fill="black"/>
<path d="M69.3934 17.5244V16.2993H70.6452V23.498H69.3934V22.2484C69.1077 22.7054 68.7057 23.0781 68.2285 23.3282C67.7512 23.5784 67.2161 23.697 66.6779 23.6719C66.1962 23.682 65.7177 23.5905 65.2737 23.4033C64.8297 23.216 64.4301 22.9373 64.1009 22.5853C63.417 21.8586 63.0361 20.8981 63.0361 19.9C63.0361 18.9019 63.417 17.9414 64.1009 17.2147C64.4292 16.8601 64.8281 16.5782 65.272 16.3873C65.7159 16.1964 66.1948 16.1007 66.6779 16.1064C67.2157 16.0801 67.7507 16.1977 68.2279 16.4469C68.7052 16.6961 69.1075 17.0681 69.3934 17.5244ZM66.83 22.463C67.1685 22.4721 67.5053 22.4117 67.8197 22.2856C68.134 22.1594 68.4191 21.9702 68.6575 21.7296C68.8967 21.4866 69.085 21.1983 69.2114 20.8816C69.3378 20.5648 69.3996 20.226 69.3934 19.8851C69.3992 19.5462 69.337 19.2096 69.2104 18.8952C69.0838 18.5808 68.8954 18.2951 68.6563 18.0549C68.4172 17.8148 68.1324 17.6251 67.8187 17.4971C67.505 17.3691 67.1688 17.3054 66.83 17.3098C66.4929 17.3026 66.158 17.3653 65.8463 17.4938C65.5346 17.6224 65.2528 17.8141 65.0188 18.0568C64.7775 18.2949 64.5876 18.58 64.4611 18.8945C64.3345 19.209 64.2738 19.5461 64.2829 19.8851C64.2763 20.2265 64.338 20.5658 64.4643 20.883C64.5907 21.2002 64.7792 21.489 65.0188 21.7323C65.2548 21.9713 65.5373 22.1595 65.8488 22.2851C66.1603 22.4108 66.4942 22.4714 66.83 22.463Z" fill="black"/>
<path d="M77.5234 19.2873V16.2991H78.7752V23.4979H77.5234V20.4771H73.7978V23.4843H72.5432V16.2991H73.7978V19.2873H77.5234Z" fill="black"/>
<path d="M89.2816 22.289V16.2991H90.5334V23.4979H80.6763V16.2991H81.9281V22.3026H84.9939V16.2991H86.2457V22.3026L89.2816 22.289Z" fill="black"/>
<path d="M93.6838 21.341L97.6728 16.2991H98.6802V23.4979H97.442V18.4316L93.4557 23.4843H92.4482V16.2991H93.6838V21.341Z" fill="black"/>
<path d="M104.466 19.8008C105.263 20.1358 105.661 20.7063 105.661 21.5122C105.666 21.8095 105.602 22.104 105.474 22.3725C105.347 22.6411 105.159 22.8766 104.925 23.0606C104.437 23.4681 103.76 23.6718 102.897 23.6718C101.458 23.6718 100.494 23.0959 100.005 21.9441L101.056 21.3247C101.322 22.1125 101.94 22.5064 102.91 22.5064C103.303 22.5286 103.691 22.4227 104.018 22.2049C104.148 22.113 104.252 21.9905 104.323 21.8483C104.394 21.7061 104.428 21.5486 104.423 21.3899C104.426 21.2551 104.399 21.1213 104.342 20.9988C104.286 20.8763 104.202 20.7685 104.097 20.6836C103.85 20.4913 103.541 20.3949 103.228 20.412H102.177V19.2873H102.954C103.261 19.3046 103.564 19.2078 103.804 19.0157C103.904 18.924 103.984 18.8112 104.036 18.6853C104.088 18.5595 104.112 18.4237 104.105 18.2877C104.11 18.1423 104.081 17.9977 104.018 17.8663C103.956 17.7349 103.863 17.6204 103.747 17.5325C103.465 17.3362 103.126 17.2405 102.783 17.2608C101.977 17.2608 101.43 17.6022 101.14 18.2849L100.119 17.6927C100.628 16.6387 101.516 16.1108 102.783 16.109C103.451 16.0775 104.108 16.2899 104.632 16.7067C104.853 16.8873 105.03 17.1154 105.151 17.3741C105.272 17.6327 105.333 17.9153 105.33 18.2007C105.346 18.521 105.275 18.8396 105.122 19.1218C104.97 19.404 104.743 19.6389 104.466 19.8008Z" fill="black"/>
<path d="M112.963 17.5242V16.2991H114.215V23.4978H112.963V22.2482C112.677 22.7052 112.275 23.0779 111.798 23.328C111.321 23.5782 110.786 23.6968 110.248 23.6717C109.766 23.6815 109.287 23.5898 108.843 23.4026C108.4 23.2154 108 22.9369 107.671 22.5851C106.987 21.8584 106.606 20.8979 106.606 19.8998C106.606 18.9017 106.987 17.9412 107.671 17.2145C107.998 16.8584 108.397 16.575 108.841 16.3827C109.284 16.1904 109.764 16.0934 110.248 16.098C110.786 16.0726 111.322 16.1914 111.799 16.4421C112.276 16.6928 112.678 17.0663 112.963 17.5242ZM110.41 22.4628C110.749 22.4714 111.086 22.4108 111.4 22.2847C111.714 22.1586 111.999 21.9696 112.238 21.7294C112.475 21.4852 112.661 21.1965 112.785 20.8799C112.91 20.5632 112.97 20.225 112.963 19.8849C112.969 19.5461 112.907 19.2096 112.781 18.8952C112.655 18.5808 112.467 18.2951 112.228 18.0549C111.989 17.8147 111.704 17.6249 111.391 17.4969C111.077 17.3689 110.741 17.3052 110.402 17.3096C110.065 17.302 109.729 17.3645 109.417 17.4931C109.105 17.6216 108.823 17.8135 108.588 18.0566C108.348 18.2951 108.158 18.5803 108.032 18.8947C107.905 19.2091 107.844 19.546 107.852 19.8849C107.848 20.2268 107.911 20.5662 108.039 20.8834C108.166 21.2006 108.356 21.4891 108.597 21.7321C108.833 21.9712 109.116 22.1594 109.428 22.285C109.74 22.4107 110.074 22.4712 110.41 22.4628Z" fill="black"/>
<path fill-rule="evenodd" clip-rule="evenodd" d="M2.11511 7.20953H37.5221V23.0903C37.5221 23.6515 37.2992 24.1898 36.9025 24.5866C36.5058 24.9835 35.9678 25.2064 35.4067 25.2064H2.11511C1.55408 25.2064 1.01603 24.9835 0.619327 24.5866C0.222622 24.1898 -0.000244141 23.6515 -0.000244141 23.0903L-0.000244141 9.3257C-0.000244141 8.76446 0.222622 8.2262 0.619327 7.82934C1.01603 7.43249 1.55408 7.20953 2.11511 7.20953Z" fill="#76B2D0"/>
<path fill-rule="evenodd" clip-rule="evenodd" d="M41.921 5.29183C42.6325 4.34649 42.9746 2.71658 42.4207 6.10352e-05C35.4311 1.08667 36.93 4.86534 37.598 6.04703C38.6275 4.45024 39.8415 2.98042 41.215 1.668C40.2839 3.01372 39.4785 4.44229 38.8091 5.93565C39.7514 4.84904 40.8566 4.792 41.921 5.29183ZM44.1206 7.50851C41.0575 10.9639 39.4147 9.05149 38.8037 8.01378C39.755 7.69724 40.7566 7.5591 41.7581 7.60631C40.7471 7.29401 39.6894 7.16071 38.6326 7.21241C39.0046 6.31868 40.5361 3.68094 44.1206 7.50851Z" fill="#85BC22"/>
<path fill-rule="evenodd" clip-rule="evenodd" d="M21.3869 11.1595H22.3075V12.0804H21.3869V11.1595ZM8.20333 16.9294L10.4898 11.1595H12.0104L8.4966 19.4422C7.98067 20.6565 7.30451 21.1944 6.05268 21.2432C5.40341 21.2531 4.75823 21.1388 4.15186 20.9064V19.7465C5.33852 20.0942 5.4933 20.1349 5.91691 20.1268C6.4953 20.1268 6.98409 19.8171 7.54619 18.5186L4.16 11.1595H5.62907L8.20333 16.9294ZM18.1718 21.2432H16.9037V18.562C16.3463 18.709 15.7721 18.7829 15.1957 18.7821C13.417 18.7821 12.3607 17.8639 12.3444 16.0493V13.8543H13.6071V16.1009C13.6071 17.2038 14.1502 17.6846 15.1957 17.6846C15.7721 17.6855 16.3463 17.6115 16.9037 17.4646V13.8543H18.1718V21.2432ZM23.2226 21.2432C20.8547 21.2432 19.7088 19.6894 19.7088 17.5243C19.7088 15.6228 20.9334 13.8598 23.0597 13.8598C25.71 13.8598 26.2123 15.7966 26.2123 17.9019H20.8764C20.8751 18.2121 20.9365 18.5194 21.0571 18.8051C21.1776 19.0909 21.3547 19.3494 21.5777 19.5649C21.8007 19.7803 22.065 19.9484 22.3547 20.059C22.6444 20.1696 22.9535 20.2204 23.2633 20.2083C23.6531 20.2248 24.0413 20.1501 24.3972 19.9903C24.7531 19.8304 25.0669 19.5897 25.3135 19.2874L26.1281 19.866C25.4764 20.7842 24.5079 21.2432 23.2226 21.2432ZM23.0597 14.8567C21.8241 14.8567 21.0611 15.8265 20.9199 16.905H25.0447C25.0447 15.7994 24.2979 14.8567 23.0597 14.8567ZM33.3594 14.8812H30.8829V21.2432H29.6202V14.8812H27.1763V13.8543H33.3459V14.8757L33.3594 14.8812ZM23.6245 11.1677H24.545V12.0886H23.6245V11.1677Z" fill="white"/>
</svg>
