<svg width="92" height="38" viewBox="0 0 92 38" fill="none" xmlns="http://www.w3.org/2000/svg">
<path d="M13.2085 21.9652L13.2085 15.6635L7.79857 12.5124L2.38828 15.6635L2.38828 21.9652L7.79857 25.1162L13.2085 21.9652Z" fill="#F8E701"/>
<path d="M20.5666 9.36355L20.5667 3.12131L15.1567 -2.36475e-07L9.74644 3.12131L9.74644 9.36355L15.1567 12.4849L20.5666 9.36355Z" fill="#88BDD6"/>
<path fill-rule="evenodd" clip-rule="evenodd" d="M15.5696 14.2049L15.5696 18.7273L14.6252 18.7273L14.6252 14.7483L7.78461 10.7718L0.944461 14.7483L0.94446 22.7063L7.78461 26.6827L11.2037 24.6952L11.6783 25.5116L7.7846 27.775L0.000125292 23.2496L0.000125687 14.2049L7.7846 9.67954L15.5696 14.2049Z" fill="black"/>
<path d="M24.9674 29.5237C25.8438 29.8107 26.5388 30.2942 27.0525 30.9742C27.5662 31.639 27.8231 32.47 27.8231 33.4672C27.8231 34.8421 27.2943 35.9074 26.2366 36.6628C25.179 37.4032 23.6378 37.7734 21.6132 37.7734H13.7261V21.9085H21.1599C23.0334 21.9085 24.4764 22.2787 25.4887 23.0191C26.501 23.7443 27.0072 24.7491 27.0072 26.0334C27.0072 26.8191 26.8259 27.5141 26.4633 28.1185C26.1006 28.7229 25.602 29.1912 24.9674 29.5237ZM16.6724 24.2203V28.5944H20.8426C21.87 28.5944 22.6557 28.4131 23.1996 28.0505C23.7587 27.6728 24.0382 27.1288 24.0382 26.4187C24.0382 25.6934 23.7587 25.1495 23.1996 24.7869C22.6557 24.4091 21.87 24.2203 20.8426 24.2203H16.6724ZM21.4318 35.4616C23.7134 35.4616 24.8541 34.6986 24.8541 33.1726C24.8541 31.6465 23.7134 30.8835 21.4318 30.8835H16.6724V35.4616H21.4318Z" fill="black"/>
<path d="M38.3787 38C36.762 38 35.3039 37.6525 34.0045 36.9575C32.7051 36.2473 31.6853 35.2728 30.9449 34.0338C30.2045 32.7797 29.8344 31.3821 29.8344 29.841C29.8344 28.2998 30.2045 26.9097 30.9449 25.6708C31.6853 24.4167 32.7051 23.4421 34.0045 22.7471C35.3039 22.037 36.762 21.6819 38.3787 21.6819C39.9954 21.6819 41.4534 22.037 42.7529 22.7471C44.0523 23.4421 45.0721 24.4091 45.8125 25.6481C46.5529 26.8871 46.923 28.2847 46.923 29.841C46.923 31.3972 46.5529 32.7948 45.8125 34.0338C45.0721 35.2728 44.0523 36.2473 42.7529 36.9575C41.4534 37.6525 39.9954 38 38.3787 38ZM38.3787 35.4163C39.4363 35.4163 40.3882 35.1821 41.2344 34.7137C42.0805 34.2302 42.7453 33.5654 43.2288 32.7193C43.7123 31.8581 43.954 30.8986 43.954 29.841C43.954 28.7833 43.7123 27.8314 43.2288 26.9853C42.7453 26.1241 42.0805 25.4592 41.2344 24.9909C40.3882 24.5074 39.4363 24.2656 38.3787 24.2656C37.321 24.2656 36.3692 24.5074 35.523 24.9909C34.6769 25.4592 34.0121 26.1241 33.5286 26.9853C33.0451 27.8314 32.8033 28.7833 32.8033 29.841C32.8033 30.8986 33.0451 31.8581 33.5286 32.7193C34.0121 33.5654 34.6769 34.2302 35.523 34.7137C36.3692 35.1821 37.321 35.4163 38.3787 35.4163Z" fill="black"/>
<path d="M56.0377 25.6708H58.8707V37.7734H56.0377V25.6708ZM57.4655 23.6763C56.9518 23.6763 56.5212 23.5177 56.1737 23.2004C55.8262 22.868 55.6524 22.46 55.6524 21.9765C55.6524 21.493 55.8262 21.0926 56.1737 20.7753C56.5212 20.4429 56.9518 20.2767 57.4655 20.2767C57.9792 20.2767 58.4099 20.4354 58.7574 20.7527C59.1049 21.0549 59.2786 21.4402 59.2786 21.9085C59.2786 22.4072 59.1049 22.8302 58.7574 23.1777C58.425 23.5101 57.9944 23.6763 57.4655 23.6763Z" fill="black"/>
<path d="M69.4562 25.5348C70.9823 25.5348 72.2061 25.9805 73.1278 26.872C74.0495 27.7634 74.5103 29.0855 74.5103 30.8382V37.7734H71.6773V31.2008C71.6773 30.1431 71.428 29.3499 70.9294 28.8211C70.4308 28.2771 69.7206 28.0052 68.799 28.0052C67.7564 28.0052 66.9329 28.3225 66.3286 28.9571C65.7242 29.5765 65.422 30.4755 65.422 31.6541V37.7734H62.589V25.6708H65.286V27.2346C65.7544 26.6755 66.3437 26.2525 67.0538 25.9654C67.764 25.6783 68.5648 25.5348 69.4562 25.5348Z" fill="black"/>
<path d="M79.0107 37.932C78.497 37.932 78.0588 37.7582 77.6962 37.4107C77.3336 37.0481 77.1522 36.5948 77.1522 36.0509C77.1522 35.4918 77.326 35.0386 77.6735 34.6911C78.0361 34.3435 78.4819 34.1698 79.0107 34.1698C79.5395 34.1698 79.9777 34.3435 80.3252 34.6911C80.6878 35.0386 80.8691 35.4918 80.8691 36.0509C80.8691 36.5948 80.6878 37.0481 80.3252 37.4107C79.9626 37.7582 79.5244 37.932 79.0107 37.932Z" fill="black"/>
<path d="M84.5439 37.932C84.0302 37.932 83.592 37.7582 83.2294 37.4107C82.8668 37.0481 82.6855 36.5948 82.6855 36.0509C82.6855 35.4918 82.8592 35.0386 83.2067 34.6911C83.5694 34.3435 84.0151 34.1698 84.5439 34.1698C85.0727 34.1698 85.5109 34.3435 85.8584 34.6911C86.221 35.0386 86.4024 35.4918 86.4024 36.0509C86.4024 36.5948 86.221 37.0481 85.8584 37.4107C85.4958 37.7582 85.0576 37.932 84.5439 37.932Z" fill="black"/>
<path d="M90.0771 37.932C89.5634 37.932 89.1252 37.7582 88.7626 37.4107C88.4 37.0481 88.2187 36.5948 88.2187 36.0509C88.2187 35.4918 88.3924 35.0386 88.7399 34.6911C89.1026 34.3435 89.5483 34.1698 90.0771 34.1698C90.6059 34.1698 91.0441 34.3435 91.3916 34.6911C91.7543 35.0386 91.9356 35.4918 91.9356 36.0509C91.9356 36.5948 91.7543 37.0481 91.3916 37.4107C91.029 37.7582 90.5908 37.932 90.0771 37.932Z" fill="black"/>
</svg>
