<svg width="47" height="28" viewBox="0 0 47 28" fill="none" xmlns="http://www.w3.org/2000/svg">
<g clip-path="url(#clip0)">
<path fill-rule="evenodd" clip-rule="evenodd" d="M2.22672 8.3208H39.4978V24.9336C39.4978 25.5207 39.2632 26.0838 38.8456 26.499C38.4281 26.9141 37.8617 27.1473 37.2711 27.1473H2.22672C1.63616 27.1473 1.06978 26.9141 0.652191 26.499C0.2346 26.0838 0 25.5207 0 24.9336L0 10.5345C0 9.9474 0.2346 9.38434 0.652191 8.96918C1.06978 8.55403 1.63616 8.3208 2.22672 8.3208Z" fill="#E31724"/>
<path fill-rule="evenodd" clip-rule="evenodd" d="M22.5131 12.4527H23.4821V13.416H22.5131V12.4527ZM8.63539 18.4886L11.0422 12.4527H12.6429L8.9441 21.1172C8.401 22.3874 7.68925 22.9501 6.37151 23.0012C5.68805 23.0116 5.00891 22.892 4.37061 22.6489V21.4354C5.61974 21.7992 5.78267 21.8418 6.22859 21.8333C6.83743 21.8333 7.35195 21.5093 7.94365 20.151L4.37918 12.4527H5.92559L8.63539 18.4886ZM19.1287 23.0012H17.7938V20.1964C17.207 20.3501 16.6027 20.4275 15.9959 20.4266C14.1236 20.4266 13.0116 19.4661 12.9945 17.5678V15.2717H14.3237V17.6218C14.3237 18.7756 14.8954 19.2786 15.9959 19.2786C16.6027 19.2794 17.207 19.2021 17.7938 19.0484V15.2717H19.1287V23.0012ZM24.4454 23.0012C21.9528 23.0012 20.7466 21.3758 20.7466 19.1109C20.7466 17.1217 22.0357 15.2774 24.2739 15.2774C27.0637 15.2774 27.5925 17.3035 27.5925 19.5059H21.9757C21.9743 19.8304 22.039 20.1518 22.1658 20.4507C22.2927 20.7497 22.4791 21.02 22.7139 21.2455C22.9487 21.4709 23.2269 21.6467 23.5318 21.7624C23.8368 21.8781 24.1621 21.9312 24.4883 21.9185C24.8985 21.9358 25.3072 21.8577 25.6819 21.6905C26.0565 21.5233 26.3867 21.2715 26.6464 20.9552L27.5039 21.5605C26.8179 22.521 25.7984 23.0012 24.4454 23.0012ZM24.2739 16.3203C22.9733 16.3203 22.1701 17.3348 22.0214 18.463H26.3634C26.3634 17.3064 25.5773 16.3203 24.2739 16.3203ZM35.1159 16.3459H32.509V23.0012H31.1798V16.3459H28.6073V15.2717H35.1016V16.3402L35.1159 16.3459ZM24.8684 12.4612H25.8374V13.4246H24.8684V12.4612Z" fill="white"/>
<path fill-rule="evenodd" clip-rule="evenodd" d="M44.1285 6.31452C44.8775 5.3256 45.2376 3.62055 44.6545 0.778809C37.2969 1.91551 38.8747 5.86837 39.5779 7.10453C40.6616 5.43413 41.9395 3.89655 43.3853 2.52364C42.4052 3.93139 41.5575 5.42582 40.8528 6.98802C41.8447 5.85132 43.008 5.79164 44.1285 6.31452ZM46.4439 8.63338C43.2196 12.2481 41.4902 10.2475 40.8471 9.16195C41.8485 8.83081 42.9028 8.68631 43.957 8.73569C42.8928 8.40899 41.7794 8.26955 40.667 8.32363C41.0586 7.3887 42.6707 4.62937 46.4439 8.63338Z" fill="#85BC22"/>
</g>
<defs>
<clipPath id="clip0">
<rect width="46.4438" height="26.36" fill="white" transform="translate(0 0.778809)"/>
</clipPath>
</defs>
</svg>
