<svg width="1920" height="1191" viewBox="0 0 1920 1191" fill="none" xmlns="http://www.w3.org/2000/svg"><circle cx="1842" cy="914" r="196" fill="url(#a)"/><circle cx="536" cy="345" r="196" fill="url(#b)"/><circle cx="190" cy="918" r="196" fill="url(#c)"/><path d="M250 978v44l38.089 22 38.089-22v-44l-38.089-22L250 978zM166 978v44l38.089 22 38.089-22v-44l-38.089-22L166 978zM82 978v44l38.089 22 38.089-22v-44l-38.089-22L82 978zM-2 978v44l38.09 22 38.088-22v-44L36.09 956-2 978zM334 978v44l38.089 22 38.089-22v-44l-38.089-22L334 978zM670 978v44l38.089 22 38.089-22v-44l-38.089-22L670 978zM586 978v44l38.089 22 38.089-22v-44l-38.089-22L586 978zM754 978v44l38.089 22 38.076-22v-44l-38.076-22L754 978zM838 978v44l38.089 22 38.089-22v-44l-38.089-22L838 978zM922 978v44l38.089 22 38.089-22v-44l-38.089-22L922 978zM1006 978v44l38.09 22 38.09-22v-44l-38.09-22-38.09 22zM1090 978v44l38.09 22 38.09-22v-44l-38.09-22-38.09 22zM1174 978v44l38.09 22 38.09-22v-44l-38.09-22-38.09 22zM1258 978v44l38.09 22 38.09-22v-44l-38.09-22-38.09 22zM1342 978v44l38.09 22 38.09-22v-44l-38.09-22-38.09 22zM1426 978v44l38.09 22 38.09-22v-44l-38.09-22-38.09 22zM1510 978v44l38.09 22 38.09-22v-44l-38.09-22-38.09 22zM1594 978v44l38.09 22 38.09-22v-44l-38.09-22-38.09 22zM1678 978v44l38.09 22 38.09-22v-44l-38.09-22-38.09 22zM1762 978v44l38.09 22 38.09-22v-44l-38.09-22-38.09 22zM1846 978v44l38.09 22 38.09-22v-44l-38.09-22-38.09 22zM502 978v44l38.089 22 38.089-22v-44l-38.089-22L502 978zM418 978v44l38.089 22 38.089-22v-44l-38.089-22L418 978zM292 904v44l38.089 22 38.089-22v-44l-38.089-22L292 904zM208 904v44l38.089 22 38.089-22v-44l-38.089-22L208 904zM124 904v44l38.089 22 38.089-22v-44l-38.089-22L124 904zM40 904v44l38.09 22 38.088-22v-44l-38.089-22L40 904zM-44 904v44l38.09 22 38.088-22v-44L-5.91 882-44 904zM376 904v44l38.089 22 38.089-22v-44l-38.089-22L376 904zM712 904v44l38.089 22 38.089-22v-44l-38.089-22L712 904zM628 904v44l38.089 22 38.089-22v-44l-38.089-22L628 904zM796 904v44l38.089 22 38.076-22v-44l-38.076-22L796 904zM880 904v44l38.089 22 38.089-22v-44l-38.089-22L880 904zM964 904v44l38.09 22 38.09-22v-44l-38.09-22L964 904zM1048 904v44l38.09 22 38.09-22v-44l-38.09-22-38.09 22zM1132 904v44l38.09 22 38.09-22v-44l-38.09-22-38.09 22zM1216 904v44l38.09 22 38.09-22v-44l-38.09-22-38.09 22zM1300 904v44l38.09 22 38.09-22v-44l-38.09-22-38.09 22zM1384 904v44l38.09 22 38.09-22v-44l-38.09-22-38.09 22zM1468 904v44l38.09 22 38.09-22v-44l-38.09-22-38.09 22zM1552 904v44l38.09 22 38.09-22v-44l-38.09-22-38.09 22zM1636 904v44l38.09 22 38.09-22v-44l-38.09-22-38.09 22zM1720 904v44l38.09 22 38.09-22v-44l-38.09-22-38.09 22zM1804 904v44l38.09 22 38.09-22v-44l-38.09-22-38.09 22zM1888 904v44l38.09 22 38.09-22v-44l-38.09-22-38.09 22zM544 904v44l38.089 22 38.089-22v-44l-38.089-22L544 904zM460 904v44l38.089 22 38.089-22v-44l-38.089-22L460 904zM250 1125v44l38.089 22 38.089-22v-44l-38.089-22L250 1125zM166 1125v44l38.089 22 38.089-22v-44l-38.089-22L166 1125zM82 1125v44l38.089 22 38.089-22v-44l-38.089-22L82 1125zM-2 1125v44l38.09 22 38.088-22v-44l-38.089-22L-2 1125zM334 1125v44l38.089 22 38.089-22v-44l-38.089-22L334 1125zM670 1125v44l38.089 22 38.089-22v-44l-38.089-22L670 1125zM586 1125v44l38.089 22 38.089-22v-44l-38.089-22L586 1125zM754 1125v44l38.089 22 38.076-22v-44l-38.076-22L754 1125zM838 1125v44l38.089 22 38.089-22v-44l-38.089-22L838 1125zM922 1125v44l38.089 22 38.089-22v-44l-38.089-22L922 1125zM1006 1125v44l38.09 22 38.09-22v-44l-38.09-22-38.09 22zM1090 1125v44l38.09 22 38.09-22v-44l-38.09-22-38.09 22zM1174 1125v44l38.09 22 38.09-22v-44l-38.09-22-38.09 22zM1258 1125v44l38.09 22 38.09-22v-44l-38.09-22-38.09 22zM1342 1125v44l38.09 22 38.09-22v-44l-38.09-22-38.09 22zM1426 1125v44l38.09 22 38.09-22v-44l-38.09-22-38.09 22zM1510 1125v44l38.09 22 38.09-22v-44l-38.09-22-38.09 22zM1594 1125v44l38.09 22 38.09-22v-44l-38.09-22-38.09 22zM1678 1125v44l38.09 22 38.09-22v-44l-38.09-22-38.09 22zM1762 1125v44l38.09 22 38.09-22v-44l-38.09-22-38.09 22zM1846 1125v44l38.09 22 38.09-22v-44l-38.09-22-38.09 22zM502 1125v44l38.089 22 38.089-22v-44l-38.089-22L502 1125zM418 1125v44l38.089 22 38.089-22v-44l-38.089-22L418 1125zM292 1051v44l38.089 22 38.089-22v-44l-38.089-22L292 1051zM208 1051v44l38.089 22 38.089-22v-44l-38.089-22L208 1051zM124 1051v44l38.089 22 38.089-22v-44l-38.089-22L124 1051zM40 1051v44l38.09 22 38.088-22v-44l-38.089-22L40 1051zM-44 1051v44l38.09 22 38.088-22v-44l-38.089-22L-44 1051zM376 1051v44l38.089 22 38.089-22v-44l-38.089-22L376 1051zM712 1051v44l38.089 22 38.089-22v-44l-38.089-22L712 1051zM628 1051v44l38.089 22 38.089-22v-44l-38.089-22L628 1051zM796 1051v44l38.089 22 38.076-22v-44l-38.076-22L796 1051zM880 1051v44l38.089 22 38.089-22v-44l-38.089-22L880 1051zM964 1051v44l38.09 22 38.09-22v-44l-38.09-22-38.09 22zM1048 1051v44l38.09 22 38.09-22v-44l-38.09-22-38.09 22zM1132 1051v44l38.09 22 38.09-22v-44l-38.09-22-38.09 22zM1216 1051v44l38.09 22 38.09-22v-44l-38.09-22-38.09 22zM1300 1051v44l38.09 22 38.09-22v-44l-38.09-22-38.09 22zM1384 1051v44l38.09 22 38.09-22v-44l-38.09-22-38.09 22zM1468 1051v44l38.09 22 38.09-22v-44l-38.09-22-38.09 22zM1552 1051v44l38.09 22 38.09-22v-44l-38.09-22-38.09 22zM1636 1051v44l38.09 22 38.09-22v-44l-38.09-22-38.09 22zM1720 1051v44l38.09 22 38.09-22v-44l-38.09-22-38.09 22zM1804 1051v44l38.09 22 38.09-22v-44l-38.09-22-38.09 22zM1888 1051v44l38.09 22 38.09-22v-44l-38.09-22-38.09 22zM544 1051v44l38.089 22 38.089-22v-44l-38.089-22L544 1051zM460 1051v44l38.089 22 38.089-22v-44l-38.089-22L460 1051zM250 831v44l38.089 22 38.089-22v-44l-38.089-22L250 831zM166 831v44l38.089 22 38.089-22v-44l-38.089-22L166 831zM82 831v44l38.089 22 38.089-22v-44l-38.089-22L82 831zM-2 831v44l38.09 22 38.088-22v-44L36.09 809-2 831zM334 831v44l38.089 22 38.089-22v-44l-38.089-22L334 831zM670 831v44l38.089 22 38.089-22v-44l-38.089-22L670 831zM586 831v44l38.089 22 38.089-22v-44l-38.089-22L586 831zM754 831v44l38.089 22 38.076-22v-44l-38.076-22L754 831zM838 831v44l38.089 22 38.089-22v-44l-38.089-22L838 831zM922 831v44l38.089 22 38.089-22v-44l-38.089-22L922 831zM1006 831v44l38.09 22 38.09-22v-44l-38.09-22-38.09 22zM1090 831v44l38.09 22 38.09-22v-44l-38.09-22-38.09 22zM1174 831v44l38.09 22 38.09-22v-44l-38.09-22-38.09 22zM1258 831v44l38.09 22 38.09-22v-44l-38.09-22-38.09 22zM1342 831v44l38.09 22 38.09-22v-44l-38.09-22-38.09 22zM1426 831v44l38.09 22 38.09-22v-44l-38.09-22-38.09 22zM1510 831v44l38.09 22 38.09-22v-44l-38.09-22-38.09 22zM1594 831v44l38.09 22 38.09-22v-44l-38.09-22-38.09 22zM1678 831v44l38.09 22 38.09-22v-44l-38.09-22-38.09 22zM1762 831v44l38.09 22 38.09-22v-44l-38.09-22-38.09 22zM1846 831v44l38.09 22 38.09-22v-44l-38.09-22-38.09 22zM502 831v44l38.089 22 38.089-22v-44l-38.089-22L502 831zM418 831v44l38.089 22 38.089-22v-44l-38.089-22L418 831zM292 757v44l38.089 22 38.089-22v-44l-38.089-22L292 757zM208 757v44l38.089 22 38.089-22v-44l-38.089-22L208 757zM124 757v44l38.089 22 38.089-22v-44l-38.089-22L124 757zM40 757v44l38.09 22 38.088-22v-44l-38.089-22L40 757zM-44 757v44l38.09 22 38.088-22v-44L-5.91 735-44 757zM376 757v44l38.089 22 38.089-22v-44l-38.089-22L376 757zM712 757v44l38.089 22 38.089-22v-44l-38.089-22L712 757zM628 757v44l38.089 22 38.089-22v-44l-38.089-22L628 757zM796 757v44l38.089 22 38.076-22v-44l-38.076-22L796 757zM880 757v44l38.089 22 38.089-22v-44l-38.089-22L880 757zM964 757v44l38.09 22 38.09-22v-44l-38.09-22L964 757zM1048 757v44l38.09 22 38.09-22v-44l-38.09-22-38.09 22zM1132 757v44l38.09 22 38.09-22v-44l-38.09-22-38.09 22zM1216 757v44l38.09 22 38.09-22v-44l-38.09-22-38.09 22zM1300 757v44l38.09 22 38.09-22v-44l-38.09-22-38.09 22zM1384 757v44l38.09 22 38.09-22v-44l-38.09-22-38.09 22zM1468 757v44l38.09 22 38.09-22v-44l-38.09-22-38.09 22zM1552 757v44l38.09 22 38.09-22v-44l-38.09-22-38.09 22zM1636 757v44l38.09 22 38.09-22v-44l-38.09-22-38.09 22zM1720 757v44l38.09 22 38.09-22v-44l-38.09-22-38.09 22zM1804 757v44l38.09 22 38.09-22v-44l-38.09-22-38.09 22zM1888 757v44l38.09 22 38.09-22v-44l-38.09-22-38.09 22zM544 757v44l38.089 22 38.089-22v-44l-38.089-22L544 757zM460 757v44l38.089 22 38.089-22v-44l-38.089-22L460 757zM250 684v44l38.089 22 38.089-22v-44l-38.089-22L250 684zM166 684v44l38.089 22 38.089-22v-44l-38.089-22L166 684zM82 684v44l38.089 22 38.089-22v-44l-38.089-22L82 684zM-2 684v44l38.09 22 38.088-22v-44L36.09 662-2 684zM334 684v44l38.089 22 38.089-22v-44l-38.089-22L334 684zM670 684v44l38.089 22 38.089-22v-44l-38.089-22L670 684zM586 684v44l38.089 22 38.089-22v-44l-38.089-22L586 684zM754 684v44l38.089 22 38.076-22v-44l-38.076-22L754 684zM838 684v44l38.089 22 38.089-22v-44l-38.089-22L838 684zM922 684v44l38.089 22 38.089-22v-44l-38.089-22L922 684zM1006 684v44l38.09 22 38.09-22v-44l-38.09-22-38.09 22zM1090 684v44l38.09 22 38.09-22v-44l-38.09-22-38.09 22zM1174 684v44l38.09 22 38.09-22v-44l-38.09-22-38.09 22zM1258 684v44l38.09 22 38.09-22v-44l-38.09-22-38.09 22zM1342 684v44l38.09 22 38.09-22v-44l-38.09-22-38.09 22zM1426 684v44l38.09 22 38.09-22v-44l-38.09-22-38.09 22zM1510 684v44l38.09 22 38.09-22v-44l-38.09-22-38.09 22zM1594 684v44l38.09 22 38.09-22v-44l-38.09-22-38.09 22zM1678 684v44l38.09 22 38.09-22v-44l-38.09-22-38.09 22zM1762 684v44l38.09 22 38.09-22v-44l-38.09-22-38.09 22zM1846 684v44l38.09 22 38.09-22v-44l-38.09-22-38.09 22zM502 684v44l38.089 22 38.089-22v-44l-38.089-22L502 684zM418 684v44l38.089 22 38.089-22v-44l-38.089-22L418 684zM292 610v44l38.089 22 38.089-22v-44l-38.089-22L292 610zM208 610v44l38.089 22 38.089-22v-44l-38.089-22L208 610zM124 610v44l38.089 22 38.089-22v-44l-38.089-22L124 610zM40 610v44l38.09 22 38.088-22v-44l-38.089-22L40 610zM-44 610v44l38.09 22 38.088-22v-44L-5.91 588-44 610zM376 610v44l38.089 22 38.089-22v-44l-38.089-22L376 610zM712 610v44l38.089 22 38.089-22v-44l-38.089-22L712 610zM628 610v44l38.089 22 38.089-22v-44l-38.089-22L628 610zM796 610v44l38.089 22 38.076-22v-44l-38.076-22L796 610zM880 610v44l38.089 22 38.089-22v-44l-38.089-22L880 610zM964 610v44l38.09 22 38.09-22v-44l-38.09-22L964 610zM1048 610v44l38.09 22 38.09-22v-44l-38.09-22-38.09 22zM1132 610v44l38.09 22 38.09-22v-44l-38.09-22-38.09 22zM1216 610v44l38.09 22 38.09-22v-44l-38.09-22-38.09 22zM1300 610v44l38.09 22 38.09-22v-44l-38.09-22-38.09 22zM1384 610v44l38.09 22 38.09-22v-44l-38.09-22-38.09 22zM1468 610v44l38.09 22 38.09-22v-44l-38.09-22-38.09 22zM1552 610v44l38.09 22 38.09-22v-44l-38.09-22-38.09 22zM1636 610v44l38.09 22 38.09-22v-44l-38.09-22-38.09 22zM1720 610v44l38.09 22 38.09-22v-44l-38.09-22-38.09 22zM1804 610v44l38.09 22 38.09-22v-44l-38.09-22-38.09 22zM1888 610v44l38.09 22 38.09-22v-44l-38.09-22-38.09 22zM544 610v44l38.089 22 38.089-22v-44l-38.089-22L544 610zM460 610v44l38.089 22 38.089-22v-44l-38.089-22L460 610zM250 537v44l38.089 22 38.089-22v-44l-38.089-22L250 537zM166 537v44l38.089 22 38.089-22v-44l-38.089-22L166 537zM82 537v44l38.089 22 38.089-22v-44l-38.089-22L82 537zM-2 537v44l38.09 22 38.088-22v-44L36.09 515-2 537zM334 537v44l38.089 22 38.089-22v-44l-38.089-22L334 537zM670 537v44l38.089 22 38.089-22v-44l-38.089-22L670 537zM586 537v44l38.089 22 38.089-22v-44l-38.089-22L586 537zM754 537v44l38.089 22 38.076-22v-44l-38.076-22L754 537zM838 537v44l38.089 22 38.089-22v-44l-38.089-22L838 537zM922 537v44l38.089 22 38.089-22v-44l-38.089-22L922 537zM1006 537v44l38.09 22 38.09-22v-44l-38.09-22-38.09 22zM1090 537v44l38.09 22 38.09-22v-44l-38.09-22-38.09 22zM1174 537v44l38.09 22 38.09-22v-44l-38.09-22-38.09 22zM1258 537v44l38.09 22 38.09-22v-44l-38.09-22-38.09 22zM1342 537v44l38.09 22 38.09-22v-44l-38.09-22-38.09 22zM1426 537v44l38.09 22 38.09-22v-44l-38.09-22-38.09 22zM1510 537v44l38.09 22 38.09-22v-44l-38.09-22-38.09 22zM1594 537v44l38.09 22 38.09-22v-44l-38.09-22-38.09 22zM1678 537v44l38.09 22 38.09-22v-44l-38.09-22-38.09 22zM1762 537v44l38.09 22 38.09-22v-44l-38.09-22-38.09 22zM1846 537v44l38.09 22 38.09-22v-44l-38.09-22-38.09 22zM502 537v44l38.089 22 38.089-22v-44l-38.089-22L502 537zM418 537v44l38.089 22 38.089-22v-44l-38.089-22L418 537zM292 463v44l38.089 22 38.089-22v-44l-38.089-22L292 463zM208 463v44l38.089 22 38.089-22v-44l-38.089-22L208 463zM124 463v44l38.089 22 38.089-22v-44l-38.089-22L124 463zM40 463v44l38.09 22 38.088-22v-44l-38.089-22L40 463zM-44 463v44l38.09 22 38.088-22v-44L-5.91 441-44 463zM376 463v44l38.089 22 38.089-22v-44l-38.089-22L376 463zM712 463v44l38.089 22 38.089-22v-44l-38.089-22L712 463zM628 463v44l38.089 22 38.089-22v-44l-38.089-22L628 463zM796 463v44l38.089 22 38.076-22v-44l-38.076-22L796 463zM880 463v44l38.089 22 38.089-22v-44l-38.089-22L880 463zM964 463v44l38.09 22 38.09-22v-44l-38.09-22L964 463zM1048 463v44l38.09 22 38.09-22v-44l-38.09-22-38.09 22zM1132 463v44l38.09 22 38.09-22v-44l-38.09-22-38.09 22zM1216 463v44l38.09 22 38.09-22v-44l-38.09-22-38.09 22zM1300 463v44l38.09 22 38.09-22v-44l-38.09-22-38.09 22zM1384 463v44l38.09 22 38.09-22v-44l-38.09-22-38.09 22zM1468 463v44l38.09 22 38.09-22v-44l-38.09-22-38.09 22zM1552 463v44l38.09 22 38.09-22v-44l-38.09-22-38.09 22zM1636 463v44l38.09 22 38.09-22v-44l-38.09-22-38.09 22zM1720 463v44l38.09 22 38.09-22v-44l-38.09-22-38.09 22zM1804 463v44l38.09 22 38.09-22v-44l-38.09-22-38.09 22zM1888 463v44l38.09 22 38.09-22v-44l-38.09-22-38.09 22zM544 463v44l38.089 22 38.089-22v-44l-38.089-22L544 463zM460 463v44l38.089 22 38.089-22v-44l-38.089-22L460 463zM250 390v44l38.089 22 38.089-22v-44l-38.089-22L250 390zM166 390v44l38.089 22 38.089-22v-44l-38.089-22L166 390zM82 390v44l38.089 22 38.089-22v-44l-38.089-22L82 390zM-2 390v44l38.09 22 38.088-22v-44L36.09 368-2 390zM334 390v44l38.089 22 38.089-22v-44l-38.089-22L334 390zM670 390v44l38.089 22 38.089-22v-44l-38.089-22L670 390zM586 390v44l38.089 22 38.089-22v-44l-38.089-22L586 390zM754 390v44l38.089 22 38.076-22v-44l-38.076-22L754 390zM838 390v44l38.089 22 38.089-22v-44l-38.089-22L838 390zM922 390v44l38.089 22 38.089-22v-44l-38.089-22L922 390zM1006 390v44l38.09 22 38.09-22v-44l-38.09-22-38.09 22zM1090 390v44l38.09 22 38.09-22v-44l-38.09-22-38.09 22zM1174 390v44l38.09 22 38.09-22v-44l-38.09-22-38.09 22zM1258 390v44l38.09 22 38.09-22v-44l-38.09-22-38.09 22zM1342 390v44l38.09 22 38.09-22v-44l-38.09-22-38.09 22zM1426 390v44l38.09 22 38.09-22v-44l-38.09-22-38.09 22zM1510 390v44l38.09 22 38.09-22v-44l-38.09-22-38.09 22zM1594 390v44l38.09 22 38.09-22v-44l-38.09-22-38.09 22zM1678 390v44l38.09 22 38.09-22v-44l-38.09-22-38.09 22zM1762 390v44l38.09 22 38.09-22v-44l-38.09-22-38.09 22zM1846 390v44l38.09 22 38.09-22v-44l-38.09-22-38.09 22zM502 390v44l38.089 22 38.089-22v-44l-38.089-22L502 390zM418 390v44l38.089 22 38.089-22v-44l-38.089-22L418 390zM292 316v44l38.089 22 38.089-22v-44l-38.089-22L292 316zM208 316v44l38.089 22 38.089-22v-44l-38.089-22L208 316zM124 316v44l38.089 22 38.089-22v-44l-38.089-22L124 316zM40 316v44l38.09 22 38.088-22v-44l-38.089-22L40 316zM-44 316v44l38.09 22 38.088-22v-44L-5.91 294-44 316zM376 316v44l38.089 22 38.089-22v-44l-38.089-22L376 316zM712 316v44l38.089 22 38.089-22v-44l-38.089-22L712 316zM628 316v44l38.089 22 38.089-22v-44l-38.089-22L628 316zM796 316v44l38.089 22 38.076-22v-44l-38.076-22L796 316zM880 316v44l38.089 22 38.089-22v-44l-38.089-22L880 316zM964 316v44l38.09 22 38.09-22v-44l-38.09-22L964 316zM1048 316v44l38.09 22 38.09-22v-44l-38.09-22-38.09 22zM1132 316v44l38.09 22 38.09-22v-44l-38.09-22-38.09 22zM1216 316v44l38.09 22 38.09-22v-44l-38.09-22-38.09 22zM1300 316v44l38.09 22 38.09-22v-44l-38.09-22-38.09 22zM1384 316v44l38.09 22 38.09-22v-44l-38.09-22-38.09 22zM1468 316v44l38.09 22 38.09-22v-44l-38.09-22-38.09 22zM1552 316v44l38.09 22 38.09-22v-44l-38.09-22-38.09 22zM1636 316v44l38.09 22 38.09-22v-44l-38.09-22-38.09 22zM1720 316v44l38.09 22 38.09-22v-44l-38.09-22-38.09 22zM1804 316v44l38.09 22 38.09-22v-44l-38.09-22-38.09 22zM1888 316v44l38.09 22 38.09-22v-44l-38.09-22-38.09 22zM544 316v44l38.089 22 38.089-22v-44l-38.089-22L544 316zM460 316v44l38.089 22 38.089-22v-44l-38.089-22L460 316zM250 243v44l38.089 22 38.089-22v-44l-38.089-22L250 243zM166 243v44l38.089 22 38.089-22v-44l-38.089-22L166 243zM82 243v44l38.089 22 38.089-22v-44l-38.089-22L82 243zM-2 243v44l38.09 22 38.088-22v-44L36.09 221-2 243zM334 243v44l38.089 22 38.089-22v-44l-38.089-22L334 243zM670 243v44l38.089 22 38.089-22v-44l-38.089-22L670 243zM586 243v44l38.089 22 38.089-22v-44l-38.089-22L586 243zM754 243v44l38.089 22 38.076-22v-44l-38.076-22L754 243zM838 243v44l38.089 22 38.089-22v-44l-38.089-22L838 243zM922 243v44l38.089 22 38.089-22v-44l-38.089-22L922 243zM1006 243v44l38.09 22 38.09-22v-44l-38.09-22-38.09 22zM1090 243v44l38.09 22 38.09-22v-44l-38.09-22-38.09 22zM1174 243v44l38.09 22 38.09-22v-44l-38.09-22-38.09 22zM1258 243v44l38.09 22 38.09-22v-44l-38.09-22-38.09 22zM1342 243v44l38.09 22 38.09-22v-44l-38.09-22-38.09 22zM1426 243v44l38.09 22 38.09-22v-44l-38.09-22-38.09 22zM1510 243v44l38.09 22 38.09-22v-44l-38.09-22-38.09 22zM1594 243v44l38.09 22 38.09-22v-44l-38.09-22-38.09 22zM1678 243v44l38.09 22 38.09-22v-44l-38.09-22-38.09 22zM1762 243v44l38.09 22 38.09-22v-44l-38.09-22-38.09 22zM1846 243v44l38.09 22 38.09-22v-44l-38.09-22-38.09 22zM502 243v44l38.089 22 38.089-22v-44l-38.089-22L502 243zM418 243v44l38.089 22 38.089-22v-44l-38.089-22L418 243zM292 169v44l38.089 22 38.089-22v-44l-38.089-22L292 169zM208 169v44l38.089 22 38.089-22v-44l-38.089-22L208 169zM124 169v44l38.089 22 38.089-22v-44l-38.089-22L124 169zM40 169v44l38.09 22 38.088-22v-44l-38.089-22L40 169zM-44 169v44l38.09 22 38.088-22v-44L-5.91 147-44 169zM376 169v44l38.089 22 38.089-22v-44l-38.089-22L376 169zM712 169v44l38.089 22 38.089-22v-44l-38.089-22L712 169zM628 169v44l38.089 22 38.089-22v-44l-38.089-22L628 169zM796 169v44l38.089 22 38.076-22v-44l-38.076-22L796 169zM880 169v44l38.089 22 38.089-22v-44l-38.089-22L880 169zM964 169v44l38.09 22 38.09-22v-44l-38.09-22L964 169zM1048 169v44l38.09 22 38.09-22v-44l-38.09-22-38.09 22zM1132 169v44l38.09 22 38.09-22v-44l-38.09-22-38.09 22zM1216 169v44l38.09 22 38.09-22v-44l-38.09-22-38.09 22zM1300 169v44l38.09 22 38.09-22v-44l-38.09-22-38.09 22zM1384 169v44l38.09 22 38.09-22v-44l-38.09-22-38.09 22zM1468 169v44l38.09 22 38.09-22v-44l-38.09-22-38.09 22zM1552 169v44l38.09 22 38.09-22v-44l-38.09-22-38.09 22zM1636 169v44l38.09 22 38.09-22v-44l-38.09-22-38.09 22zM1720 169v44l38.09 22 38.09-22v-44l-38.09-22-38.09 22zM1804 169v44l38.09 22 38.09-22v-44l-38.09-22-38.09 22zM1888 169v44l38.09 22 38.09-22v-44l-38.09-22-38.09 22zM544 169v44l38.089 22 38.089-22v-44l-38.089-22L544 169zM460 169v44l38.089 22 38.089-22v-44l-38.089-22L460 169zM250 96v44l38.089 22 38.089-22V96l-38.089-22L250 96zM166 96v44l38.089 22 38.089-22V96l-38.089-22L166 96zM82 96v44l38.089 22 38.089-22V96l-38.089-22L82 96zM-2 96v44l38.09 22 38.088-22V96L36.09 74-2 96zM334 96v44l38.089 22 38.089-22V96l-38.089-22L334 96zM670 96v44l38.089 22 38.089-22V96l-38.089-22L670 96zM586 96v44l38.089 22 38.089-22V96l-38.089-22L586 96zM754 96v44l38.089 22 38.076-22V96l-38.076-22L754 96zM838 96v44l38.089 22 38.089-22V96l-38.089-22L838 96zM922 96v44l38.089 22 38.089-22V96l-38.089-22L922 96zM1006 96v44l38.09 22 38.09-22V96l-38.09-22L1006 96zM1090 96v44l38.09 22 38.09-22V96l-38.09-22L1090 96zM1174 96v44l38.09 22 38.09-22V96l-38.09-22L1174 96zM1258 96v44l38.09 22 38.09-22V96l-38.09-22L1258 96zM1342 96v44l38.09 22 38.09-22V96l-38.09-22L1342 96zM1426 96v44l38.09 22 38.09-22V96l-38.09-22L1426 96zM1510 96v44l38.09 22 38.09-22V96l-38.09-22L1510 96zM1594 96v44l38.09 22 38.09-22V96l-38.09-22L1594 96zM1678 96v44l38.09 22 38.09-22V96l-38.09-22L1678 96zM1762 96v44l38.09 22 38.09-22V96l-38.09-22L1762 96zM1846 96v44l38.09 22 38.09-22V96l-38.09-22L1846 96zM502 96v44l38.089 22 38.089-22V96l-38.089-22L502 96zM418 96v44l38.089 22 38.089-22V96l-38.089-22L418 96zM292 22v44l38.089 22 38.089-22V22L330.089 0 292 22zM208 22v44l38.089 22 38.089-22V22L246.089 0 208 22zM124 22v44l38.089 22 38.089-22V22L162.089 0 124 22zM40 22v44l38.09 22 38.088-22V22L78.089 0 40 22zM-44 22v44l38.09 22 38.088-22V22L-5.91 0-44 22zM376 22v44l38.089 22 38.089-22V22L414.089 0 376 22zM712 22v44l38.089 22 38.089-22V22L750.089 0 712 22zM628 22v44l38.089 22 38.089-22V22L666.089 0 628 22zM796 22v44l38.089 22 38.076-22V22L834.089 0 796 22zM880 22v44l38.089 22 38.089-22V22L918.089 0 880 22zM964 22v44l38.09 22 38.09-22V22l-38.09-22L964 22zM1048 22v44l38.09 22 38.09-22V22l-38.09-22L1048 22zM1132 22v44l38.09 22 38.09-22V22l-38.09-22L1132 22zM1216 22v44l38.09 22 38.09-22V22l-38.09-22L1216 22zM1300 22v44l38.09 22 38.09-22V22l-38.09-22L1300 22zM1384 22v44l38.09 22 38.09-22V22l-38.09-22L1384 22zM1468 22v44l38.09 22 38.09-22V22l-38.09-22L1468 22zM1552 22v44l38.09 22 38.09-22V22l-38.09-22L1552 22zM1636 22v44l38.09 22 38.09-22V22l-38.09-22L1636 22zM1720 22v44l38.09 22 38.09-22V22l-38.09-22L1720 22zM1804 22v44l38.09 22 38.09-22V22l-38.09-22L1804 22zM1888 22v44l38.09 22 38.09-22V22l-38.09-22L1888 22zM544 22v44l38.089 22 38.089-22V22L582.089 0 544 22zM460 22v44l38.089 22 38.089-22V22L498.089 0 460 22z" fill="#FCFCFC"/><defs><radialGradient id="a" cx="0" cy="0" r="1" gradientUnits="userSpaceOnUse" gradientTransform="matrix(0 196 -196 0 1842 914)"><stop stop-color="#FEEB19"/><stop offset="1" stop-color="#FEEB19" stop-opacity="0"/></radialGradient><radialGradient id="b" cx="0" cy="0" r="1" gradientUnits="userSpaceOnUse" gradientTransform="matrix(0 196 -196 0 536 345)"><stop stop-color="#FEEB19"/><stop offset="1" stop-color="#FEEB19" stop-opacity="0"/></radialGradient><radialGradient id="c" cx="0" cy="0" r="1" gradientUnits="userSpaceOnUse" gradientTransform="matrix(0 196 -196 0 190 918)"><stop stop-color="#77B3D1"/><stop offset="1" stop-color="#77B3D1" stop-opacity="0"/></radialGradient></defs></svg>