<svg width="1920" height="1130" viewBox="0 0 1920 1130" fill="none" xmlns="http://www.w3.org/2000/svg"><g clip-path="url(#a)"><path fill="#fff" d="M0 0h1920v1130H0z"/><circle cx="1743" cy="528" r="196" fill="url(#b)"/><circle cx="270" cy="454" r="196" fill="url(#c)"/><path d="M249 1064v44l38.089 22 38.089-22v-44l-38.089-22L249 1064zM165 1064v44l38.089 22 38.089-22v-44l-38.089-22L165 1064zM81 1064v44l38.089 22 38.089-22v-44l-38.089-22L81 1064zM-3 1064v44l38.09 22 38.088-22v-44l-38.089-22L-3 1064zM333 1064v44l38.089 22 38.089-22v-44l-38.089-22L333 1064zM669 1064v44l38.089 22 38.089-22v-44l-38.089-22L669 1064zM585 1064v44l38.089 22 38.089-22v-44l-38.089-22L585 1064zM753 1064v44l38.089 22 38.076-22v-44l-38.076-22L753 1064zM837 1064v44l38.089 22 38.089-22v-44l-38.089-22L837 1064zM921 1064v44l38.089 22 38.089-22v-44l-38.089-22L921 1064zM1005 1064v44l38.09 22 38.09-22v-44l-38.09-22-38.09 22zM1089 1064v44l38.09 22 38.09-22v-44l-38.09-22-38.09 22zM1173 1064v44l38.09 22 38.09-22v-44l-38.09-22-38.09 22zM1257 1064v44l38.09 22 38.09-22v-44l-38.09-22-38.09 22zM1341 1064v44l38.09 22 38.09-22v-44l-38.09-22-38.09 22zM1425 1064v44l38.09 22 38.09-22v-44l-38.09-22-38.09 22zM1509 1064v44l38.09 22 38.09-22v-44l-38.09-22-38.09 22zM1593 1064v44l38.09 22 38.09-22v-44l-38.09-22-38.09 22zM1677 1064v44l38.09 22 38.09-22v-44l-38.09-22-38.09 22zM1761 1064v44l38.09 22 38.09-22v-44l-38.09-22-38.09 22zM1845 1064v44l38.09 22 38.09-22v-44l-38.09-22-38.09 22zM501 1064v44l38.089 22 38.089-22v-44l-38.089-22L501 1064zM417 1064v44l38.089 22 38.089-22v-44l-38.089-22L417 1064zM291 990v44l38.089 22 38.089-22v-44l-38.089-22L291 990zM207 990v44l38.089 22 38.089-22v-44l-38.089-22L207 990zM123 990v44l38.089 22 38.089-22v-44l-38.089-22L123 990zM39 990v44l38.09 22 38.088-22v-44l-38.089-22L39 990zM-45 990v44l38.09 22 38.088-22v-44L-6.91 968-45 990zM375 990v44l38.089 22 38.089-22v-44l-38.089-22L375 990zM711 990v44l38.089 22 38.089-22v-44l-38.089-22L711 990zM627 990v44l38.089 22 38.089-22v-44l-38.089-22L627 990zM795 990v44l38.089 22 38.076-22v-44l-38.076-22L795 990zM879 990v44l38.089 22 38.089-22v-44l-38.089-22L879 990zM963 990v44l38.09 22 38.09-22v-44l-38.09-22L963 990zM1047 990v44l38.09 22 38.09-22v-44l-38.09-22-38.09 22zM1131 990v44l38.09 22 38.09-22v-44l-38.09-22-38.09 22zM1215 990v44l38.09 22 38.09-22v-44l-38.09-22-38.09 22zM1299 990v44l38.09 22 38.09-22v-44l-38.09-22-38.09 22zM1383 990v44l38.09 22 38.09-22v-44l-38.09-22-38.09 22zM1467 990v44l38.09 22 38.09-22v-44l-38.09-22-38.09 22zM1551 990v44l38.09 22 38.09-22v-44l-38.09-22-38.09 22zM1635 990v44l38.09 22 38.09-22v-44l-38.09-22-38.09 22zM1719 990v44l38.09 22 38.09-22v-44l-38.09-22-38.09 22zM1803 990v44l38.09 22 38.09-22v-44l-38.09-22-38.09 22zM1887 990v44l38.09 22 38.09-22v-44l-38.09-22-38.09 22zM543 990v44l38.089 22 38.089-22v-44l-38.089-22L543 990zM459 990v44l38.089 22 38.089-22v-44l-38.089-22L459 990zM249 918v44l38.089 22 38.089-22v-44l-38.089-22L249 918zM165 918v44l38.089 22 38.089-22v-44l-38.089-22L165 918zM81 918v44l38.089 22 38.089-22v-44l-38.089-22L81 918zM-3 918v44l38.09 22 38.088-22v-44L35.09 896-3 918zM333 918v44l38.089 22 38.089-22v-44l-38.089-22L333 918zM669 918v44l38.089 22 38.089-22v-44l-38.089-22L669 918zM585 918v44l38.089 22 38.089-22v-44l-38.089-22L585 918zM753 918v44l38.089 22 38.076-22v-44l-38.076-22L753 918zM837 918v44l38.089 22 38.089-22v-44l-38.089-22L837 918zM921 918v44l38.089 22 38.089-22v-44l-38.089-22L921 918zM1005 918v44l38.09 22 38.09-22v-44l-38.09-22-38.09 22zM1089 918v44l38.09 22 38.09-22v-44l-38.09-22-38.09 22zM1173 918v44l38.09 22 38.09-22v-44l-38.09-22-38.09 22zM1257 918v44l38.09 22 38.09-22v-44l-38.09-22-38.09 22zM1341 918v44l38.09 22 38.09-22v-44l-38.09-22-38.09 22zM1425 918v44l38.09 22 38.09-22v-44l-38.09-22-38.09 22zM1509 918v44l38.09 22 38.09-22v-44l-38.09-22-38.09 22zM1593 918v44l38.09 22 38.09-22v-44l-38.09-22-38.09 22zM1677 918v44l38.09 22 38.09-22v-44l-38.09-22-38.09 22zM1761 918v44l38.09 22 38.09-22v-44l-38.09-22-38.09 22zM1845 918v44l38.09 22 38.09-22v-44l-38.09-22-38.09 22zM501 918v44l38.089 22 38.089-22v-44l-38.089-22L501 918zM417 918v44l38.089 22 38.089-22v-44l-38.089-22L417 918zM291 844v44l38.089 22 38.089-22v-44l-38.089-22L291 844zM207 844v44l38.089 22 38.089-22v-44l-38.089-22L207 844zM123 844v44l38.089 22 38.089-22v-44l-38.089-22L123 844zM39 844v44l38.09 22 38.088-22v-44l-38.089-22L39 844zM-45 844v44l38.09 22 38.088-22v-44L-6.91 822-45 844zM375 844v44l38.089 22 38.089-22v-44l-38.089-22L375 844zM711 844v44l38.089 22 38.089-22v-44l-38.089-22L711 844zM627 844v44l38.089 22 38.089-22v-44l-38.089-22L627 844zM795 844v44l38.089 22 38.076-22v-44l-38.076-22L795 844zM879 844v44l38.089 22 38.089-22v-44l-38.089-22L879 844zM963 844v44l38.09 22 38.09-22v-44l-38.09-22L963 844zM1047 844v44l38.09 22 38.09-22v-44l-38.09-22-38.09 22zM1131 844v44l38.09 22 38.09-22v-44l-38.09-22-38.09 22zM1215 844v44l38.09 22 38.09-22v-44l-38.09-22-38.09 22zM1299 844v44l38.09 22 38.09-22v-44l-38.09-22-38.09 22zM1383 844v44l38.09 22 38.09-22v-44l-38.09-22-38.09 22zM1467 844v44l38.09 22 38.09-22v-44l-38.09-22-38.09 22zM1551 844v44l38.09 22 38.09-22v-44l-38.09-22-38.09 22zM1635 844v44l38.09 22 38.09-22v-44l-38.09-22-38.09 22zM1719 844v44l38.09 22 38.09-22v-44l-38.09-22-38.09 22zM1803 844v44l38.09 22 38.09-22v-44l-38.09-22-38.09 22zM1887 844v44l38.09 22 38.09-22v-44l-38.09-22-38.09 22zM543 844v44l38.089 22 38.089-22v-44l-38.089-22L543 844zM459 844v44l38.089 22 38.089-22v-44l-38.089-22L459 844zM249 771v44l38.089 22 38.089-22v-44l-38.089-22L249 771zM165 771v44l38.089 22 38.089-22v-44l-38.089-22L165 771zM81 771v44l38.089 22 38.089-22v-44l-38.089-22L81 771zM-3 771v44l38.09 22 38.088-22v-44L35.09 749-3 771zM333 771v44l38.089 22 38.089-22v-44l-38.089-22L333 771zM669 771v44l38.089 22 38.089-22v-44l-38.089-22L669 771zM585 771v44l38.089 22 38.089-22v-44l-38.089-22L585 771zM753 771v44l38.089 22 38.076-22v-44l-38.076-22L753 771zM837 771v44l38.089 22 38.089-22v-44l-38.089-22L837 771zM921 771v44l38.089 22 38.089-22v-44l-38.089-22L921 771zM1005 771v44l38.09 22 38.09-22v-44l-38.09-22-38.09 22zM1089 771v44l38.09 22 38.09-22v-44l-38.09-22-38.09 22zM1173 771v44l38.09 22 38.09-22v-44l-38.09-22-38.09 22zM1257 771v44l38.09 22 38.09-22v-44l-38.09-22-38.09 22zM1341 771v44l38.09 22 38.09-22v-44l-38.09-22-38.09 22zM1425 771v44l38.09 22 38.09-22v-44l-38.09-22-38.09 22zM1509 771v44l38.09 22 38.09-22v-44l-38.09-22-38.09 22zM1593 771v44l38.09 22 38.09-22v-44l-38.09-22-38.09 22zM1677 771v44l38.09 22 38.09-22v-44l-38.09-22-38.09 22zM1761 771v44l38.09 22 38.09-22v-44l-38.09-22-38.09 22zM1845 771v44l38.09 22 38.09-22v-44l-38.09-22-38.09 22zM501 771v44l38.089 22 38.089-22v-44l-38.089-22L501 771zM417 771v44l38.089 22 38.089-22v-44l-38.089-22L417 771zM291 697v44l38.089 22 38.089-22v-44l-38.089-22L291 697zM207 697v44l38.089 22 38.089-22v-44l-38.089-22L207 697zM123 697v44l38.089 22 38.089-22v-44l-38.089-22L123 697zM39 697v44l38.09 22 38.088-22v-44l-38.089-22L39 697zM-45 697v44l38.09 22 38.088-22v-44L-6.91 675-45 697zM375 697v44l38.089 22 38.089-22v-44l-38.089-22L375 697zM711 697v44l38.089 22 38.089-22v-44l-38.089-22L711 697zM627 697v44l38.089 22 38.089-22v-44l-38.089-22L627 697zM795 697v44l38.089 22 38.076-22v-44l-38.076-22L795 697zM879 697v44l38.089 22 38.089-22v-44l-38.089-22L879 697zM963 697v44l38.09 22 38.09-22v-44l-38.09-22L963 697zM1047 697v44l38.09 22 38.09-22v-44l-38.09-22-38.09 22zM1131 697v44l38.09 22 38.09-22v-44l-38.09-22-38.09 22zM1215 697v44l38.09 22 38.09-22v-44l-38.09-22-38.09 22zM1299 697v44l38.09 22 38.09-22v-44l-38.09-22-38.09 22zM1383 697v44l38.09 22 38.09-22v-44l-38.09-22-38.09 22zM1467 697v44l38.09 22 38.09-22v-44l-38.09-22-38.09 22zM1551 697v44l38.09 22 38.09-22v-44l-38.09-22-38.09 22zM1635 697v44l38.09 22 38.09-22v-44l-38.09-22-38.09 22zM1719 697v44l38.09 22 38.09-22v-44l-38.09-22-38.09 22zM1803 697v44l38.09 22 38.09-22v-44l-38.09-22-38.09 22zM1887 697v44l38.09 22 38.09-22v-44l-38.09-22-38.09 22zM543 697v44l38.089 22 38.089-22v-44l-38.089-22L543 697zM459 697v44l38.089 22 38.089-22v-44l-38.089-22L459 697zM249 624v44l38.089 22 38.089-22v-44l-38.089-22L249 624zM165 624v44l38.089 22 38.089-22v-44l-38.089-22L165 624zM81 624v44l38.089 22 38.089-22v-44l-38.089-22L81 624zM-3 624v44l38.09 22 38.088-22v-44L35.09 602-3 624zM333 624v44l38.089 22 38.089-22v-44l-38.089-22L333 624zM669 624v44l38.089 22 38.089-22v-44l-38.089-22L669 624zM585 624v44l38.089 22 38.089-22v-44l-38.089-22L585 624zM753 624v44l38.089 22 38.076-22v-44l-38.076-22L753 624zM837 624v44l38.089 22 38.089-22v-44l-38.089-22L837 624zM921 624v44l38.089 22 38.089-22v-44l-38.089-22L921 624zM1005 624v44l38.09 22 38.09-22v-44l-38.09-22-38.09 22zM1089 624v44l38.09 22 38.09-22v-44l-38.09-22-38.09 22zM1173 624v44l38.09 22 38.09-22v-44l-38.09-22-38.09 22zM1257 624v44l38.09 22 38.09-22v-44l-38.09-22-38.09 22zM1341 624v44l38.09 22 38.09-22v-44l-38.09-22-38.09 22zM1425 624v44l38.09 22 38.09-22v-44l-38.09-22-38.09 22zM1509 624v44l38.09 22 38.09-22v-44l-38.09-22-38.09 22zM1593 624v44l38.09 22 38.09-22v-44l-38.09-22-38.09 22zM1677 624v44l38.09 22 38.09-22v-44l-38.09-22-38.09 22zM1761 624v44l38.09 22 38.09-22v-44l-38.09-22-38.09 22zM1845 624v44l38.09 22 38.09-22v-44l-38.09-22-38.09 22zM501 624v44l38.089 22 38.089-22v-44l-38.089-22L501 624zM417 624v44l38.089 22 38.089-22v-44l-38.089-22L417 624zM291 550v44l38.089 22 38.089-22v-44l-38.089-22L291 550zM207 550v44l38.089 22 38.089-22v-44l-38.089-22L207 550zM123 550v44l38.089 22 38.089-22v-44l-38.089-22L123 550zM39 550v44l38.09 22 38.088-22v-44l-38.089-22L39 550zM-45 550v44l38.09 22 38.088-22v-44L-6.91 528-45 550zM375 550v44l38.089 22 38.089-22v-44l-38.089-22L375 550zM711 550v44l38.089 22 38.089-22v-44l-38.089-22L711 550zM627 550v44l38.089 22 38.089-22v-44l-38.089-22L627 550zM795 550v44l38.089 22 38.076-22v-44l-38.076-22L795 550zM879 550v44l38.089 22 38.089-22v-44l-38.089-22L879 550zM963 550v44l38.09 22 38.09-22v-44l-38.09-22L963 550zM1047 550v44l38.09 22 38.09-22v-44l-38.09-22-38.09 22zM1131 550v44l38.09 22 38.09-22v-44l-38.09-22-38.09 22zM1215 550v44l38.09 22 38.09-22v-44l-38.09-22-38.09 22zM1299 550v44l38.09 22 38.09-22v-44l-38.09-22-38.09 22zM1383 550v44l38.09 22 38.09-22v-44l-38.09-22-38.09 22zM1467 550v44l38.09 22 38.09-22v-44l-38.09-22-38.09 22zM1551 550v44l38.09 22 38.09-22v-44l-38.09-22-38.09 22zM1635 550v44l38.09 22 38.09-22v-44l-38.09-22-38.09 22zM1719 550v44l38.09 22 38.09-22v-44l-38.09-22-38.09 22zM1803 550v44l38.09 22 38.09-22v-44l-38.09-22-38.09 22zM1887 550v44l38.09 22 38.09-22v-44l-38.09-22-38.09 22zM543 550v44l38.089 22 38.089-22v-44l-38.089-22L543 550zM459 550v44l38.089 22 38.089-22v-44l-38.089-22L459 550zM249 477v44l38.089 22 38.089-22v-44l-38.089-22L249 477zM165 477v44l38.089 22 38.089-22v-44l-38.089-22L165 477zM81 477v44l38.089 22 38.089-22v-44l-38.089-22L81 477zM-3 477v44l38.09 22 38.088-22v-44L35.09 455-3 477zM333 477v44l38.089 22 38.089-22v-44l-38.089-22L333 477zM669 477v44l38.089 22 38.089-22v-44l-38.089-22L669 477zM585 477v44l38.089 22 38.089-22v-44l-38.089-22L585 477zM753 477v44l38.089 22 38.076-22v-44l-38.076-22L753 477zM837 477v44l38.089 22 38.089-22v-44l-38.089-22L837 477zM921 477v44l38.089 22 38.089-22v-44l-38.089-22L921 477zM1005 477v44l38.09 22 38.09-22v-44l-38.09-22-38.09 22zM1089 477v44l38.09 22 38.09-22v-44l-38.09-22-38.09 22zM1173 477v44l38.09 22 38.09-22v-44l-38.09-22-38.09 22zM1257 477v44l38.09 22 38.09-22v-44l-38.09-22-38.09 22zM1341 477v44l38.09 22 38.09-22v-44l-38.09-22-38.09 22zM1425 477v44l38.09 22 38.09-22v-44l-38.09-22-38.09 22zM1509 477v44l38.09 22 38.09-22v-44l-38.09-22-38.09 22zM1593 477v44l38.09 22 38.09-22v-44l-38.09-22-38.09 22zM1677 477v44l38.09 22 38.09-22v-44l-38.09-22-38.09 22zM1761 477v44l38.09 22 38.09-22v-44l-38.09-22-38.09 22zM1845 477v44l38.09 22 38.09-22v-44l-38.09-22-38.09 22zM501 477v44l38.089 22 38.089-22v-44l-38.089-22L501 477zM417 477v44l38.089 22 38.089-22v-44l-38.089-22L417 477zM291 403v44l38.089 22 38.089-22v-44l-38.089-22L291 403zM207 403v44l38.089 22 38.089-22v-44l-38.089-22L207 403zM123 403v44l38.089 22 38.089-22v-44l-38.089-22L123 403zM39 403v44l38.09 22 38.088-22v-44l-38.089-22L39 403zM-45 403v44l38.09 22 38.088-22v-44L-6.91 381-45 403zM375 403v44l38.089 22 38.089-22v-44l-38.089-22L375 403zM711 403v44l38.089 22 38.089-22v-44l-38.089-22L711 403zM627 403v44l38.089 22 38.089-22v-44l-38.089-22L627 403zM795 403v44l38.089 22 38.076-22v-44l-38.076-22L795 403zM879 403v44l38.089 22 38.089-22v-44l-38.089-22L879 403zM963 403v44l38.09 22 38.09-22v-44l-38.09-22L963 403zM1047 403v44l38.09 22 38.09-22v-44l-38.09-22-38.09 22zM1131 403v44l38.09 22 38.09-22v-44l-38.09-22-38.09 22zM1215 403v44l38.09 22 38.09-22v-44l-38.09-22-38.09 22zM1299 403v44l38.09 22 38.09-22v-44l-38.09-22-38.09 22zM1383 403v44l38.09 22 38.09-22v-44l-38.09-22-38.09 22zM1467 403v44l38.09 22 38.09-22v-44l-38.09-22-38.09 22zM1551 403v44l38.09 22 38.09-22v-44l-38.09-22-38.09 22zM1635 403v44l38.09 22 38.09-22v-44l-38.09-22-38.09 22zM1719 403v44l38.09 22 38.09-22v-44l-38.09-22-38.09 22zM1803 403v44l38.09 22 38.09-22v-44l-38.09-22-38.09 22zM1887 403v44l38.09 22 38.09-22v-44l-38.09-22-38.09 22zM543 403v44l38.089 22 38.089-22v-44l-38.089-22L543 403zM459 403v44l38.089 22 38.089-22v-44l-38.089-22L459 403zM249 330v44l38.089 22 38.089-22v-44l-38.089-22L249 330zM165 330v44l38.089 22 38.089-22v-44l-38.089-22L165 330zM81 330v44l38.089 22 38.089-22v-44l-38.089-22L81 330zM-3 330v44l38.09 22 38.088-22v-44L35.09 308-3 330zM333 330v44l38.089 22 38.089-22v-44l-38.089-22L333 330zM669 330v44l38.089 22 38.089-22v-44l-38.089-22L669 330zM585 330v44l38.089 22 38.089-22v-44l-38.089-22L585 330zM753 330v44l38.089 22 38.076-22v-44l-38.076-22L753 330zM837 330v44l38.089 22 38.089-22v-44l-38.089-22L837 330zM921 330v44l38.089 22 38.089-22v-44l-38.089-22L921 330zM1005 330v44l38.09 22 38.09-22v-44l-38.09-22-38.09 22zM1089 330v44l38.09 22 38.09-22v-44l-38.09-22-38.09 22zM1173 330v44l38.09 22 38.09-22v-44l-38.09-22-38.09 22zM1257 330v44l38.09 22 38.09-22v-44l-38.09-22-38.09 22zM1341 330v44l38.09 22 38.09-22v-44l-38.09-22-38.09 22zM1425 330v44l38.09 22 38.09-22v-44l-38.09-22-38.09 22zM1509 330v44l38.09 22 38.09-22v-44l-38.09-22-38.09 22zM1593 330v44l38.09 22 38.09-22v-44l-38.09-22-38.09 22zM1677 330v44l38.09 22 38.09-22v-44l-38.09-22-38.09 22zM1761 330v44l38.09 22 38.09-22v-44l-38.09-22-38.09 22zM1845 330v44l38.09 22 38.09-22v-44l-38.09-22-38.09 22zM501 330v44l38.089 22 38.089-22v-44l-38.089-22L501 330zM417 330v44l38.089 22 38.089-22v-44l-38.089-22L417 330zM291 256v44l38.089 22 38.089-22v-44l-38.089-22L291 256zM207 256v44l38.089 22 38.089-22v-44l-38.089-22L207 256zM123 256v44l38.089 22 38.089-22v-44l-38.089-22L123 256zM39 256v44l38.09 22 38.088-22v-44l-38.089-22L39 256zM-45 256v44l38.09 22 38.088-22v-44L-6.91 234-45 256zM375 256v44l38.089 22 38.089-22v-44l-38.089-22L375 256zM711 256v44l38.089 22 38.089-22v-44l-38.089-22L711 256zM627 256v44l38.089 22 38.089-22v-44l-38.089-22L627 256zM795 256v44l38.089 22 38.076-22v-44l-38.076-22L795 256zM879 256v44l38.089 22 38.089-22v-44l-38.089-22L879 256zM963 256v44l38.09 22 38.09-22v-44l-38.09-22L963 256zM1047 256v44l38.09 22 38.09-22v-44l-38.09-22-38.09 22zM1131 256v44l38.09 22 38.09-22v-44l-38.09-22-38.09 22zM1215 256v44l38.09 22 38.09-22v-44l-38.09-22-38.09 22zM1299 256v44l38.09 22 38.09-22v-44l-38.09-22-38.09 22zM1383 256v44l38.09 22 38.09-22v-44l-38.09-22-38.09 22zM1467 256v44l38.09 22 38.09-22v-44l-38.09-22-38.09 22zM1551 256v44l38.09 22 38.09-22v-44l-38.09-22-38.09 22zM1635 256v44l38.09 22 38.09-22v-44l-38.09-22-38.09 22zM1719 256v44l38.09 22 38.09-22v-44l-38.09-22-38.09 22zM1803 256v44l38.09 22 38.09-22v-44l-38.09-22-38.09 22zM1887 256v44l38.09 22 38.09-22v-44l-38.09-22-38.09 22zM543 256v44l38.089 22 38.089-22v-44l-38.089-22L543 256zM459 256v44l38.089 22 38.089-22v-44l-38.089-22L459 256zM249 183v44l38.089 22 38.089-22v-44l-38.089-22L249 183zM165 183v44l38.089 22 38.089-22v-44l-38.089-22L165 183zM81 183v44l38.089 22 38.089-22v-44l-38.089-22L81 183zM-3 183v44l38.09 22 38.088-22v-44L35.09 161-3 183zM333 183v44l38.089 22 38.089-22v-44l-38.089-22L333 183zM669 183v44l38.089 22 38.089-22v-44l-38.089-22L669 183zM585 183v44l38.089 22 38.089-22v-44l-38.089-22L585 183zM753 183v44l38.089 22 38.076-22v-44l-38.076-22L753 183zM837 183v44l38.089 22 38.089-22v-44l-38.089-22L837 183zM921 183v44l38.089 22 38.089-22v-44l-38.089-22L921 183zM1005 183v44l38.09 22 38.09-22v-44l-38.09-22-38.09 22zM1089 183v44l38.09 22 38.09-22v-44l-38.09-22-38.09 22zM1173 183v44l38.09 22 38.09-22v-44l-38.09-22-38.09 22zM1257 183v44l38.09 22 38.09-22v-44l-38.09-22-38.09 22zM1341 183v44l38.09 22 38.09-22v-44l-38.09-22-38.09 22zM1425 183v44l38.09 22 38.09-22v-44l-38.09-22-38.09 22zM1509 183v44l38.09 22 38.09-22v-44l-38.09-22-38.09 22zM1593 183v44l38.09 22 38.09-22v-44l-38.09-22-38.09 22zM1677 183v44l38.09 22 38.09-22v-44l-38.09-22-38.09 22zM1761 183v44l38.09 22 38.09-22v-44l-38.09-22-38.09 22zM1845 183v44l38.09 22 38.09-22v-44l-38.09-22-38.09 22zM501 183v44l38.089 22 38.089-22v-44l-38.089-22L501 183zM417 183v44l38.089 22 38.089-22v-44l-38.089-22L417 183zM291 109v44l38.089 22 38.089-22v-44l-38.089-22L291 109zM207 109v44l38.089 22 38.089-22v-44l-38.089-22L207 109zM123 109v44l38.089 22 38.089-22v-44l-38.089-22L123 109zM39 109v44l38.09 22 38.088-22v-44L77.089 87 39 109zM-45 109v44l38.09 22 38.088-22v-44L-6.91 87-45 109zM375 109v44l38.089 22 38.089-22v-44l-38.089-22L375 109zM711 109v44l38.089 22 38.089-22v-44l-38.089-22L711 109zM627 109v44l38.089 22 38.089-22v-44l-38.089-22L627 109zM795 109v44l38.089 22 38.076-22v-44l-38.076-22L795 109zM879 109v44l38.089 22 38.089-22v-44l-38.089-22L879 109zM963 109v44l38.09 22 38.09-22v-44l-38.09-22L963 109zM1047 109v44l38.09 22 38.09-22v-44l-38.09-22-38.09 22zM1131 109v44l38.09 22 38.09-22v-44l-38.09-22-38.09 22zM1215 109v44l38.09 22 38.09-22v-44l-38.09-22-38.09 22zM1299 109v44l38.09 22 38.09-22v-44l-38.09-22-38.09 22zM1383 109v44l38.09 22 38.09-22v-44l-38.09-22-38.09 22zM1467 109v44l38.09 22 38.09-22v-44l-38.09-22-38.09 22zM1551 109v44l38.09 22 38.09-22v-44l-38.09-22-38.09 22zM1635 109v44l38.09 22 38.09-22v-44l-38.09-22-38.09 22zM1719 109v44l38.09 22 38.09-22v-44l-38.09-22-38.09 22zM1803 109v44l38.09 22 38.09-22v-44l-38.09-22-38.09 22zM1887 109v44l38.09 22 38.09-22v-44l-38.09-22-38.09 22zM543 109v44l38.089 22 38.089-22v-44l-38.089-22L543 109zM459 109v44l38.089 22 38.089-22v-44l-38.089-22L459 109z" fill="#FCFCFC"/></g><defs><radialGradient id="b" cx="0" cy="0" r="1" gradientUnits="userSpaceOnUse" gradientTransform="matrix(0 196 -196 0 1743 528)"><stop stop-color="#FEEB19"/><stop offset="1" stop-color="#FEEB19" stop-opacity="0"/></radialGradient><radialGradient id="c" cx="0" cy="0" r="1" gradientUnits="userSpaceOnUse" gradientTransform="matrix(0 196 -196 0 270 454)"><stop stop-color="#77B3D1"/><stop offset="1" stop-color="#77B3D1" stop-opacity="0"/></radialGradient><clipPath id="a"><path fill="#fff" d="M0 0h1920v1130H0z"/></clipPath></defs></svg>