<svg width="1989" height="1576" viewBox="0 0 1989 1576" fill="none" xmlns="http://www.w3.org/2000/svg"><path d="M625.115 469.005L538.551 619.5H365.448l-86.564-150.495L365.448 318.5h173.103l86.564 150.505zM1170.11 469.505l-86.8 149.995H909.694l-86.806-149.995L909.694 319.5h173.616l86.8 150.005zM1170.11 152.505l-86.8 149.995H909.694l-86.806-149.995L909.694 2.5h173.616l86.8 150.005zM1714.11 469.505L1627.55 619.5h-173.1l-86.56-149.995 86.56-150.005h173.1l86.56 150.005zM364.002 940h175.995L628 787.005 539.997 634H364.002M1170.11 787.505l-86.8 149.995H909.694l-86.806-149.995L909.694 637.5h173.616l86.8 150.005zM1714.11 787.505L1627.55 937.5h-173.1l-86.56-149.995 86.56-150.005h173.1l86.56 150.005zM625.115 1105.01l-86.564 150.49H365.448l-86.564-150.49 86.564-150.51h173.103l86.564 150.51zM1170.11 1105.51l-86.8 149.99H909.694l-86.806-149.99 86.806-150.01h173.616l86.8 150.01zM1714.11 1105.51l-86.56 149.99h-173.1l-86.56-149.99 86.56-150.01h173.1l86.56 150.01zM625.115 1423.01l-86.564 150.49H365.448l-86.564-150.49 86.564-150.51h173.103l86.564 150.51zM1170.11 1423.51l-86.8 149.99H909.694l-86.806-149.99 86.806-150.01h173.616l86.8 150.01zM1714.11 1423.51l-86.56 149.99h-173.1l-86.56-149.99 86.56-150.01h173.1l86.56 150.01zM896.116 310.005L809.551 460.5H636.449l-86.565-150.495L636.449 159.5h173.102l86.565 150.505zM266.997 157L355 310.005 266.997 463H91.003L3 310.005M1441.11 310.505l-86.8 149.995h-173.62l-86.8-149.995 86.8-150.005h173.62l86.8 150.005zM1900.75 463h-176.5L1636 310.505 1724.25 158h176.5M896.116 628.005L809.551 778.5H636.449l-86.565-150.495L636.449 477.5h173.102l86.565 150.505zM91.003 475h175.994L355 628.005 318.478 691.5M1441.11 628.505l-86.8 149.995h-173.62l-86.8-149.995 86.8-150.005h173.62l86.8 150.005zM1986.11 628.505l-86.8 149.995h-173.62l-86.8-149.995 86.8-150.005h173.62l86.8 150.005zM896.116 946.005L809.551 1096.5H636.449l-86.565-150.495L636.449 795.5h173.102l86.565 150.505zM3 946.005L91.003 1099h175.994L355 946.005 323.938 892M1441.11 946.505l-86.8 149.995h-173.62l-86.8-149.995 86.8-150.005h173.62l86.8 150.005zM1986.11 946.505l-86.8 149.995h-173.62l-86.8-149.995 86.8-150.005h173.62l86.8 150.005zM896.116 1264.01l-86.565 150.49H636.449l-86.565-150.49 86.565-150.51h173.102l86.565 150.51zM352.116 1264.01l-86.565 150.49H92.449L5.884 1264.01l86.565-150.51H265.55l86.565 150.51zM1441.11 1264.51l-86.8 149.99h-173.62l-86.8-149.99 86.8-150.01h173.62l86.8 150.01zM1986.11 1264.51l-86.8 149.99h-173.62l-86.8-149.99 86.8-150.01h173.62l86.8 150.01z" stroke="#F3F3F3" stroke-width="5"/></svg>