<svg width="216" height="55" viewBox="0 0 216 55" fill="none" xmlns="http://www.w3.org/2000/svg"><path fill-rule="evenodd" clip-rule="evenodd" d="M116.81 1.9c-9.928 1.874-10.566 2.049-10.566 2.89 0 .463.499.84 1.109.84s1.733.506 2.495 1.124l1.386 1.123.293 22.834.294 22.834 3.815.672c5.529.973 13.388.943 16.769-.063 9.011-2.681 13.851-9.622 13.917-19.957.082-12.714-9.403-20.653-20.267-16.962l-3.375 1.147V9.655c0-6.628-.177-8.71-.734-8.658-.403.04-2.714.445-5.136.902zM.106 3.107c.111.58.96 1.163 2.002 1.377 2.57.526 3.172 1.013 4.232 3.422.753 1.71.986 5.009 1.174 16.671.352 21.864-.534 26.24-5.51 27.174-1.19.224-2.005.724-2.005 1.232 0 .724 2.115.855 13.794.855 11.62 0 13.795-.133 13.795-.847 0-.524-.93-1.031-2.437-1.33-1.562-.31-2.842-1.027-3.567-2-1.33-1.783-2.167-7.425-2.195-14.783l-.02-5.144h3.771c3.198 0 4.044.23 5.572 1.519.991.835 2.018 2.356 2.281 3.38.33 1.285.883 1.92 1.781 2.052 1.301.19 1.302.181 1.14-8.525-.15-8.016-.25-8.715-1.245-8.715-.732 0-1.336.744-1.87 2.299-1.26 3.668-2.444 4.467-7.215 4.867l-4.214.354.005-7.581c.002-4.17.171-8.97.375-10.668l.37-3.086h5.514c3.362 0 6.27.317 7.454.812 2.7 1.13 5.42 4.213 6.934 7.86 1.38 3.321 1.563 3.47 2.882 2.351.697-.591.824-2.081.649-7.643l-.218-6.908h-21.71c-20.17 0-21.698.071-21.519 1.005zm52.429 13.307c-3.563.926-5.924 2.155-8.09 4.21-6.157 5.841-7.923 16.166-4.176 24.396 1.83 4.016 3.795 6.13 7.57 8.137 2.614 1.392 3.575 1.562 8.805 1.559 7.108-.005 10.691-1.346 14.42-5.398 3.94-4.281 4.95-7.14 4.95-14.011 0-5.499-.131-6.16-1.972-9.906-2.1-4.27-5.076-6.965-9.37-8.482-3.21-1.136-8.814-1.368-12.137-.505zm32.416 1.018c-4.448.855-8.239 1.706-8.424 1.892-.634.635.436 1.591 1.779 1.591.738 0 1.845.557 2.46 1.238 1.027 1.137 1.118 2.274 1.118 13.963 0 14.014-.21 15.01-3.349 15.825-1.02.265-1.96.8-2.09 1.19-.178.536 2.624.707 11.554.707 9.583 0 11.788-.15 11.788-.804 0-.497-.916-.928-2.393-1.126-1.317-.177-2.736-.79-3.154-1.363-.97-1.328-1.487-6.844-1.492-15.919-.005-8.035.265-8.674 3.953-9.367 1.928-.362 4.663.08 7.195 1.162.673.288 1.334-.772 2.794-4.475 1.771-4.493 1.839-4.906.915-5.587-1.492-1.099-4.782-.889-7.618.487-2.418 1.172-4.125 2.796-6.115 5.818-.885 1.344-.914 1.248-.666-2.176.142-1.97.162-3.813.045-4.096-.118-.283-3.853.185-8.3 1.04zm79.607-1.196c-7.041 1.395-12.102 6.472-14.045 14.085-2.588 10.146 2.12 20.063 11.125 23.438 6.742 2.526 15.105 1.084 19.947-3.44 2.803-2.618 2.5-4.054-.483-2.291-2.588 1.53-7.682 2.06-10.644 1.108-5.318-1.708-9.019-6.83-9.031-12.494l-.005-2.793h23.054l-.388-3.302c-1.266-10.789-8.937-16.41-19.53-14.31zm33.688-.008c-6.601 1.664-9.943 5.18-10.302 10.84-.385 6.062 1.816 8.778 9.577 11.816 2.26.884 4.968 2.244 6.017 3.02 1.645 1.217 1.908 1.765 1.908 3.975 0 2.163-.294 2.812-1.881 4.148-1.633 1.377-2.277 1.553-4.896 1.335-3.965-.33-6.082-1.916-8.422-6.313-2.964-5.57-3.86-4.776-3.261 2.893l.41 5.248 4.004.912c4.995 1.138 11.82 1.173 15.446.08 5.749-1.733 9.127-6.047 9.153-11.69.024-5.354-1.836-7.351-10.715-11.502-5.355-2.504-6.448-3.248-7.121-4.852-.978-2.33-.342-5.051 1.544-6.606 1-.824 1.95-1.019 3.891-.8 3.369.38 5.298 1.901 7.319 5.773.911 1.744 1.967 3.171 2.348 3.171.83 0 1.222-4.278.709-7.727-.341-2.288-.516-2.473-2.899-3.074-3.768-.95-10.316-1.28-12.829-.647zM60.62 20.189c2.917 3.05 3.602 6.017 3.63 15.719.02 7.178-.175 9.337-1.05 11.605-2.906 7.546-9.404 6.636-11.93-1.67-1.266-4.168-1.458-17.3-.308-21.226 1.709-5.84 6.295-7.943 9.658-4.427zm110.287.14c1.022 1.376 2.437 9.126 1.852 10.14-.139.244-2.747.442-5.796.442h-5.541v-1.657c0-2.756 1.661-7.471 3.23-9.166 1.878-2.029 4.651-1.922 6.255.24zm-40.361 1.79c2.927 2.574 4.129 6.567 4.062 13.495-.04 4.27-.363 6.403-1.371 9.058-1.663 4.382-4.357 7.373-6.741 7.486-4.152.197-3.816 1.573-3.816-15.613 0-16.958-.196-16.088 3.648-16.17 1.635-.035 2.692.402 4.218 1.745z" fill="#00305A"/></svg>