<svg width="220" height="52" viewBox="0 0 220 52" fill="none" xmlns="http://www.w3.org/2000/svg"><path fill-rule="evenodd" clip-rule="evenodd" d="M215.31 4.365a1801.933 1801.933 0 0 1-11.495 10.415c-3.743 3.362-6.818 6.223-6.833 6.356-.015.134 1.963 3.552 4.396 7.595 2.433 4.044 4.578 7.64 4.766 7.991.328.614.136.64-4.583.64h-4.926l-2.921-4.919c-1.607-2.705-3.05-4.999-3.209-5.096-.158-.098-.491.018-.739.257-.248.24-5.336 4.864-11.306 10.276-5.969 5.411-11.776 10.714-12.904 11.782l-2.05 1.943-4.572.01c-3.826.008-4.491-.064-4.075-.442l4.412-3.99c4.109-3.715 5.168-4.675 18.837-17.073 4.669-4.235 8.62-7.892 8.779-8.127.191-.282-.612-1.939-2.343-4.834-1.447-2.423-2.742-4.531-2.877-4.685-.135-.153-3.436-.263-7.335-.245-6.241.03-7.156.104-7.637.619-.673.72-3.058 6.869-2.815 7.26.097.157 3.519.285 7.606.285h7.43l-.606 1.783-.606 1.783-7.814.091-7.814.091-2.531 6.53-2.532 6.532-6.177.092c-3.397.05-6.176-.028-6.176-.176 0-.233 4.062-10.972 7.483-19.781 1.408-3.625 3.842-6.241 7.356-7.905l2.309-1.095 13.606-.102 13.605-.102 2.185 3.742c1.202 2.059 2.338 3.746 2.525 3.75.186.004.874-.49 1.528-1.1.653-.608 3.48-3.165 6.282-5.682 2.801-2.517 6.121-5.535 7.377-6.706L211.2 0l4.4.03 4.4.032-4.69 4.303zM18.02 43.826c.885.474.848.762-.578 4.533l-1.234 3.265h-3.294l.705-1.782c.984-2.487 2.001-5.163 2.001-5.264 0-.046-.725-.084-1.612-.083l-1.613.003-1.31 3.563-1.309 3.563H8.114c-.914 0-1.662-.049-1.662-.11 0-.06.607-1.622 1.348-3.473.742-1.85 1.239-3.459 1.104-3.575-.135-.116-.856-.143-1.603-.06l-1.358.15-1.359 3.45-1.358 3.449-1.613.103c-.887.057-1.613.048-1.613-.02 0-.066.586-1.641 1.303-3.498.716-1.857 1.399-3.644 1.517-3.971.195-.54.864-.594 7.379-.594 4.289 0 7.428.14 7.821.351zm19.874 1.771c-.447 1.167-1.154 3-1.572 4.075l-.76 1.953h-3.237l.653-1.72c.36-.946.59-1.824.51-1.952-.078-.129-1.423-.185-2.989-.126l-2.846.108-.678 1.76c-.673 1.746-.69 1.76-2.281 1.863-.881.057-1.603.032-1.603-.056 0-.784 2.316-6.023 2.979-6.737 1.078-1.16 1.244-1.188 7.46-1.244l5.176-.046-.812 2.122zm11.017-1.868c.007.14.379.704.827 1.252l.815.996 1.911-1.269c1.635-1.086 2.14-1.254 3.5-1.166l1.588.102-2.799 1.839c-1.539 1.01-2.796 2.004-2.794 2.207.002.203.61 1.133 1.351 2.067l1.348 1.698-1.766.105c-1.822.109-1.788.128-3.145-1.756-.434-.602-.548-.574-2.476.616-1.658 1.024-2.284 1.229-3.486 1.141l-1.466-.106 2.78-1.85c2.638-1.755 3.208-2.43 2.446-2.902-.184-.114-.803-.887-1.374-1.718l-1.04-1.51h1.884c1.036 0 1.89.114 1.896.254zM29.19 44.5c-.374.233-1.049 2.025-.871 2.314.076.124 1.438.177 3.025.117 2.352-.088 2.917-.214 3.051-.679.09-.313.27-.825.4-1.138.205-.498-.105-.58-2.544-.679-1.528-.061-2.905-.032-3.061.065z" fill="#FF6A00"/><path fill-rule="evenodd" clip-rule="evenodd" d="M76.699 18.095c-1.096 2.83-1.992 5.422-1.992 5.76 0 .58.472.61 8.06.525l8.061-.091 2.212-5.686 2.211-5.686 5.349-.002c2.941-.001 5.348.081 5.348.184 0 .102-1.632 4.398-3.627 9.547-3.324 8.58-3.766 9.514-5.284 11.175-.975 1.068-2.451 2.204-3.589 2.762l-1.932.95-16.554.096c-13.319.078-16.553.012-16.547-.34.004-.24.301-1.084.66-1.876l.654-1.439 13.675-.089 13.676-.088 1.09-2.547c.6-1.4 1.101-2.738 1.115-2.971.019-.332-2.472-.425-11.386-.425h-11.41L65.335 26.7c-1.731-1.731-1.621-3.408.602-9.196l1.757-4.574 5.12-.094c2.815-.05 5.29-.046 5.498.01.233.064-.392 2.095-1.613 5.25zM59.12 13.69c1.328.892 2.067 2.624 1.809 4.237-.199 1.239-6.838 18.686-7.364 19.351-.242.307-1.793.425-5.597.425-4.847 0-5.248-.047-5.096-.594.09-.327 1.868-4.999 3.95-10.382 2.08-5.383 3.696-9.93 3.589-10.103-.107-.173-1.905-.314-3.995-.314h-3.8l-4.075 10.612-4.075 10.611-5.348.094c-4.203.073-5.349-.001-5.349-.347 0-.242 1.758-5.002 3.906-10.577 2.147-5.575 3.905-10.194 3.905-10.265 0-.07-1.818-.129-4.04-.129H23.5L22.29 19.45c-.667 1.727-2.505 6.503-4.084 10.611l-2.871 7.471-5.46.094c-3.003.05-5.46-.027-5.46-.173s1.194-3.32 2.652-7.055c1.459-3.733 3.56-9.192 4.67-12.13l2.017-5.34 22.107-.007 22.107-.008 1.154.776zm86.366.222c.485.456 1.055 1.407 1.267 2.113.454 1.515.17 2.508-3.14 10.974-1.905 4.873-2.298 5.602-3.849 7.148-.95.947-2.491 2.096-3.425 2.554l-1.698.832-13.31.103c-8.817.068-13.771-.021-14.677-.265a4.187 4.187 0 0 1-2.256-1.533c-1.474-1.933-1.279-3.277 1.537-10.576 3.066-7.949 4.037-9.347 7.931-11.414l1.759-.934 14.49.085 14.49.085.881.828zm-24.881 2.695c-.552.35-6.905 16.654-6.65 17.067.1.161 3.684.294 7.964.294 7.697 0 7.788-.009 8.282-.764.639-.978 6.308-15.7 6.308-16.382 0-.442-1.062-.512-7.725-.507-4.25.003-7.93.134-8.179.292zm-43.947 26.62c.283.827-.2.928-4.457.928-4.727 0-5.113.11-5.358 1.528-.112.648.085.682 4.297.735 3.43.043 4.415.157 4.415.51 0 .351-1.052.474-4.699.547l-4.699.095-.875 2.028-.874 2.027h-1.586c-.872 0-1.673-.086-1.778-.192-.264-.264 2.082-6.277 2.758-7.07.3-.352.946-.81 1.433-1.019.982-.42 11.284-.525 11.423-.117zm18.75.451c.435.417.393.782-.34 2.939-.48 1.411-1.296 2.969-1.913 3.65l-1.078 1.189-4.79.118c-3.982.097-4.932.024-5.63-.433-1.044-.684-1.042-.828.058-3.753 1.614-4.292 2.233-4.606 8.612-4.362 3.272.126 4.726.313 5.08.652zm19.357-.047c.648.782.09 2.422-1.213 3.566-.903.793-1.509 1.036-2.608 1.046l-1.431.014 1.613 1.484c.887.817 1.613 1.575 1.613 1.685 0 .11-.98.2-2.176.2-2.075 0-2.264-.072-4.053-1.529-1.031-.84-1.941-1.528-2.022-1.528-.081 0-.409.688-.73 1.528-.578 1.515-.598 1.529-2.197 1.529-.887 0-1.694-.081-1.793-.18-.098-.099.526-2.007 1.387-4.241l1.566-4.063 5.816-.003c4.686-.002 5.896.093 6.228.492zm20.169.014c-.16.418-1.012.51-4.723.51-3.251 0-4.605.12-4.801.424-.345.537-2.141 5.092-2.143 5.433-.001.14 2.067.255 4.595.255 4.491 0 4.588.016 4.232.68-.338.632-.711.678-5.423.678-5.363 0-6.615-.234-6.954-1.305-.307-.967 1.417-5.153 2.574-6.25l.985-.934h5.927c5.128 0 5.9.069 5.731.51zm19.356 0c-.16.418-1.01.51-4.702.51-4.689 0-5.077.111-5.321 1.528-.112.647.095.683 4.407.774 3.376.07 4.489.2 4.386.51-.097.293-1.52.441-4.883.508l-4.746.094-.405 1.118c-.223.615-.405 1.223-.405 1.35 0 .126 2.069.23 4.597.23 4.49 0 4.588.016 4.232.68-.338.632-.711.678-5.423.678-7.389 0-7.813-.306-6.137-4.448 1.628-4.023 1.666-4.04 8.682-4.04 5.117 0 5.887.068 5.718.508zm-67.592.934c-.344.537-2.141 5.092-2.143 5.433 0 .14 1.204.255 2.677.255h2.678l1.06-2.631c.582-1.448 1.057-2.823 1.056-3.057 0-.301-.734-.424-2.528-.424-1.65 0-2.622.147-2.8.424zm18.943.645c-.205.588-.373 1.2-.373 1.358 0 .16 1.207.29 2.683.29h2.684l.372-1.07c.206-.588.373-1.2.373-1.358 0-.16-1.207-.29-2.683-.29h-2.683l-.373 1.07z" fill="#555658"/></svg>