<svg width="129" height="75" viewBox="0 0 129 75" fill="none" xmlns="http://www.w3.org/2000/svg"><path fill-rule="evenodd" clip-rule="evenodd" d="M6.495 21.402h103.261v46.514c0 1.644-.65 3.22-1.807 4.383a6.154 6.154 0 0 1-4.362 1.816H6.495a6.155 6.155 0 0 1-4.362-1.816 6.213 6.213 0 0 1-1.807-4.383V27.6c0-1.643.65-3.22 1.807-4.382a6.155 6.155 0 0 1 4.362-1.816z" fill="#E31724"/><path fill-rule="evenodd" clip-rule="evenodd" d="M122.585 15.785c2.075-2.769 3.073-7.543 1.458-15.5-20.385 3.183-16.013 14.25-14.065 17.712A70.752 70.752 0 0 1 120.526 5.17a78.258 78.258 0 0 0-7.016 12.5c2.748-3.183 5.971-3.35 9.075-1.886zM129 22.278c-8.933 10.12-13.724 4.519-15.506 1.48a23.655 23.655 0 0 1 8.616-1.194 26.389 26.389 0 0 0-9.115-1.154c1.085-2.617 5.552-10.343 16.005.868z" fill="#85BC22"/><path fill-rule="evenodd" clip-rule="evenodd" d="M62.7 32.971h2.684v2.698h-2.685V32.97zm-38.45 16.9l6.669-16.9h4.435l-10.248 24.26c-1.505 3.556-3.477 5.132-7.127 5.275a14.802 14.802 0 0 1-5.544-.987v-3.397c3.46 1.018 3.912 1.138 5.148 1.114 1.687 0 3.112-.907 4.751-4.71L12.46 32.97h4.284l7.508 16.9zm29.073 12.635h-3.699v-7.853c-1.625.43-3.3.647-4.98.644-5.188 0-8.269-2.689-8.316-8.004v-6.429h3.682v6.58c0 3.23 1.584 4.639 4.633 4.639a19.355 19.355 0 0 0 4.981-.645V40.864h3.699v21.642zm14.73 0c-6.906 0-10.248-4.551-10.248-10.893 0-5.57 3.572-10.733 9.773-10.733 7.729 0 9.194 5.673 9.194 11.84H61.21a6.758 6.758 0 0 0 2.046 4.87 6.673 6.673 0 0 0 4.916 1.884 7.289 7.289 0 0 0 3.307-.638 7.321 7.321 0 0 0 2.672-2.059l2.376 1.695c-1.901 2.69-4.726 4.034-8.474 4.034zM67.578 43.8c-3.604 0-5.829 2.84-6.24 6h12.029c0-3.239-2.178-6-5.79-6zm30.038.072h-7.222v18.634H86.71V43.872h-7.127v-3.008h17.992v2.992l.04.016zM69.225 32.995h2.685v2.697h-2.685v-2.697z" fill="#fff"/></svg>