<svg width="227" height="53" viewBox="0 0 227 53" fill="none" xmlns="http://www.w3.org/2000/svg"><path d="M95.811 44.558v2.262H93.21v-2.262c-2.878-.212-5.176-.993-6.892-2.343a6.748 6.748 0 0 1-2.574-5.556 6.746 6.746 0 0 1 2.574-5.55c1.73-1.353 4.028-2.134 6.892-2.343v-2.262h2.601v2.262c2.9.205 5.199.986 6.898 2.343a6.72 6.72 0 0 1 2.601 5.55 6.73 6.73 0 0 1-2.601 5.556c-1.702 1.35-4.001 2.13-6.898 2.343zM88.148 32.81a4.622 4.622 0 0 0-1.797 3.85 4.586 4.586 0 0 0 1.797 3.833c1.18.91 2.867 1.45 5.062 1.62V31.194c-2.191.152-3.879.69-5.062 1.615zm7.663-1.62v10.922c2.191-.156 3.88-.69 5.063-1.62a4.614 4.614 0 0 0 1.775-3.849 4.615 4.615 0 0 0-1.775-3.85c-1.18-.91-2.868-1.443-5.063-1.598v-.005zM115.861 31.994a6.857 6.857 0 0 1 5.122 2.203 7.788 7.788 0 0 1 0 10.674 6.81 6.81 0 0 1-5.122 2.16 6.064 6.064 0 0 1-5.396-2.83v8.196h-2.488V32.394h2.488v2.462a6.055 6.055 0 0 1 5.396-2.862zm-.313 12.65a4.9 4.9 0 0 0 3.606-1.457 5.115 5.115 0 0 0 1.457-3.666 4.943 4.943 0 0 0-1.457-3.634 5.156 5.156 0 0 0-7.238 0 4.938 4.938 0 0 0-1.457 3.634 5.115 5.115 0 0 0 1.457 3.666 4.932 4.932 0 0 0 3.632 1.457zM137.918 34.829v-2.435h2.488V46.7h-2.488v-2.483a6.04 6.04 0 0 1-5.397 2.829 6.817 6.817 0 0 1-5.122-2.16 7.788 7.788 0 0 1 0-10.674 6.879 6.879 0 0 1 5.122-2.202 6.023 6.023 0 0 1 5.397 2.818zm-5.095 9.815a4.923 4.923 0 0 0 3.633-1.457 5.094 5.094 0 0 0 1.462-3.666 5.02 5.02 0 0 0-1.465-3.638 5.025 5.025 0 0 0-3.63-1.48 4.855 4.855 0 0 0-3.599 1.484 4.92 4.92 0 0 0-1.463 3.634 5.099 5.099 0 0 0 1.463 3.67 4.886 4.886 0 0 0 3.599 1.453zM154.077 38.333v-5.939h2.488v14.307h-2.488v-6.003h-7.405v5.976h-2.493v-14.28h2.493v5.939h7.405zM177.446 44.299V32.394h2.488v14.307h-19.591V32.394h2.488v11.932h6.093V32.394h2.488v11.932l6.034-.027zM186.194 42.415l7.928-10.021h2.002v14.307h-2.461V36.632l-7.922 10.042h-2.003v-14.28h2.456v10.02zM207.625 39.353c1.583.666 2.375 1.8 2.375 3.402a3.843 3.843 0 0 1-1.463 3.077c-.971.81-2.315 1.215-4.031 1.215-2.861 0-4.777-1.145-5.748-3.434l2.088-1.23c.529 1.565 1.758 2.348 3.687 2.348a3.601 3.601 0 0 0 2.201-.6 1.903 1.903 0 0 0 .805-1.62 1.752 1.752 0 0 0-.648-1.403 2.585 2.585 0 0 0-1.727-.54h-2.089v-2.235h1.544a2.48 2.48 0 0 0 1.689-.54 1.835 1.835 0 0 0 .599-1.447 1.807 1.807 0 0 0-.712-1.5 3.038 3.038 0 0 0-1.916-.54c-1.601 0-2.69.678-3.265 2.035l-2.03-1.177c1.012-2.095 2.776-3.144 5.295-3.148a5.488 5.488 0 0 1 3.675 1.188 3.78 3.78 0 0 1 1.387 2.97 3.482 3.482 0 0 1-1.716 3.18zM224.512 34.829v-2.435H227v14.307h-2.488v-2.483a6.04 6.04 0 0 1-5.397 2.829 6.83 6.83 0 0 1-5.122-2.16 7.788 7.788 0 0 1 0-10.673 6.866 6.866 0 0 1 5.122-2.22 6.02 6.02 0 0 1 5.397 2.835zm-5.073 9.815a4.942 4.942 0 0 0 3.632-1.457 5.099 5.099 0 0 0 1.441-3.666 5.035 5.035 0 0 0-1.462-3.637 5.016 5.016 0 0 0-3.627-1.482 4.853 4.853 0 0 0-3.606 1.485 4.94 4.94 0 0 0-1.462 3.634 5.11 5.11 0 0 0 1.479 3.671 4.895 4.895 0 0 0 3.605 1.452z" fill="#000"/><path fill-rule="evenodd" clip-rule="evenodd" d="M4.204 14.329h70.37v31.563a4.206 4.206 0 0 1-4.203 4.205H4.204A4.203 4.203 0 0 1 0 45.892V18.535a4.207 4.207 0 0 1 4.204-4.206z" fill="#76B2D0"/><path fill-rule="evenodd" clip-rule="evenodd" d="M83.317 10.517C84.731 8.638 85.411 5.4 84.31 0 70.42 2.16 73.398 9.67 74.725 12.018a48.044 48.044 0 0 1 7.19-8.703 53.034 53.034 0 0 0-4.783 8.482c1.873-2.16 4.07-2.273 6.185-1.28zm4.372 4.406c-6.088 6.867-9.353 3.066-10.567 1.004 1.89-.629 3.881-.904 5.872-.81a18.056 18.056 0 0 0-6.212-.783c.74-1.776 3.783-7.018 10.907.589z" fill="#85BC22"/><path fill-rule="evenodd" clip-rule="evenodd" d="M42.506 22.18h1.83v1.83h-1.83v-1.83zM16.304 33.646l4.544-11.468h3.023l-6.984 16.462c-1.025 2.413-2.37 3.482-4.857 3.58-1.29.019-2.573-.208-3.778-.67v-2.306c2.358.692 2.666.773 3.508.756 1.15 0 2.12-.615 3.238-3.196L8.268 22.18h2.92l5.116 11.468zm19.812 8.573h-2.52v-5.328a13.243 13.243 0 0 1-3.395.437c-3.535 0-5.634-1.825-5.666-5.432v-4.362h2.509V32c0 2.192 1.08 3.148 3.157 3.148a13.243 13.243 0 0 0 3.395-.438v-7.175h2.52V42.22zm10.039 0c-4.707 0-6.984-3.088-6.984-7.39 0-3.78 2.434-7.284 6.66-7.284 5.267 0 6.266 3.85 6.266 8.034H41.492a4.57 4.57 0 0 0 2.938 4.287c.575.22 1.19.32 1.806.296a4.985 4.985 0 0 0 4.074-1.83l1.62 1.15c-1.296 1.825-3.22 2.737-5.775 2.737zm-.324-12.693c-2.456 0-3.972 1.928-4.253 4.071h8.198c0-2.197-1.484-4.07-3.945-4.07zm20.47.049H61.38V42.22h-2.51V29.576h-4.856v-2.041h12.261v2.03l.027.01zm-19.348-7.38h1.83v1.83h-1.83v-1.83z" fill="#fff"/></svg>