<svg width="217" height="51" viewBox="0 0 217 51" fill="none" xmlns="http://www.w3.org/2000/svg"><path fill-rule="evenodd" clip-rule="evenodd" d="M100.849 39.417a10.473 10.473 0 0 1-16.167-1.579 10.475 10.475 0 0 1-1.749-5.85 10.486 10.486 0 1 1 20.967 0 10.155 10.155 0 0 1-3.051 7.43zm-13.013-1.836a7.96 7.96 0 0 0 11.129 0 7.65 7.65 0 0 0 2.246-5.594 7.687 7.687 0 0 0-2.246-5.627 7.959 7.959 0 0 0-11.129.001 7.69 7.69 0 0 0-2.24 5.627 7.644 7.644 0 0 0 2.24 5.593zm25.605 4.903a7.109 7.109 0 0 1-5.291-2.11 7.428 7.428 0 0 1-2.085-5.437c0-2.47.36-4.37 1.08-5.698.724-1.328 2.203-2.538 4.439-3.612.405-.195.961-.448 1.663-.756.702-.308 1.22-.54 1.55-.708a9.201 9.201 0 0 0 1.08-.664 3.1 3.1 0 0 0 .912-.928c.211-.363.363-.756.448-1.167l2.025 1.156c-.053.29-.131.575-.232.853-.103.27-.245.522-.421.75l-.475.621a2.797 2.797 0 0 1-.681.54c-.318.2-.54.351-.691.448a8.93 8.93 0 0 1-.842.432l-.837.39c-.144.071-.468.206-.972.404a20.64 20.64 0 0 0-.923.394 9.72 9.72 0 0 0-2.857 1.766 4.95 4.95 0 0 0-1.312 2.16 5.457 5.457 0 0 1 2.311-1.706 7.47 7.47 0 0 1 2.775-.54 6.405 6.405 0 0 1 6.507 6.62 6.436 6.436 0 0 1-2.025 4.86 7.172 7.172 0 0 1-5.146 1.922v.01zm-3.385-3.704a4.766 4.766 0 0 0 3.385 1.274 4.687 4.687 0 0 0 3.343-1.241 4.135 4.135 0 0 0 1.312-3.127 4.21 4.21 0 0 0-1.258-3.164 4.527 4.527 0 0 0-3.31-1.204 5.299 5.299 0 0 0-3.343 1.172 3.74 3.74 0 0 0-1.485 3.077 4.253 4.253 0 0 0 1.356 3.24v-.027zm22.732-11.134h2.7l-5.896 15.373a8.22 8.22 0 0 1-2.603 3.747 5.449 5.449 0 0 1-3.818 1.14v-2.338c1.775.136 3.076-.828 3.904-2.895l.233-.54-6.291-14.47h2.662l4.946 11.339 4.163-11.34v-.016zm13.91 0h2.516v14.471h-2.516v-5.2a9.722 9.722 0 0 1-3.904.75c-1.854 0-3.285-.437-4.293-1.311-1.008-.875-1.515-2.173-1.523-3.893v-4.8h2.517v4.66c0 1.08.297 1.846.885 2.31.76.515 1.671.76 2.587.697a8.997 8.997 0 0 0 3.731-.756v-6.928zm8.099 8.391a4.77 4.77 0 0 0 1.793 3.024 5.524 5.524 0 0 0 3.456 1.08c1.906 0 3.293-.707 4.163-2.111l2.16 1.215c-1.404 2.16-3.525 3.24-6.361 3.24a7.562 7.562 0 0 1-5.594-2.16 7.387 7.387 0 0 1-2.16-5.454 7.478 7.478 0 0 1 2.111-5.438 7.298 7.298 0 0 1 5.465-2.16 6.64 6.64 0 0 1 5.189 2.241 7.777 7.777 0 0 1 2.014 5.4 8.199 8.199 0 0 1-.087 1.129l-12.149-.006zm5-6.393a4.796 4.796 0 0 0-5 4.196h9.655a4.806 4.806 0 0 0-1.62-3.127 4.63 4.63 0 0 0-3.035-1.08v.011zm20.098-1.998h2.516v14.471h-2.516V36.08h-7.49v6.037h-2.516V27.662h2.516v6.016h7.49v-6.032zm16.83 0h2.025v14.471h-2.489V31.971l-8.008 10.146h-2.025V27.662h2.49v10.136l8.007-10.152zm7.608 8.391a4.774 4.774 0 0 0 1.777 3.008 5.534 5.534 0 0 0 3.456 1.08c1.911 0 3.299-.708 4.163-2.111l2.16 1.214c-1.411 2.16-3.534 3.24-6.367 3.24a7.56 7.56 0 0 1-5.594-2.16 7.402 7.402 0 0 1-2.159-5.453 7.478 7.478 0 0 1 2.111-5.438 7.313 7.313 0 0 1 5.464-2.16 6.655 6.655 0 0 1 5.195 2.241 7.795 7.795 0 0 1 2.008 5.4 8.198 8.198 0 0 1-.086 1.128l-12.128.011zm5-6.393a4.796 4.796 0 0 0-5 4.196h9.655a4.823 4.823 0 0 0-1.62-3.127 4.654 4.654 0 0 0-3.035-1.053v-.016z" fill="#080200"/><path fill-rule="evenodd" clip-rule="evenodd" d="M4.206 14.33h70.406v31.567a4.207 4.207 0 0 1-4.206 4.206h-66.2A4.206 4.206 0 0 1 0 45.897v-27.36a4.206 4.206 0 0 1 4.206-4.206z" fill="#00963F"/><path fill-rule="evenodd" clip-rule="evenodd" d="M83.36 10.518C84.773 8.64 85.453 5.4 84.352 0c-13.899 2.16-10.918 9.67-9.59 12.02a48.06 48.06 0 0 1 7.192-8.705 53.038 53.038 0 0 0-4.784 8.483c1.874-2.16 4.072-2.273 6.188-1.28zm4.373 4.407c-6.09 6.868-9.358 3.067-10.572 1.004a16.2 16.2 0 0 1 5.874-.81 18.073 18.073 0 0 0-6.215-.783c.74-1.776 3.786-7.02 10.913.589z" fill="#85BC22"/><path fill-rule="evenodd" clip-rule="evenodd" d="M42.527 22.182h1.83v1.83h-1.83v-1.83zM16.312 33.65l4.547-11.47h3.023l-6.987 16.464c-1.026 2.414-2.37 3.483-4.86 3.58a10.134 10.134 0 0 1-3.78-.67V39.25c2.36.691 2.668.772 3.51.756 1.15 0 2.123-.616 3.24-3.197L8.272 22.182h2.921l5.12 11.469zm19.822 8.574h-2.521v-5.33c-1.109.293-2.25.44-3.397.438-3.537 0-5.637-1.825-5.67-5.432v-4.363h2.511v4.466c0 2.192 1.08 3.148 3.16 3.148a13.26 13.26 0 0 0 3.396-.438v-7.176h2.521v14.687zm10.044 0c-4.709 0-6.988-3.089-6.988-7.392 0-3.78 2.436-7.284 6.663-7.284 5.27 0 6.27 3.85 6.27 8.035h-10.61a4.57 4.57 0 0 0 4.745 4.584 4.988 4.988 0 0 0 4.077-1.83l1.62 1.15c-1.296 1.825-3.222 2.737-5.777 2.737zm-.325-12.695c-2.456 0-3.974 1.928-4.254 4.072H49.8c0-2.198-1.485-4.071-3.948-4.071zm20.481.05H61.41v12.645H58.9V29.58h-4.86v-2.04h12.267v2.03l.027.01zm-19.357-7.382h1.83v1.83h-1.83v-1.83z" fill="#fff"/></svg>