<svg width="139" height="50" viewBox="0 0 139 50" fill="none" xmlns="http://www.w3.org/2000/svg"><path fill-rule="evenodd" clip-rule="evenodd" d="M97.959 21.777v20.087h-2.68V24.306h-9.234v17.558h-2.68V21.777H97.96zm21.019 17.407a10.394 10.394 0 0 1-11.368 2.286 10.399 10.399 0 0 1-6.414-9.66 10.394 10.394 0 0 1 2.963-7.512 10.404 10.404 0 0 1 11.48-2.318 10.415 10.415 0 0 1 5.644 5.774c.509 1.29.755 2.67.723 4.055a10.077 10.077 0 0 1-3.028 7.375zm-12.916-1.822a7.9 7.9 0 0 0 11.046 0 7.592 7.592 0 0 0 2.229-5.552 7.635 7.635 0 0 0-2.229-5.585 7.9 7.9 0 0 0-11.046 0 7.63 7.63 0 0 0-2.224 5.584 7.59 7.59 0 0 0 2.224 5.553zm26.706-7.707a6.102 6.102 0 0 1 5.764 3.772 6.138 6.138 0 0 1-1.332 6.695 6.118 6.118 0 0 1-4.427 1.742h-7.551V21.777h12.059v2.53h-9.385v5.359l4.872-.011zm0 9.7a3.604 3.604 0 0 0 3.602-3.601 3.603 3.603 0 0 0-3.602-3.602h-4.877v7.22l4.877-.017z" fill="#080200"/><path fill-rule="evenodd" clip-rule="evenodd" d="M4.175 14.284h69.881v31.331a4.175 4.175 0 0 1-4.175 4.175H4.175A4.175 4.175 0 0 1 0 45.615V18.459a4.175 4.175 0 0 1 4.175-4.175z" fill="#5BC5F2"/><path fill-rule="evenodd" clip-rule="evenodd" d="M82.738 10.5c1.405-1.865 2.08-5.08.987-10.44C69.93 2.204 72.888 9.66 74.206 11.99a47.697 47.697 0 0 1 7.139-8.639 52.635 52.635 0 0 0-4.748 8.42c1.86-2.144 4.04-2.257 6.141-1.27zm4.341 4.374c-6.045 6.817-9.287 3.044-10.493.996a16.076 16.076 0 0 1 5.83-.803 17.936 17.936 0 0 0-6.168-.777c.734-1.764 3.757-6.968 10.831.584z" fill="#85BC22"/><path fill-rule="evenodd" clip-rule="evenodd" d="M42.21 22.077h1.817v1.816H42.21v-1.816zM16.19 33.46l4.513-11.383h3.001l-6.935 16.34c-1.018 2.396-2.352 3.457-4.823 3.554a10.059 10.059 0 0 1-3.752-.665v-2.288c2.342.686 2.648.766 3.484.75 1.141 0 2.106-.611 3.216-3.173L8.21 22.077h2.9l5.08 11.383zm19.675 8.51h-2.503v-5.289c-1.1.29-2.233.436-3.371.434-3.51 0-5.595-1.811-5.627-5.391v-4.33h2.492v4.431c0 2.176 1.072 3.125 3.135 3.125 1.138.002 2.27-.144 3.371-.434v-7.123h2.503v14.578zm9.968 0c-4.673 0-6.935-3.065-6.935-7.336 0-3.752 2.417-7.23 6.614-7.23 5.23 0 6.222 3.821 6.222 7.975H41.203a4.532 4.532 0 0 0 4.71 4.55 4.953 4.953 0 0 0 4.047-1.817l1.608 1.142c-1.286 1.811-3.198 2.717-5.735 2.717zm-.321-12.6c-2.439 0-3.945 1.914-4.224 4.042h8.141c0-2.181-1.473-4.041-3.917-4.041zm20.328.049h-4.888v12.552H58.46V29.419h-4.823v-2.026h12.176v2.015l.027.011zm-19.214-7.326h1.817v1.817h-1.816v-1.817z" fill="#fff"/></svg>