<svg width="157" height="50" viewBox="0 0 157 50" fill="none" xmlns="http://www.w3.org/2000/svg"><path fill-rule="evenodd" clip-rule="evenodd" d="M95.853 41.925l-1.595-4.472h-8.997l-1.627 4.472h-2.808l7.445-19.935h2.988l7.445 19.935h-2.85zm-9.683-6.944h7.147l-3.59-9.822-3.557 9.822zm23.397-7.29l-4.099 11.166-4.871-11.167h-2.616l6.189 14.273-.229.531c-.818 2.032-2.1 2.982-3.844 2.85v2.303a5.375 5.375 0 0 0 3.759-1.122 8.081 8.081 0 0 0 2.563-3.69l5.807-15.123-2.659-.022zm16.091 11.879h1.962v6.179h-2.451v-3.824h-10.662v3.818h-2.451V39.57h1.739c.907-1.255 1.363-3.012 1.366-5.27v-6.61h10.508v11.88h-.011zm-9.04 0h6.61v-9.572h-5.615V34.3c.062 1.81-.28 3.61-1 5.27h.005zm24.036-11.88h1.994v14.235h-2.446v-9.991l-7.897 9.991h-1.994V27.69h2.451v9.981l7.886-9.997.006.016zm16.346 0v2.393h-4.839v11.842h-2.478V30.083h-4.871V27.69H157z" fill="#080200"/><path fill-rule="evenodd" clip-rule="evenodd" d="M4.142 14.561h69.336v31.087a4.142 4.142 0 0 1-4.143 4.142H4.142A4.142 4.142 0 0 1 0 45.648V18.704a4.142 4.142 0 0 1 4.142-4.143z" fill="#3B2483"/><path fill-rule="evenodd" clip-rule="evenodd" d="M82.092 10.807c1.393-1.85 2.063-5.04.978-10.358-13.687 2.127-10.751 9.523-9.443 11.836a47.325 47.325 0 0 1 7.083-8.571 52.23 52.23 0 0 0-4.712 8.353c1.845-2.127 4.01-2.238 6.094-1.26zm4.307 4.34c-5.998 6.763-9.215 3.02-10.412.988 1.864-.62 3.825-.89 5.786-.797a17.798 17.798 0 0 0-6.12-.771c.728-1.75 3.727-6.913 10.746.58z" fill="#85BC22"/><path fill-rule="evenodd" clip-rule="evenodd" d="M41.881 22.293h1.803v1.803H41.88v-1.803zM16.065 33.588l4.477-11.295h2.978l-6.881 16.213c-1.01 2.377-2.334 3.43-4.786 3.526a9.981 9.981 0 0 1-3.722-.66v-2.27c2.324.68 2.627.76 3.456.744 1.133 0 2.09-.606 3.19-3.148l-6.63-14.405h2.877l5.04 11.295zm19.52 8.444h-2.483v-5.248a13.056 13.056 0 0 1-3.345.43c-3.483 0-5.551-1.797-5.583-5.35v-4.296h2.473v4.398c0 2.159 1.063 3.1 3.11 3.1a13.051 13.051 0 0 0 3.345-.43v-7.068h2.483v14.464zm9.89 0c-4.636 0-6.88-3.042-6.88-7.28 0-3.722 2.398-7.173 6.562-7.173 5.19 0 6.174 3.791 6.174 7.912H40.88a4.499 4.499 0 0 0 4.675 4.515 4.914 4.914 0 0 0 4.014-1.803l1.596 1.133c-1.277 1.797-3.173 2.696-5.69 2.696zm-.318-12.502c-2.42 0-3.914 1.899-4.19 4.01h8.077c0-2.165-1.462-4.01-3.887-4.01zm20.17.048h-4.85v12.454h-2.473V29.578h-4.786v-2.01H65.3v2l.026.01zM46.262 22.31h1.803v1.803h-1.803v-1.803z" fill="#fff"/></svg>