<svg width="145" height="95" viewBox="0 0 145 95" fill="none" xmlns="http://www.w3.org/2000/svg"><path d="M12.214 50.04H.994v44.957h11.22v-10.06l.935-.944 7.17 11.004h12.778l-12.779-17.92L32.163 65.13H20.007l-7.793 7.86V50.04zM49.929 65.759h-10.91v29.237h10.91V65.76z" fill="#29ABDD"/><ellipse cx="44.63" cy="54.441" rx="6.234" ry="6.288" fill="#8AC53F"/><path d="M144.058 65.759h-10.909v29.237h10.909V65.76z" fill="#29ABDD"/><ellipse cx="138.76" cy="54.441" rx="6.234" ry="6.288" fill="#29ABDD"/><ellipse cx="98.24" cy="54.441" rx="6.234" ry="6.288" fill="#8AC53F"/><path d="M69.253 94.996L54.604 65.76h11.532l6.234 13.833 6.546-13.833h10.597l-14.96 29.237h-5.3z" fill="#8AC53F"/><path d="M108.526 94.996L93.876 65.76h11.533l6.234 13.833 6.545-13.833h10.598l-14.961 29.237h-5.299z" fill="#29ABDD"/><path d="M42.136 19.545C24.433 31.365 20.838 51.926 21.253 60.73h8.728c1.558-32.067 27.117-40.24 31.169-41.184 3.241-.754 18.39-3.877 25.558-5.344l-2.493 4.087c28.425 6.79 35.324 31.123 35.22 42.441h8.728c-.499-27.414-20.78-43.07-30.858-47.471 1.247-1.007 5.715-8.594 7.793-12.261-11.844 4.4-40.832 3.772-62.962 18.548z" fill="#8AC53F"/></svg>