<svg width="216" height="61" viewBox="0 0 216 61" fill="none" xmlns="http://www.w3.org/2000/svg"><path fill-rule="evenodd" clip-rule="evenodd" d="M140.37 25.655v24.658h2.492c1.634 0 2.88-.429 3.618-1.245 1.109-1.227 1.179-1.225 4.801.055 5.146 1.82 12.535 1.823 16.093.006 5.396-2.755 8.288-8.62 8.214-16.66-.046-5.103-1.942-11.326-4.173-13.704-3.846-4.097-12.091-5.348-19.069-2.893l-3.549 1.249V.996h-8.427v24.659zM.994 32.468v17.845H9.42v-27.32l2.205-.923c3.425-1.431 7.297-1.856 9.312-1.02 3.338 1.383 3.672 2.657 3.924 14.987.213 10.434.342 11.475 1.584 12.816 1.009 1.089 2.08 1.46 4.213 1.46h2.861l-.219-13.465c-.204-12.592-.318-13.666-1.745-16.568-2.01-4.086-4.983-5.657-10.707-5.657-2.335 0-5.988.563-8.274 1.275-4.067 1.267-4.1 1.267-5.447 0-.841-.791-2.262-1.275-3.745-1.275H.993v17.845zm46.103-16.402c-3.06 1.485-6.081 5.49-7.212 9.566-.98 3.531-.767 11.296.406 14.763 1.446 4.272 4.259 7.615 7.538 8.957 3.798 1.555 10.805 1.463 15.517-.203 3.62-1.28 3.705-1.282 4.8-.07.728.805 1.983 1.234 3.608 1.234h2.493v-35.69h-2.39c-1.499 0-2.904.485-3.774 1.303L66.7 17.229l-3.783-1.303c-5.16-1.777-11.991-1.717-15.82.14zm141.568-.216c-3.295 1.522-5.078 3.475-6.885 7.541-1.727 3.887-2.038 11.913-.646 16.708 1.135 3.913 5.177 8.571 8.357 9.632 3.368 1.124 9.45.954 14.259-.4 3.767-1.06 4.15-1.065 5.237-.08.693.627 2.283 1.062 3.887 1.062h2.715l-.173-17.683-.172-17.682-2.373-.198c-1.721-.143-2.706.16-3.59 1.11-1.215 1.306-1.224 1.306-5.302.036-5.255-1.637-11.827-1.657-15.314-.046zm-125.05 5.999l1.88.901.179 9.819.179 9.819-2.083.727c-3.887 1.356-8.51 1.568-11.046.507-3.54-1.48-4.705-4.154-4.72-10.83-.02-9.509 2.51-12.648 9.776-12.128 2.174.156 4.8.69 5.834 1.185zm100.083.447c2.158 1.6 3.17 4.704 3.21 9.848.064 8.216-1.94 11.438-7.53 12.1-2.132.254-4.491.018-6.924-.69l-3.691-1.074.179-9.872.179-9.873 3.242-1.144c3.903-1.378 8.949-1.064 11.335.705zm41.012-.35l2.431 1.047v9.363c0 6.7-.231 9.553-.811 10.033-.445.37-2.643 1.05-4.884 1.512-7.461 1.54-11.836-1.436-12.724-8.657-.817-6.644 1.301-12.508 5.129-14.197 1.878-.828 8.031-.319 10.859.9z" fill="#0085FE"/><path fill-rule="evenodd" clip-rule="evenodd" d="M81.436 8.207c-1.101 2.06-.835 5.748.621 8.606 1.235 2.423 1.32 3.654 1.226 17.656l-.102 15.052 3.96.194 3.96.192V23.823l2.249-.94c3.59-1.5 6.511-1.222 8.077.77.739.94 1.344 2.544 1.344 3.564v1.855l3.003-2.295c4.304-3.289 6.42-4.248 10.233-4.642 2.943-.304 3.605-.142 5.275 1.295l1.909 1.643.212 12.386.213 12.387h3.859c2.491 0 3.969-.288 4.169-.811.171-.446.075-6.506-.212-13.465-.62-15.052-1.196-16.914-5.869-18.983-3.442-1.524-7.737-1.249-13.355.855l-3.554 1.332-2.017-1.494c-1.832-1.355-2.711-1.493-9.587-1.5-9.17-.008-11.143-.852-13.434-5.746-1.353-2.89-1.53-3.04-2.18-1.827zm15.473 29.36c-1.157 2.166-.373 3.218 1.91 2.563 1.073-.308 2.547-.404 3.275-.213.994.26 1.325.036 1.325-.897 0-1.827-1.278-2.801-3.673-2.801-1.479 0-2.333.405-2.837 1.348zm15.53-.11l-1.565 1.296 2.342-.364c1.298-.202 2.981-.022 3.777.404 1.331.713 1.382.672.714-.578-.396-.741-.978-1.347-1.293-1.347-.315 0-.986-.16-1.491-.353-.505-.194-1.623.23-2.484.943zm3.008 7.81c-4.598 4.674-10.098 7.45-14.783 7.466-2.05.006-3.728.118-3.728.248s.476 1.24 1.057 2.467c1.463 3.085 5.63 5.43 9.654 5.43 2.903 0 3.368-.236 6.142-3.117 2.291-2.38 3.245-4.03 4.036-6.976 1.451-5.408 1.953-8.726 1.319-8.726-.297 0-1.961 1.444-3.697 3.209zm-7.077 9.445c-.48 1.255.061 1.24 1.334-.034 1.377-1.378 3.763-.962 3.763.658 0 1.607-3.825 4.243-6.158 4.243-2.266 0-5.835-1.248-5.835-2.04 0-.486 6.087-3.767 7.038-3.793.127-.004.064.431-.142.966z" fill="#F60B5F"/></svg>