<svg width="212" height="64" viewBox="0 0 212 64" fill="none" xmlns="http://www.w3.org/2000/svg"><path fill-rule="evenodd" clip-rule="evenodd" d="M83.216.327c3.526.697 6.224 2.503 7.64 5.113 1.185 2.187 2.03 6.16 1.314 6.177-.162.004-2.259.151-4.659.327-2.4.176-4.425.252-4.5.168-.076-.084-.27-.624-.432-1.2-.703-2.503-2.002-3.493-4.58-3.493-1.307 0-1.646.09-2.257.597-1.54 1.28-1.357 3.386.37 4.252.496.249 1.752.68 2.79.96 7.982 2.145 11.676 4.25 13.42 7.648 2.496 4.863 1.27 11.877-2.712 15.516-2.925 2.673-5.798 3.5-11.61 3.342-3.355-.091-4.038-.179-5.649-.725-2.266-.769-3.281-1.393-4.694-2.89-1.812-1.917-3.276-5.311-3.632-8.423-.148-1.287-.122-1.417.28-1.422.244-.002 2.4-.157 4.792-.344 2.392-.187 4.406-.284 4.476-.215.07.07.258.757.417 1.529.609 2.943 2.29 4.632 4.79 4.81 1.724.124 2.777-.216 3.754-1.21.912-.93 1.278-2.24.957-3.428-.516-1.913-1.756-2.7-6.359-4.033-7.304-2.117-10.909-5.072-11.792-9.668-1.253-6.525 2.683-12.223 9.258-13.4 2.376-.425 6.436-.42 8.618.012zM23.64 2.247c3.667 1.782 5.652 5.952 4.929 10.352-.465 2.828-1.709 4.805-3.872 6.155l-.896.56 1.644.812c.905.447 1.971 1.178 2.37 1.626 3.432 3.86 3.122 11.357-.627 15.118-2.564 2.573-4.608 2.912-17.576 2.913L0 39.784V1.347l11.033.067 11.033.067 1.574.765zm183.174 6.386l.067 2.495 2.41.066 2.41.067.065 4.016.064 4.017h-4.964v5.937c0 5.627.024 5.962.471 6.403.564.557 1.668.604 3.029.13l.965-.336.121.744c.209 1.287.634 6.728.533 6.828-.313.308-4.12.784-6.277.784-3.104 0-4.581-.39-5.762-1.522-2.041-1.957-2.3-3.219-2.449-11.925l-.121-7.043h-4.899v-8.15h4.954V6.012l4.658.063 4.659.063.066 2.495zM10.379 12.774v3.493h2.89c2.277-.001 3.063-.087 3.714-.408 2.203-1.086 2.203-5.083 0-6.17-.65-.32-1.437-.407-3.715-.407h-2.89v3.492zm40.449-1.743c2.346.49 4.035 1.384 5.687 3.008 2.55 2.507 3.792 5.93 4.043 11.134l.132 2.736H42.437l.148.873c.24 1.405 1.33 3.385 2.167 3.932 1.785 1.165 3.77.884 5.394-.764l1.035-1.052 3.6.372c1.98.204 3.998.432 4.486.505l.887.134-.745 1.38c-1.717 3.18-4.67 5.472-7.924 6.153-1.907.399-7.072.449-8.838.085-3.34-.688-6.224-3.015-7.837-6.325-1.242-2.55-1.627-4.445-1.62-7.97.011-5.012 1.186-8.208 4.073-11.078 1.623-1.613 3.217-2.525 5.431-3.105 1.706-.447 6.037-.457 8.134-.018zm109.807.306c3.583 1.142 5.291 3.538 5.891 8.266.132 1.04.242 5.194.244 9.231.004 6.543.055 7.531.468 9.087.255.96.465 1.773.468 1.805.002.032-1.955.058-4.349.058h-4.353l-.252-.873a17.316 17.316 0 0 1-.396-1.857l-.144-.983-1.195 1.06c-2.34 2.077-4.454 2.744-8.264 2.607-3.277-.118-4.6-.625-6.228-2.387-1.761-1.905-2.439-4.435-1.951-7.287.502-2.942 2.09-4.824 4.987-5.91.621-.234 2.848-.85 4.949-1.372 2.101-.522 4.548-1.228 5.438-1.57 1.775-.682 1.928-.974 1.358-2.59-.345-.974-1.288-1.425-2.971-1.419-2.031.008-3.175.604-3.849 2.006a35.144 35.144 0 0 1-.591 1.198c-.054.073-8.095-.87-8.527-1.002-.402-.121.245-2.687 1.042-4.132.751-1.363 2.373-2.852 3.791-3.48 1.962-.87 3.909-1.103 8.535-1.021 3.644.064 4.618.157 5.899.565zm-43.395.531c1.257.534 2.606 1.84 3.224 3.12l.385.795 1.389-1.496c2.453-2.643 5.609-3.647 8.873-2.822 2.804.71 4.458 2.358 5.519 5.5.488 1.447.515 1.985.598 12.166l.087 10.653h-9.202l-.074-8.79c-.065-7.633-.126-8.882-.463-9.489-.652-1.171-1.331-1.63-2.418-1.63-1.31 0-2.194.61-2.818 1.941-.486 1.04-.512 1.457-.583 9.527l-.075 8.441h-9.168l-.001-8.44c-.001-5.368-.095-8.774-.258-9.354-.142-.502-.571-1.223-.954-1.601-.624-.616-.81-.675-1.797-.565-.872.097-1.259.292-1.859.938-.417.449-.871 1.219-1.009 1.712-.157.555-.253 4.003-.253 9.102l-.002 8.208H96.946V11.843h8.728v3.691l1.356-1.405c1.429-1.48 2.997-2.415 4.624-2.758 1.491-.313 4.257-.067 5.586.497zm72.171 3.35v4.076h-2.785c-2.677 0-2.826.026-3.881.686-2.289 1.434-2.741 3.42-2.931 12.877l-.139 6.927h-9.135V11.843h8.728v3.81l.916-1.496c.504-.823 1.185-1.694 1.514-1.936.944-.696 2.681-1.044 5.295-1.061l2.418-.016v4.075zm-144.25 2.4c-1.308.813-2.17 2.025-2.555 3.597l-.157.64h8.737l-.005-.524c-.009-.843-.814-2.323-1.733-3.186-.73-.686-1.046-.813-2.21-.887-1.041-.066-1.528.019-2.077.36zM10.379 27.693v3.742l3.479-.075c3.889-.084 4.534-.27 5.416-1.564.724-1.062.756-3.234.064-4.34-.764-1.218-1.843-1.505-5.662-1.505H10.38v3.742zm143.886-.39c-1.492.534-2.988 1.152-3.325 1.373-1.667 1.098-1.511 4.098.25 4.818 1.874.766 4.537-.329 5.655-2.326.696-1.243 1.041-4.911.457-4.861-.179.015-1.545.464-3.037.997zM47.883 47.644c1.251.617 1.65 1.632 1.651 4.19v2.155H44.56l.07 1.431c.06 1.222.159 1.497.673 1.874.841.619 1.826.25 2.03-.759.12-.594.234-.697.644-.589.273.073.75.133 1.059.135.513.003.55.076.423.843-.076.462-.31 1.1-.52 1.416-.81 1.22-3.178 1.603-4.816.778-1.46-.735-1.725-1.735-1.627-6.134.072-3.22.135-3.692.57-4.276.649-.873 1.89-1.471 3.05-1.471.518 0 1.314.183 1.768.407zm22.873 0c1.53.762 1.777 1.549 1.774 5.646-.002 3.082-.068 3.741-.454 4.512-1.135 2.272-5.071 2.361-6.376.145-.426-.724-.48-1.216-.479-4.424 0-3.184.058-3.716.484-4.52.871-1.64 3.216-2.272 5.05-1.359zm-68.427.698c.123.48.569 2.34.99 4.133l.765 3.26.782-3.61c.43-1.984.84-3.844.911-4.132.11-.447.285-.524 1.186-.524.581 0 1.057.049 1.057.108 0 .539-3.606 14.482-3.882 15.007-.5.954-1.252 1.417-2.304 1.417-.882 0-.89-.01-.89-.931 0-.836.06-.932.583-.932.4 0 .689-.202.915-.64.74-1.43.688-1.89-.9-7.87C.694 50.433 0 47.74 0 47.644c0-.097.474-.176 1.052-.176 1.02 0 1.06.028 1.277.873zm10.26 2.095l1.508 2.969 1.498-2.969 1.498-2.968h2.013v11.875h-2.123l-.012-3.667-.012-3.668-1.17 2.27c-.988 1.919-1.257 2.271-1.734 2.271-.476 0-.753-.359-1.759-2.27l-1.193-2.27-.008 3.667-.009 3.667H8.963V47.468h2.12l1.507 2.968zm10.763-.523v2.445h2.831v-4.89h2.359v11.875h-2.36v-5.122h-2.83v5.122h-2.123V47.468h2.123v2.445zm9.2-.233v2.212h1.129c1.44 0 3.12.811 3.555 1.716.451.938.402 3.52-.08 4.247-.782 1.177-1.678 1.486-4.31 1.487l-2.418.001V47.468h2.123v2.212zm8.02 3.726v5.937h-2.124V47.468h2.123v5.938zm22.88 0v5.937h-2.124V49.331h-3.066v10.012H56.14V47.468h7.312v5.938zm12.501-3.377c0 2.559 0 2.562.574 2.562 1.608 0 2.136-.636 2.857-3.435l.434-1.688h1.016c.559 0 1.016.051 1.016.114s-.225.927-.5 1.92c-.55 1.996-1.041 3.073-1.574 3.459-.308.222-.305.27.023.395.55.208 1.039 1.278 1.7 3.71a93.32 93.32 0 0 1 .586 2.219c0 .032-.46.058-1.025.058h-1.026l-.53-1.98c-.657-2.455-.986-2.869-2.43-3.059l-1.121-.147v5.186h-2.122V47.468h2.122v2.561zm8.889-1.048c.172.769.597 2.602.942 4.075l.628 2.678.434-1.98c.239-1.088.654-2.948.923-4.132l.488-2.154H89.3c.574 0 1.043.107 1.043.239 0 .588-3.592 14.323-3.9 14.91-.482.92-1.246 1.383-2.286 1.383-.882 0-.89-.01-.89-.931 0-.826.063-.932.56-.932.72 0 .992-.339 1.33-1.663.258-1.011.181-1.423-1.28-6.909-.855-3.208-1.554-5.898-1.554-5.978 0-.08.496-.113 1.103-.074l1.103.071.314 1.397zm13.755 4.425v5.937h-2.123V49.331h-2.83v10.012H91.52V47.468h7.076v5.938zm4.01-3.377v2.562h.579c1.51 0 1.945-.578 2.851-3.784l.378-1.339h2.045l-.544 1.95c-.571 2.05-.888 2.79-1.483 3.464-.22.248-.256.407-.094.407.414 0 .997 1.3 1.701 3.793l.645 2.284-1.071-.07-1.072-.07-.519-1.94c-.597-2.232-1.019-2.751-2.413-2.969l-1.003-.156v5.182h-2.123V47.468h2.123v2.561zm9.253 1.055l.064 3.616 1.63-3.616 1.63-3.616h2.048v11.875H115.121l-.065-3.486-.065-3.486-1.549 3.428-1.549 3.428-1.105.07-1.104.072V47.468H111.795l.065 3.616zm-43.625-1.747c-.734.29-.892 1.078-.892 4.468 0 3.139.1 3.446 1.216 3.775.35.103.708-.02 1.15-.396.598-.507.653-.706.762-2.776.13-2.449-.044-4.122-.484-4.673-.384-.482-1.116-.648-1.752-.398zm-23.287.511c-.202.285-.367.966-.367 1.514v.996h2.831V51.21c0-.733-.134-1.28-.37-1.513-.551-.543-1.658-.463-2.094.151zm-12.397 5.77c0 1.8.019 1.862.555 1.862 1.169 0 2.03-.48 2.231-1.245.306-1.167.072-1.794-.806-2.156-.432-.178-1.054-.324-1.383-.324-.589 0-.597.024-.597 1.863z" fill="#00A1D8"/></svg>