<svg width="907" height="902" viewBox="0 0 907 902" fill="none" xmlns="http://www.w3.org/2000/svg"><path fill-rule="evenodd" clip-rule="evenodd" d="M1148.74 880H396.261L54.168 287.227a595.123 595.123 0 0 0 15.02-26.102l16.178-.062 8.783-.086 8.34-.127c1.223 1.956 2.467 3.9 3.723 5.833a571.79 571.79 0 0 1 1.747 2.713c1.002 1.561 2.003 3.123 3.032 4.665.562.844 1.12 1.691 1.678 2.539 1.054 1.6 2.109 3.202 3.196 4.783a322.198 322.198 0 0 0 5.008 7.245 529.736 529.736 0 0 0-3.381-7.182l-.404-.847a250.672 250.672 0 0 0-2.339-4.738c-.527-1.048-1.054-2.096-1.57-3.147-1.156-2.356-2.367-4.69-3.576-7.02l-.419-.808-.638-1.233c-.905-1.749-1.81-3.498-2.736-5.234l1.977-3.538 1.97-3.157 4.56-7.503 4.54-7.512 3.606-6.164 7.175.047h8.784l8.774-.086 7.344-.152 3.762 6.192 4.645 7.456c1.539 2.485 3.126 4.951 4.712 7.417.407.632.812 1.264 1.216 1.897 1.057 1.651 2.113 3.302 3.2 4.936l-.491.979a333.101 333.101 0 0 0-3.045 6.171 273.61 273.61 0 0 0-3.766 7.942 330.863 330.863 0 0 0 3.636-5.246c.453-.663.907-1.326 1.363-1.989a310.299 310.299 0 0 0 3.258-4.87c.537-.815 1.075-1.629 1.616-2.442l.354-.545-.354-.726a303.904 303.904 0 0 0-2.752-5.402c-.418-.807-.837-1.615-1.252-2.426a471.51 471.51 0 0 0-4.072-7.79l-4.139-7.751-3.632-6.589c.775-1.436 1.552-2.869 2.33-4.302 1.774-3.27 3.548-6.539 5.279-9.831l4.09-7.77c.901-1.695 1.773-3.403 2.646-5.111.461-.903.922-1.806 1.388-2.708l.315-.592-.315-.488c-1.29-2.042-2.62-4.064-3.95-6.088l-.829-1.262a471.252 471.252 0 0 0-4.903-7.293 296.247 296.247 0 0 0 3.823 7.895l.001.003c1.208 2.415 2.415 4.83 3.653 7.222a414.748 414.748 0 0 0-4.467 6.921l-4.683 7.436a843.015 843.015 0 0 0-5.771 9.317l-.02.031c-.875 1.426-1.75 2.853-2.629 4.277l-7.561-.148-8.774-.086h-1.593c-2.389-.058-4.78-.058-7.176-.058h-.005l-7.118-.046-3.568-6.233-4.425-7.58-4.435-7.579a569.228 569.228 0 0 0-3.702-6.268l3.491-6.263.682-1.214.036-.063v-.001a337.877 337.877 0 0 0 3.517-6.368c1.04-1.938 2.09-3.87 3.14-5.802 1.582-2.911 3.164-5.822 4.712-8.749l7.67-.292 8.783-.411a447.55 447.55 0 0 0 5.787-.316c.995-.058 1.99-.117 2.988-.172 2.934-.162 5.859-.373 8.783-.592-1.33-.1-2.657-.24-3.985-.379h-.002c-1.592-.168-3.183-.335-4.777-.434-2.925-.181-5.85-.353-8.774-.487l-8.784-.411-8.774-.335h-.956l-.602.956c-1.932 3.06-3.823 6.145-5.715 9.231l-.005.009c-1.168 1.904-2.336 3.809-3.513 5.709-.95 1.533-1.878 3.082-2.807 4.631l-.001.003-.003.005c-.574.958-1.149 1.917-1.729 2.873l-4.362 7.282-1.214-.043c-1.944-.07-3.886-.14-5.827-.184l-8.784-.23c-.923-.021-1.847-.048-2.77-.074-2.002-.059-4.003-.117-6.004-.117l-7.24-.118c-2.608-4.673-5.239-9.345-7.89-14.018l-4.359-7.646-.29-.512-.565-.993-.006-.013-.023-.04a759.12 759.12 0 0 0-1.837-3.224l16.95-29.373 5.27-.092 8.774-.229 8.783-.239 7.907-.284a787.733 787.733 0 0 0 5.642 8.883l.004.007.012.018.012.019c.747 1.164 1.492 2.326 2.232 3.486 2.801 4.387 5.659 8.774 8.602 13.104-2.265-4.712-4.578-9.472-6.986-14.107-.657-1.264-1.311-2.529-1.966-3.795v-.001l-.006-.011c-1.745-3.375-3.491-6.753-5.283-10.1l-.411-.774h-.956l-8.783-.316-8.784-.239-8.774-.229-2.437-.042L396.261-424h752.479L1525 228.022 1148.74 880zM117.689 227.761l-3.64-6.269-4.349-7.646-4.349-7.646a768.601 768.601 0 0 1-3.934-6.987 531.65 531.65 0 0 1-7.23.23l-8.783.23c-.955.021-1.91.046-2.864.071l-.055.002c-1.951.051-3.903.102-5.855.127l-8.26.126-.208.392-.214.403-.31.585c-.822 1.553-1.644 3.106-2.487 4.649l-4.196 7.714-4.206 7.703-3.527 6.314 3.757 6.293c1.005 1.667 1.985 3.351 2.965 5.035l.002.004.001.002c.491.844.982 1.688 1.476 2.529l8.026 13.732 15.907.06 8.784.086 7.332.112 3.717-6.219 4.569-7.503.11-.18 4.229-7.62 3.592-6.329zm-53.085 30.655a588.982 588.982 0 0 0-13.6 23.327L20 228.022l31.113-53.915c.366.63.732 1.26 1.096 1.891l4.425 7.579c2.86 4.888 5.75 9.757 8.67 14.609l-.605.964-.07.111-.003.006-.002.003c-.99 1.577-1.978 3.152-2.943 4.742l-4.578 7.483-4.569 7.503-4.511 7.532-.736 1.243.736 1.338 4.272 7.646c.985 1.79 1.998 3.562 3.01 5.332l.008.015.002.003c.438.765.875 1.53 1.31 2.297l7.979 14.012z" fill="#FFED00" filter="url(#a)"/><circle cx="727" cy="630" r="196" fill="url(#b)"/><path d="M647 804v44l38.089 22 38.089-22v-44l-38.089-22L647 804zM563 804v44l38.089 22 38.089-22v-44l-38.089-22L563 804zM479 804v44l38.089 22 38.089-22v-44l-38.089-22L479 804zM731 804v44l38.089 22 38.089-22v-44l-38.089-22L731 804zM899 804v44l38.089 22 38.089-22v-44l-38.089-22L899 804zM815 804v44l38.089 22 38.089-22v-44l-38.089-22L815 804zM689 730v44l38.089 22 38.089-22v-44l-38.089-22L689 730zM605 730v44l38.089 22 38.089-22v-44l-38.089-22L605 730zM521 730v44l38.089 22 38.089-22v-44l-38.089-22L521 730zM437 730v44l38.089 22 38.089-22v-44l-38.089-22L437 730zM773 730v44l38.089 22 38.089-22v-44l-38.089-22L773 730zM857 730v44l38.089 22 38.089-22v-44l-38.089-22L857 730zM647 657v44l38.089 22 38.089-22v-44l-38.089-22L647 657zM563 657v44l38.089 22 38.089-22v-44l-38.089-22L563 657zM479 657v44l38.089 22 38.089-22v-44l-38.089-22L479 657zM731 657v44l38.089 22 38.089-22v-44l-38.089-22L731 657zM899 657v44l38.089 22 38.089-22v-44l-38.089-22L899 657zM815 657v44l38.089 22 38.089-22v-44l-38.089-22L815 657zM689 583v44l38.089 22 38.089-22v-44l-38.089-22L689 583zM605 583v44l38.089 22 38.089-22v-44l-38.089-22L605 583zM521 583v44l38.089 22 38.089-22v-44l-38.089-22L521 583zM437 583v44l38.089 22 38.089-22v-44l-38.089-22L437 583zM773 583v44l38.089 22 38.089-22v-44l-38.089-22L773 583zM857 583v44l38.089 22 38.089-22v-44l-38.089-22L857 583zM647 510v44l38.089 22 38.089-22v-44l-38.089-22L647 510zM563 510v44l38.089 22 38.089-22v-44l-38.089-22L563 510zM479 510v44l38.089 22 38.089-22v-44l-38.089-22L479 510zM731 510v44l38.089 22 38.089-22v-44l-38.089-22L731 510zM899 510v44l38.089 22 38.089-22v-44l-38.089-22L899 510zM815 510v44l38.089 22 38.089-22v-44l-38.089-22L815 510zM689 436v44l38.089 22 38.089-22v-44l-38.089-22L689 436zM605 436v44l38.089 22 38.089-22v-44l-38.089-22L605 436zM521 436v44l38.089 22 38.089-22v-44l-38.089-22L521 436zM437 436v44l38.089 22 38.089-22v-44l-38.089-22L437 436zM773 436v44l38.089 22 38.089-22v-44l-38.089-22L773 436zM857 436v44l38.089 22 38.089-22v-44l-38.089-22L857 436z" fill="#FEEB19"/><defs><filter id="a" x="0" y="-442" width="1545" height="1344" filterUnits="userSpaceOnUse" color-interpolation-filters="sRGB"><feFlood flood-opacity="0" result="BackgroundImageFix"/><feColorMatrix in="SourceAlpha" values="0 0 0 0 0 0 0 0 0 0 0 0 0 0 0 0 0 0 127 0"/><feOffset dy="2"/><feGaussianBlur stdDeviation="10"/><feColorMatrix values="0 0 0 0 0 0 0 0 0 0 0 0 0 0 0 0 0 0 0.1 0"/><feBlend in2="BackgroundImageFix" result="effect1_dropShadow"/><feBlend in="SourceGraphic" in2="effect1_dropShadow" result="shape"/></filter><radialGradient id="b" cx="0" cy="0" r="1" gradientUnits="userSpaceOnUse" gradientTransform="matrix(0 196 -196 0 727 630)"><stop stop-color="#fff"/><stop offset="1" stop-color="#fff" stop-opacity="0"/></radialGradient></defs></svg>