<svg width="861" height="889" viewBox="0 0 861 889" fill="none" xmlns="http://www.w3.org/2000/svg"><path fill-rule="evenodd" clip-rule="evenodd" d="M591.058 858.999l-714.804.001L-363 444.514-123.746 30h714.804l206.269 357.367a577.602 577.602 0 0 0-14.712 25.55l-15.684.06-8.517.083-8.086.123a395.119 395.119 0 0 0-3.609-5.655 514.07 514.07 0 0 1-1.697-2.635 306.322 306.322 0 0 0-2.937-4.519 523.433 523.433 0 0 1-1.627-2.461 279.092 279.092 0 0 0-3.099-4.638 311.523 311.523 0 0 0-4.856-7.025c1.06 2.312 2.181 4.662 3.28 6.968l.39.817a244.49 244.49 0 0 0 2.268 4.594 346.532 346.532 0 0 1 1.522 3.051c1.12 2.282 2.292 4.542 3.463 6.799l.411.791.625 1.208a450.02 450.02 0 0 0 2.647 5.062l-1.913 3.424-1.915 3.067-4.421 7.275-4.402 7.284-3.497 5.977-6.956-.046h-8.517l-8.507.084-7.121.147-3.648-6.004-4.504-7.229a490.56 490.56 0 0 0-4.569-7.191 950.32 950.32 0 0 1-1.182-1.845c-1.023-1.599-2.046-3.198-3.099-4.781l.481-.958c.996-1.984 1.992-3.968 2.948-5.974a267.37 267.37 0 0 0 3.651-7.701c-1.197 1.681-2.36 3.383-3.525 5.086-.44.643-.88 1.286-1.322 1.929-1.075 1.563-2.117 3.143-3.159 4.722-.521.79-1.042 1.58-1.567 2.368l-.343.528.343.704a285.316 285.316 0 0 0 2.667 5.234c.406.784.812 1.569 1.216 2.356a443.252 443.252 0 0 0 3.948 7.553l4.012 7.516 3.522 6.388c-.751 1.392-1.505 2.782-2.259 4.172-1.72 3.17-3.44 6.339-5.118 9.531l-3.966 7.534a339.563 339.563 0 0 0-2.559 4.943l-.004.008c-.448.877-.896 1.754-1.348 2.63l-.306.575.306.472c1.249 1.978 2.537 3.937 3.826 5.898l.105.161.702 1.068a447.647 447.647 0 0 0 4.755 7.071 293.786 293.786 0 0 0-3.707-7.655c-1.172-2.342-2.343-4.685-3.543-7.005a400.011 400.011 0 0 0 4.33-6.711l4.541-7.209c1.892-2.997 3.744-6.016 5.597-9.035.854-1.393 1.709-2.785 2.567-4.176l7.332.144 8.507.083h1.547c2.317.056 4.634.056 6.957.056h.003l6.901.045 3.46 6.043 4.291 7.349 4.3 7.349c1.183 2.034 2.38 4.06 3.589 6.077l-3.386 6.073-.456.813-.242.431a325.56 325.56 0 0 0-3.407 6.169 1266.13 1266.13 0 0 1-3.045 5.625l-.003.007c-1.533 2.821-3.066 5.641-4.566 8.477l-7.436.284-8.517.398c-1.872.086-3.741.196-5.614.306-.963.056-1.927.113-2.893.167-2.845.157-5.681.361-8.517.574 1.29.097 2.578.232 3.865.368 1.544.162 3.087.324 4.634.42 2.835.176 5.671.343 8.507.473l8.516.398 8.508.324h.927l.583-.926a795.982 795.982 0 0 0 5.536-8.942l.006-.01c1.134-1.849 2.267-3.698 3.411-5.542.921-1.489 1.821-2.991 2.722-4.494l.003-.005c.557-.929 1.114-1.859 1.677-2.785l4.229-7.061 1.172.042h.009c1.884.068 3.765.135 5.646.178l8.517.223c.895.02 1.791.046 2.687.073 1.94.056 3.88.112 5.82.112l7.019.115c2.53 4.53 5.08 9.061 7.651 13.592l4.226 7.413.418.735.408.719c.555.979 1.108 1.954 1.665 2.926l-16.591 28.741-4.805.084-8.508.223-8.516.231-7.667.275a774.566 774.566 0 0 0-5.46-8.597l-.008-.012c-.733-1.144-1.466-2.286-2.193-3.426a527.06 527.06 0 0 0-8.341-12.705c2.196 4.568 4.439 9.183 6.774 13.678l1.225 2.363.655 1.267.031.061a784.134 784.134 0 0 0 5.123 9.793l.399.751h.926l8.517.305 8.517.232 8.507.223 2.065.035-186.408 322.936zm144.533-413.733l3.528 6.078 4.217 7.414 4.216 7.414a722.58 722.58 0 0 1 3.815 6.774c2.34-.085 4.675-.17 7.01-.223l8.517-.223 1.251-.03 1.585-.041h.006c1.888-.049 3.777-.099 5.665-.123l8.009-.122.708-1.337a397.315 397.315 0 0 1 2.413-4.509l4.069-7.479 4.077-7.469 3.421-6.122-3.643-6.102a355.574 355.574 0 0 1-2.879-4.888c-.476-.818-.951-1.636-1.43-2.452l-7.782-13.313-15.424-.059-8.516-.084-7.109-.108-3.604 6.03-4.43 7.275-.093.149-.019.034-4.096 7.38-3.482 6.136zm51.471-29.724a571.073 571.073 0 0 0 13.326-22.87l29.923 51.841-30.317 52.522c-.306-.527-.611-1.053-.915-1.58l-4.291-7.349c-2.772-4.739-5.574-9.46-8.405-14.164l.656-1.046c.96-1.53 1.919-3.059 2.856-4.603l4.439-7.256 4.43-7.275 4.374-7.302.714-1.205-.714-1.298-4.142-7.414a370.233 370.233 0 0 0-2.913-5.159l-.007-.012-.002-.005-.003-.005c-.425-.744-.851-1.488-1.273-2.232l-7.736-13.588z" fill="#77B3D1" filter="url(#a)"/><circle cx="285.007" cy="308" r="196" fill="url(#b)"/><path d="M205.007 482v44l38.089 22 38.089-22v-44l-38.089-22-38.089 22zM289.007 482v44l38.089 22 38.089-22v-44l-38.089-22-38.089 22zM247.007 408v44l38.089 22 38.089-22v-44l-38.089-22-38.089 22zM163.007 408v44l38.089 22 38.089-22v-44l-38.089-22-38.089 22zM79.007 408v44l38.089 22 38.089-22v-44l-38.089-22-38.089 22zM331.007 408v44l38.089 22 38.089-22v-44l-38.089-22-38.089 22zM415.007 408v44l38.089 22 38.089-22v-44l-38.089-22-38.089 22zM205.007 335v44l38.089 22 38.089-22v-44l-38.089-22-38.089 22zM121.007 335v44l38.089 22 38.089-22v-44l-38.089-22-38.089 22zM37.007 335v44l38.09 22 38.088-22v-44l-38.089-22-38.089 22zM289.007 335v44l38.089 22 38.089-22v-44l-38.089-22-38.089 22zM457.007 335v44l38.089 22 38.089-22v-44l-38.089-22-38.089 22zM373.007 335v44l38.089 22 38.089-22v-44l-38.089-22-38.089 22zM247.007 261v44l38.089 22 38.089-22v-44l-38.089-22-38.089 22zM163.007 261v44l38.089 22 38.089-22v-44l-38.089-22-38.089 22zM79.007 261v44l38.089 22 38.089-22v-44l-38.089-22-38.089 22zM331.007 261v44l38.089 22 38.089-22v-44l-38.089-22-38.089 22zM415.007 261v44l38.089 22 38.089-22v-44l-38.089-22-38.089 22zM205.007 188v44l38.089 22 38.089-22v-44l-38.089-22-38.089 22zM121.007 188v44l38.089 22 38.089-22v-44l-38.089-22-38.089 22zM37.007 188v44l38.09 22 38.088-22v-44l-38.089-22-38.089 22zM289.007 188v44l38.089 22 38.089-22v-44l-38.089-22-38.089 22zM373.007 188v44l38.089 22 38.089-22v-44l-38.089-22-38.089 22zM247.007 114v44l38.089 22 38.089-22v-44l-38.089-22-38.089 22zM163.007 114v44l38.089 22 38.089-22v-44l-38.089-22-38.089 22zM79.007 114v44l38.089 22 38.089-22v-44l-38.089-22-38.089 22zM331.007 114v44l38.089 22 38.089-22v-44l-38.089-22-38.089 22z" fill="#77B3D1"/><defs><filter id="a" x="-393" y="0" width="1253.31" height="889" filterUnits="userSpaceOnUse" color-interpolation-filters="sRGB"><feFlood flood-opacity="0" result="BackgroundImageFix"/><feColorMatrix in="SourceAlpha" values="0 0 0 0 0 0 0 0 0 0 0 0 0 0 0 0 0 0 127 0"/><feOffset/><feGaussianBlur stdDeviation="15"/><feColorMatrix values="0 0 0 0 0 0 0 0 0 0 0 0 0 0 0 0 0 0 0.25 0"/><feBlend in2="BackgroundImageFix" result="effect1_dropShadow"/><feBlend in="SourceGraphic" in2="effect1_dropShadow" result="shape"/></filter><radialGradient id="b" cx="0" cy="0" r="1" gradientUnits="userSpaceOnUse" gradientTransform="matrix(0 196 -196 0 285.007 308)"><stop stop-color="#fff"/><stop offset="1" stop-color="#fff" stop-opacity="0"/></radialGradient></defs></svg>