<svg width="496" height="456" viewBox="0 0 496 456" fill="none" xmlns="http://www.w3.org/2000/svg"><ellipse cx="235" cy="235" rx="181" ry="182" fill="url(#a)"/><path d="M168 390v44l38.089 22 38.089-22v-44l-38.089-22L168 390zM252 390v44l38.089 22 38.089-22v-44l-38.089-22L252 390zM210 316v44l38.089 22 38.089-22v-44l-38.089-22L210 316zM126 316v44l38.089 22 38.089-22v-44l-38.089-22L126 316zM42 316v44l38.09 22 38.088-22v-44l-38.089-22L42 316zM294 316v44l38.089 22 38.089-22v-44l-38.089-22L294 316zM378 316v44l38.089 22 38.089-22v-44l-38.089-22L378 316zM168 243v44l38.089 22 38.089-22v-44l-38.089-22L168 243zM84 243v44l38.089 22 38.089-22v-44l-38.089-22L84 243zM0 243v44l38.09 22 38.088-22v-44L38.09 221 0 243zM252 243v44l38.089 22 38.089-22v-44l-38.089-22L252 243zM420 243v44l38.089 22 38.089-22v-44l-38.089-22L420 243zM336 243v44l38.089 22 38.089-22v-44l-38.089-22L336 243zM210 169v44l38.089 22 38.089-22v-44l-38.089-22L210 169zM126 169v44l38.089 22 38.089-22v-44l-38.089-22L126 169zM42 169v44l38.09 22 38.088-22v-44l-38.089-22L42 169zM294 169v44l38.089 22 38.089-22v-44l-38.089-22L294 169zM378 169v44l38.089 22 38.089-22v-44l-38.089-22L378 169zM168 96v44l38.089 22 38.089-22V96l-38.089-22L168 96zM84 96v44l38.089 22 38.089-22V96l-38.089-22L84 96zM0 96v44l38.09 22 38.088-22V96L38.09 74 0 96zM252 96v44l38.089 22 38.089-22V96l-38.089-22L252 96zM336 96v44l38.089 22 38.089-22V96l-38.089-22L336 96zM210 22v44l38.089 22 38.089-22V22L248.089 0 210 22zM126 22v44l38.089 22 38.089-22V22L164.089 0 126 22zM42 22v44l38.09 22 38.088-22V22L80.089 0 42 22zM294 22v44l38.089 22 38.089-22V22L332.089 0 294 22z" fill="#fff"/><defs><radialGradient id="a" cx="0" cy="0" r="1" gradientUnits="userSpaceOnUse" gradientTransform="matrix(0 182 -181 0 235 235)"><stop stop-color="#77B3D1" stop-opacity=".35"/><stop offset="1" stop-color="#77B3D1" stop-opacity="0"/></radialGradient></defs></svg>