<svg width="497" height="456" viewBox="0 0 497 456" fill="none" xmlns="http://www.w3.org/2000/svg"><circle cx="244" cy="198" r="196" fill="url(#a)"/><path d="M294 390v44l38.089 22 38.089-22v-44l-38.089-22L294 390zM210 390v44l38.089 22 38.089-22v-44l-38.089-22L210 390zM126 390v44l38.089 22 38.089-22v-44l-38.089-22L126 390zM84 316v44l38.089 22 38.089-22v-44l-38.089-22L84 316zM336 316v44l38.089 22 38.089-22v-44l-38.089-22L336 316zM252 316v44l38.089 22 38.089-22v-44l-38.089-22L252 316zM168 316v44l38.089 22 38.089-22v-44l-38.089-22L168 316zM42 243v44l38.09 22 38.088-22v-44l-38.089-22L42 243zM378 243v44l38.089 22 38.089-22v-44l-38.089-22L378 243zM294 243v44l38.089 22 38.089-22v-44l-38.089-22L294 243zM210 243v44l38.089 22 38.089-22v-44l-38.089-22L210 243zM126 243v44l38.089 22 38.089-22v-44l-38.089-22L126 243zM0 169v44l38.09 22 38.088-22v-44L38.09 147 0 169zM84 169v44l38.089 22 38.089-22v-44l-38.089-22L84 169zM420 169v44l38.089 22 38.089-22v-44l-38.089-22L420 169zM336 169v44l38.089 22 38.089-22v-44l-38.089-22L336 169zM252 169v44l38.089 22 38.089-22v-44l-38.089-22L252 169zM168 169v44l38.089 22 38.089-22v-44l-38.089-22L168 169zM42 96v44l38.09 22 38.088-22V96L80.089 74 42 96zM378 96v44l38.089 22 38.089-22V96l-38.089-22L378 96zM294 96v44l38.089 22 38.089-22V96l-38.089-22L294 96zM210 96v44l38.089 22 38.089-22V96l-38.089-22L210 96zM126 96v44l38.089 22 38.089-22V96l-38.089-22L126 96zM84 22v44l38.089 22 38.089-22V22L122.089 0 84 22zM336 22v44l38.089 22 38.089-22V22L374.089 0 336 22zM252 22v44l38.089 22 38.089-22V22L290.089 0 252 22zM168 22v44l38.089 22 38.089-22V22L206.089 0 168 22z" fill="#fff"/><defs><radialGradient id="a" cx="0" cy="0" r="1" gradientUnits="userSpaceOnUse" gradientTransform="rotate(90 23 221) scale(196)"><stop stop-color="#FEEB19"/><stop offset="1" stop-color="#FEEB19" stop-opacity="0"/></radialGradient></defs></svg>