<svg width="454" height="382" viewBox="0 0 454 382" fill="none" xmlns="http://www.w3.org/2000/svg"><ellipse cx="223" cy="182" rx="133" ry="134" transform="rotate(-180 223 182)" fill="url(#a)"/><path d="M244.178 66V22L206.089 0 168 22v44l38.089 22 38.089-22zM328.178 66V22L290.089 0 252 22v44l38.089 22 38.089-22zM412.178 66V22L374.089 0 336 22v44l38.089 22 38.089-22zM160.178 66V22L122.089 0l-38.09 22v44l38.09 22 38.089-22zM286.178 139V95l-38.089-22L210 95v44l38.089 22 38.089-22zM370.178 139V95l-38.089-22L294 95v44l38.089 22 38.089-22zM454.178 139V95l-38.089-22L378 95v44l38.089 22 38.089-22zM202.178 139V95l-38.089-22L126 95v44l38.089 22 38.089-22zM118.178 139V95L80.089 73l-38.09 22v44l38.09 22 38.089-22zM244.178 213v-44l-38.089-22L168 169v44l38.089 22 38.089-22zM328.178 213v-44l-38.089-22L252 169v44l38.089 22 38.089-22zM412.178 213v-44l-38.089-22L336 169v44l38.089 22 38.089-22zM160.178 213v-44l-38.089-22-38.09 22v44l38.09 22 38.089-22zM76.178 213v-44L38.09 147l-38.09 22v44l38.09 22 38.09-22zM286.178 286v-44l-38.089-22L210 242v44l38.089 22 38.089-22zM370.178 286v-44l-38.089-22L294 242v44l38.089 22 38.089-22zM454.178 286v-44l-38.089-22L378 242v44l38.089 22 38.089-22zM202.178 286v-44l-38.089-22L126 242v44l38.089 22 38.089-22zM118.178 286v-44l-38.089-22-38.09 22v44l38.09 22 38.089-22zM244.178 360v-44l-38.089-22L168 316v44l38.089 22 38.089-22zM328.178 360v-44l-38.089-22L252 316v44l38.089 22 38.089-22zM412.178 360v-44l-38.089-22L336 316v44l38.089 22 38.089-22zM160.178 360v-44l-38.089-22-38.09 22v44l38.09 22 38.089-22z" fill="#0F0F0F"/><defs><radialGradient id="a" cx="0" cy="0" r="1" gradientUnits="userSpaceOnUse" gradientTransform="matrix(0 134 -133 0 223 182)"><stop stop-color="#FEEB19"/><stop offset="1" stop-color="#FEEB19" stop-opacity="0"/></radialGradient></defs></svg>