<svg width="228" height="53" viewBox="0 0 228 53" fill="none" xmlns="http://www.w3.org/2000/svg"><path d="M95.953 44.606v2.265h-2.605v-2.265c-2.882-.212-5.183-.994-6.902-2.346a6.756 6.756 0 0 1-2.578-5.561 6.75 6.75 0 0 1 2.578-5.556c1.733-1.355 4.034-2.137 6.902-2.346v-2.265h2.605v2.265c2.904.205 5.207.987 6.908 2.346a6.722 6.722 0 0 1 2.605 5.556 6.732 6.732 0 0 1-2.605 5.562c-1.705 1.35-4.007 2.133-6.908 2.345zm-7.675-11.76a4.625 4.625 0 0 0-1.8 3.853 4.59 4.59 0 0 0 1.8 3.837c1.182.912 2.872 1.453 5.07 1.622V31.229c-2.194.151-3.884.69-5.07 1.616zm7.675-1.622v10.934c2.195-.157 3.886-.692 5.07-1.622a4.625 4.625 0 0 0 1.778-3.853 4.626 4.626 0 0 0-1.778-3.854c-1.182-.912-2.872-1.445-5.07-1.6v-.005zM116.033 32.03a6.865 6.865 0 0 1 5.129 2.205 7.795 7.795 0 0 1 0 10.685 6.832 6.832 0 0 1-5.129 2.162 6.074 6.074 0 0 1-5.405-2.832v8.205h-2.492V32.429h2.492v2.465a6.065 6.065 0 0 1 5.405-2.864zm-.314 12.663a4.906 4.906 0 0 0 3.611-1.459 5.128 5.128 0 0 0 1.459-3.67 4.936 4.936 0 0 0-1.459-3.638 5.162 5.162 0 0 0-7.248 0 4.934 4.934 0 0 0-1.46 3.638 5.115 5.115 0 0 0 1.46 3.67 4.936 4.936 0 0 0 3.637 1.46zM138.122 34.868V32.43h2.492v14.323h-2.492v-2.486a6.043 6.043 0 0 1-5.405 2.832 6.83 6.83 0 0 1-5.129-2.162 7.795 7.795 0 0 1 0-10.686 6.891 6.891 0 0 1 5.129-2.205 6.034 6.034 0 0 1 5.405 2.822zm-5.102 9.826a4.936 4.936 0 0 0 3.638-1.46 5.09 5.09 0 0 0 1.464-3.67 5.03 5.03 0 0 0-3.134-4.75 5.036 5.036 0 0 0-1.968-.373 4.866 4.866 0 0 0-3.605 1.486 4.928 4.928 0 0 0-1.465 3.638 5.109 5.109 0 0 0 1.465 3.675 4.899 4.899 0 0 0 3.605 1.454zM154.305 38.375V32.43h2.491v14.323h-2.491v-6.01h-7.416v5.983h-2.497V32.43h2.497v5.945h7.416zM177.708 44.347V32.43h2.492v14.323h-19.62V32.43h2.491v11.944h6.103V32.43h2.491v11.944l6.043-.027zM186.469 42.461l7.94-10.031h2.005v14.323h-2.464v-10.08l-7.935 10.053h-2.005V32.43h2.459V42.46zM207.932 39.396c1.586.667 2.378 1.802 2.378 3.405a3.836 3.836 0 0 1-1.464 3.081c-.973.81-2.319 1.216-4.038 1.216-2.864 0-4.783-1.146-5.756-3.437l2.092-1.233c.529 1.568 1.76 2.352 3.691 2.352a3.608 3.608 0 0 0 2.205-.6 1.907 1.907 0 0 0 .806-1.622 1.741 1.741 0 0 0-.649-1.405 2.587 2.587 0 0 0-1.729-.54h-2.092v-2.238h1.546a2.485 2.485 0 0 0 1.691-.54 1.84 1.84 0 0 0 .6-1.45 1.798 1.798 0 0 0-.713-1.502 3.044 3.044 0 0 0-1.919-.54c-1.603 0-2.693.679-3.27 2.037l-2.032-1.178c1.013-2.097 2.78-3.147 5.302-3.151a5.496 5.496 0 0 1 3.681 1.19 3.789 3.789 0 0 1 1.389 2.972 3.48 3.48 0 0 1-1.719 3.183zM224.844 34.867v-2.438h2.492v14.323h-2.492v-2.486a6.042 6.042 0 0 1-5.405 2.832 6.836 6.836 0 0 1-5.129-2.162 7.795 7.795 0 0 1 0-10.685 6.877 6.877 0 0 1 5.129-2.222 6.031 6.031 0 0 1 5.405 2.838zm-5.08 9.826a4.955 4.955 0 0 0 3.637-1.46 5.11 5.11 0 0 0 1.443-3.67 5.028 5.028 0 0 0-3.129-4.75 5.04 5.04 0 0 0-1.968-.373 4.863 4.863 0 0 0-3.61 1.486 4.95 4.95 0 0 0-1.465 3.638c-.01.68.116 1.355.371 1.986a5.107 5.107 0 0 0 1.11 1.689 4.907 4.907 0 0 0 3.611 1.454z" fill="#fff"/><path fill-rule="evenodd" clip-rule="evenodd" d="M4.21 14.345h70.475v31.597a4.21 4.21 0 0 1-4.21 4.21H4.21A4.21 4.21 0 0 1 0 45.942V18.555a4.21 4.21 0 0 1 4.21-4.21z" fill="#76B2D0"/><path fill-rule="evenodd" clip-rule="evenodd" d="M83.441 10.529c1.416-1.881 2.097-5.124.995-10.529-13.913 2.162-10.93 9.68-9.6 12.031a48.106 48.106 0 0 1 7.2-8.712 53.083 53.083 0 0 0-4.789 8.49c1.876-2.161 4.075-2.275 6.194-1.28zm4.378 4.41c-6.097 6.875-9.367 3.07-10.583 1.005a16.215 16.215 0 0 1 5.88-.81 18.093 18.093 0 0 0-6.22-.784c.74-1.778 3.788-7.026 10.923.59z" fill="#85BC22"/><path fill-rule="evenodd" clip-rule="evenodd" d="M42.57 22.203H44.4v1.832H42.57v-1.832zm-26.242 11.48l4.551-11.48h3.027l-6.994 16.48c-1.027 2.416-2.373 3.486-4.864 3.583a10.143 10.143 0 0 1-3.784-.67v-2.308c2.362.692 2.67.773 3.513.757 1.152 0 2.125-.616 3.243-3.2L8.28 22.203h2.924l5.124 11.48zm19.842 8.583h-2.524v-5.334c-1.11.292-2.253.439-3.4.437-3.54 0-5.643-1.827-5.675-5.437v-4.367h2.513v4.47c0 2.194 1.081 3.15 3.162 3.15 1.147.002 2.29-.145 3.4-.437v-7.183h2.524v14.701zm10.053 0c-4.713 0-6.994-3.091-6.994-7.4 0-3.783 2.438-7.29 6.67-7.29 5.275 0 6.275 3.853 6.275 8.042H41.553a4.571 4.571 0 0 0 4.75 4.589 4.996 4.996 0 0 0 4.082-1.832l1.621 1.15c-1.297 1.828-3.225 2.741-5.783 2.741zm-.325-12.707c-2.459 0-3.978 1.93-4.259 4.076h8.21c0-2.2-1.486-4.076-3.95-4.076zm20.501.049H61.47v12.658h-2.513V29.608h-4.865v-2.043h12.28v2.032l.027.01zm-19.376-7.389h1.832v1.833h-1.832v-1.833z" fill="#fff"/></svg>