<svg width="145" height="50" viewBox="0 0 145 50" fill="none" xmlns="http://www.w3.org/2000/svg"><g clip-path="url(#a)" fill-rule="evenodd" clip-rule="evenodd"><path d="M92.132 21.47a10.198 10.198 0 0 1 4.105.716 10.269 10.269 0 0 1 5.716 5.73 10.19 10.19 0 0 1 .718 4.032 10.202 10.202 0 0 1-.723 4.023 10.273 10.273 0 0 1-2.244 3.427c-.98.999-2.16 1.784-3.464 2.306a10.188 10.188 0 0 1-4.108.723c-1.81.013-3.59-.45-5.16-1.342a9.288 9.288 0 0 1-3.608-3.596l2.359-1.326a6.352 6.352 0 0 0 2.587 2.642 7.738 7.738 0 0 0 7.35.328 7.676 7.676 0 0 0 2.897-2.434 7.59 7.59 0 0 0 1.37-3.511H89.423v-2.512h10.48a7.415 7.415 0 0 0-2.57-4.825 7.536 7.536 0 0 0-5.203-1.783 7.55 7.55 0 0 0-3.805.991 6.573 6.573 0 0 0-2.603 2.695l-2.36-1.358a9.391 9.391 0 0 1 3.61-3.6 10.358 10.358 0 0 1 5.153-1.326h.005zm27.863 18.04h2.175v6.41h-2.718v-3.876h-13.454v3.87h-2.718v-6.403h1.778c1.261-1.556 1.891-3.925 1.891-7.105V21.841h13.014v17.67h.032zm-11.85 0h9.143V24.354h-7.61v8.086c0 3.061-.514 5.41-1.544 7.045l.011.027zm33.784-.161a10.579 10.579 0 0 1-5.412 2.885 10.634 10.634 0 0 1-6.115-.594 10.53 10.53 0 0 1-4.744-3.872 10.39 10.39 0 0 1-1.765-5.836c-.032-1.394.217-2.78.733-4.078a10.462 10.462 0 0 1 2.272-3.477 10.56 10.56 0 0 1 3.453-2.33 10.638 10.638 0 0 1 8.19 0 10.553 10.553 0 0 1 3.454 2.33c.983.997 1.756 2.18 2.272 3.477.516 1.297.765 2.684.733 4.078a10.025 10.025 0 0 1-.763 4.023 10.1 10.1 0 0 1-2.308 3.394zm-13.1-1.817a8.052 8.052 0 0 0 5.604 2.265 8.052 8.052 0 0 0 5.604-2.265 7.614 7.614 0 0 0 2.256-5.584 7.615 7.615 0 0 0-.547-3.038 7.671 7.671 0 0 0-1.709-2.579 8.052 8.052 0 0 0-5.604-2.264 8.052 8.052 0 0 0-5.604 2.264 7.632 7.632 0 0 0-2.256 5.617 7.591 7.591 0 0 0 2.256 5.584z" fill="#fff"/><path d="M4.234 14.306h70.878v31.511a4.18 4.18 0 0 1-1.24 2.97 4.252 4.252 0 0 1-2.995 1.23H4.234c-1.123 0-2.2-.443-2.994-1.23A4.181 4.181 0 0 1 0 45.816V18.505c0-1.114.446-2.182 1.24-2.97a4.253 4.253 0 0 1 2.994-1.23z" fill="#009EE3"/><path d="M83.918 10.5c1.424-1.876 2.109-5.11 1-10.5-13.992 2.156-10.991 9.654-9.654 11.999a48.062 48.062 0 0 1 7.24-8.69 52.817 52.817 0 0 0-4.816 8.469c1.887-2.156 4.099-2.27 6.23-1.278zM88.32 14.9c-6.132 6.856-9.42 3.061-10.644 1.002a16.435 16.435 0 0 1 5.915-.808 18.337 18.337 0 0 0-6.257-.782c.745-1.773 3.81-7.007 10.986.588z" fill="#85BC22"/><path d="M42.812 22.144h1.843v1.827h-1.843v-1.827zm-26.39 11.449l4.576-11.45h3.044L17.01 38.579c-1.033 2.41-2.387 3.477-4.893 3.574a10.28 10.28 0 0 1-3.805-.668v-2.302c2.376.69 2.686.77 3.534.755 1.157 0 2.136-.615 3.261-3.191L8.328 22.144h2.94l5.154 11.449zm19.954 8.56h-2.538v-5.321a13.45 13.45 0 0 1-3.42.437c-3.56 0-5.674-1.822-5.707-5.423v-4.355h2.528v4.457c0 2.189 1.087 3.143 3.18 3.143a13.45 13.45 0 0 0 3.419-.437v-7.163h2.538v14.661zm10.11 0c-4.74 0-7.033-3.084-7.033-7.38 0-3.773 2.451-7.272 6.708-7.272 5.305 0 6.31 3.844 6.31 8.021h-10.68a4.526 4.526 0 0 0 1.403 3.3 4.605 4.605 0 0 0 3.374 1.276 5.059 5.059 0 0 0 2.27-.432 5.02 5.02 0 0 0 1.834-1.395l1.631 1.148c-1.304 1.822-3.243 2.733-5.816 2.733zm-.325-12.673c-2.474 0-4.001 1.924-4.284 4.064h8.257c0-2.194-1.495-4.064-3.973-4.064zm20.618.048H61.82v12.624h-2.527V29.528H54.4v-2.037h12.35v2.026l.028.011zM47.29 22.16h1.843v1.827h-1.843V22.16z" fill="#fff"/></g><defs><clipPath id="a"><path fill="#fff" d="M0 0h145v50H0z"/></clipPath></defs></svg>