<svg width="276" height="50" viewBox="0 0 276 50" fill="none" xmlns="http://www.w3.org/2000/svg"><g clip-path="url(#a)" fill-rule="evenodd" clip-rule="evenodd"><path d="M100.453 39.349a10.414 10.414 0 0 1-11.409 2.299 10.44 10.44 0 0 1-4.695-3.875 10.474 10.474 0 0 1-1.742-5.841 10.488 10.488 0 0 1 2.974-7.555 10.443 10.443 0 0 1 7.469-3.15 10.426 10.426 0 0 1 7.469 3.15 10.472 10.472 0 0 1 2.973 7.555 10.148 10.148 0 0 1-3.039 7.417zm-12.962-1.833a7.919 7.919 0 0 0 11.085 0 7.647 7.647 0 0 0 2.237-5.584 7.684 7.684 0 0 0-2.237-5.617 7.919 7.919 0 0 0-11.085 0 7.678 7.678 0 0 0-2.232 5.617 7.648 7.648 0 0 0 2.232 5.584zm28.931-9.918h2.506v14.446h-2.506v-6.026h-7.46v6.026h-2.507v-14.43h2.507v6.005h7.46v-6.021zm18.319 0v14.446h-2.501V30.04h-5.68v5.892c0 2.368-.475 4.017-1.425 4.948-.947.932-2.286 1.326-4.018 1.17v-2.367a2.307 2.307 0 0 0 2.205-.647c.49-.571.737-1.617.737-3.164v-8.258l10.682-.016zm15.732 0h2.506v14.446h-2.506v-2.48a6.128 6.128 0 0 1-5.449 2.857 6.9 6.9 0 0 1-5.152-2.21 7.853 7.853 0 0 1 0-10.78 6.894 6.894 0 0 1 5.152-2.205 6.128 6.128 0 0 1 5.449 2.857v-2.485zm-5.131 12.398a4.918 4.918 0 0 0 3.657-1.488 5.169 5.169 0 0 0-.758-8.008 5.146 5.146 0 0 0-2.899-.854 4.909 4.909 0 0 0-3.626 1.483 5.332 5.332 0 0 0 0 7.363 4.902 4.902 0 0 0 3.626 1.488v.016zm13.801-14.554V23.26h7.777v2.194l-7.777-.01zm8.094 2.156h2.017v14.446h-2.479V31.916l-7.982 10.128h-2.011v-14.43h2.474v10.118l7.981-10.134zm15.786 0h2.501v14.446h-2.501v-6.026h-7.465v6.026h-2.507v-14.43h2.507v6.005h7.465v-6.021zm28.43 14.446h-3.307l-8.676-9.702v9.702h-2.689V21.841h2.689v9.126l8.407-9.126h3.286l-8.901 9.816 9.191 10.387zm12.758-14.435h2.506v14.435h-2.506v-2.48a6.099 6.099 0 0 1-5.443 2.857 6.908 6.908 0 0 1-5.158-2.21 7.87 7.87 0 0 1 0-10.78 6.912 6.912 0 0 1 5.158-2.205 6.099 6.099 0 0 1 5.443 2.857V27.61zm-5.126 12.398a4.93 4.93 0 0 0 3.658-1.488 5.35 5.35 0 0 0 0-7.363 5.222 5.222 0 0 0-7.288 0 5.345 5.345 0 0 0-1.468 3.681c0 1.37.525 2.689 1.468 3.682a4.905 4.905 0 0 0 3.63 1.488zm18.206 2.425a7.395 7.395 0 0 1-5.413-2.174 7.444 7.444 0 0 1-2.165-5.426 7.431 7.431 0 0 1 4.652-7.06 7.392 7.392 0 0 1 2.926-.53 7.26 7.26 0 0 1 3.83 1.025 6.462 6.462 0 0 1 2.522 2.754l-2.103 1.213a4.267 4.267 0 0 0-1.662-1.844 5.158 5.158 0 0 0-6.196.776 5.318 5.318 0 0 0 0 7.304 4.903 4.903 0 0 0 3.62 1.472 5.019 5.019 0 0 0 2.576-.68 4.524 4.524 0 0 0 1.754-1.832l2.151 1.245a7.083 7.083 0 0 1-2.651 2.728 7.412 7.412 0 0 1-3.83 1.024l-.011.005zm15.523 0a7.392 7.392 0 0 1-7.033-4.669 7.424 7.424 0 0 1-.524-2.931 7.428 7.428 0 0 1 2.165-5.42 7.407 7.407 0 0 1 5.408-2.17 7.284 7.284 0 0 1 3.835 1.025 6.463 6.463 0 0 1 2.533 2.754l-2.109 1.213a4.267 4.267 0 0 0-1.683-1.844 5.16 5.16 0 0 0-6.196.776 5.318 5.318 0 0 0 0 7.304 4.877 4.877 0 0 0 3.614 1.472 5.006 5.006 0 0 0 2.593-.68 4.5 4.5 0 0 0 1.758-1.832l2.152 1.245a7.035 7.035 0 0 1-2.646 2.728 7.426 7.426 0 0 1-3.835 1.024l-.032.005zm20.685-14.812H276v14.424h-2.501v-2.48a6.129 6.129 0 0 1-5.448 2.857 6.89 6.89 0 0 1-5.153-2.21 7.852 7.852 0 0 1 0-10.78 6.904 6.904 0 0 1 5.153-2.205 6.128 6.128 0 0 1 5.448 2.857v-2.469.006zm-5.131 12.397a4.926 4.926 0 0 0 3.657-1.487 5.165 5.165 0 0 0 1.192-5.682 5.157 5.157 0 0 0-4.833-3.201 4.92 4.92 0 0 0-3.63 1.482 5.346 5.346 0 0 0-1.468 3.681c0 1.37.525 2.689 1.468 3.682a4.899 4.899 0 0 0 3.63 1.51l-.016.015z" fill="#fff"/><path d="M4.19 14.306h70.13v31.511a4.203 4.203 0 0 1-1.228 2.97 4.185 4.185 0 0 1-2.963 1.23H4.19a4.185 4.185 0 0 1-2.962-1.23A4.204 4.204 0 0 1 0 45.816V18.505c0-1.114.441-2.182 1.227-2.97a4.185 4.185 0 0 1 2.963-1.23z" fill="#AFCA05"/><path d="M83.032 10.5c1.41-1.876 2.087-5.11.99-10.5-13.844 2.156-10.875 9.654-9.552 11.999a47.95 47.95 0 0 1 7.164-8.69 52.982 52.982 0 0 0-4.765 8.469c1.866-2.156 4.055-2.27 6.163-1.278zM87.39 14.9c-6.067 6.856-9.321 3.061-10.531 1.002a16.102 16.102 0 0 1 5.852-.808 17.964 17.964 0 0 0-6.191-.782c.737-1.773 3.77-7.007 10.87.588z" fill="#85BC22"/><path d="M42.36 22.144h1.824v1.827H42.36v-1.827zM16.249 33.593l4.529-11.45h3.012l-6.96 16.435c-1.022 2.41-2.361 3.477-4.84 3.574a10.075 10.075 0 0 1-3.765-.668v-2.302c2.35.69 2.657.77 3.496.755 1.145 0 2.113-.615 3.227-3.191L8.24 22.144h2.91l5.098 11.449zm19.744 8.56h-2.511v-5.321a13.176 13.176 0 0 1-3.383.437c-3.523 0-5.615-1.822-5.648-5.423v-4.355h2.501v4.457c0 2.189 1.076 3.143 3.147 3.143a13.176 13.176 0 0 0 3.383-.437v-7.163h2.511v14.661zm10.004 0c-4.69 0-6.96-3.084-6.96-7.38 0-3.773 2.426-7.272 6.638-7.272 5.25 0 6.244 3.844 6.244 8.021H41.35a4.57 4.57 0 0 0 1.39 3.3 4.551 4.551 0 0 0 3.338 1.276 4.96 4.96 0 0 0 4.06-1.827l1.614 1.148c-1.29 1.822-3.209 2.733-5.755 2.733zm-.322-12.673c-2.447 0-3.959 1.924-4.239 4.064h8.17c0-2.194-1.479-4.064-3.931-4.064zm20.4.048H61.17v12.624h-2.501V29.528h-4.84v-2.037h12.22v2.026l.026.011zM46.792 22.16h1.824v1.827h-1.824V22.16z" fill="#fff"/></g><defs><clipPath id="a"><path fill="#fff" d="M0 0h276v50H0z"/></clipPath></defs></svg>