<svg width="249" height="49" viewBox="0 0 249 49" fill="none" xmlns="http://www.w3.org/2000/svg"><g clip-path="url(#a)" fill-rule="evenodd" clip-rule="evenodd"><path d="M91.409 29.185a6.248 6.248 0 0 1 2.402.427 6.038 6.038 0 0 1 3.385 3.275 5.94 5.94 0 0 1 0 4.636 6.038 6.038 0 0 1-1.342 1.963 6.164 6.164 0 0 1-2.045 1.3 6.257 6.257 0 0 1-2.4.417h-7.587V21.404H95.94v2.494h-9.434v5.282l4.903.005zm0 9.562a3.64 3.64 0 0 0 1.393-.264c.442-.178.842-.44 1.179-.773.336-.332.602-.727.78-1.162.178-.434.266-.899.258-1.367a3.319 3.319 0 0 0-.268-1.369 3.375 3.375 0 0 0-.81-1.145 3.492 3.492 0 0 0-1.17-.768c-.439-.176-.91-.261-1.384-.252h-4.903v7.1h4.925zm18.212-11.685h2.694l-5.9 15.023a8.038 8.038 0 0 1-2.597 3.666 5.514 5.514 0 0 1-3.81 1.115v-2.288c1.775.134 3.073-.81 3.896-2.831l.232-.528-6.261-14.157h2.656l4.935 11.093 4.155-11.093zm17.312 14.14h-2.942l-4.041-5.345-4.068 5.346h-2.942l5.539-7.269-5.221-6.867h2.969l3.723 4.923 3.723-4.923h2.947l-5.194 6.867 5.507 7.269zm11.805-14.145v2.377h-6.956v11.769h-2.511V27.062l9.467-.006zm13.562 0h2.511v14.146H152.3v-2.43a6.08 6.08 0 0 1-2.342 2.12 6.229 6.229 0 0 1-3.111.68 7.052 7.052 0 0 1-2.818-.547 6.926 6.926 0 0 1-2.349-1.62 7.62 7.62 0 0 1-2.139-5.282 7.62 7.62 0 0 1 2.139-5.282 6.92 6.92 0 0 1 2.35-1.617 7.043 7.043 0 0 1 2.817-.544 6.229 6.229 0 0 1 3.111.68 6.079 6.079 0 0 1 2.342 2.12v-2.425zm-5.135 12.15a5.032 5.032 0 0 0 1.987-.355 4.961 4.961 0 0 0 1.677-1.104 5.181 5.181 0 0 0 1.471-3.608 5.181 5.181 0 0 0-1.471-3.608 5.293 5.293 0 0 0-3.651-1.452 5.293 5.293 0 0 0-3.65 1.452 5.181 5.181 0 0 0-1.471 3.608c0 1.343.527 2.635 1.471 3.608.471.475 1.038.85 1.663 1.101.626.25 1.298.373 1.974.357zm23.487-12.15v14.146h-2.511V29.439h-5.685v5.774c0 2.32-.476 3.937-1.427 4.849-.954.914-2.296 1.3-4.025 1.146V38.89a2.36 2.36 0 0 0 1.19-.029c.388-.11.739-.32 1.019-.605.49-.56.733-1.584.733-3.1v-8.093l10.706-.006zm14.548 0v2.377h-4.904v11.769h-2.489V29.439h-4.935v-2.377l12.328-.006zm3.383 8.214a4.655 4.655 0 0 0 1.773 2.942 5.599 5.599 0 0 0 3.448 1.056c1.908 0 3.292-.691 4.16-2.065l2.155 1.189c-1.408 2.113-3.524 3.17-6.347 3.17a7.68 7.68 0 0 1-3.017-.49 7.549 7.549 0 0 1-2.57-1.624A7.22 7.22 0 0 1 186.544 37a7.102 7.102 0 0 1-.515-2.886 7.224 7.224 0 0 1 .505-2.869 7.338 7.338 0 0 1 1.602-2.45 7.308 7.308 0 0 1 2.5-1.618 7.422 7.422 0 0 1 2.953-.495c.975-.031 1.945.15 2.841.529a6.628 6.628 0 0 1 2.342 1.663 7.535 7.535 0 0 1 2.004 5.282c0 .37-.029.739-.086 1.104l-12.107.01zm4.99-6.255a4.844 4.844 0 0 0-3.317 1.092 4.667 4.667 0 0 0-1.673 3.013h9.64a4.725 4.725 0 0 0-1.617-3.059 4.692 4.692 0 0 0-3.033-1.056v.01zm18.039-2.319a7.037 7.037 0 0 1 2.815.544 6.92 6.92 0 0 1 2.347 1.617 7.608 7.608 0 0 1 2.145 5.282 7.607 7.607 0 0 1-2.145 5.283 6.92 6.92 0 0 1-2.347 1.62 7.038 7.038 0 0 1-2.815.546 6.235 6.235 0 0 1-3.113-.68 6.087 6.087 0 0 1-2.345-2.12v8.077h-2.506V27.062h2.506v2.435a6.087 6.087 0 0 1 2.345-2.12 6.236 6.236 0 0 1 3.113-.68zm-.318 12.504a5.003 5.003 0 0 0 1.974-.357 4.925 4.925 0 0 0 1.663-1.101 5.181 5.181 0 0 0 1.471-3.608 5.181 5.181 0 0 0-1.471-3.608 5.293 5.293 0 0 0-3.65-1.453 5.293 5.293 0 0 0-3.651 1.453 5.165 5.165 0 0 0-1.477 3.608c0 1.344.529 2.637 1.477 3.608a4.95 4.95 0 0 0 1.677 1.104c.63.25 1.307.371 1.987.354zm21.094-12.15h1.994v14.152h-2.484v-9.926l-7.974 9.926h-2.021V27.062h2.479v9.915l7.996-9.931.01.005zm16.623 0v14.152h-2.484v-5.087h-2.107l-4.052 5.087h-3.055l4.208-5.235a4.905 4.905 0 0 1-2.624-1.585 4.176 4.176 0 0 1-1.007-2.773 4.18 4.18 0 0 1 .346-1.777 4.272 4.272 0 0 1 1.065-1.477 5.055 5.055 0 0 1 3.551-1.305h6.159zm-6.062 6.867h3.578v-4.564h-3.578a2.73 2.73 0 0 0-1.816.624 2.054 2.054 0 0 0-.754 1.67c-.01.311.052.621.183.906.131.285.326.536.571.736a2.73 2.73 0 0 0 1.805.618l.011.01z" fill="#fff"/><path d="M4.197 14.02h70.256V44.9a4.074 4.074 0 0 1-1.23 2.91 4.24 4.24 0 0 1-2.968 1.206H4.197A4.24 4.24 0 0 1 1.23 47.81 4.075 4.075 0 0 1 0 44.9V18.136c0-1.092.442-2.139 1.23-2.91a4.24 4.24 0 0 1 2.967-1.205z" fill="#FBBA00"/><path d="M83.181 10.29c1.412-1.838 2.091-5.008.992-10.29-13.87 2.113-10.895 9.46-9.57 11.759a47.233 47.233 0 0 1 7.178-8.516 51.608 51.608 0 0 0-4.774 8.3c1.87-2.114 4.062-2.225 6.174-1.253zm4.365 4.31c-6.078 6.72-9.338 3.001-10.55.983a16.465 16.465 0 0 1 5.862-.792 18.374 18.374 0 0 0-6.202-.766c.739-1.738 3.777-6.867 10.89.576z" fill="#85BC22"/><path d="M42.437 21.7h1.826v1.79h-1.826V21.7zm-26.16 11.22l4.537-11.22h3.017L16.86 37.806c-1.024 2.362-2.365 3.408-4.85 3.503a10.294 10.294 0 0 1-3.77-.655v-2.256c2.354.676 2.661.755 3.502.74 1.147 0 2.117-.603 3.232-3.128L8.254 21.7h2.915l5.108 11.22zm19.78 8.389h-2.516v-5.214c-1.106.286-2.245.43-3.39.428-3.529 0-5.625-1.786-5.657-5.314V26.94H27v4.369c0 2.145 1.077 3.08 3.152 3.08a13.478 13.478 0 0 0 3.389-.428v-7.02h2.516v14.368zm10.022 0c-4.699 0-6.972-3.022-6.972-7.232 0-3.698 2.43-7.126 6.649-7.126 5.258 0 6.255 3.766 6.255 7.86H41.423c-.002.603.12 1.2.359 1.757.24.555.59 1.058 1.033 1.477.443.419.967.746 1.542.96a4.64 4.64 0 0 0 1.803.291 5.065 5.065 0 0 0 2.25-.424 4.967 4.967 0 0 0 1.818-1.367l1.616 1.125c-1.293 1.786-3.215 2.679-5.765 2.679zm-.323-12.42c-2.452 0-3.966 1.886-4.246 3.984h8.184c0-2.15-1.482-3.983-3.938-3.983zm20.437.048h-4.914V41.31h-2.506V28.937h-4.85V26.94h12.243v1.987l.027.01zm-19.317-7.221h1.827v1.79h-1.827v-1.79z" fill="#fff"/></g><defs><clipPath id="a"><path fill="#fff" d="M0 0h249v49H0z"/></clipPath></defs></svg>