<svg width="115" height="27" viewBox="0 0 115 27" fill="none" xmlns="http://www.w3.org/2000/svg"><path d="M48.207 22.42v1.137h-1.309V22.42c-1.448-.107-2.604-.5-3.467-1.179a3.395 3.395 0 0 1-1.295-2.795 3.394 3.394 0 0 1 1.295-2.793c.87-.68 2.027-1.073 3.468-1.178v-1.139h1.308v1.138c1.46.104 2.616.497 3.47 1.18a3.379 3.379 0 0 1 1.31 2.792 3.387 3.387 0 0 1-1.31 2.795c-.855.68-2.012 1.072-3.47 1.18zm-3.856-5.912a2.325 2.325 0 0 0-.904 1.937 2.306 2.306 0 0 0 .904 1.929c.594.458 1.443.73 2.547.815v-5.493c-1.102.076-1.951.347-2.547.812zm3.856-.815v5.496c1.103-.08 1.953-.348 2.547-.815a2.322 2.322 0 0 0 .894-1.937 2.326 2.326 0 0 0-.894-1.937c-.593-.458-1.442-.726-2.547-.804v-.003zM58.295 16.098a3.45 3.45 0 0 1 2.577 1.108 3.917 3.917 0 0 1 0 5.371 3.428 3.428 0 0 1-2.577 1.087 3.051 3.051 0 0 1-2.715-1.424v4.124h-1.252V16.299h1.252v1.239a3.047 3.047 0 0 1 2.715-1.44zm-.157 6.365a2.466 2.466 0 0 0 1.814-.733 2.572 2.572 0 0 0 .733-1.845 2.482 2.482 0 0 0-.733-1.828 2.593 2.593 0 0 0-3.642 0 2.484 2.484 0 0 0-.733 1.828 2.571 2.571 0 0 0 .733 1.845 2.482 2.482 0 0 0 1.828.733zM69.393 17.524V16.3h1.252v7.199h-1.252v-1.25a3.036 3.036 0 0 1-2.715 1.424 3.43 3.43 0 0 1-2.577-1.087 3.918 3.918 0 0 1 0-5.37 3.457 3.457 0 0 1 2.577-1.109 3.029 3.029 0 0 1 2.715 1.418zm-2.563 4.939a2.48 2.48 0 0 0 1.828-.733 2.563 2.563 0 0 0 .735-1.845 2.534 2.534 0 0 0-2.563-2.575 2.444 2.444 0 0 0-1.811.747 2.474 2.474 0 0 0-.736 1.828 2.564 2.564 0 0 0 .736 1.847 2.459 2.459 0 0 0 1.811.731zM77.523 19.287V16.3h1.252v7.199h-1.252v-3.02h-3.725v3.006h-1.255V16.3h1.255v2.988h3.725zM89.282 22.289v-5.99h1.251v7.199h-9.857v-7.199h1.252v6.004h3.066v-6.004h1.252v6.004l3.036-.014zM93.684 21.341l3.989-5.042h1.007v7.199h-1.238v-5.066l-3.986 5.052h-1.008V16.3h1.236v5.042zM104.466 19.8c.797.336 1.195.906 1.195 1.712a1.924 1.924 0 0 1-.736 1.549c-.488.407-1.165.61-2.028.61-1.439 0-2.403-.575-2.892-1.727l1.051-.62c.266.788.884 1.182 1.854 1.182.393.023.781-.083 1.108-.301a.961.961 0 0 0 .405-.815.88.88 0 0 0-.326-.706 1.3 1.3 0 0 0-.869-.272h-1.051v-1.125h.777c.307.018.61-.08.85-.271a.933.933 0 0 0 .301-.728.902.902 0 0 0-.358-.756 1.528 1.528 0 0 0-.964-.271c-.806 0-1.353.341-1.643 1.024l-1.021-.592c.509-1.054 1.397-1.582 2.664-1.584a2.761 2.761 0 0 1 1.849.598 1.902 1.902 0 0 1 .698 1.494 1.748 1.748 0 0 1-.864 1.6zM112.963 17.524V16.3h1.252v7.199h-1.252v-1.25a3.04 3.04 0 0 1-2.715 1.424 3.438 3.438 0 0 1-2.577-1.087 3.918 3.918 0 0 1 0-5.37 3.45 3.45 0 0 1 2.577-1.117 3.028 3.028 0 0 1 2.715 1.426zm-2.553 4.939a2.488 2.488 0 0 0 1.828-.734 2.56 2.56 0 0 0 .725-1.844 2.54 2.54 0 0 0-.735-1.83 2.535 2.535 0 0 0-1.826-.745 2.443 2.443 0 0 0-1.814.747 2.488 2.488 0 0 0-.736 1.828 2.587 2.587 0 0 0 .745 1.847 2.457 2.457 0 0 0 1.813.73z" fill="#000"/><path fill-rule="evenodd" clip-rule="evenodd" d="M2.115 7.21h35.407v15.88a2.116 2.116 0 0 1-2.115 2.116H2.115A2.115 2.115 0 0 1 0 23.09V9.326A2.117 2.117 0 0 1 2.115 7.21z" fill="#76B2D0"/><path fill-rule="evenodd" clip-rule="evenodd" d="M41.921 5.292c.712-.946 1.054-2.575.5-5.292-6.99 1.087-5.491 4.865-4.823 6.047a24.176 24.176 0 0 1 3.617-4.379 26.682 26.682 0 0 0-2.406 4.268c.942-1.087 2.048-1.144 3.112-.644zm2.2 2.217c-3.064 3.455-4.706 1.542-5.317.505a8.143 8.143 0 0 1 2.954-.408 9.086 9.086 0 0 0-3.125-.394c.372-.893 1.903-3.531 5.488.297z" fill="#85BC22"/><path fill-rule="evenodd" clip-rule="evenodd" d="M21.387 11.16h.92v.92h-.92v-.92zM8.203 16.93l2.287-5.77h1.52l-3.513 8.282c-.516 1.215-1.192 1.752-2.444 1.801a5.094 5.094 0 0 1-1.901-.337v-1.16c1.187.348 1.341.389 1.765.38.578 0 1.067-.309 1.63-1.607l-3.387-7.36h1.47l2.573 5.77zm9.969 4.313h-1.268v-2.681a6.662 6.662 0 0 1-1.708.22c-1.779 0-2.835-.918-2.852-2.733v-2.195h1.263v2.247c0 1.103.543 1.584 1.589 1.584.576 0 1.15-.073 1.708-.22v-3.61h1.268v7.388zm5.05 0c-2.367 0-3.513-1.554-3.513-3.719 0-1.901 1.224-3.664 3.35-3.664 2.651 0 3.153 1.937 3.153 4.042h-5.336a2.298 2.298 0 0 0 2.387 2.306 2.51 2.51 0 0 0 2.05-.92l.815.578c-.652.918-1.62 1.377-2.905 1.377zm-.162-6.386c-1.236 0-1.999.97-2.14 2.048h4.125c0-1.106-.747-2.048-1.985-2.048zm10.3.024h-2.477v6.362H29.62v-6.362h-2.444v-1.027h6.17v1.022l.013.005zm-9.735-3.713h.92v.92h-.92v-.92z" fill="#fff"/></svg>