<svg width="92" height="38" viewBox="0 0 92 38" fill="none" xmlns="http://www.w3.org/2000/svg"><path d="M13.209 21.965v-6.301l-5.41-3.152-5.41 3.152v6.301l5.41 3.151 5.41-3.15z" fill="#F8E701"/><path d="M20.567 9.364V3.12L15.157 0l-5.41 3.121v6.243l5.41 3.12 5.41-3.12z" fill="#88BDD6"/><path fill-rule="evenodd" clip-rule="evenodd" d="M15.57 14.205v4.522h-.945v-3.979l-6.84-3.976-6.84 3.976v7.958l6.84 3.977 3.419-1.988.474.817-3.893 2.263L0 23.25v-9.045L7.785 9.68l7.785 4.525z" fill="#000"/><path d="M24.967 29.524c.877.287 1.572.77 2.085 1.45.514.665.771 1.496.771 2.493 0 1.375-.529 2.44-1.586 3.196-1.058.74-2.6 1.11-4.624 1.11h-7.887V21.908h7.434c1.873 0 3.316.37 4.329 1.111 1.012.725 1.518 1.73 1.518 3.014 0 .786-.181 1.481-.544 2.085a3.725 3.725 0 0 1-1.496 1.406zm-8.295-5.304v4.374h4.17c1.028 0 1.814-.18 2.358-.544.559-.377.838-.921.838-1.631 0-.726-.28-1.27-.838-1.632-.544-.378-1.33-.567-2.357-.567h-4.17zm4.76 11.242c2.281 0 3.422-.763 3.422-2.29 0-1.525-1.14-2.288-3.422-2.288h-4.76v4.578h4.76zM38.379 38c-1.617 0-3.075-.347-4.374-1.042a7.912 7.912 0 0 1-3.06-2.924c-.74-1.254-1.11-2.652-1.11-4.193 0-1.541.37-2.931 1.11-4.17a7.7 7.7 0 0 1 3.06-2.924c1.299-.71 2.757-1.065 4.374-1.065 1.616 0 3.074.355 4.374 1.065a7.749 7.749 0 0 1 3.06 2.901c.74 1.24 1.11 2.637 1.11 4.193 0 1.556-.37 2.954-1.11 4.193a7.912 7.912 0 0 1-3.06 2.924c-1.3.695-2.758 1.042-4.374 1.042zm0-2.584c1.057 0 2.01-.234 2.855-.702a5.267 5.267 0 0 0 1.995-1.995c.483-.86.725-1.82.725-2.878s-.242-2.01-.725-2.856a5.064 5.064 0 0 0-1.995-1.994c-.846-.484-1.798-.725-2.855-.725-1.058 0-2.01.241-2.856.725a5.064 5.064 0 0 0-1.994 1.994c-.484.846-.726 1.798-.726 2.856 0 1.058.242 2.017.726 2.878a5.267 5.267 0 0 0 1.994 1.995c.846.468 1.798.702 2.856.702zM56.038 25.67h2.833v12.103h-2.833V25.671zm1.428-1.994c-.514 0-.945-.158-1.292-.476a1.628 1.628 0 0 1-.522-1.223c0-.484.174-.884.522-1.202.347-.332.778-.498 1.291-.498.514 0 .945.158 1.292.476.348.302.522.687.522 1.155 0 .5-.174.922-.522 1.27-.332.332-.763.498-1.291.498zM69.456 25.535c1.526 0 2.75.445 3.672 1.337.921.891 1.382 2.213 1.382 3.966v6.935h-2.833v-6.572c0-1.058-.249-1.851-.748-2.38-.498-.544-1.208-.816-2.13-.816-1.043 0-1.866.318-2.47.952-.605.62-.907 1.518-.907 2.697v6.12h-2.833V25.67h2.697v1.564a4.43 4.43 0 0 1 1.768-1.27c.71-.287 1.51-.43 2.402-.43zM79.01 37.932a1.83 1.83 0 0 1-1.314-.521c-.362-.363-.544-.816-.544-1.36 0-.56.174-1.012.522-1.36.362-.348.808-.521 1.337-.521.529 0 .967.173 1.314.521.363.348.544.8.544 1.36 0 .544-.181.997-.544 1.36a1.83 1.83 0 0 1-1.314.521zM84.544 37.932a1.83 1.83 0 0 1-1.315-.521c-.362-.363-.543-.816-.543-1.36 0-.56.173-1.012.52-1.36.363-.348.81-.521 1.338-.521.529 0 .967.173 1.314.521.363.348.544.8.544 1.36 0 .544-.181.997-.544 1.36a1.83 1.83 0 0 1-1.314.521zM90.077 37.932a1.83 1.83 0 0 1-1.314-.521c-.363-.363-.544-.816-.544-1.36 0-.56.173-1.012.52-1.36.364-.348.81-.521 1.338-.521.529 0 .967.173 1.315.521.362.348.544.8.544 1.36 0 .544-.182.997-.544 1.36a1.83 1.83 0 0 1-1.315.521z" fill="#000"/></svg>