<svg width="47" height="28" viewBox="0 0 47 28" fill="none" xmlns="http://www.w3.org/2000/svg"><g clip-path="url(#a)" fill-rule="evenodd" clip-rule="evenodd"><path d="M2.227 8.32h37.27v16.614c0 .587-.234 1.15-.651 1.565a2.233 2.233 0 0 1-1.575.648H2.227c-.59 0-1.157-.233-1.575-.648A2.207 2.207 0 0 1 0 24.934v-14.4c0-.587.235-1.15.652-1.565a2.233 2.233 0 0 1 1.575-.648z" fill="#E31724"/><path d="M22.513 12.453h.97v.963h-.97v-.963zM8.635 18.489l2.407-6.036h1.6l-3.698 8.664c-.543 1.27-1.255 1.833-2.572 1.884a5.392 5.392 0 0 1-2.001-.352v-1.214c1.249.364 1.412.407 1.858.398.608 0 1.123-.324 1.715-1.682l-3.565-7.698h1.547l2.71 6.036zM19.13 23h-1.335v-2.805a7.054 7.054 0 0 1-1.798.23c-1.872 0-2.984-.96-3.002-2.858v-2.296h1.33v2.35c0 1.154.571 1.657 1.672 1.657.607 0 1.211-.077 1.798-.23v-3.777h1.335v7.73zm5.316 0c-2.492 0-3.698-1.625-3.698-3.89 0-1.99 1.289-3.834 3.527-3.834 2.79 0 3.319 2.027 3.319 4.229h-5.617a2.393 2.393 0 0 0 .738 1.74 2.421 2.421 0 0 0 1.774.673 2.655 2.655 0 0 0 2.158-.964l.858.606c-.686.96-1.706 1.44-3.059 1.44zm-.171-6.68c-1.3 0-2.104 1.014-2.253 2.142h4.342c0-1.157-.786-2.143-2.09-2.143zm10.842.025h-2.607V23h-1.33v-6.655h-2.572v-1.074h6.495v1.068l.014.006zM24.868 12.46h.97v.964h-.97v-.964z" fill="#fff"/><path d="M44.129 6.315c.748-.99 1.109-2.694.526-5.536-7.358 1.137-5.78 5.09-5.077 6.326a25.325 25.325 0 0 1 3.807-4.581 27.87 27.87 0 0 0-2.532 4.464c.992-1.137 2.155-1.196 3.276-.673zm2.315 2.318c-3.224 3.615-4.954 1.615-5.597.529a8.621 8.621 0 0 1 3.11-.426 9.62 9.62 0 0 0-3.29-.412c.392-.935 2.004-3.695 5.777.31z" fill="#85BC22"/></g><defs><clipPath id="a"><path fill="#fff" transform="translate(0 .779)" d="M0 0h46.444v26.36H0z"/></clipPath></defs></svg>